<svg width="45" height="44" viewBox="0 0 45 44" fill="none" xmlns="http://www.w3.org/2000/svg">
<path d="M15.0176 25.2115V17.5537" stroke="white" stroke-width="2.73495" stroke-linecap="round" stroke-linejoin="round"/>
<path d="M15.2913 32.8696C17.2549 32.8696 18.8467 31.2778 18.8467 29.3142C18.8467 27.3506 17.2549 25.7588 15.2913 25.7588C13.3277 25.7588 11.7358 27.3506 11.7358 29.3142C11.7358 31.2778 13.3277 32.8696 15.2913 32.8696Z" stroke="white" stroke-width="2.73495" stroke-linecap="round" stroke-linejoin="round"/>
<path d="M15.0178 17.5551C16.8303 17.5551 18.2997 16.0857 18.2997 14.2731C18.2997 12.4606 16.8303 10.9912 15.0178 10.9912C13.2052 10.9912 11.7358 12.4606 11.7358 14.2731C11.7358 16.0857 13.2052 17.5551 15.0178 17.5551Z" stroke="white" stroke-width="2.73495" stroke-linecap="round" stroke-linejoin="round"/>
<path d="M30.3332 17.5551C32.1457 17.5551 33.6151 16.0857 33.6151 14.2731C33.6151 12.4606 32.1457 10.9912 30.3332 10.9912C28.5206 10.9912 27.0513 12.4606 27.0513 14.2731C27.0513 16.0857 28.5206 17.5551 30.3332 17.5551Z" stroke="white" stroke-width="2.73495" stroke-linecap="round" stroke-linejoin="round"/>
<path d="M15.1636 25.2119C15.6559 23.2974 17.4062 21.8753 19.4665 21.8935L23.2225 21.9117C26.0851 21.93 28.5284 20.0884 29.4218 17.5176" stroke="white" stroke-width="2.73495" stroke-linecap="round" stroke-linejoin="round"/>
<path d="M17.2055 3.69727H28.1453C37.2617 3.69727 40.9083 7.34386 40.9083 16.4603V27.4001C40.9083 36.5166 37.2617 40.1632 28.1453 40.1632H17.2055C8.08898 40.1632 4.44238 36.5166 4.44238 27.4001V16.4603C4.44238 7.34386 8.08898 3.69727 17.2055 3.69727Z" stroke="white" stroke-width="2.73495" stroke-linecap="round" stroke-linejoin="round"/>
</svg>
