<svg width="28" height="29" viewBox="0 0 28 29" fill="none" xmlns="http://www.w3.org/2000/svg">
<path d="M13.9127 28.1208C6.27631 28.1208 0.0635986 21.992 0.0635986 14.4588C0.0635986 6.92562 6.27631 0.796875 13.9127 0.796875C21.5491 0.796875 27.7618 6.92562 27.7618 14.4588C27.7618 21.992 21.5491 28.1208 13.9127 28.1208ZM13.9127 2.74862C7.36721 2.74862 2.04208 8.00177 2.04208 14.4588C2.04208 20.9159 7.36721 26.169 13.9127 26.169C20.4582 26.169 25.7833 20.9159 25.7833 14.4588C25.7833 8.00177 20.4582 2.74862 13.9127 2.74862Z" fill="white"/>
<path d="M11.0899 21.9727C11.0899 22.8902 11.1086 25.3494 11.1086 25.6064C11.096 25.7926 10.9972 26.0034 10.7615 26.0923C11.7497 26.3765 12.794 26.5318 13.8758 26.5318C14.9553 26.5318 15.9976 26.3772 16.9841 26.0941C16.7684 26.0035 16.6805 25.7975 16.6805 25.6064C16.6805 25.2393 16.6992 22.4682 16.6992 21.0001C16.6992 19.9725 16.344 19.3118 15.9326 18.9631C18.4381 18.6695 21.0557 17.7335 21.0557 13.5127C21.0557 12.3014 20.607 11.3288 19.8964 10.558C20.0273 10.2827 20.4199 9.16327 19.8029 7.6401C19.8029 7.6401 18.8681 7.34651 16.7179 8.77787C15.8205 8.52089 14.8668 8.39247 13.9133 8.39247C12.9598 8.41077 12.0061 8.53933 11.1087 8.77787C8.9585 7.34637 8.02368 7.6401 8.02368 7.6401C7.40671 9.14497 7.79933 10.2827 7.91151 10.558C7.18235 11.3288 6.7522 12.3197 6.7522 13.5127C6.7522 17.7335 9.36982 18.6878 11.8566 18.9631C11.5387 19.2384 11.2396 19.7155 11.1461 20.4312L11.0899 21.9727Z" fill="white"/>
<path d="M11.2202 21.8542C10.3792 21.965 9.45474 21.9059 9.20089 21.1967C9.19618 21.1836 9.19119 21.1705 9.18579 21.1576C9.18011 21.1441 8.59942 19.7963 7.78565 19.3948C7.37738 19.1936 6.88116 19.3566 6.67716 19.7593C6.47483 20.1582 6.63562 20.6428 7.03586 20.8474C7.19235 20.9554 7.52335 21.4658 7.65131 21.7627C7.91555 22.4809 8.63681 23.5288 10.5926 23.5288C10.7825 23.5288 10.9844 23.5185 11.1982 23.4976" fill="white"/>
</svg>
