<svg width="33" height="33" viewBox="0 0 33 33" fill="none" xmlns="http://www.w3.org/2000/svg">
<path d="M9.52087 14.0449V23.402" stroke="white" stroke-width="2.00509" stroke-linecap="round" stroke-linejoin="round"/>
<path d="M14.8701 18.0551V23.402M14.8701 18.0551C14.8701 15.8403 16.6655 14.0449 18.8803 14.0449C21.0951 14.0449 22.8905 15.8403 22.8905 18.0551V23.402M14.8701 18.0551V14.0449" stroke="white" stroke-width="2.00509" stroke-linecap="round" stroke-linejoin="round"/>
<path d="M9.5318 10.0352H9.52087" stroke="white" stroke-width="2.67345" stroke-linecap="round" stroke-linejoin="round"/>
<path d="M3.50757 16.7184C3.50757 10.7321 3.50757 7.73895 5.36727 5.87923C7.22699 4.01953 10.2201 4.01953 16.2065 4.01953C22.1927 4.01953 25.1859 4.01953 27.0457 5.87923C28.9054 7.73895 28.9054 10.7321 28.9054 16.7184C28.9054 22.7047 28.9054 25.6978 27.0457 27.5576C25.1859 29.4173 22.1927 29.4173 16.2065 29.4173C10.2201 29.4173 7.22699 29.4173 5.36727 27.5576C3.50757 25.6978 3.50757 22.7047 3.50757 16.7184Z" stroke="white" stroke-width="2.00509" stroke-linejoin="round"/>
</svg>
