<svg width="47" height="46" viewBox="0 0 47 46" fill="none" xmlns="http://www.w3.org/2000/svg">
<path d="M13.7593 19.1533V32.4474" stroke="white" stroke-width="2.84873" stroke-linecap="round" stroke-linejoin="round"/>
<path d="M21.3594 24.8508V32.4474M21.3594 24.8508C21.3594 21.7041 23.9101 19.1533 27.0568 19.1533C30.2035 19.1533 32.7543 21.7041 32.7543 24.8508V32.4474M21.3594 24.8508V19.1533" stroke="white" stroke-width="2.84873" stroke-linecap="round" stroke-linejoin="round"/>
<path d="M13.7748 13.4561H13.7593" stroke="white" stroke-width="3.79831" stroke-linecap="round" stroke-linejoin="round"/>
<path d="M5.21582 22.9511C5.21582 14.4461 5.21582 10.1936 7.858 7.55136C10.5002 4.90918 14.7527 4.90918 23.2578 4.90918C31.7628 4.90918 36.0154 4.90918 38.6577 7.55136C41.2998 10.1936 41.2998 14.4461 41.2998 22.9511C41.2998 31.4561 41.2998 35.7087 38.6577 38.351C36.0154 40.9931 31.7628 40.9931 23.2578 40.9931C14.7527 40.9931 10.5002 40.9931 7.858 38.351C5.21582 35.7087 5.21582 31.4561 5.21582 22.9511Z" stroke="white" stroke-width="2.84873" stroke-linejoin="round"/>
</svg>
