<svg width="80" height="81" viewBox="0 0 80 81" fill="none" xmlns="http://www.w3.org/2000/svg">
<g filter="url(#filter0_d_1094_6260)">
<g clip-path="url(#clip0_1094_6260)">
<rect x="11.5" y="11.5" width="57" height="57" rx="28.5" fill="url(#paint0_linear_1094_6260)"/>
<g opacity="0.5" filter="url(#filter1_i_1094_6260)">
<path d="M37.8655 49.8853C36.3489 50.6405 35.1049 49.9558 34.3298 48.3993C33.5547 46.8428 34.1558 44.9687 35.6724 44.2135C37.189 43.4582 38.8663 44.1075 39.6414 45.664C40.4165 47.2206 39.3821 49.13 37.8655 49.8853Z" fill="#C0B1E2"/>
</g>
<g opacity="0.7" filter="url(#filter2_i_1094_6260)">
<path d="M37.9034 48.6937C36.9456 49.1707 35.4933 48.9249 35.0163 47.967C34.5393 47.0091 35.1825 45.4492 36.1404 44.9722C37.0983 44.4952 38.2971 45.1378 38.7741 46.0957C39.2511 47.0536 38.8613 48.2167 37.9034 48.6937Z" fill="#A896D3"/>
</g>
<g opacity="0.5" filter="url(#filter3_i_1094_6260)">
<path d="M42.7647 65.9449C41.3683 66.6402 39.029 65.2519 38.3336 63.8555C37.6383 62.4592 38.5759 60.1852 39.9723 59.4898C41.3686 58.7944 43.1163 59.7312 43.8117 61.1276C44.5071 62.5239 44.161 65.2495 42.7647 65.9449Z" fill="#A896D3"/>
</g>
<g opacity="0.6" filter="url(#filter4_i_1094_6260)">
<path d="M11.559 73.9926C13.2381 74.8288 16.0512 73.1593 16.8874 71.4802C17.7236 69.801 16.596 67.0664 14.9169 66.2303C13.2377 65.3941 11.1361 66.5206 10.2999 68.1997C9.46369 69.8789 9.87981 73.1565 11.559 73.9926Z" fill="#C0B1E2"/>
</g>
<g opacity="0.7" filter="url(#filter5_i_1094_6260)">
<path d="M12.5212 72.6219C13.7366 73.2271 15.7728 72.0187 16.378 70.8033C16.9833 69.5879 16.1671 67.6086 14.9518 67.0034C13.7364 66.3981 12.2151 67.2135 11.6099 68.4289C11.0047 69.6443 11.3058 72.0166 12.5212 72.6219Z" fill="#A896D3"/>
</g>
<g opacity="0.5" filter="url(#filter6_i_1094_6260)">
<path d="M55.9489 34.1959C53.7779 36.2406 52.3616 34.9468 50.2631 32.7187C48.1646 30.4905 47.195 27.8001 49.366 25.7554C51.537 23.7107 54.6938 23.9509 56.7923 26.179C58.8908 28.4072 58.1199 32.1512 55.9489 34.1959Z" fill="#C0B1E2"/>
</g>
<g opacity="0.7" filter="url(#filter7_i_1094_6260)">
<path d="M55.4065 32.1687C54.0353 33.4601 52.3941 32.9083 51.1027 31.5371C49.8113 30.1659 49.17 28.0869 50.5411 26.7955C51.9123 25.5041 54.2596 25.9766 55.5509 27.3478C56.8423 28.7189 56.7776 30.8773 55.4065 32.1687Z" fill="#C0B1E2"/>
</g>
<g opacity="0.5" filter="url(#filter8_i_1094_6260)">
<path d="M57.7093 70.0525C54.7626 70.2492 54.4942 68.3687 54.2923 65.3445C54.0905 62.3204 55.0425 59.6533 57.9892 59.4566C60.9358 59.2599 63.198 61.4303 63.3999 64.4545C63.6017 67.4787 60.6559 69.8558 57.7093 70.0525Z" fill="#E6D7FF"/>
</g>
<g opacity="0.7" filter="url(#filter9_i_1094_6260)">
<path d="M58.5702 68.1609C56.7092 68.2852 55.8018 66.8304 55.6776 64.9693C55.5534 63.1083 56.3716 61.1152 58.2326 60.991C60.0937 60.8667 61.5907 62.7053 61.715 64.5663C61.8392 66.4273 60.4313 68.0367 58.5702 68.1609Z" fill="#C0B1E2"/>
</g>
<g opacity="0.7" filter="url(#filter10_i_1094_6260)">
<path d="M22.9549 56.6335C22.2949 57.2551 21.505 56.9895 20.8834 56.3295C20.2619 55.6695 19.9532 54.6688 20.6131 54.0473C21.2731 53.4257 22.4029 53.6531 23.0244 54.3131C23.646 54.9731 23.6148 56.0119 22.9549 56.6335Z" fill="#A896D3"/>
</g>
<g opacity="0.7" filter="url(#filter11_i_1094_6260)">
<path d="M66.5712 44.7479C65.1318 45.3566 64.0145 44.4536 63.4057 43.0142C62.797 41.5749 62.8982 39.7725 64.3376 39.1637C65.777 38.555 67.4665 39.6 68.0752 41.0394C68.684 42.4788 68.0106 44.1391 66.5712 44.7479Z" fill="#E6D7FF"/>
</g>
<g opacity="0.7" filter="url(#filter12_i_1094_6260)">
<path d="M69.4213 36.1971C67.9819 36.8058 66.8646 35.9028 66.2558 34.4635C65.6471 33.0241 65.7483 31.2217 67.1877 30.6129C68.6271 30.0042 70.3166 31.0493 70.9253 32.4886C71.534 33.928 70.8607 35.5883 69.4213 36.1971Z" fill="#E6D7FF"/>
</g>
<g opacity="0.5" filter="url(#filter13_i_1094_6260)">
<path d="M22.8543 34.5895C21.2007 36.6928 21.861 38.8358 24.0198 40.533C26.1785 42.2302 29.269 41.9009 30.9227 39.7975C32.5763 37.6941 32.1095 34.8924 29.9508 33.1953C27.7921 31.4981 24.508 32.4861 22.8543 34.5895Z" fill="#C0B1E2"/>
</g>
<g opacity="0.7" filter="url(#filter14_i_1094_6260)">
<path d="M24.709 34.9122C23.6645 36.2407 23.5796 38.5652 24.9081 39.6096C26.2365 40.654 28.8547 40.159 29.8992 38.8305C30.9436 37.5021 30.3338 35.4423 29.0054 34.3979C27.6769 33.3535 25.7534 33.5838 24.709 34.9122Z" fill="#A896D3"/>
</g>
<g opacity="0.7" filter="url(#filter15_i_1094_6260)">
<path d="M13.8798 37.7242C13.5583 38.1331 13.5322 38.8485 13.9411 39.17C14.35 39.4915 15.1559 39.3391 15.4773 38.9302C15.7988 38.5213 15.6111 37.8873 15.2022 37.5659C14.7933 37.2444 14.2013 37.3153 13.8798 37.7242Z" fill="#A896D3"/>
</g>
<g opacity="0.7" filter="url(#filter16_i_1094_6260)">
<path d="M26.4773 25.1291C26.1701 25.5198 26.1452 26.2034 26.5359 26.5106C26.9266 26.8178 27.6967 26.6722 28.0038 26.2815C28.311 25.8908 28.1317 25.285 27.741 24.9778C27.3502 24.6706 26.7845 24.7383 26.4773 25.1291Z" fill="#C0B1E2"/>
</g>
<g opacity="0.7" filter="url(#filter17_i_1094_6260)">
<path d="M15.0772 14.6798C14.77 15.0706 14.745 15.7542 15.1357 16.0614C15.5264 16.3686 16.2965 16.223 16.6037 15.8323C16.9109 15.4416 16.7315 14.8358 16.3408 14.5286C15.9501 14.2214 15.3843 14.2891 15.0772 14.6798Z" fill="#A896D3"/>
</g>
<g opacity="0.7" filter="url(#filter18_i_1094_6260)">
<path d="M62.9519 68.5607C62.6447 68.9514 62.6198 69.6351 63.0105 69.9423C63.4012 70.2494 64.1713 70.1039 64.4785 69.7131C64.7856 69.3224 64.6063 68.7166 64.2156 68.4094C63.8249 68.1023 63.2591 68.17 62.9519 68.5607Z" fill="#C0B1E2"/>
</g>
<g opacity="0.7" filter="url(#filter19_i_1094_6260)">
<path d="M64.8518 57.1623C64.5446 57.553 64.5197 58.2367 64.9104 58.5438C65.3011 58.851 66.0712 58.7054 66.3784 58.3147C66.6855 57.924 66.5062 57.3182 66.1155 57.011C65.7248 56.7038 65.159 56.7715 64.8518 57.1623Z" fill="#C0B1E2"/>
</g>
<g opacity="0.7" filter="url(#filter20_i_1094_6260)">
<path d="M25.0769 68.5959C24.7697 68.9866 24.7448 69.6702 25.1355 69.9774C25.5262 70.2846 26.2963 70.139 26.6035 69.7483C26.9106 69.3576 26.7313 68.7518 26.3406 68.4446C25.9499 68.1374 25.3841 68.2051 25.0769 68.5959Z" fill="#A896D3"/>
</g>
<g opacity="0.8">
<g opacity="0.5" filter="url(#filter21_i_1094_6260)">
<path d="M50.2693 42.9984C46.4496 44.8707 45.9173 48.3959 47.8388 52.316C49.7603 56.2362 54.4144 57.8963 58.2341 56.0241C62.0537 54.1518 63.3176 49.8166 61.3961 45.8964C59.4746 41.9763 54.0889 41.1262 50.2693 42.9984Z" fill="#E6D7FF"/>
</g>
<g opacity="0.7" filter="url(#filter22_i_1094_6260)">
<path d="M52.7031 44.7398C50.2907 45.9223 48.5656 49.1934 49.7481 51.6058C50.9306 54.0182 55.0224 55.1152 57.4348 53.9327C59.8472 52.7502 60.3946 49.3792 59.2122 46.9668C58.0297 44.5544 55.1155 43.5574 52.7031 44.7398Z" fill="#C0B1E2"/>
</g>
<g opacity="0.7" filter="url(#filter23_i_1094_6260)">
<path d="M52.2812 47.0389C50.9364 47.6981 49.9748 49.5214 50.634 50.8662C51.2931 52.2109 53.574 52.8224 54.9188 52.1633C56.2635 51.5041 56.5687 49.625 55.9095 48.2803C55.2504 46.9356 53.6259 46.3798 52.2812 47.0389Z" fill="#A896D3"/>
</g>
<g opacity="0.7" filter="url(#filter24_i_1094_6260)">
<path d="M47.1703 36.731C46.2922 37.1614 45.6644 38.3519 46.0947 39.23C46.5251 40.108 48.0144 40.5073 48.8924 40.0769C49.7705 39.6465 49.9697 38.4196 49.5393 37.5415C49.109 36.6635 48.0483 36.3006 47.1703 36.731Z" fill="#C0B1E2"/>
</g>
</g>
<g opacity="0.8">
<g opacity="0.5" filter="url(#filter25_i_1094_6260)">
<path d="M43.7705 10.0271C43.3624 5.49289 40.0435 3.61071 35.39 4.0295C30.7365 4.44828 27.2948 8.46345 27.7029 12.9976C28.1109 17.5318 31.9592 20.4553 36.6127 20.0366C41.2662 19.6178 44.1785 14.5613 43.7705 10.0271Z" fill="#E6D7FF"/>
</g>
<g opacity="0.7" filter="url(#filter26_i_1094_6260)">
<path d="M41.098 11.792C40.8403 8.92829 38.2321 5.95153 35.3684 6.20924C32.5047 6.46696 29.8412 10.1359 30.099 12.9996C30.3567 15.8633 33.5158 17.7015 36.3795 17.4438C39.2432 17.1861 41.3557 14.6557 41.098 11.792Z" fill="#C0B1E2"/>
</g>
<g opacity="0.7" filter="url(#filter27_i_1094_6260)">
<path d="M38.9618 10.4905C38.8181 8.89417 37.3642 7.23484 35.7679 7.37849C34.1716 7.52215 32.6869 9.56734 32.8306 11.1637C32.9742 12.76 34.7352 13.7846 36.3315 13.641C37.9278 13.4973 39.1054 12.0868 38.9618 10.4905Z" fill="#A896D3"/>
</g>
</g>
<g opacity="0.8">
<g opacity="0.5" filter="url(#filter28_i_1094_6260)">
<path d="M20.9218 21.346C18.5061 20.4406 16.7296 21.6732 15.8004 24.1524C14.8712 26.6317 16.0762 29.3755 18.4919 30.2809C20.9076 31.1863 23.3459 29.9392 24.2751 27.46C25.2043 24.9807 23.3375 22.2514 20.9218 21.346Z" fill="#E6D7FF"/>
</g>
<g opacity="0.7" filter="url(#filter29_i_1094_6260)">
<path d="M21.1667 23.145C19.6409 22.5732 17.4801 23.1739 16.9083 24.6996C16.3365 26.2253 17.5559 28.4867 19.0816 29.0585C20.6073 29.6304 22.322 28.4686 22.8938 26.9429C23.4656 25.4172 22.6924 23.7168 21.1667 23.145Z" fill="#C0B1E2"/>
</g>
<g opacity="0.7" filter="url(#filter30_i_1094_6260)">
<path d="M19.9768 23.9161C19.1263 23.5974 17.9218 23.9322 17.6031 24.7827C17.2843 25.6332 17.964 26.8938 18.8145 27.2125C19.665 27.5313 20.6208 26.8837 20.9396 26.0332C21.2583 25.1827 20.8273 24.2349 19.9768 23.9161Z" fill="#A896D3"/>
</g>
</g>
<g opacity="0.5" filter="url(#filter31_i_1094_6260)">
<path d="M5.63161 48.0781C5.87882 50.9442 7.97166 52.1414 10.9132 51.8877C13.8547 51.6339 16.0389 49.1048 15.7917 46.2387C15.5445 43.3726 13.1197 41.5162 10.1781 41.7699C7.23657 42.0236 5.38441 45.212 5.63161 48.0781Z" fill="#E6D7FF"/>
</g>
<g opacity="0.7" filter="url(#filter32_i_1094_6260)">
<path d="M7.32435 46.9682C7.48048 48.7784 9.1216 50.6655 10.9318 50.5094C12.742 50.3533 14.4336 48.0411 14.2775 46.2309C14.1214 44.4207 12.1294 43.2518 10.3193 43.4079C8.50909 43.564 7.16821 45.158 7.32435 46.9682Z" fill="#C0B1E2"/>
</g>
<g opacity="0.5" filter="url(#filter33_i_1094_6260)">
<path d="M49.3135 12.3608C47.5385 14.6184 48.2473 16.9186 50.5644 18.7403C52.8815 20.5619 56.1987 20.2085 57.9736 17.9508C59.7486 15.6932 59.2475 12.686 56.9305 10.8643C54.6134 9.04265 51.0884 10.1031 49.3135 12.3608Z" fill="#C0B1E2"/>
</g>
<g opacity="0.7" filter="url(#filter34_i_1094_6260)">
<path d="M51.304 12.708C50.1829 14.1339 50.0918 16.6288 51.5177 17.7499C52.9436 18.8709 55.7538 18.3396 56.8749 16.9137C57.9959 15.4878 57.3414 13.277 55.9155 12.1559C54.4896 11.0349 52.425 11.2821 51.304 12.708Z" fill="#A896D3"/>
</g>
<circle cx="34.0751" cy="52.8112" r="0.688176" fill="#A896D3"/>
<circle cx="34.0751" cy="32.5104" r="0.688176" fill="#C0B1E2"/>
<circle cx="25.9516" cy="46.9948" r="0.688176" fill="#A896D3"/>
<circle cx="32.6989" cy="28.4948" r="0.688176" fill="#C0B1E2"/>
<circle cx="31.7812" cy="63.5944" r="0.688176" fill="#A896D3"/>
<circle cx="51.2795" cy="67.9519" r="0.688176" fill="#A896D3"/>
<circle cx="45.5446" cy="50.7468" r="0.688176" fill="#C0B1E2"/>
<circle cx="42.1362" cy="24.4343" r="0.688176" fill="#C0B1E2"/>
<circle cx="35.4514" cy="30.3308" r="0.688176" fill="#C0B1E2"/>
<circle cx="20.3117" cy="36.9831" r="0.688176" fill="#A896D3"/>
<circle cx="63.0739" cy="18.7253" r="0.688176" fill="#A896D3"/>
<g filter="url(#filter35_f_1094_6260)">
<path d="M32.9951 1.78694C12.1846 29.3511 30.9247 68.9413 65.435 70.3193L76.4998 70.7611L-21.1799 70.3452L32.9951 1.78694Z" fill="url(#paint1_linear_1094_6260)" fill-opacity="0.4"/>
</g>
<g opacity="0.2" filter="url(#filter36_f_1094_6260)">
<path d="M34.2499 80.241C61.7316 59.3217 54.3806 16.1414 21.5249 5.49403L10.9906 2.08024L104.928 28.8623L34.2499 80.241Z" fill="white"/>
</g>
</g>
</g>
<defs>
<filter id="filter0_d_1094_6260" x="0.1" y="0.48" width="79.8" height="79.8" filterUnits="userSpaceOnUse" color-interpolation-filters="sRGB">
<feFlood flood-opacity="0" result="BackgroundImageFix"/>
<feColorMatrix in="SourceAlpha" type="matrix" values="0 0 0 0 0 0 0 0 0 0 0 0 0 0 0 0 0 0 127 0" result="hardAlpha"/>
<feMorphology radius="1.9" operator="dilate" in="SourceAlpha" result="effect1_dropShadow_1094_6260"/>
<feOffset dy="0.38"/>
<feGaussianBlur stdDeviation="4.75"/>
<feComposite in2="hardAlpha" operator="out"/>
<feColorMatrix type="matrix" values="0 0 0 0 0.651 0 0 0 0 0.561337 0 0 0 0 0.904167 0 0 0 0.3 0"/>
<feBlend mode="normal" in2="BackgroundImageFix" result="effect1_dropShadow_1094_6260"/>
<feBlend mode="normal" in="SourceGraphic" in2="effect1_dropShadow_1094_6260" result="shape"/>
</filter>
<filter id="filter1_i_1094_6260" x="33.9912" y="43.8984" width="5.91406" height="6.64301" filterUnits="userSpaceOnUse" color-interpolation-filters="sRGB">
<feFlood flood-opacity="0" result="BackgroundImageFix"/>
<feBlend mode="normal" in="SourceGraphic" in2="BackgroundImageFix" result="shape"/>
<feColorMatrix in="SourceAlpha" type="matrix" values="0 0 0 0 0 0 0 0 0 0 0 0 0 0 0 0 0 0 127 0" result="hardAlpha"/>
<feOffset dy="0.348088"/>
<feGaussianBlur stdDeviation="0.348088"/>
<feComposite in2="hardAlpha" operator="arithmetic" k2="-1" k3="1"/>
<feColorMatrix type="matrix" values="0 0 0 0 0.356863 0 0 0 0 0.262745 0 0 0 0 0.623529 0 0 0 0.5 0"/>
<feBlend mode="normal" in2="shape" result="effect1_innerShadow_1094_6260"/>
</filter>
<filter id="filter2_i_1094_6260" x="34.8552" y="44.8105" width="4.12256" height="4.46723" filterUnits="userSpaceOnUse" color-interpolation-filters="sRGB">
<feFlood flood-opacity="0" result="BackgroundImageFix"/>
<feBlend mode="normal" in="SourceGraphic" in2="BackgroundImageFix" result="shape"/>
<feColorMatrix in="SourceAlpha" type="matrix" values="0 0 0 0 0 0 0 0 0 0 0 0 0 0 0 0 0 0 127 0" result="hardAlpha"/>
<feOffset dy="0.348088"/>
<feGaussianBlur stdDeviation="0.348088"/>
<feComposite in2="hardAlpha" operator="arithmetic" k2="-1" k3="1"/>
<feColorMatrix type="matrix" values="0 0 0 0 0.356863 0 0 0 0 0.262745 0 0 0 0 0.623529 0 0 0 0.5 0"/>
<feBlend mode="normal" in2="shape" result="effect1_innerShadow_1094_6260"/>
</filter>
<filter id="filter3_i_1094_6260" x="38.0986" y="59.2539" width="6.06104" height="7.22504" filterUnits="userSpaceOnUse" color-interpolation-filters="sRGB">
<feFlood flood-opacity="0" result="BackgroundImageFix"/>
<feBlend mode="normal" in="SourceGraphic" in2="BackgroundImageFix" result="shape"/>
<feColorMatrix in="SourceAlpha" type="matrix" values="0 0 0 0 0 0 0 0 0 0 0 0 0 0 0 0 0 0 127 0" result="hardAlpha"/>
<feOffset dy="0.348088"/>
<feGaussianBlur stdDeviation="0.348088"/>
<feComposite in2="hardAlpha" operator="arithmetic" k2="-1" k3="1"/>
<feColorMatrix type="matrix" values="0 0 0 0 0.356863 0 0 0 0 0.262745 0 0 0 0 0.623529 0 0 0 0.5 0"/>
<feBlend mode="normal" in2="shape" result="effect1_innerShadow_1094_6260"/>
</filter>
<filter id="filter4_i_1094_6260" x="9.88159" y="65.9473" width="7.28833" height="8.61567" filterUnits="userSpaceOnUse" color-interpolation-filters="sRGB">
<feFlood flood-opacity="0" result="BackgroundImageFix"/>
<feBlend mode="normal" in="SourceGraphic" in2="BackgroundImageFix" result="shape"/>
<feColorMatrix in="SourceAlpha" type="matrix" values="0 0 0 0 0 0 0 0 0 0 0 0 0 0 0 0 0 0 127 0" result="hardAlpha"/>
<feOffset dy="0.348088"/>
<feGaussianBlur stdDeviation="0.348088"/>
<feComposite in2="hardAlpha" operator="arithmetic" k2="-1" k3="1"/>
<feColorMatrix type="matrix" values="0 0 0 0 0.356863 0 0 0 0 0.262745 0 0 0 0 0.623529 0 0 0 0.5 0"/>
<feBlend mode="normal" in2="shape" result="effect1_innerShadow_1094_6260"/>
</filter>
<filter id="filter5_i_1094_6260" x="11.3071" y="66.7988" width="5.27539" height="6.33246" filterUnits="userSpaceOnUse" color-interpolation-filters="sRGB">
<feFlood flood-opacity="0" result="BackgroundImageFix"/>
<feBlend mode="normal" in="SourceGraphic" in2="BackgroundImageFix" result="shape"/>
<feColorMatrix in="SourceAlpha" type="matrix" values="0 0 0 0 0 0 0 0 0 0 0 0 0 0 0 0 0 0 127 0" result="hardAlpha"/>
<feOffset dy="0.348088"/>
<feGaussianBlur stdDeviation="0.348088"/>
<feComposite in2="hardAlpha" operator="arithmetic" k2="-1" k3="1"/>
<feColorMatrix type="matrix" values="0 0 0 0 0.356863 0 0 0 0 0.262745 0 0 0 0 0.623529 0 0 0 0.5 0"/>
<feBlend mode="normal" in2="shape" result="effect1_innerShadow_1094_6260"/>
</filter>
<filter id="filter6_i_1094_6260" x="48.1394" y="24.3555" width="9.88818" height="11.2114" filterUnits="userSpaceOnUse" color-interpolation-filters="sRGB">
<feFlood flood-opacity="0" result="BackgroundImageFix"/>
<feBlend mode="normal" in="SourceGraphic" in2="BackgroundImageFix" result="shape"/>
<feColorMatrix in="SourceAlpha" type="matrix" values="0 0 0 0 0 0 0 0 0 0 0 0 0 0 0 0 0 0 127 0" result="hardAlpha"/>
<feOffset dy="0.348088"/>
<feGaussianBlur stdDeviation="0.348088"/>
<feComposite in2="hardAlpha" operator="arithmetic" k2="-1" k3="1"/>
<feColorMatrix type="matrix" values="0 0 0 0 0.356863 0 0 0 0 0.262745 0 0 0 0 0.623529 0 0 0 0.5 0"/>
<feBlend mode="normal" in2="shape" result="effect1_innerShadow_1094_6260"/>
</filter>
<filter id="filter7_i_1094_6260" x="49.7744" y="26.0371" width="6.70435" height="7.20942" filterUnits="userSpaceOnUse" color-interpolation-filters="sRGB">
<feFlood flood-opacity="0" result="BackgroundImageFix"/>
<feBlend mode="normal" in="SourceGraphic" in2="BackgroundImageFix" result="shape"/>
<feColorMatrix in="SourceAlpha" type="matrix" values="0 0 0 0 0 0 0 0 0 0 0 0 0 0 0 0 0 0 127 0" result="hardAlpha"/>
<feOffset dy="0.348088"/>
<feGaussianBlur stdDeviation="0.348088"/>
<feComposite in2="hardAlpha" operator="arithmetic" k2="-1" k3="1"/>
<feColorMatrix type="matrix" values="0 0 0 0 0.356863 0 0 0 0 0.262745 0 0 0 0 0.623529 0 0 0 0.5 0"/>
<feBlend mode="normal" in2="shape" result="effect1_innerShadow_1094_6260"/>
</filter>
<filter id="filter8_i_1094_6260" x="54.2664" y="59.4434" width="9.14331" height="10.9711" filterUnits="userSpaceOnUse" color-interpolation-filters="sRGB">
<feFlood flood-opacity="0" result="BackgroundImageFix"/>
<feBlend mode="normal" in="SourceGraphic" in2="BackgroundImageFix" result="shape"/>
<feColorMatrix in="SourceAlpha" type="matrix" values="0 0 0 0 0 0 0 0 0 0 0 0 0 0 0 0 0 0 127 0" result="hardAlpha"/>
<feOffset dy="0.348088"/>
<feGaussianBlur stdDeviation="0.348088"/>
<feComposite in2="hardAlpha" operator="arithmetic" k2="-1" k3="1"/>
<feColorMatrix type="matrix" values="0 0 0 0 0.356863 0 0 0 0 0.262745 0 0 0 0 0.623529 0 0 0 0.5 0"/>
<feBlend mode="normal" in2="shape" result="effect1_innerShadow_1094_6260"/>
</filter>
<filter id="filter9_i_1094_6260" x="55.6653" y="60.9844" width="6.05737" height="7.53168" filterUnits="userSpaceOnUse" color-interpolation-filters="sRGB">
<feFlood flood-opacity="0" result="BackgroundImageFix"/>
<feBlend mode="normal" in="SourceGraphic" in2="BackgroundImageFix" result="shape"/>
<feColorMatrix in="SourceAlpha" type="matrix" values="0 0 0 0 0 0 0 0 0 0 0 0 0 0 0 0 0 0 127 0" result="hardAlpha"/>
<feOffset dy="0.348088"/>
<feGaussianBlur stdDeviation="0.348088"/>
<feComposite in2="hardAlpha" operator="arithmetic" k2="-1" k3="1"/>
<feColorMatrix type="matrix" values="0 0 0 0 0.356863 0 0 0 0 0.262745 0 0 0 0 0.623529 0 0 0 0.5 0"/>
<feBlend mode="normal" in2="shape" result="effect1_innerShadow_1094_6260"/>
</filter>
<filter id="filter10_i_1094_6260" x="20.2441" y="53.6816" width="3.22681" height="3.65082" filterUnits="userSpaceOnUse" color-interpolation-filters="sRGB">
<feFlood flood-opacity="0" result="BackgroundImageFix"/>
<feBlend mode="normal" in="SourceGraphic" in2="BackgroundImageFix" result="shape"/>
<feColorMatrix in="SourceAlpha" type="matrix" values="0 0 0 0 0 0 0 0 0 0 0 0 0 0 0 0 0 0 127 0" result="hardAlpha"/>
<feOffset dy="0.348088"/>
<feGaussianBlur stdDeviation="0.348088"/>
<feComposite in2="hardAlpha" operator="arithmetic" k2="-1" k3="1"/>
<feColorMatrix type="matrix" values="0 0 0 0 0.356863 0 0 0 0 0.262745 0 0 0 0 0.623529 0 0 0 0.5 0"/>
<feBlend mode="normal" in2="shape" result="effect1_innerShadow_1094_6260"/>
</filter>
<filter id="filter11_i_1094_6260" x="63.0535" y="38.9863" width="5.24585" height="6.30317" filterUnits="userSpaceOnUse" color-interpolation-filters="sRGB">
<feFlood flood-opacity="0" result="BackgroundImageFix"/>
<feBlend mode="normal" in="SourceGraphic" in2="BackgroundImageFix" result="shape"/>
<feColorMatrix in="SourceAlpha" type="matrix" values="0 0 0 0 0 0 0 0 0 0 0 0 0 0 0 0 0 0 127 0" result="hardAlpha"/>
<feOffset dy="0.348088"/>
<feGaussianBlur stdDeviation="0.348088"/>
<feComposite in2="hardAlpha" operator="arithmetic" k2="-1" k3="1"/>
<feColorMatrix type="matrix" values="0 0 0 0 0.356863 0 0 0 0 0.262745 0 0 0 0 0.623529 0 0 0 0.5 0"/>
<feBlend mode="normal" in2="shape" result="effect1_innerShadow_1094_6260"/>
</filter>
<filter id="filter12_i_1094_6260" x="65.9036" y="30.4355" width="5.24585" height="6.30317" filterUnits="userSpaceOnUse" color-interpolation-filters="sRGB">
<feFlood flood-opacity="0" result="BackgroundImageFix"/>
<feBlend mode="normal" in="SourceGraphic" in2="BackgroundImageFix" result="shape"/>
<feColorMatrix in="SourceAlpha" type="matrix" values="0 0 0 0 0 0 0 0 0 0 0 0 0 0 0 0 0 0 127 0" result="hardAlpha"/>
<feOffset dy="0.348088"/>
<feGaussianBlur stdDeviation="0.348088"/>
<feComposite in2="hardAlpha" operator="arithmetic" k2="-1" k3="1"/>
<feColorMatrix type="matrix" values="0 0 0 0 0.356863 0 0 0 0 0.262745 0 0 0 0 0.623529 0 0 0 0.5 0"/>
<feBlend mode="normal" in2="shape" result="effect1_innerShadow_1094_6260"/>
</filter>
<filter id="filter13_i_1094_6260" x="21.9268" y="32.332" width="9.99023" height="9.6352" filterUnits="userSpaceOnUse" color-interpolation-filters="sRGB">
<feFlood flood-opacity="0" result="BackgroundImageFix"/>
<feBlend mode="normal" in="SourceGraphic" in2="BackgroundImageFix" result="shape"/>
<feColorMatrix in="SourceAlpha" type="matrix" values="0 0 0 0 0 0 0 0 0 0 0 0 0 0 0 0 0 0 127 0" result="hardAlpha"/>
<feOffset dy="0.348088"/>
<feGaussianBlur stdDeviation="0.348088"/>
<feComposite in2="hardAlpha" operator="arithmetic" k2="-1" k3="1"/>
<feColorMatrix type="matrix" values="0 0 0 0 0.356863 0 0 0 0 0.262745 0 0 0 0 0.623529 0 0 0 0.5 0"/>
<feBlend mode="normal" in2="shape" result="effect1_innerShadow_1094_6260"/>
</filter>
<filter id="filter14_i_1094_6260" x="23.9182" y="33.7441" width="6.50977" height="6.77582" filterUnits="userSpaceOnUse" color-interpolation-filters="sRGB">
<feFlood flood-opacity="0" result="BackgroundImageFix"/>
<feBlend mode="normal" in="SourceGraphic" in2="BackgroundImageFix" result="shape"/>
<feColorMatrix in="SourceAlpha" type="matrix" values="0 0 0 0 0 0 0 0 0 0 0 0 0 0 0 0 0 0 127 0" result="hardAlpha"/>
<feOffset dy="0.348088"/>
<feGaussianBlur stdDeviation="0.348088"/>
<feComposite in2="hardAlpha" operator="arithmetic" k2="-1" k3="1"/>
<feColorMatrix type="matrix" values="0 0 0 0 0.356863 0 0 0 0 0.262745 0 0 0 0 0.623529 0 0 0 0.5 0"/>
<feBlend mode="normal" in2="shape" result="effect1_innerShadow_1094_6260"/>
</filter>
<filter id="filter15_i_1094_6260" x="13.6365" y="37.3652" width="2.00366" height="2.13548" filterUnits="userSpaceOnUse" color-interpolation-filters="sRGB">
<feFlood flood-opacity="0" result="BackgroundImageFix"/>
<feBlend mode="normal" in="SourceGraphic" in2="BackgroundImageFix" result="shape"/>
<feColorMatrix in="SourceAlpha" type="matrix" values="0 0 0 0 0 0 0 0 0 0 0 0 0 0 0 0 0 0 127 0" result="hardAlpha"/>
<feOffset dy="0.156963"/>
<feGaussianBlur stdDeviation="0.156963"/>
<feComposite in2="hardAlpha" operator="arithmetic" k2="-1" k3="1"/>
<feColorMatrix type="matrix" values="0 0 0 0 0.403922 0 0 0 0 0.309804 0 0 0 0 0.0156863 0 0 0 0.25 0"/>
<feBlend mode="normal" in2="shape" result="effect1_innerShadow_1094_6260"/>
</filter>
<filter id="filter16_i_1094_6260" x="26.2446" y="24.7852" width="1.91479" height="2.23871" filterUnits="userSpaceOnUse" color-interpolation-filters="sRGB">
<feFlood flood-opacity="0" result="BackgroundImageFix"/>
<feBlend mode="normal" in="SourceGraphic" in2="BackgroundImageFix" result="shape"/>
<feColorMatrix in="SourceAlpha" type="matrix" values="0 0 0 0 0 0 0 0 0 0 0 0 0 0 0 0 0 0 127 0" result="hardAlpha"/>
<feOffset dy="0.348088"/>
<feGaussianBlur stdDeviation="0.348088"/>
<feComposite in2="hardAlpha" operator="arithmetic" k2="-1" k3="1"/>
<feColorMatrix type="matrix" values="0 0 0 0 0.356863 0 0 0 0 0.262745 0 0 0 0 0.623529 0 0 0 0.5 0"/>
<feBlend mode="normal" in2="shape" result="effect1_innerShadow_1094_6260"/>
</filter>
<filter id="filter17_i_1094_6260" x="14.8445" y="14.3359" width="1.91479" height="2.23871" filterUnits="userSpaceOnUse" color-interpolation-filters="sRGB">
<feFlood flood-opacity="0" result="BackgroundImageFix"/>
<feBlend mode="normal" in="SourceGraphic" in2="BackgroundImageFix" result="shape"/>
<feColorMatrix in="SourceAlpha" type="matrix" values="0 0 0 0 0 0 0 0 0 0 0 0 0 0 0 0 0 0 127 0" result="hardAlpha"/>
<feOffset dy="0.348088"/>
<feGaussianBlur stdDeviation="0.348088"/>
<feComposite in2="hardAlpha" operator="arithmetic" k2="-1" k3="1"/>
<feColorMatrix type="matrix" values="0 0 0 0 0.356863 0 0 0 0 0.262745 0 0 0 0 0.623529 0 0 0 0.5 0"/>
<feBlend mode="normal" in2="shape" result="effect1_innerShadow_1094_6260"/>
</filter>
<filter id="filter18_i_1094_6260" x="62.7192" y="68.2168" width="1.91479" height="2.23871" filterUnits="userSpaceOnUse" color-interpolation-filters="sRGB">
<feFlood flood-opacity="0" result="BackgroundImageFix"/>
<feBlend mode="normal" in="SourceGraphic" in2="BackgroundImageFix" result="shape"/>
<feColorMatrix in="SourceAlpha" type="matrix" values="0 0 0 0 0 0 0 0 0 0 0 0 0 0 0 0 0 0 127 0" result="hardAlpha"/>
<feOffset dy="0.348088"/>
<feGaussianBlur stdDeviation="0.348088"/>
<feComposite in2="hardAlpha" operator="arithmetic" k2="-1" k3="1"/>
<feColorMatrix type="matrix" values="0 0 0 0 0.356863 0 0 0 0 0.262745 0 0 0 0 0.623529 0 0 0 0.5 0"/>
<feBlend mode="normal" in2="shape" result="effect1_innerShadow_1094_6260"/>
</filter>
<filter id="filter19_i_1094_6260" x="64.6191" y="56.8184" width="1.91479" height="2.23871" filterUnits="userSpaceOnUse" color-interpolation-filters="sRGB">
<feFlood flood-opacity="0" result="BackgroundImageFix"/>
<feBlend mode="normal" in="SourceGraphic" in2="BackgroundImageFix" result="shape"/>
<feColorMatrix in="SourceAlpha" type="matrix" values="0 0 0 0 0 0 0 0 0 0 0 0 0 0 0 0 0 0 127 0" result="hardAlpha"/>
<feOffset dy="0.348088"/>
<feGaussianBlur stdDeviation="0.348088"/>
<feComposite in2="hardAlpha" operator="arithmetic" k2="-1" k3="1"/>
<feColorMatrix type="matrix" values="0 0 0 0 0.356863 0 0 0 0 0.262745 0 0 0 0 0.623529 0 0 0 0.5 0"/>
<feBlend mode="normal" in2="shape" result="effect1_innerShadow_1094_6260"/>
</filter>
<filter id="filter20_i_1094_6260" x="24.8442" y="68.252" width="1.91479" height="2.23871" filterUnits="userSpaceOnUse" color-interpolation-filters="sRGB">
<feFlood flood-opacity="0" result="BackgroundImageFix"/>
<feBlend mode="normal" in="SourceGraphic" in2="BackgroundImageFix" result="shape"/>
<feColorMatrix in="SourceAlpha" type="matrix" values="0 0 0 0 0 0 0 0 0 0 0 0 0 0 0 0 0 0 127 0" result="hardAlpha"/>
<feOffset dy="0.348088"/>
<feGaussianBlur stdDeviation="0.348088"/>
<feComposite in2="hardAlpha" operator="arithmetic" k2="-1" k3="1"/>
<feColorMatrix type="matrix" values="0 0 0 0 0.356863 0 0 0 0 0.262745 0 0 0 0 0.623529 0 0 0 0.5 0"/>
<feBlend mode="normal" in2="shape" result="effect1_innerShadow_1094_6260"/>
</filter>
<filter id="filter21_i_1094_6260" x="46.7559" y="42.0469" width="15.5276" height="15.0942" filterUnits="userSpaceOnUse" color-interpolation-filters="sRGB">
<feFlood flood-opacity="0" result="BackgroundImageFix"/>
<feBlend mode="normal" in="SourceGraphic" in2="BackgroundImageFix" result="shape"/>
<feColorMatrix in="SourceAlpha" type="matrix" values="0 0 0 0 0 0 0 0 0 0 0 0 0 0 0 0 0 0 127 0" result="hardAlpha"/>
<feOffset dy="0.348088"/>
<feGaussianBlur stdDeviation="0.348088"/>
<feComposite in2="hardAlpha" operator="arithmetic" k2="-1" k3="1"/>
<feColorMatrix type="matrix" values="0 0 0 0 0.356863 0 0 0 0 0.262745 0 0 0 0 0.623529 0 0 0 0.5 0"/>
<feBlend mode="normal" in2="shape" result="effect1_innerShadow_1094_6260"/>
</filter>
<filter id="filter22_i_1094_6260" x="49.3662" y="44.2422" width="10.4468" height="10.518" filterUnits="userSpaceOnUse" color-interpolation-filters="sRGB">
<feFlood flood-opacity="0" result="BackgroundImageFix"/>
<feBlend mode="normal" in="SourceGraphic" in2="BackgroundImageFix" result="shape"/>
<feColorMatrix in="SourceAlpha" type="matrix" values="0 0 0 0 0 0 0 0 0 0 0 0 0 0 0 0 0 0 127 0" result="hardAlpha"/>
<feOffset dy="0.348088"/>
<feGaussianBlur stdDeviation="0.348088"/>
<feComposite in2="hardAlpha" operator="arithmetic" k2="-1" k3="1"/>
<feColorMatrix type="matrix" values="0 0 0 0 0.356863 0 0 0 0 0.262745 0 0 0 0 0.623529 0 0 0 0.5 0"/>
<feBlend mode="normal" in2="shape" result="effect1_innerShadow_1094_6260"/>
</filter>
<filter id="filter23_i_1094_6260" x="50.4211" y="46.7617" width="5.82324" height="6.01606" filterUnits="userSpaceOnUse" color-interpolation-filters="sRGB">
<feFlood flood-opacity="0" result="BackgroundImageFix"/>
<feBlend mode="normal" in="SourceGraphic" in2="BackgroundImageFix" result="shape"/>
<feColorMatrix in="SourceAlpha" type="matrix" values="0 0 0 0 0 0 0 0 0 0 0 0 0 0 0 0 0 0 127 0" result="hardAlpha"/>
<feOffset dy="0.348088"/>
<feGaussianBlur stdDeviation="0.348088"/>
<feComposite in2="hardAlpha" operator="arithmetic" k2="-1" k3="1"/>
<feColorMatrix type="matrix" values="0 0 0 0 0.356863 0 0 0 0 0.262745 0 0 0 0 0.623529 0 0 0 0.5 0"/>
<feBlend mode="normal" in2="shape" result="effect1_innerShadow_1094_6260"/>
</filter>
<filter id="filter24_i_1094_6260" x="45.9558" y="36.5508" width="3.80225" height="4.04926" filterUnits="userSpaceOnUse" color-interpolation-filters="sRGB">
<feFlood flood-opacity="0" result="BackgroundImageFix"/>
<feBlend mode="normal" in="SourceGraphic" in2="BackgroundImageFix" result="shape"/>
<feColorMatrix in="SourceAlpha" type="matrix" values="0 0 0 0 0 0 0 0 0 0 0 0 0 0 0 0 0 0 127 0" result="hardAlpha"/>
<feOffset dy="0.348088"/>
<feGaussianBlur stdDeviation="0.348088"/>
<feComposite in2="hardAlpha" operator="arithmetic" k2="-1" k3="1"/>
<feColorMatrix type="matrix" values="0 0 0 0 0.356863 0 0 0 0 0.262745 0 0 0 0 0.623529 0 0 0 0.5 0"/>
<feBlend mode="normal" in2="shape" result="effect1_innerShadow_1094_6260"/>
</filter>
<filter id="filter25_i_1094_6260" x="27.6702" y="3.97266" width="16.1382" height="16.4516" filterUnits="userSpaceOnUse" color-interpolation-filters="sRGB">
<feFlood flood-opacity="0" result="BackgroundImageFix"/>
<feBlend mode="normal" in="SourceGraphic" in2="BackgroundImageFix" result="shape"/>
<feColorMatrix in="SourceAlpha" type="matrix" values="0 0 0 0 0 0 0 0 0 0 0 0 0 0 0 0 0 0 127 0" result="hardAlpha"/>
<feOffset dy="0.348088"/>
<feGaussianBlur stdDeviation="0.348088"/>
<feComposite in2="hardAlpha" operator="arithmetic" k2="-1" k3="1"/>
<feColorMatrix type="matrix" values="0 0 0 0 0.356863 0 0 0 0 0.262745 0 0 0 0 0.623529 0 0 0 0.5 0"/>
<feBlend mode="normal" in2="shape" result="effect1_innerShadow_1094_6260"/>
</filter>
<filter id="filter26_i_1094_6260" x="30.0815" y="6.19336" width="11.0378" height="11.6235" filterUnits="userSpaceOnUse" color-interpolation-filters="sRGB">
<feFlood flood-opacity="0" result="BackgroundImageFix"/>
<feBlend mode="normal" in="SourceGraphic" in2="BackgroundImageFix" result="shape"/>
<feColorMatrix in="SourceAlpha" type="matrix" values="0 0 0 0 0 0 0 0 0 0 0 0 0 0 0 0 0 0 127 0" result="hardAlpha"/>
<feOffset dy="0.348088"/>
<feGaussianBlur stdDeviation="0.348088"/>
<feComposite in2="hardAlpha" operator="arithmetic" k2="-1" k3="1"/>
<feColorMatrix type="matrix" values="0 0 0 0 0.356863 0 0 0 0 0.262745 0 0 0 0 0.623529 0 0 0 0.5 0"/>
<feBlend mode="normal" in2="shape" result="effect1_innerShadow_1094_6260"/>
</filter>
<filter id="filter27_i_1094_6260" x="32.8208" y="7.36914" width="6.15283" height="6.63324" filterUnits="userSpaceOnUse" color-interpolation-filters="sRGB">
<feFlood flood-opacity="0" result="BackgroundImageFix"/>
<feBlend mode="normal" in="SourceGraphic" in2="BackgroundImageFix" result="shape"/>
<feColorMatrix in="SourceAlpha" type="matrix" values="0 0 0 0 0 0 0 0 0 0 0 0 0 0 0 0 0 0 127 0" result="hardAlpha"/>
<feOffset dy="0.348088"/>
<feGaussianBlur stdDeviation="0.348088"/>
<feComposite in2="hardAlpha" operator="arithmetic" k2="-1" k3="1"/>
<feColorMatrix type="matrix" values="0 0 0 0 0.356863 0 0 0 0 0.262745 0 0 0 0 0.623529 0 0 0 0.5 0"/>
<feBlend mode="normal" in2="shape" result="effect1_innerShadow_1094_6260"/>
</filter>
<filter id="filter28_i_1094_6260" x="15.4868" y="21.0488" width="9.03149" height="9.87543" filterUnits="userSpaceOnUse" color-interpolation-filters="sRGB">
<feFlood flood-opacity="0" result="BackgroundImageFix"/>
<feBlend mode="normal" in="SourceGraphic" in2="BackgroundImageFix" result="shape"/>
<feColorMatrix in="SourceAlpha" type="matrix" values="0 0 0 0 0 0 0 0 0 0 0 0 0 0 0 0 0 0 127 0" result="hardAlpha"/>
<feOffset dy="0.348088"/>
<feGaussianBlur stdDeviation="0.348088"/>
<feComposite in2="hardAlpha" operator="arithmetic" k2="-1" k3="1"/>
<feColorMatrix type="matrix" values="0 0 0 0 0.356863 0 0 0 0 0.262745 0 0 0 0 0.623529 0 0 0 0.5 0"/>
<feBlend mode="normal" in2="shape" result="effect1_innerShadow_1094_6260"/>
</filter>
<filter id="filter29_i_1094_6260" x="16.7646" y="22.9316" width="6.31763" height="6.62348" filterUnits="userSpaceOnUse" color-interpolation-filters="sRGB">
<feFlood flood-opacity="0" result="BackgroundImageFix"/>
<feBlend mode="normal" in="SourceGraphic" in2="BackgroundImageFix" result="shape"/>
<feColorMatrix in="SourceAlpha" type="matrix" values="0 0 0 0 0 0 0 0 0 0 0 0 0 0 0 0 0 0 127 0" result="hardAlpha"/>
<feOffset dy="0.348088"/>
<feGaussianBlur stdDeviation="0.348088"/>
<feComposite in2="hardAlpha" operator="arithmetic" k2="-1" k3="1"/>
<feColorMatrix type="matrix" values="0 0 0 0 0.356863 0 0 0 0 0.262745 0 0 0 0 0.623529 0 0 0 0.5 0"/>
<feBlend mode="normal" in2="shape" result="effect1_innerShadow_1094_6260"/>
</filter>
<filter id="filter30_i_1094_6260" x="17.5229" y="23.7969" width="3.52173" height="3.84613" filterUnits="userSpaceOnUse" color-interpolation-filters="sRGB">
<feFlood flood-opacity="0" result="BackgroundImageFix"/>
<feBlend mode="normal" in="SourceGraphic" in2="BackgroundImageFix" result="shape"/>
<feColorMatrix in="SourceAlpha" type="matrix" values="0 0 0 0 0 0 0 0 0 0 0 0 0 0 0 0 0 0 127 0" result="hardAlpha"/>
<feOffset dy="0.348088"/>
<feGaussianBlur stdDeviation="0.348088"/>
<feComposite in2="hardAlpha" operator="arithmetic" k2="-1" k3="1"/>
<feColorMatrix type="matrix" values="0 0 0 0 0.356863 0 0 0 0 0.262745 0 0 0 0 0.623529 0 0 0 0.5 0"/>
<feBlend mode="normal" in2="shape" result="effect1_innerShadow_1094_6260"/>
</filter>
<filter id="filter31_i_1094_6260" x="5.60962" y="41.7461" width="10.2012" height="10.5219" filterUnits="userSpaceOnUse" color-interpolation-filters="sRGB">
<feFlood flood-opacity="0" result="BackgroundImageFix"/>
<feBlend mode="normal" in="SourceGraphic" in2="BackgroundImageFix" result="shape"/>
<feColorMatrix in="SourceAlpha" type="matrix" values="0 0 0 0 0 0 0 0 0 0 0 0 0 0 0 0 0 0 127 0" result="hardAlpha"/>
<feOffset dy="0.348088"/>
<feGaussianBlur stdDeviation="0.348088"/>
<feComposite in2="hardAlpha" operator="arithmetic" k2="-1" k3="1"/>
<feColorMatrix type="matrix" values="0 0 0 0 0.356863 0 0 0 0 0.262745 0 0 0 0 0.623529 0 0 0 0.5 0"/>
<feBlend mode="normal" in2="shape" result="effect1_innerShadow_1094_6260"/>
</filter>
<filter id="filter32_i_1094_6260" x="7.31201" y="43.3945" width="6.97559" height="7.47113" filterUnits="userSpaceOnUse" color-interpolation-filters="sRGB">
<feFlood flood-opacity="0" result="BackgroundImageFix"/>
<feBlend mode="normal" in="SourceGraphic" in2="BackgroundImageFix" result="shape"/>
<feColorMatrix in="SourceAlpha" type="matrix" values="0 0 0 0 0 0 0 0 0 0 0 0 0 0 0 0 0 0 127 0" result="hardAlpha"/>
<feOffset dy="0.348088"/>
<feGaussianBlur stdDeviation="0.348088"/>
<feComposite in2="hardAlpha" operator="arithmetic" k2="-1" k3="1"/>
<feColorMatrix type="matrix" values="0 0 0 0 0.356863 0 0 0 0 0.262745 0 0 0 0 0.623529 0 0 0 0.5 0"/>
<feBlend mode="normal" in2="shape" result="effect1_innerShadow_1094_6260"/>
</filter>
<filter id="filter33_i_1094_6260" x="48.3179" y="9.9375" width="10.7229" height="10.3149" filterUnits="userSpaceOnUse" color-interpolation-filters="sRGB">
<feFlood flood-opacity="0" result="BackgroundImageFix"/>
<feBlend mode="normal" in="SourceGraphic" in2="BackgroundImageFix" result="shape"/>
<feColorMatrix in="SourceAlpha" type="matrix" values="0 0 0 0 0 0 0 0 0 0 0 0 0 0 0 0 0 0 127 0" result="hardAlpha"/>
<feOffset dy="0.348088"/>
<feGaussianBlur stdDeviation="0.348088"/>
<feComposite in2="hardAlpha" operator="arithmetic" k2="-1" k3="1"/>
<feColorMatrix type="matrix" values="0 0 0 0 0.356863 0 0 0 0 0.262745 0 0 0 0 0.623529 0 0 0 0.5 0"/>
<feBlend mode="normal" in2="shape" result="effect1_innerShadow_1094_6260"/>
</filter>
<filter id="filter34_i_1094_6260" x="50.4551" y="11.4531" width="6.9873" height="7.24848" filterUnits="userSpaceOnUse" color-interpolation-filters="sRGB">
<feFlood flood-opacity="0" result="BackgroundImageFix"/>
<feBlend mode="normal" in="SourceGraphic" in2="BackgroundImageFix" result="shape"/>
<feColorMatrix in="SourceAlpha" type="matrix" values="0 0 0 0 0 0 0 0 0 0 0 0 0 0 0 0 0 0 127 0" result="hardAlpha"/>
<feOffset dy="0.348088"/>
<feGaussianBlur stdDeviation="0.348088"/>
<feComposite in2="hardAlpha" operator="arithmetic" k2="-1" k3="1"/>
<feColorMatrix type="matrix" values="0 0 0 0 0.356863 0 0 0 0 0.262745 0 0 0 0 0.623529 0 0 0 0.5 0"/>
<feBlend mode="normal" in2="shape" result="effect1_innerShadow_1094_6260"/>
</filter>
<filter id="filter35_f_1094_6260" x="-24.9799" y="-2.01289" width="105.28" height="76.5746" filterUnits="userSpaceOnUse" color-interpolation-filters="sRGB">
<feFlood flood-opacity="0" result="BackgroundImageFix"/>
<feBlend mode="normal" in="SourceGraphic" in2="BackgroundImageFix" result="shape"/>
<feGaussianBlur stdDeviation="1.9" result="effect1_foregroundBlur_1094_6260"/>
</filter>
<filter id="filter36_f_1094_6260" x="6.24072" y="-2.66992" width="103.437" height="87.6602" filterUnits="userSpaceOnUse" color-interpolation-filters="sRGB">
<feFlood flood-opacity="0" result="BackgroundImageFix"/>
<feBlend mode="normal" in="SourceGraphic" in2="BackgroundImageFix" result="shape"/>
<feGaussianBlur stdDeviation="2.375" result="effect1_foregroundBlur_1094_6260"/>
</filter>
<linearGradient id="paint0_linear_1094_6260" x1="60.4725" y1="20.7625" x2="-4.27" y2="82.0375" gradientUnits="userSpaceOnUse">
<stop stop-color="#E2D8FE"/>
<stop offset="1" stop-color="#836EBE"/>
</linearGradient>
<linearGradient id="paint1_linear_1094_6260" x1="15.3391" y1="49.0032" x2="42.1058" y2="41.6638" gradientUnits="userSpaceOnUse">
<stop stop-color="#705EA9"/>
<stop offset="1" stop-color="#C4B7EA"/>
</linearGradient>
<clipPath id="clip0_1094_6260">
<rect x="11.5" y="11.5" width="57" height="57" rx="28.5" fill="white"/>
</clipPath>
</defs>
</svg>
