<svg width="109" height="109" viewBox="0 0 109 109" fill="none" xmlns="http://www.w3.org/2000/svg">
<mask id="path-1-inside-1_2571_5386" fill="white">
<path fill-rule="evenodd" clip-rule="evenodd" d="M53.9806 107.961C83.7932 107.961 107.961 83.7932 107.961 53.9806C107.961 24.1679 83.7932 0 53.9806 0C24.1679 0 0 24.1679 0 53.9806C0 83.7932 24.1679 107.961 53.9806 107.961Z"/>
</mask>
<path fill-rule="evenodd" clip-rule="evenodd" d="M53.9806 107.961C83.7932 107.961 107.961 83.7932 107.961 53.9806C107.961 24.1679 83.7932 0 53.9806 0C24.1679 0 0 24.1679 0 53.9806C0 83.7932 24.1679 107.961 53.9806 107.961Z" fill="#E24400" fill-opacity="0.4"/>
<path d="M104.428 53.9806C104.428 81.8422 81.8422 104.428 53.9806 104.428V111.494C85.7443 111.494 111.494 85.7443 111.494 53.9806H104.428ZM53.9806 3.53276C81.8422 3.53276 104.428 26.119 104.428 53.9806H111.494C111.494 22.2168 85.7443 -3.53276 53.9806 -3.53276V3.53276ZM3.53276 53.9806C3.53276 26.119 26.119 3.53276 53.9806 3.53276V-3.53276C22.2168 -3.53276 -3.53276 22.2168 -3.53276 53.9806H3.53276ZM53.9806 104.428C26.119 104.428 3.53276 81.8422 3.53276 53.9806H-3.53276C-3.53276 85.7443 22.2168 111.494 53.9806 111.494V104.428Z" fill="#FBCE1F" mask="url(#path-1-inside-1_2571_5386)"/>
<path d="M48.9504 39.4521C51.1884 41.6902 52.3075 42.8093 53.6983 42.8093C55.0891 42.8093 56.2082 41.6903 58.4462 39.4521L63.1957 34.7028C64.2997 33.5988 64.852 33.0467 65.4262 32.7151C68.3145 31.0476 70.693 32.7026 72.6932 34.7028C74.6934 36.7029 76.3483 39.0817 74.6809 41.9699C74.3494 42.5441 73.7974 43.0961 72.6935 44.2L67.9445 48.949C65.7062 51.1872 64.5865 52.3069 64.5865 53.6977C64.5865 55.0885 65.7057 56.2076 67.9439 58.4456L72.6932 63.1951C73.7972 64.2991 74.3494 64.8511 74.6809 65.4253C76.3483 68.3136 74.6934 70.6924 72.6932 72.6923C70.6933 74.6928 68.3142 76.3476 65.4262 74.6801C64.852 74.3488 64.2997 73.7968 63.1957 72.6923L58.447 67.9439C56.2096 65.7064 55.0891 64.5859 53.6983 64.5859C52.3078 64.5859 51.1873 65.7061 48.9498 67.9439L44.2009 72.6923C43.0969 73.7968 42.5448 74.3488 41.9706 74.6801C39.0826 76.3476 36.7034 74.6928 34.7035 72.6923C32.7032 70.6924 31.0485 68.3136 32.7159 65.4253C33.0474 64.8511 33.5994 64.2991 34.7035 63.1951L39.4528 58.4456C41.691 56.2076 42.8101 55.0885 42.8101 53.6977C42.8101 52.3069 41.6904 51.1872 39.4522 48.949L34.7033 44.2C33.5994 43.0961 33.0474 42.5441 32.7159 41.9699C31.0484 39.0817 32.7033 36.7029 34.7035 34.7028C36.7036 32.7026 39.0824 31.0476 41.9706 32.7151C42.5448 33.0467 43.097 33.5988 44.2009 34.7027L48.9504 39.4521Z" stroke="#FBCE1F" stroke-width="3.53276" stroke-linecap="round" stroke-linejoin="round"/>
</svg>
