<?xml version="1.0" encoding="UTF-8"?>
<svg version="1.1" xmlns="http://www.w3.org/2000/svg" width="441" height="382">
<path d="M0 0 C145.53 0 291.06 0 441 0 C441 126.06 441 252.12 441 382 C295.47 382 149.94 382 0 382 C0 255.94 0 129.88 0 0 Z " fill="#1E1A1A" transform="translate(0,0)"/>
<path d="M0 0 C1.04452496 1.51958587 2.00824275 3.09481215 2.9375 4.6875 C15.20652642 24.38385026 32.20237486 37.44741683 55 43 C59.31957217 43.80025758 63.64085787 44.45778265 68 45 C64.19705832 63.07515812 57.64681983 79.23133926 50 96 C51.65 96 53.3 96 55 96 C53.95218768 98.74043223 52.84078766 101.2929507 51.4375 103.875 C49.86516144 107.29312731 49.37265867 110.27341329 49 114 C47.68 114 46.36 114 45 114 C45 111.69 45 109.38 45 107 C40.4859197 108.5257381 38.4101414 112.2020981 35.8125 115.9375 C31.12063675 122.52169244 26.2096369 128.81275222 21 135 C25.28493007 133.63422544 27.43145705 131.79318655 30.3125 128.375 C31.00988281 127.55773437 31.70726562 126.74046875 32.42578125 125.8984375 C32.94527344 125.27195312 33.46476563 124.64546875 34 124 C37 125 37 125 38.3515625 127.109375 C38.77179688 127.98078125 39.19203125 128.8521875 39.625 129.75 C40.26308594 131.04164063 40.26308594 131.04164063 40.9140625 132.359375 C43.32007002 138.20995443 44.18919468 144.94764871 42.38671875 151.08984375 C41.37939069 153.47281806 40.22203942 155.7190912 39 158 C38.46375 159.06347656 37.9275 160.12695312 37.375 161.22265625 C31.29573491 172.6592737 21.53746246 186.90993331 8.95703125 191.79296875 C7 192.375 7 192.375 4 193 C4.03196323 185.02517394 5.99537529 179.18833935 9.50390625 172.0703125 C12.89368397 165.11374516 14.38962357 158.69074297 15 151 C13.35 151 11.7 151 10 151 C9.67 149.02 9.34 147.04 9 145 C8.34 145.66 7.68 146.32 7 147 C7.3185177 149.10820797 7.3185177 149.10820797 8 151 C6.72125 151.12375 5.4425 151.2475 4.125 151.375 C0.65209064 151.69042399 0.65209064 151.69042399 -2 154 C-8.79258026 154.8882605 -15.40608509 153.51826276 -22 152 C-25.57782001 151.18301748 -28.21779014 151 -32 151 C-32.33 147.7 -32.66 144.4 -33 141 C-33.825 142.093125 -34.65 143.18625 -35.5 144.3125 C-35.9640625 144.92738281 -36.428125 145.54226562 -36.90625 146.17578125 C-38.25711283 148.07433005 -38.25711283 148.07433005 -38 151 C-40.3125 150.8125 -40.3125 150.8125 -43 150 C-44.8125 147.4375 -44.8125 147.4375 -46 145 C-46.495 147.97 -46.495 147.97 -47 151 C-48.32 151 -49.64 151 -51 151 C-51 145.06 -51 139.12 -51 133 C-50.01 132.67 -49.02 132.34 -48 132 C-46.48935808 129.91897648 -46.48935808 129.91897648 -45.125 127.375 C-42.63492463 123.04226885 -39.96900692 119.01689171 -37 115 C-39.46429614 115.37417041 -40.68803343 115.64333038 -42.35620117 117.55053711 C-42.74783447 118.2028833 -43.13946777 118.85522949 -43.54296875 119.52734375 C-43.97673828 120.23697266 -44.41050781 120.94660156 -44.85742188 121.67773438 C-45.29634766 122.42345703 -45.73527344 123.16917969 -46.1875 123.9375 C-46.63802734 124.67935547 -47.08855469 125.42121094 -47.55273438 126.18554688 C-49.88182875 130.03422327 -49.88182875 130.03422327 -52 134 C-61.75664807 132.73654917 -70.98586218 123.36236212 -77 116 C-77.71491541 114.35345265 -78.38677127 112.68706038 -79 111 C-79.66 110.01 -80.32 109.02 -81 108 C-81.37478243 104.47704517 -81.41127245 102.65118137 -79.5 99.625 C-79.005 99.08875 -78.51 98.5525 -78 98 C-79.32 97.67 -80.64 97.34 -82 97 C-82.33 98.65 -82.66 100.3 -83 102 C-83.78246094 101.91621094 -84.56492188 101.83242187 -85.37109375 101.74609375 C-86.38300781 101.64425781 -87.39492187 101.54242188 -88.4375 101.4375 C-89.44683594 101.33308594 -90.45617187 101.22867188 -91.49609375 101.12109375 C-92.32238281 101.08113281 -93.14867187 101.04117188 -94 101 C-95.20561184 101.98267859 -95.20561184 101.98267859 -95.09765625 103.84765625 C-95.08605469 104.57855469 -95.07445312 105.30945313 -95.0625 106.0625 C-95.041875 107.361875 -95.02125 108.66125 -95 110 C-93.00045254 110.04254356 -90.99958364 110.04080783 -89 110 C-88.67 109.67 -88.34 109.34 -88 109 C-86.33382885 108.95936168 -84.66611905 108.957279 -83 109 C-85.80372859 112.3984589 -87.08739552 113.90393637 -91.5625 114.375 C-95 114 -95 114 -97.03515625 113.32299805 C-97.68355469 113.21640869 -98.33195312 113.10981934 -99 113 C-101.19881076 114.87914669 -103.06591713 116.68931744 -105 118.8125 C-111.56946779 125.87793009 -111.56946779 125.87793009 -115 127 C-116.32 127 -117.64 127 -119 127 C-119.93321907 110.20205668 -109.71178958 93.30482495 -99 81 C-92.80194805 74.46895045 -86.59549754 69.4178456 -77.390625 68.73046875 C-67.75536427 68.62231786 -67.75536427 68.62231786 -65 70 C-65.03480469 69.25234375 -65.06960937 68.5046875 -65.10546875 67.734375 C-65.13253906 66.74953125 -65.15960938 65.7646875 -65.1875 64.75 C-65.22230469 63.77546875 -65.25710937 62.8009375 -65.29296875 61.796875 C-64.9478651 58.50228552 -64.27380085 57.37071695 -62 55 C-59.73168945 54.45410156 -59.73168945 54.45410156 -57.11328125 54.390625 C-56.17548828 54.35839844 -55.23769531 54.32617188 -54.27148438 54.29296875 C-52.80678711 54.27169922 -52.80678711 54.27169922 -51.3125 54.25 C-50.32443359 54.22035156 -49.33636719 54.19070312 -48.31835938 54.16015625 C-45.87882404 54.08944508 -43.44024475 54.03675735 -41 54 C-41 51.69 -41 49.38 -41 47 C-47.93 46.67 -54.86 46.34 -62 46 C-62 41 -62 41 -61 40 C-59.36527118 39.91299658 -57.72685945 39.89298937 -56.08984375 39.90234375 C-54.60581055 39.90717773 -54.60581055 39.90717773 -53.09179688 39.91210938 C-52.05087891 39.92048828 -51.00996094 39.92886719 -49.9375 39.9375 C-48.37032227 39.94426758 -48.37032227 39.94426758 -46.77148438 39.95117188 C-44.1809334 39.96300087 -41.59049441 39.97948311 -39 40 C-38.70593262 39.38825928 -38.41186523 38.77651855 -38.10888672 38.14624023 C-31.72417671 25.78869164 -18.81250892 14.18609586 -8.375 5.1875 C-7.77083252 4.66551025 -7.16666504 4.14352051 -6.54418945 3.60571289 C-2.26007108 0 -2.26007108 0 0 0 Z " fill="#363433" transform="translate(243,98)"/>
<path d="M0 0 C1.4609375 1.16796875 1.4609375 1.16796875 2.4609375 4.16796875 C3.4509375 4.49796875 4.4409375 4.82796875 5.4609375 5.16796875 C5.4609375 6.48796875 5.4609375 7.80796875 5.4609375 9.16796875 C5.9765625 8.67296875 6.4921875 8.17796875 7.0234375 7.66796875 C10.39856878 5.59096489 12.55894696 5.68877693 16.4609375 6.16796875 C19.3359375 7.73046875 19.3359375 7.73046875 21.4609375 10.16796875 C22.60103521 14.08705461 22.86982382 16.19955379 21.2734375 19.98046875 C19.36732248 22.2809524 18.28433408 23.25451692 15.4609375 24.16796875 C13.79449275 24.19516592 12.12732966 24.19821679 10.4609375 24.16796875 C10.47141113 24.93351074 10.48188477 25.69905273 10.49267578 26.48779297 C10.53463054 30.00615057 10.56038813 33.52445527 10.5859375 37.04296875 C10.60269531 38.24695313 10.61945313 39.4509375 10.63671875 40.69140625 C10.67521918 47.77548566 10.22144635 54.2946405 8.4609375 61.16796875 C-8.6577478 62.39073199 -24.72231455 55.03638322 -37.5390625 44.16796875 C-38.49683594 43.41644531 -39.45460938 42.66492188 -40.44140625 41.890625 C-43.87423409 39.02723127 -46.5219978 35.70848981 -49.2265625 32.16796875 C-49.69900391 31.5646875 -50.17144531 30.96140625 -50.65820312 30.33984375 C-57.57374567 21.41656304 -57.57374567 21.41656304 -57.48046875 18.05859375 C-52.72109599 8.50035136 -33.37267013 1.91778835 -23.7265625 -1.33203125 C-15.24452243 -3.6834879 -7.90750532 -4.21195692 0 0 Z " fill="#2C1A1B" transform="translate(303.5390625,77.83203125)"/>
<path d="M0 0 C7.10745119 5.00946861 11.47935074 11.37052794 13.59375 19.828125 C14.89826114 29.34971146 12.18160861 36.19633709 6.96875 44.015625 C2.82819426 49.31045332 -3.08258198 52.72023566 -9.40625 54.828125 C-20.00396903 55.7273254 -28.09940915 55.0124639 -36.53515625 48.078125 C-39.66154953 45.14752605 -41.64241795 43.13764654 -42.40625 38.828125 C-41.73078125 38.76753906 -41.0553125 38.70695312 -40.359375 38.64453125 C-39.46734375 38.56074219 -38.5753125 38.47695312 -37.65625 38.390625 C-36.77453125 38.30941406 -35.8928125 38.22820312 -34.984375 38.14453125 C-32.71274548 37.86574035 -30.60773177 37.44021923 -28.40625 36.828125 C-26.56858552 31.33709568 -26.0698145 26.47636774 -26.09375 20.703125 C-26.07763672 19.91808594 -26.06152344 19.13304687 -26.04492188 18.32421875 C-26.04101841 13.69470699 -26.32707524 10.53297683 -29.40625 6.828125 C-31.17205116 5.62938645 -31.17205116 5.62938645 -33.09375 5.015625 C-34.7334375 4.4278125 -34.7334375 4.4278125 -36.40625 3.828125 C-26.73581241 -7.01448684 -12.24982366 -7.04694157 0 0 Z " fill="#1E1717" transform="translate(269.40625,134.171875)"/>
<path d="M0 0 C145.53 0 291.06 0 441 0 C441 126.06 441 252.12 441 382 C295.47 382 149.94 382 0 382 C0 255.94 0 129.88 0 0 Z M2 5 C0.80513377 8.36762386 0.87150687 11.6470892 0.86577892 15.1941824 C0.86132108 16.47398588 0.85686324 17.75378936 0.85227031 19.07237476 C0.8523596 20.49563246 0.85254945 21.91889015 0.85282898 23.34214783 C0.84952953 24.85171448 0.84580379 26.36128025 0.8416875 27.8708449 C0.83166917 32.02513179 0.827951 36.17940423 0.82529819 40.33370149 C0.82139482 44.81162084 0.81181672 49.28952875 0.80308533 53.7674408 C0.78332521 64.58234928 0.77325676 75.39725869 0.76435754 86.2121807 C0.75997522 91.30259805 0.75460838 96.39301434 0.74936867 101.48343086 C0.73235933 118.39924752 0.71786331 135.31506352 0.71061993 152.23088741 C0.70870999 156.62031492 0.70678966 161.00974243 0.70483398 165.39916992 C0.70435024 166.49016137 0.7038665 167.58115282 0.7033681 168.70520461 C0.6950608 186.39402119 0.66971075 204.08277029 0.63725331 221.77155738 C0.60421751 239.92309872 0.58617445 258.07460571 0.58297569 276.22617728 C0.58080771 286.42146176 0.57201678 296.61664776 0.54651451 306.811903 C0.52485528 315.49086465 0.51673359 324.16970388 0.52648129 332.84868949 C0.53103947 337.27869034 0.52905199 341.70843835 0.50971985 346.13840485 C0.49218372 350.19169485 0.49300746 354.24454578 0.50861714 358.29783983 C0.51100779 359.76617627 0.50659471 361.23454236 0.49478849 362.70283329 C0.47975747 364.69516056 0.4916842 366.68763709 0.50501537 368.67997646 C0.50403856 369.7877307 0.50306176 370.89548493 0.50205535 372.03680748 C1.12429587 375.73966572 2.33104999 377.39306904 5 380 C8.4576546 381.54010459 12.37242468 381.12658843 16.1027832 381.12863445 C16.82207064 381.13038749 17.54135807 381.13214053 18.28244209 381.13394669 C20.70524087 381.1386179 23.12797993 381.13613831 25.55078125 381.13371277 C27.30029856 381.13558017 29.04981544 381.13788059 30.79933167 381.14057809 C35.61684386 381.14671113 40.43433873 381.14656074 45.25185394 381.14538372 C50.44345875 381.14518009 55.63505795 381.15069474 60.82666016 381.15544128 C71.00095457 381.16375626 81.17524319 381.16649649 91.34954071 381.16705366 C99.61600324 381.16752835 107.88246386 381.16958074 116.14892578 381.17275429 C139.56814355 381.1815626 162.98735672 381.1861733 186.40657616 381.18542381 C187.66974977 381.18538386 188.93292339 381.1853439 190.234375 381.18530273 C191.49908442 381.18526185 192.76379383 381.18522097 194.06682777 381.18517885 C214.57570101 381.18477217 235.08455591 381.19434692 255.59342384 381.2084411 C276.634402 381.2227873 297.6753712 381.22971228 318.71635437 381.22884732 C330.53633397 381.22851478 342.35629433 381.23128695 354.17626953 381.24202538 C364.23753449 381.25110723 374.29877149 381.25332471 384.36003876 381.24651595 C389.49665756 381.2432392 394.63322265 381.24323549 399.76983643 381.2518692 C404.46752614 381.25968424 409.16511911 381.2583544 413.86280632 381.24958507 C415.56665017 381.248039 417.27050107 381.24990744 418.97433662 381.25544515 C421.2820822 381.26245176 423.58948335 381.25725408 425.8972168 381.24888897 C427.82370308 381.24921502 427.82370308 381.24921502 429.78910828 381.24954766 C433.69483624 380.94599794 435.61998987 379.99292045 438.72570646 377.75835025 C440.61829611 375.1468362 440.3811076 373.06774345 440.38869667 369.86639595 C440.39898671 368.57464994 440.40927675 367.28290392 440.4198786 365.95201409 C440.41615574 364.51009238 440.41214148 363.0681714 440.40786743 361.62625122 C440.41418457 360.10104364 440.42179814 358.57584097 440.43060148 357.05064571 C440.45095717 352.84845155 440.45242632 348.64642764 440.45081019 344.44419217 C440.4522514 339.91646668 440.47082528 335.38880664 440.48706055 330.8611145 C440.51921807 320.95631142 440.52899755 311.05156031 440.53470278 301.14671183 C440.53844989 294.9653736 440.54725398 288.78404933 440.55720139 282.60271835 C440.58414504 265.49736156 440.60665147 248.39201828 440.60907936 231.28663826 C440.60923493 230.19148527 440.60939051 229.09633228 440.6095508 227.96799283 C440.60984186 225.74773526 440.61012723 223.52747769 440.61040695 221.30722012 C440.61054981 220.20504158 440.61069266 219.10286304 440.61083984 217.96728516 C440.61097951 216.86376575 440.61111918 215.76024634 440.61126308 214.62328695 C440.61439975 196.73386953 440.65100156 178.84469401 440.7024761 160.95535649 C440.75487054 142.60043164 440.78119283 124.24562635 440.78063047 105.89062488 C440.78088347 95.58011617 440.79219699 85.26988549 440.83180618 74.95944595 C440.8653555 66.18156475 440.87493329 57.40406983 440.85304923 48.62614454 C440.8425846 44.14533553 440.84353704 39.66528375 440.87481308 35.18455505 C440.90315184 31.08465299 440.89935312 26.98609948 440.8696541 22.88621865 C440.86460037 21.40102524 440.87144769 19.91573521 440.89121862 18.43066479 C441.11307048 10.99834282 441.11307048 10.99834282 438.97839916 4.01452559 C433.42990561 -1.21293648 423.19511276 0.32575107 416.09518433 0.38526917 C414.34378537 0.38165561 412.59238979 0.37585143 410.84100449 0.36804718 C406.03201426 0.35298838 401.22355657 0.36911622 396.41460824 0.3903538 C391.22711617 0.40782944 386.03967735 0.39646721 380.85217285 0.38868713 C370.69191244 0.37801048 360.53185914 0.39397018 350.3716303 0.4188254 C338.54441703 0.44673752 326.71724586 0.44809832 314.89000513 0.44826841 C293.79137179 0.44945602 272.69283368 0.47443699 251.59423828 0.51293945 C231.11115374 0.55029459 210.62813846 0.5715356 190.14501953 0.57446289 C188.88319949 0.5746457 187.62137944 0.57482851 186.32132243 0.57501686 C184.43189538 0.57528532 184.43189538 0.57528532 182.50429809 0.5755592 C179.96825782 0.57592461 177.43221756 0.57629698 174.89617729 0.57667637 C173.02024364 0.57695464 173.02024364 0.57695464 171.10641234 0.57723853 C151.59890565 0.58080711 132.09140969 0.59925669 112.58391389 0.61916961 C105.50853792 0.62619631 98.4331645 0.63097665 91.35778581 0.63413096 C80.13680718 0.63917596 68.9158768 0.65058009 57.69492303 0.67543126 C52.56626878 0.6866676 47.43766201 0.69476683 42.30899429 0.69429779 C37.61752583 0.69399021 32.9261698 0.70288765 28.23473074 0.71926581 C26.53432919 0.72359567 24.83391512 0.72454543 23.13351022 0.72183973 C20.82802389 0.71868801 18.52289986 0.72774423 16.2174511 0.73993778 C14.93513285 0.7418887 13.6528146 0.74383963 12.33163822 0.74584967 C7.94588146 1.08041227 5.12527479 1.87472521 2 5 Z " fill="#F3C927" transform="translate(0,0)"/>
<path d="M0 0 C1.9375 0.8125 1.9375 0.8125 4 2 C4.33 2.99 4.66 3.98 5 5 C6.30964872 5.71206913 7.64727983 6.37360526 9 7 C10.24739901 7.99847238 11.47488402 9.02206073 12.6875 10.0625 C22.71406884 17.97124572 34.72466026 23.6177773 47 27 C44.00592301 34.90888262 40.15220939 42.23186041 33 47 C32.01 47 31.02 47 30 47 C29.67 45.35 29.34 43.7 29 42 C25.04451912 43.57478161 22.54762472 46.34397326 19.6875 49.375 C10.12051579 59.1575068 10.12051579 59.1575068 2.5625 59.25 C1.386875 59.1675 0.21125 59.085 -1 59 C-3.69450594 53.58232316 -4.54524276 49.27671267 -4.5 43.25 C-4.49935547 42.43668213 -4.49871094 41.62336426 -4.49804688 40.78540039 C-4.30681974 32.74075253 -2.39573713 25.35360499 -0.09375 17.68359375 C1.09488069 14.32087954 1.09488069 14.32087954 1 12 C-0.98 15.96 -2.96 19.92 -5 24 C-5.33 24 -5.66 24 -6 24 C-6.41925025 15.6926339 -5.98462652 8.53221065 -1.3125 1.4375 C-0.879375 0.963125 -0.44625 0.48875 0 0 Z " fill="#3F3815" transform="translate(151,262)"/>
<path d="M0 0 C0.625 2.5625 0.625 2.5625 1 5 C1.66 5 2.32 5 3 5 C1.33048525 10.22698545 -0.7678003 15.17771975 -2.9765625 20.1953125 C-4.22852891 23.12867699 -4.22852891 23.12867699 -4 27 C-12.42857143 28.28571429 -12.42857143 28.28571429 -17 27 C-17.495 29.475 -17.495 29.475 -18 32 C-18.78246094 31.91621094 -19.56492188 31.83242187 -20.37109375 31.74609375 C-21.38300781 31.64425781 -22.39492187 31.54242188 -23.4375 31.4375 C-24.44683594 31.33308594 -25.45617187 31.22867188 -26.49609375 31.12109375 C-27.32238281 31.08113281 -28.14867187 31.04117188 -29 31 C-30.20561184 31.98267859 -30.20561184 31.98267859 -30.09765625 33.84765625 C-30.08605469 34.57855469 -30.07445312 35.30945313 -30.0625 36.0625 C-30.041875 37.361875 -30.02125 38.66125 -30 40 C-28.00045254 40.04254356 -25.99958364 40.04080783 -24 40 C-23.67 39.67 -23.34 39.34 -23 39 C-21.33382885 38.95936168 -19.66611905 38.957279 -18 39 C-20.80372859 42.3984589 -22.08739552 43.90393637 -26.5625 44.375 C-30 44 -30 44 -32.03515625 43.32299805 C-32.68355469 43.21640869 -33.33195312 43.10981934 -34 43 C-36.19881076 44.87914669 -38.06591713 46.68931744 -40 48.8125 C-46.56946779 55.87793009 -46.56946779 55.87793009 -50 57 C-51.32 57 -52.64 57 -54 57 C-54.93321907 40.20205668 -44.71178958 23.30482495 -34 11 C-25.71502828 2.26990848 -12.45171647 -6.22585824 0 0 Z " fill="#343232" transform="translate(178,168)"/>
<path d="M0 0 C3 1 3 1 4.3515625 3.109375 C4.98191406 4.41648438 4.98191406 4.41648438 5.625 5.75 C6.26308594 7.04164063 6.26308594 7.04164063 6.9140625 8.359375 C9.32007002 14.20995443 10.18919468 20.94764871 8.38671875 27.08984375 C7.37939069 29.47281806 6.22203942 31.7190912 5 34 C4.46375 35.06347656 3.9275 36.12695312 3.375 37.22265625 C-2.70426509 48.6592737 -12.46253754 62.90993331 -25.04296875 67.79296875 C-27 68.375 -27 68.375 -30 69 C-29.96803677 61.02517394 -28.00462471 55.18833935 -24.49609375 48.0703125 C-21.10631603 41.11374516 -19.61037643 34.69074297 -19 27 C-20.32 27 -21.64 27 -23 27 C-23 21.39 -23 15.78 -23 10 C-20.875625 10.20625 -18.75125 10.4125 -16.5625 10.625 C-11.96942989 10.67163015 -9.76172104 10.57813714 -6.06640625 7.7734375 C-3.86354065 5.27098218 -1.8644523 2.76215155 0 0 Z " fill="#333131" transform="translate(277,222)"/>
<path d="M0 0 C0.7425 -0.02449219 1.485 -0.04898438 2.25 -0.07421875 C7.48482115 -0.10196515 10.52618887 0.84581217 14.625 4.375 C17.52538421 8.01092834 16.95554761 12.74417949 16.9375 17.1875 C16.95361328 17.96931641 16.96972656 18.75113281 16.98632812 19.55664062 C16.99078632 24.89310115 16.275133 28.70286937 13.625 33.375 C9.35804598 36.09492771 5.0915228 35.74256403 0.1875 35.75 C-0.65876953 35.77449219 -1.50503906 35.79898438 -2.37695312 35.82421875 C-6.51896115 35.84368002 -8.79756609 35.72428435 -12.41015625 33.5390625 C-16.44832228 29.09146016 -15.59433407 23.67319674 -15.625 18 C-15.645625 17.05382812 -15.66625 16.10765625 -15.6875 15.1328125 C-15.737813 6.17709938 -15.737813 6.17709938 -12.375 2.375 C-8.77745668 -0.41182933 -4.35975033 0.00749098 0 0 Z " fill="#F0C51F" transform="translate(227.375,137.625)"/>
<path d="M0 0 C1.19109375 -0.0299707 1.19109375 -0.0299707 2.40625 -0.06054688 C6.45203276 -0.05717539 8.50547353 0.12391355 12 2.33984375 C16.06427753 6.60257233 15.21977939 11.07402116 15.25 16.6875 C15.270625 17.62980469 15.29125 18.57210938 15.3125 19.54296875 C15.34230235 24.85523762 15.25777216 28.98993279 12 33.4375 C7.99772674 35.90592522 3.64850176 35.80398375 -0.9375 35.8125 C-1.62779297 35.83699219 -2.31808594 35.86148438 -3.02929688 35.88671875 C-8.17225665 35.91596781 -11.17752175 34.86690671 -15 31.4375 C-17.34616427 26.73841017 -17.33497532 22.02184847 -17.3125 16.875 C-17.32861328 16.13314453 -17.34472656 15.39128906 -17.36132812 14.62695312 C-17.3653677 10.09051391 -17.00696699 7.06027287 -14 3.4375 C-9.67379531 -0.19683004 -5.39173194 -0.04814046 0 0 Z " fill="#EFC51E" transform="translate(332,285.5625)"/>
<path d="M0 0 C0.80759766 -0.020625 1.61519531 -0.04125 2.44726562 -0.0625 C7.21888049 -0.09376365 10.2921554 0.19308195 14.1875 3.25 C17.21414797 6.27664797 16.48067878 9.21915735 16.50976562 13.35742188 C16.50654297 14.41509766 16.50332031 15.47277344 16.5 16.5625 C16.51611328 17.60857422 16.53222656 18.65464844 16.54882812 19.73242188 C16.54947266 20.74498047 16.55011719 21.75753906 16.55078125 22.80078125 C16.55376221 23.72544189 16.55674316 24.65010254 16.55981445 25.6027832 C16.03098978 29.36281334 14.54150184 32.1954715 11.52734375 34.54296875 C7.96463523 35.61951339 4.43632239 35.57824006 0.75 35.5625 C-0.37631836 35.58666992 -0.37631836 35.58666992 -1.52539062 35.61132812 C-6.08575563 35.615339 -9.16224378 35.27254861 -12.8125 32.25 C-15.71034995 27.56498318 -15.18056331 22.65721881 -15.1875 17.3125 C-15.21199219 16.32314453 -15.23648437 15.33378906 -15.26171875 14.31445312 C-15.29107594 7.03876404 -15.29107594 7.03876404 -12.9140625 3.12109375 C-8.92603235 -0.42958737 -5.10722395 0.03214618 0 0 Z " fill="#F0C51E" transform="translate(364.8125,285.75)"/>
<path d="M0 0 C4.25249841 3.16464998 8.29552201 7.21604402 10.6875 12 C11.49828111 18.77581357 10.9831434 24.22551562 7.31640625 30.0546875 C2.86257071 35.37365656 -2.71174544 37.56790945 -9.4375 38.375 C-14.75498519 37.86040466 -18.70724548 35.59450959 -23.3125 33 C-23.3125 32.34 -23.3125 31.68 -23.3125 31 C-23.9725 30.67 -24.6325 30.34 -25.3125 30 C-23.9925 29.67 -22.6725 29.34 -21.3125 29 C-19.43387146 23.44579389 -19.03404043 18.59056176 -19.125 12.75 C-19.12564453 11.94820312 -19.12628906 11.14640625 -19.12695312 10.3203125 C-19.15213745 6.97359527 -19.24771882 4.19434355 -20.3125 1 C-13.8500619 -1.97627883 -6.78259961 -2.04757724 0 0 Z " fill="#353331" transform="translate(262.3125,142)"/>
<path d="M0 0 C0.75539062 -0.020625 1.51078125 -0.04125 2.2890625 -0.0625 C6.9013233 -0.09475357 9.88779887 0.2546403 13.625 3.25 C16.65660925 7.79741388 16.03291487 12.27337783 16.0625 17.625 C16.09537109 18.6665625 16.12824219 19.708125 16.16210938 20.78125 C16.19468896 25.4134748 16.1244665 28.39526444 13.7578125 32.4453125 C9.18866045 35.07741755 5.242773 34.90601096 0.0625 34.75 C-1.35579102 34.75386719 -1.35579102 34.75386719 -2.80273438 34.7578125 C-10.76730861 34.64523901 -10.76730861 34.64523901 -14.375 31.25 C-15.94887765 26.52836704 -15.64212719 21.75813637 -15.6875 16.8125 C-15.71650391 15.76255859 -15.74550781 14.71261719 -15.77539062 13.63085938 C-15.78376953 12.61958984 -15.79214844 11.60832031 -15.80078125 10.56640625 C-15.81536377 9.64287354 -15.82994629 8.71934082 -15.8449707 7.76782227 C-15.22946852 4.47032928 -13.96008822 3.3198814 -11.375 1.25 C-7.56907507 -0.01864164 -3.96629359 0.02679928 0 0 Z " fill="#F3C71E" transform="translate(149.375,27.75)"/>
<path d="M0 0 C2.35546875 0.18359375 2.35546875 0.18359375 5 1 C6.89798124 4.18142987 7.79373082 7.47054574 9 11 C10.65 7.37 12.3 3.74 14 0 C15.65 0 17.3 0 19 0 C19.75648949 18.11372064 19.75648949 18.11372064 15 27 C14.6184375 27.78503906 14.236875 28.57007813 13.84375 29.37890625 C12.92442847 31.26679868 11.96658821 33.13586559 11 35 C12.32 35.33 13.64 35.66 15 36 C15 37.32 15 38.64 15 40 C13.35 40 11.7 40 10 40 C10 44.62 10 49.24 10 54 C8.68 54 7.36 54 6 54 C5.505 49.05 5.505 49.05 5 44 C4.175 45.093125 3.35 46.18625 2.5 47.3125 C2.0359375 47.92738281 1.571875 48.54226562 1.09375 49.17578125 C-0.25711283 51.07433005 -0.25711283 51.07433005 0 54 C-2.3125 53.8125 -2.3125 53.8125 -5 53 C-6.8125 50.4375 -6.8125 50.4375 -8 48 C-8.33 49.98 -8.66 51.96 -9 54 C-10.32 54 -11.64 54 -13 54 C-13 48.06 -13 42.12 -13 36 C-11.515 35.505 -11.515 35.505 -10 35 C-8.48935808 32.91897648 -8.48935808 32.91897648 -7.125 30.375 C-4.63492463 26.04226885 -1.96900692 22.01689171 1 18 C0.67 17.67 0.34 17.34 0 17 C-0.07325168 14.13732433 -0.09238205 11.299281 -0.0625 8.4375 C-0.05573242 7.22803711 -0.05573242 7.22803711 -0.04882812 5.99414062 C-0.03700518 3.99606244 -0.01906914 1.99802217 0 0 Z " fill="#3A3838" transform="translate(205,195)"/>
<path d="M0 0 C3.78515549 0.88407611 6.3019895 3.28538336 9.1796875 5.80078125 C11.13875704 7.42842925 12.94191888 8.49458038 15.2578125 9.52734375 C15.2578125 11.83734375 15.2578125 14.14734375 15.2578125 16.52734375 C18.96821611 17.61040947 18.96821611 17.61040947 22.5078125 16.34765625 C25.2578125 15.52734375 25.2578125 15.52734375 28.52734375 16.79296875 C29.71683597 17.43901192 30.89763264 18.10126278 32.0703125 18.77734375 C37.08496052 21.49246068 41.62685777 23.5137719 47.2578125 24.52734375 C47.5078125 32.15234375 47.5078125 32.15234375 45.2578125 35.52734375 C33.85738226 38.40745244 19.81826673 30.78908693 10.203125 25.35546875 C3.92357043 21.45781419 -1.73350696 16.9779667 -6.7421875 11.52734375 C-7.3609375 10.86734375 -7.9796875 10.20734375 -8.6171875 9.52734375 C-9.7421875 7.52734375 -9.7421875 7.52734375 -9.6171875 4.90234375 C-7.9511456 0.38023002 -4.46010298 -0.07406075 0 0 Z " fill="#2A191A" transform="translate(163.7421875,250.47265625)"/>
<path d="M0 0 C2 2 2 2 2.22705078 3.97119141 C2.21657715 4.75671387 2.20610352 5.54223633 2.1953125 6.3515625 C2.18886719 7.20234375 2.18242188 8.053125 2.17578125 8.9296875 C2.15902344 9.81914062 2.14226562 10.70859375 2.125 11.625 C2.11597656 12.5221875 2.10695313 13.419375 2.09765625 14.34375 C2.0740497 16.56276586 2.0411231 18.78125077 2 21 C3.32 21 4.64 21 6 21 C6 22.98 6 24.96 6 27 C4.68 27 3.36 27 2 27 C2.020625 28.134375 2.04125 29.26875 2.0625 30.4375 C2 34 2 34 1 35 C-0.66617115 35.04063832 -2.33388095 35.042721 -4 35 C-4 32.36 -4 29.72 -4 27 C-11.59 27 -19.18 27 -27 27 C-27 17 -27 17 -25.1640625 14.3359375 C-24.32617188 13.68882812 -23.48828125 13.04171875 -22.625 12.375 C-21.71363281 11.65183594 -20.80226563 10.92867188 -19.86328125 10.18359375 C-18.91839844 9.46300781 -17.97351563 8.74242187 -17 8 C-16.12730469 7.22785156 -15.25460938 6.45570313 -14.35546875 5.66015625 C-6.36295902 -1.32561646 -6.36295902 -1.32561646 0 0 Z " fill="#EFC41E" transform="translate(86,286)"/>
<path d="M0 0 C1 1 1 1 1.11352539 2.94946289 C1.10828857 3.7821167 1.10305176 4.61477051 1.09765625 5.47265625 C1.09443359 6.37177734 1.09121094 7.27089844 1.08789062 8.19726562 C1.07951172 9.14279297 1.07113281 10.08832031 1.0625 11.0625 C1.05798828 12.01189453 1.05347656 12.96128906 1.04882812 13.93945312 C1.0370011 16.29303065 1.02052025 18.64648477 1 21 C2.32 21 3.64 21 5 21 C5 22.98 5 24.96 5 27 C3.68 27 2.36 27 1 27 C1 29.64 1 32.28 1 35 C-0.98 35 -2.96 35 -5 35 C-5 32.36 -5 29.72 -5 27 C-5.6612085 27.00523682 -6.32241699 27.01047363 -7.00366211 27.01586914 C-9.98159851 27.03657656 -12.95951982 27.04964012 -15.9375 27.0625 C-17.49887695 27.07506836 -17.49887695 27.07506836 -19.09179688 27.08789062 C-20.08115234 27.09111328 -21.07050781 27.09433594 -22.08984375 27.09765625 C-23.46450806 27.10551147 -23.46450806 27.10551147 -24.86694336 27.11352539 C-27 27 -27 27 -28 26 C-28.92102492 19.32256932 -28.92102492 19.32256932 -26.71875 16.16015625 C-24.88980004 14.32704958 -22.9885926 12.65841119 -21 11 C-20.31679688 10.38898438 -19.63359375 9.77796875 -18.9296875 9.1484375 C-17.57951468 7.94200932 -16.21514795 6.75124653 -14.8359375 5.578125 C-13.34205194 4.29401911 -11.91046976 2.93770801 -10.5 1.5625 C-6.83990591 -0.72505881 -4.26771102 -0.35564258 0 0 Z " fill="#F4C91E" transform="translate(308,286)"/>
<path d="M0 0 C1.0305249 0.00410889 2.0610498 0.00821777 3.12280273 0.01245117 C4.23977539 0.01438477 5.35674805 0.01631836 6.50756836 0.01831055 C8.26423828 0.03667969 8.26423828 0.03667969 10.05639648 0.05541992 C11.23137695 0.05606445 12.40635742 0.05670898 13.61694336 0.05737305 C22.35377508 0.10279852 22.35377508 0.10279852 23.49389648 1.24291992 C23.61889648 3.74291992 23.61889648 3.74291992 23.49389648 6.24291992 C22.49389648 7.24291992 22.49389648 7.24291992 20.45263672 7.35644531 C19.57808838 7.3512085 18.70354004 7.34597168 17.80249023 7.34057617 C16.85825195 7.33735352 15.91401367 7.33413086 14.94116211 7.33081055 C13.94793945 7.32243164 12.9547168 7.31405273 11.93139648 7.30541992 C10.93430664 7.3009082 9.9372168 7.29639648 8.90991211 7.29174805 C6.437848 7.27991999 3.96590131 7.26343841 1.49389648 7.24291992 C1.49389648 9.55291992 1.49389648 11.86291992 1.49389648 14.24291992 C2.07357178 14.21673584 2.65324707 14.19055176 3.25048828 14.16357422 C5.89384523 14.0592138 8.53676848 13.99447666 11.18139648 13.93041992 C12.0934082 13.88852539 13.00541992 13.84663086 13.94506836 13.8034668 C18.52412058 13.7202113 20.7812772 13.73773812 24.60717773 16.44995117 C27.50628512 20.74159047 27.26537013 24.24475559 26.49389648 29.24291992 C24.46758069 33.75607782 24.46758069 33.75607782 21.49389648 35.24291992 C19.53453609 35.32802198 17.57226854 35.35009649 15.61108398 35.34057617 C14.44448242 35.33735352 13.27788086 35.33413086 12.07592773 35.33081055 C10.85260742 35.32243164 9.62928711 35.31405273 8.36889648 35.30541992 C7.1378418 35.3009082 5.90678711 35.29639648 4.63842773 35.29174805 C1.59020257 35.27993322 -1.45792665 35.2634602 -4.50610352 35.24291992 C-4.50610352 32.93291992 -4.50610352 30.62291992 -4.50610352 28.24291992 C3.41389648 27.91291992 11.33389648 27.58291992 19.49389648 27.24291992 C19.49389648 25.26291992 19.49389648 23.28291992 19.49389648 21.24291992 C18.45664429 21.20533569 18.45664429 21.20533569 17.3984375 21.16699219 C14.28421782 21.05139831 11.17032859 20.9285075 8.05639648 20.80541992 C6.9677832 20.76610352 5.87916992 20.72678711 4.75756836 20.6862793 C3.7230957 20.64438477 2.68862305 20.60249023 1.62280273 20.55932617 C0.66446533 20.52266846 -0.29387207 20.48601074 -1.28125 20.44824219 C-3.50610352 20.24291992 -3.50610352 20.24291992 -4.50610352 19.24291992 C-4.63273443 16.4187561 -4.691309 13.62997199 -4.69360352 10.80541992 C-4.70584961 10.01586914 -4.7180957 9.22631836 -4.73071289 8.4128418 C-4.73597631 6.35484558 -4.62816637 4.29729983 -4.50610352 2.24291992 C-2.50610352 0.24291992 -2.50610352 0.24291992 0 0 Z " fill="#E7BE1E" transform="translate(98.506103515625,285.757080078125)"/>
<path d="M0 0 C1.07878418 0.01047363 2.15756836 0.02094727 3.26904297 0.03173828 C5.01894531 0.04140625 5.01894531 0.04140625 6.80419922 0.05126953 C8.02751953 0.06802734 9.25083984 0.08478516 10.51123047 0.10205078 C11.74228516 0.11107422 12.97333984 0.12009766 14.24169922 0.12939453 C17.29006862 0.1530253 20.33805429 0.18597024 23.38623047 0.22705078 C23.38623047 2.20705078 23.38623047 4.18705078 23.38623047 6.22705078 C16.12623047 6.22705078 8.86623047 6.22705078 1.38623047 6.22705078 C1.38623047 8.86705078 1.38623047 11.50705078 1.38623047 14.22705078 C2.00143555 14.20610352 2.61664063 14.18515625 3.25048828 14.16357422 C6.04556856 14.08028062 8.84038762 14.02835065 11.63623047 13.97705078 C13.08835937 13.92677734 13.08835937 13.92677734 14.56982422 13.87548828 C21.6502454 13.7778273 21.6502454 13.7778273 25.02294922 15.83642578 C26.79731133 18.94791464 26.95282891 21.15321306 26.94873047 24.72705078 C26.97064453 25.85111328 26.99255859 26.97517578 27.01513672 28.13330078 C26.38623047 31.22705078 26.38623047 31.22705078 24.23291016 33.39599609 C20.887655 35.54774684 19.15004105 35.69530321 15.21044922 35.61767578 C14.05351562 35.60478516 12.89658203 35.59189453 11.70458984 35.57861328 C10.50640625 35.54509766 9.30822266 35.51158203 8.07373047 35.47705078 C6.24745117 35.44998047 6.24745117 35.44998047 4.38427734 35.42236328 C1.38412625 35.37530209 -1.61441842 35.30956388 -4.61376953 35.22705078 C-4.61376953 32.91705078 -4.61376953 30.60705078 -4.61376953 28.22705078 C3.63623047 28.22705078 11.88623047 28.22705078 20.38623047 28.22705078 C20.05623047 25.91705078 19.72623047 23.60705078 19.38623047 21.22705078 C18.73025879 21.20723145 18.07428711 21.18741211 17.3984375 21.16699219 C14.43561978 21.07192571 11.47352515 20.96217326 8.51123047 20.85205078 C7.47869141 20.82111328 6.44615234 20.79017578 5.38232422 20.75830078 C4.39619141 20.71962891 3.41005859 20.68095703 2.39404297 20.64111328 C1.48283691 20.60969238 0.57163086 20.57827148 -0.3671875 20.54589844 C-2.61376953 20.22705078 -2.61376953 20.22705078 -4.61376953 18.22705078 C-4.81229055 15.51782277 -4.8921643 12.93401899 -4.86376953 10.22705078 C-4.87150391 9.48970703 -4.87923828 8.75236328 -4.88720703 7.99267578 C-4.85957733 0.42213777 -4.85957733 0.42213777 0 0 Z " fill="#EBC11E" transform="translate(335.61376953125,27.77294921875)"/>
<path d="M0 0 C1.0305249 0.00410889 2.0610498 0.00821777 3.12280273 0.01245117 C4.23977539 0.01438477 5.35674805 0.01631836 6.50756836 0.01831055 C8.26423828 0.03667969 8.26423828 0.03667969 10.05639648 0.05541992 C11.23137695 0.05606445 12.40635742 0.05670898 13.61694336 0.05737305 C22.35377508 0.10279852 22.35377508 0.10279852 23.49389648 1.24291992 C23.49389648 2.89291992 23.49389648 4.54291992 23.49389648 6.24291992 C16.23389648 6.24291992 8.97389648 6.24291992 1.49389648 6.24291992 C1.49389648 8.88291992 1.49389648 11.52291992 1.49389648 14.24291992 C2.07357178 14.22197266 2.65324707 14.20102539 3.25048828 14.17944336 C5.89394572 14.09595185 8.53712529 14.04415839 11.18139648 13.99291992 C12.54941406 13.94264648 12.54941406 13.94264648 13.94506836 13.89135742 C18.1807894 13.82974693 20.8223939 13.88147123 24.60717773 15.91870117 C27.50161735 19.48431519 27.06176485 22.18531977 26.86108398 26.60620117 C26.41962981 29.77621784 25.59574937 31.81770506 23.49389648 34.24291992 C20.77988354 35.59992639 18.64543332 35.35530602 15.61108398 35.34057617 C14.44448242 35.33735352 13.27788086 35.33413086 12.07592773 35.33081055 C10.85260742 35.32243164 9.62928711 35.31405273 8.36889648 35.30541992 C7.1378418 35.3009082 5.90678711 35.29639648 4.63842773 35.29174805 C1.59020257 35.27993322 -1.45792665 35.2634602 -4.50610352 35.24291992 C-4.50610352 32.93291992 -4.50610352 30.62291992 -4.50610352 28.24291992 C3.41389648 27.91291992 11.33389648 27.58291992 19.49389648 27.24291992 C19.49389648 25.26291992 19.49389648 23.28291992 19.49389648 21.24291992 C18.45664429 21.20533569 18.45664429 21.20533569 17.3984375 21.16699219 C14.28421782 21.05139831 11.17032859 20.9285075 8.05639648 20.80541992 C6.9677832 20.76610352 5.87916992 20.72678711 4.75756836 20.6862793 C3.7230957 20.64438477 2.68862305 20.60249023 1.62280273 20.55932617 C0.66446533 20.52266846 -0.29387207 20.48601074 -1.28125 20.44824219 C-3.50610352 20.24291992 -3.50610352 20.24291992 -4.50610352 19.24291992 C-4.63273443 16.4187561 -4.691309 13.62997199 -4.69360352 10.80541992 C-4.70584961 10.01586914 -4.7180957 9.22631836 -4.73071289 8.4128418 C-4.73597631 6.35484558 -4.62816637 4.29729983 -4.50610352 2.24291992 C-2.50610352 0.24291992 -2.50610352 0.24291992 0 0 Z " fill="#EBC11E" transform="translate(104.506103515625,27.757080078125)"/>
<path d="M0 0 C4.41644598 -0.11608127 8.83250017 -0.1872132 13.25 -0.25 C15.13138672 -0.30027344 15.13138672 -0.30027344 17.05078125 -0.3515625 C18.25605469 -0.36445313 19.46132813 -0.37734375 20.703125 -0.390625 C21.81333008 -0.41157227 22.92353516 -0.43251953 24.06738281 -0.45410156 C27.65934282 0.10209604 28.80553832 1.16186455 31 4 C31.42578125 6.18359375 31.42578125 6.18359375 31.3125 8.4375 C31.27898437 9.21996094 31.24546875 10.00242187 31.2109375 10.80859375 C30.97599358 13.24940002 30.5237135 15.60588116 30 18 C30.33 18.33 30.66 18.66 31 19 C31.2734375 21.328125 31.2734375 21.328125 31.375 24.25 C31.42398437 25.20390625 31.47296875 26.1578125 31.5234375 27.140625 C31 30 31 30 29.2734375 32.8359375 C24.16987366 36.20989259 19.22006769 35.56974911 13.25 35.375 C12.08855469 35.36082031 10.92710937 35.34664062 9.73046875 35.33203125 C1.18205915 35.18205915 1.18205915 35.18205915 0 34 C-0.125 31.5 -0.125 31.5 0 29 C1.68300669 27.31699331 3.82008727 27.77190923 6.12890625 27.68359375 C7.16337891 27.64169922 8.19785156 27.59980469 9.26367188 27.55664062 C10.35228516 27.51732422 11.44089844 27.47800781 12.5625 27.4375 C14.2012207 27.37272461 14.2012207 27.37272461 15.87304688 27.30664062 C18.58189564 27.20017932 21.29083992 27.09816484 24 27 C24 25.02 24 23.04 24 21 C17.07 20.67 10.14 20.34 3 20 C3 18.02 3 16.04 3 14 C13.395 13.505 13.395 13.505 24 13 C24 11.02 24 9.04 24 7 C16.08 6.67 8.16 6.34 0 6 C0 4.02 0 2.04 0 0 Z " fill="#EBC11E" transform="translate(298,28)"/>
<path d="M0 0 C1.00289062 -0.02900391 2.00578125 -0.05800781 3.0390625 -0.08789062 C7.45844767 -0.12598877 10.4523469 -0.10106152 14.421875 1.95703125 C16.73514093 4.93758543 16.86230868 6.56887722 16.75 10.3125 C16.7396875 11.34375 16.729375 12.375 16.71875 13.4375 C16.18792028 16.69325562 15.51105076 17.94671053 13.25 20.3125 C10.98168945 20.85839844 10.98168945 20.85839844 8.36328125 20.921875 C7.42548828 20.95410156 6.48769531 20.98632812 5.52148438 21.01953125 C4.54501953 21.03371094 3.56855469 21.04789063 2.5625 21.0625 C1.57443359 21.09214844 0.58636719 21.12179688 -0.43164062 21.15234375 C-2.87117596 21.22305492 -5.30975525 21.27574265 -7.75 21.3125 C-8.08 23.9525 -8.41 26.5925 -8.75 29.3125 C-0.5 29.3125 7.75 29.3125 16.25 29.3125 C16.25 31.2925 16.25 33.2725 16.25 35.3125 C6.35 35.3125 -3.55 35.3125 -13.75 35.3125 C-15.21961466 32.37327067 -14.95919862 29.70841028 -15 26.4375 C-15.02578125 25.20257813 -15.0515625 23.96765625 -15.078125 22.6953125 C-14.72131566 19.01677811 -14.28285114 17.90459304 -11.75 15.3125 C-9.48168945 14.76660156 -9.48168945 14.76660156 -6.86328125 14.703125 C-5.92548828 14.67089844 -4.98769531 14.63867188 -4.02148438 14.60546875 C-3.04501953 14.59128906 -2.06855469 14.57710937 -1.0625 14.5625 C-0.07443359 14.53285156 0.91363281 14.50320312 1.93164062 14.47265625 C4.37117596 14.40194508 6.80975525 14.34925735 9.25 14.3125 C9.25 12.0025 9.25 9.6925 9.25 7.3125 C2.32 6.9825 -4.61 6.6525 -11.75 6.3125 C-11.75 -2.18241054 -7.23154124 0.06865387 0 0 Z " fill="#F5C91F" transform="translate(192.75,137.6875)"/>
<path d="M0 0 C1.588125 -0.061875 3.17625 -0.12375 4.8125 -0.1875 C6.15248047 -0.23970703 6.15248047 -0.23970703 7.51953125 -0.29296875 C10 0 10 0 11.7578125 1.34765625 C13.31110494 3.41382827 14.05461528 5.60502538 15 8 C15.66 8.33 16.32 8.66 17 9 C17.99 6.03 18.98 3.06 20 0 C21.65 0 23.3 0 25 0 C26.98 5.61 28.96 11.22 31 17 C29.68 17 28.36 17 27 17 C26.67 16.34 26.34 15.68 26 15 C25.34 15 24.68 15 24 15 C23.34 17.97 22.68 20.94 22 24 C16.44816534 23.86120413 13.60838489 21.47006998 9.703125 17.85546875 C7.7492675 15.72683959 6.68233435 13.81462919 6 11 C5.34 11 4.68 11 4 11 C4 12.98 4 14.96 4 17 C2.68 17 1.36 17 0 17 C0 11.39 0 5.78 0 0 Z " fill="#373535" transform="translate(159,232)"/>
<path d="M0 0 C2.64 0 5.28 0 8 0 C8 126.06 8 252.12 8 382 C5.36 382 2.72 382 0 382 C0 381.34 0 380.68 0 380 C0.639375 379.896875 1.27875 379.79375 1.9375 379.6875 C2.618125 379.460625 3.29875 379.23375 4 379 C4.33 378.01 4.66 377.02 5 376 C5.66 376 6.32 376 7 376 C7 253.9 7 131.8 7 6 C5.68 5.34 4.36 4.68 3 4 C2.01 3.34 1.02 2.68 0 2 C0 1.34 0 0.68 0 0 Z " fill="#FCE99D" transform="translate(433,0)"/>
<path d="M0 0 C2.31 0 4.62 0 7 0 C6.01 0.495 6.01 0.495 5 1 C2.26414507 5.66704665 1.87459277 9.84473509 1.86857224 15.19697571 C1.86473109 16.47739589 1.86088995 17.75781607 1.8569324 19.07703686 C1.85771264 20.50098361 1.85859143 21.92493031 1.85955811 23.34887695 C1.85697454 24.85915611 1.8539614 26.36943458 1.8505547 27.8797121 C1.84248085 32.0359317 1.84069492 36.19213403 1.83995724 40.34836054 C1.83810742 44.82830424 1.83056059 49.30823897 1.82382202 53.78817749 C1.81023682 63.58541618 1.80421408 73.38265077 1.79981136 83.17989731 C1.79705003 89.29405555 1.79281295 95.40821221 1.78830719 101.52236938 C1.77611574 118.44247844 1.76581523 135.36258623 1.7624321 152.28269958 C1.76221253 153.36569857 1.76199297 154.44869756 1.76176675 155.5645147 C1.76154847 156.65013142 1.76133019 157.73574815 1.7611053 158.85426235 C1.76066183 161.05420876 1.76021527 163.25415516 1.75976562 165.45410156 C1.75943348 167.0909822 1.75943348 167.0909822 1.75909463 168.76093113 C1.75514366 186.45687648 1.73768 204.15278072 1.7144061 221.84871018 C1.6907177 240.00589702 1.67823144 258.16306322 1.67706418 276.32026577 C1.67614616 286.51941097 1.67036173 296.71850258 1.65224457 306.91763306 C1.63687765 315.59917205 1.631703 324.28064087 1.63998267 332.96219087 C1.64390091 337.39405024 1.64290256 341.82576817 1.62892532 346.25761032 C1.61625684 350.31140294 1.61732126 354.36494679 1.62951604 358.41873872 C1.63148531 359.88840032 1.62833831 361.35807911 1.61967167 362.82771647 C1.60866592 364.8194573 1.61781244 366.81127943 1.6280632 368.80302429 C1.62746611 369.91115825 1.62686903 371.0192922 1.62625384 372.16100597 C2.04495529 375.34148255 2.95842499 376.59768886 5 379 C5 379.66 5 380.32 5 381 C5.66 381.33 6.32 381.66 7 382 C4.69 382 2.38 382 0 382 C0 255.94 0 129.88 0 0 Z " fill="#F9CD1F" transform="translate(0,0)"/>
<path d="M0 0 C4.1117256 -0.02465746 8.22342278 -0.04283959 12.33520508 -0.05493164 C13.73495228 -0.0599708 15.1346942 -0.06680216 16.53442383 -0.07543945 C18.54245777 -0.0875232 20.55052957 -0.09269807 22.55859375 -0.09765625 C24.37315063 -0.10551147 24.37315063 -0.10551147 26.22436523 -0.11352539 C29 0 29 0 30 1 C30.76287956 4.8991622 30.61041836 6.94455597 28.6015625 10.41796875 C26.88914412 12.78390189 25.1292888 15.09638705 23.30175781 17.37451172 C21.86820778 19.16456725 20.46053179 20.97327051 19.0546875 22.78515625 C11.48306921 32.51693079 11.48306921 32.51693079 10 34 C7.32941149 34.14115161 4.67567762 34.04247107 2 34 C4.90632988 29.51088014 8.04000765 25.30300431 11.375 21.125 C15.3381 16.14313701 19.17795358 11.0960619 23 6 C15.41 6 7.82 6 0 6 C0 4.02 0 2.04 0 0 Z " fill="#F3C71E" transform="translate(68,28)"/>
<path d="M0 0 C2.83069391 0.80106147 5.3226538 1.86148241 7.9765625 3.12890625 C12.48051987 5.23441478 16.98525716 7.07659868 21.6640625 8.75390625 C18.07788427 12.53393195 16.04027861 14.44396502 10.7890625 15.12890625 C3.88478563 15.06964207 -3.6889471 11.51856651 -9.3359375 7.75390625 C-7.70533915 3.60329227 -4.85153691 -0.51111509 0 0 Z " fill="#323030" transform="translate(202.3359375,257.24609375)"/>
<path d="M0 0 C3.4375 1.9375 3.4375 1.9375 6 5 C6.48633826 8.25383455 6.09587407 10.90848158 5 14 C2.42158536 17.02042858 0.88197317 17.83463003 -3 18.5625 C-7.13018381 17.78809054 -8.50801033 16.34638613 -11 13 C-12.0625 9.5 -12.0625 9.5 -12 6 C-8.71580324 0.79058445 -6.13630292 -0.70803495 0 0 Z " fill="#E8E8E8" transform="translate(122,342)"/>
<path d="M0 0 C9.19869174 -0.49059689 9.19869174 -0.49059689 13.0625 1.875 C15.35215885 4.38623874 15.92560709 5.44205316 16.375 8.8125 C15.87538516 13.0592261 14.25696061 14.34898555 11 17 C8 18 8 18 0 18 C0 12.06 0 6.12 0 0 Z " fill="#E0E0E0" transform="translate(344,342)"/>
<path d="M0 0 C2.875 1.5625 2.875 1.5625 5 4 C6.1659741 8.00803597 6.43240501 10.05282711 4.6875 13.875 C2.81443138 16.233679 1.9324572 16.87399227 -1.0234375 17.2734375 C-7.32228167 17.5454806 -7.32228167 17.5454806 -10.5625 14.9375 C-12.37781677 11.22793965 -12.65622237 9.08316143 -12 5 C-8.57935012 0.12816532 -5.85570965 -0.94109619 0 0 Z " fill="#EDECEC" transform="translate(320,84)"/>
<path d="M0 0 C3.46145669 0.86536417 4.94931405 2.62635769 6.9375 5.484375 C7.49098638 9.35877968 7.23718563 12.26481512 4.9375 15.484375 C1.71456714 17.7864699 -1.18246324 17.95948154 -5.0625 17.484375 C-7.76240662 15.68443726 -9.6043865 14.400602 -11.0625 11.484375 C-11.59231019 7.51079855 -11.38131474 5.94267119 -9.0625 2.609375 C-5.7199165 0.24171169 -4.00236585 -0.27288858 0 0 Z " fill="#EEEEEE" transform="translate(173.0625,194.515625)"/>
<path d="M0 0 C1.175625 0.4125 2.35125 0.825 3.5625 1.25 C7.87796514 2.68620869 12.23532532 3.93845433 16.625 5.125 C17.85476562 5.45757812 19.08453125 5.79015625 20.3515625 6.1328125 C23.91742582 6.98037316 27.36863357 7.54257852 31 8 C30.6875 10.375 30.6875 10.375 30 13 C24.96384164 16.35743891 19.75990137 15.13328688 14 14 C8.4780337 12.11136344 3.23043736 9.57157575 -2 7 C-2 3 -2 3 0 0 Z " fill="#2A1819" transform="translate(207,248)"/>
<path d="M0 0 C2.475 0.495 2.475 0.495 5 1 C6.89798124 4.18142987 7.79373082 7.47054574 9 11 C10.98 7.37 12.96 3.74 15 0 C16.32 0 17.64 0 19 0 C19 5.94 19 11.88 19 18 C17.68 18 16.36 18 15 18 C14.67 15.69 14.34 13.38 14 11 C13.01 13.31 12.02 15.62 11 18 C10.01 18 9.02 18 8 18 C7.01 15.69 6.02 13.38 5 11 C4.67 13.31 4.34 15.62 4 18 C2.68 18 1.36 18 0 18 C0 12.06 0 6.12 0 0 Z " fill="#DEDEDE" transform="translate(43,342)"/>
<path d="M0 0 C0.33 0 0.66 0 1 0 C1 3.63 1 7.26 1 11 C2.32 11 3.64 11 5 11 C5 8.69 5 6.38 5 4 C7.69378051 6.51419515 9.44805246 8.67240077 11 12 C5.41364665 17.89543437 0.1947348 23.14567778 -7 27 C-7.66 27 -8.32 27 -9 27 C-8.47788565 21.15231932 -7.44628533 16.36301015 -5 11 C-4.01 10.67 -3.02 10.34 -2 10 C-2.226875 9.46375 -2.45375 8.9275 -2.6875 8.375 C-3.13958145 4.93918099 -1.67178015 2.94233306 0 0 Z " fill="#312F2F" transform="translate(191,238)"/>
<path d="M0 0 C1.32 0 2.64 0 4 0 C5.65 3.63 7.3 7.26 9 11 C10.98 7.37 12.96 3.74 15 0 C16.32 0 17.64 0 19 0 C19 5.94 19 11.88 19 18 C17.68 18 16.36 18 15 18 C14.67 15.36 14.34 12.72 14 10 C13.01 12.31 12.02 14.62 11 17 C9.1875 16.9375 9.1875 16.9375 7 16 C5.25 12.4375 5.25 12.4375 4 9 C3.67 11.64 3.34 14.28 3 17 C2.01 17 1.02 17 0 17 C0 11.39 0 5.78 0 0 Z " fill="#E7E7E7" transform="translate(261,342)"/>
<path d="M0 0 C2.475 0.495 2.475 0.495 5 1 C6.89798124 4.18142987 7.79373082 7.47054574 9 11 C10.65 7.37 12.3 3.74 14 0 C15.65 0 17.3 0 19 0 C19 5.61 19 11.22 19 17 C17.68 17 16.36 17 15 17 C14.67 14.69 14.34 12.38 14 10 C13.01 12.31 12.02 14.62 11 17 C9.109375 16.75390625 9.109375 16.75390625 7 16 C5.55036313 13.44149911 4.89599095 10.8223715 4 8 C3.67 10.97 3.34 13.94 3 17 C2.01 17 1.02 17 0 17 C0 11.39 0 5.78 0 0 Z " fill="#F8F8F8" transform="translate(205,195)"/>
<path d="M0 0 C1.32 0 2.64 0 4 0 C4.67119549 1.4562545 5.33681807 2.91507867 6 4.375 C6.556875 5.59316406 6.556875 5.59316406 7.125 6.8359375 C8 9 8 9 8 11 C8.66 11 9.32 11 10 11 C10.20496094 10.37351563 10.40992188 9.74703125 10.62109375 9.1015625 C10.89050781 8.28429687 11.15992188 7.46703125 11.4375 6.625 C11.70433594 5.81289062 11.97117188 5.00078125 12.24609375 4.1640625 C13 2 13 2 14 0 C15.32 0 16.64 0 18 0 C18 5.61 18 11.22 18 17 C17.01 17 16.02 17 15 17 C14.67 14.36 14.34 11.72 14 9 C13.01 11.64 12.02 14.28 11 17 C9.68 16.67 8.36 16.34 7 16 C5.25 12.4375 5.25 12.4375 4 9 C3.67 11.64 3.34 14.28 3 17 C2.01 17 1.02 17 0 17 C0 11.39 0 5.78 0 0 Z " fill="#F7F7F7" transform="translate(183,195)"/>
<path d="M0 0 C9 0 9 0 11.5625 1.1875 C13 3 13 3 13.375 5.5625 C13 8 13 8 11 10 C11.27617533 11.94074861 11.27617533 11.94074861 12 14 C12.33333333 15.33333333 12.66666667 16.66666667 13 18 C11.68 18 10.36 18 9 18 C6 13.92857143 6 13.92857143 6 11 C5.34 11 4.68 11 4 11 C4 13.31 4 15.62 4 18 C2.68 18 1.36 18 0 18 C0 12.06 0 6.12 0 0 Z " fill="#E3E2E2" transform="translate(296,342)"/>
<path d="M0 0 C9 0 9 0 11.5625 1.1875 C13 3 13 3 13.375 5.5625 C13 8 13 8 11 10 C11.36276645 12.82957829 12.09694764 15.29084291 13 18 C11.68 18 10.36 18 9 18 C6 13.92857143 6 13.92857143 6 11 C5.34 11 4.68 11 4 11 C4 13.31 4 15.62 4 18 C2.68 18 1.36 18 0 18 C0 12.06 0 6.12 0 0 Z " fill="#E3E3E3" transform="translate(383,342)"/>
<path d="M0 0 C1.588125 -0.061875 3.17625 -0.12375 4.8125 -0.1875 C6.15248047 -0.23970703 6.15248047 -0.23970703 7.51953125 -0.29296875 C10 0 10 0 11.8359375 1.35546875 C13 3 13 3 12.8125 5.5 C12 8 12 8 10 11 C10.99 12.98 11.98 14.96 13 17 C10.6875 16.8125 10.6875 16.8125 8 16 C6.1875 13.4375 6.1875 13.4375 5 11 C4.67 12.98 4.34 14.96 4 17 C2.68 17 1.36 17 0 17 C0 11.39 0 5.78 0 0 Z " fill="#EAEAEA" transform="translate(192,232)"/>
<path d="M0 0 C8.24550898 -0.48502994 8.24550898 -0.48502994 11.625 1.6875 C13 4 13 4 12.75 6.75 C12.5025 7.4925 12.255 8.235 12 9 C11.01 9.33 10.02 9.66 9 10 C9.7425 11.175625 9.7425 11.175625 10.5 12.375 C12 15 12 15 12 17 C10.68 17 9.36 17 8 17 C7.34 15.02 6.68 13.04 6 11 C5.01 11 4.02 11 3 11 C3 12.98 3 14.96 3 17 C2.01 17 1.02 17 0 17 C0 11.39 0 5.78 0 0 Z " fill="#F4F3F3" transform="translate(293,84)"/>
<path d="M0 0 C4.59195094 1.14798774 4.87820524 1.73528573 7.25 5.5625 C8.03117188 6.80193359 8.03117188 6.80193359 8.828125 8.06640625 C9.21484375 8.70449219 9.6015625 9.34257813 10 10 C10.33 6.7 10.66 3.4 11 0 C12.32 0 13.64 0 15 0 C15 5.94 15 11.88 15 18 C10 17 10 17 8.19921875 14.71484375 C7.70035156 13.79832031 7.20148438 12.88179687 6.6875 11.9375 C6.17574219 11.01839844 5.66398438 10.09929687 5.13671875 9.15234375 C4.57404297 8.08693359 4.57404297 8.08693359 4 7 C3.67 10.3 3.34 13.6 3 17 C2.01 17 1.02 17 0 17 C0 11.39 0 5.78 0 0 Z " fill="#EAEAEA" transform="translate(168,84)"/>
<path d="M0 0 C8.625 -0.25 8.625 -0.25 12 2 C12.1875 5.625 12.1875 5.625 12 9 C11.01 9.33 10.02 9.66 9 10 C9.7425 11.175625 9.7425 11.175625 10.5 12.375 C12 15 12 15 12 17 C10.68 17 9.36 17 8 17 C6.375 14.5625 6.375 14.5625 5 12 C4.34 11.67 3.68 11.34 3 11 C3 12.98 3 14.96 3 17 C2.01 17 1.02 17 0 17 C0 11.39 0 5.78 0 0 Z " fill="#F3F3F3" transform="translate(72,84)"/>
<path d="M0 0 C5 1 5 1 6.80078125 3.06640625 C7.29964844 3.89011719 7.79851562 4.71382812 8.3125 5.5625 C8.82425781 6.38878906 9.33601562 7.21507812 9.86328125 8.06640625 C10.23839844 8.70449219 10.61351562 9.34257812 11 10 C11.33 6.7 11.66 3.4 12 0 C12.99 0 13.98 0 15 0 C15 5.61 15 11.22 15 17 C13.68 17 12.36 17 11 17 C9.296875 15.03125 9.296875 15.03125 7.75 12.5 C7.22921875 11.6646875 6.7084375 10.829375 6.171875 9.96875 C5.59179688 8.99421875 5.59179688 8.99421875 5 8 C4.67 10.97 4.34 13.94 4 17 C2.68 17 1.36 17 0 17 C0 11.39 0 5.78 0 0 Z " fill="#F1F1F1" transform="translate(222,232)"/>
<path d="M0 0 C2.3125 0.8125 2.3125 0.8125 4 2 C4.33 2.99 4.66 3.98 5 5 C3.95199219 4.85691406 3.95199219 4.85691406 2.8828125 4.7109375 C1.97273438 4.60007812 1.06265625 4.48921875 0.125 4.375 C-0.77992188 4.25898438 -1.68484375 4.14296875 -2.6171875 4.0234375 C-3.40351563 4.01570313 -4.18984375 4.00796875 -5 4 C-5.66 4.66 -6.32 5.32 -7 6 C-6.67673447 9.59679066 -6.67673447 9.59679066 -6 13 C-3.69 13.33 -1.38 13.66 1 14 C1 13.34 1 12.68 1 12 C-0.65 11.67 -2.3 11.34 -4 11 C-4 10.01 -4 9.02 -4 8 C-0.7 8 2.6 8 6 8 C5.74327938 11.7652358 5.40674134 13.55839511 2.8125 16.375 C-0.56304388 18.32531424 -2.16694546 18.71869773 -6 18 C-9.03155153 15.95699788 -10.68092107 14.44614806 -11.484375 10.8046875 C-11.7294232 6.67970946 -11.56395277 4.6800607 -8.875 1.4375 C-5.5493613 -0.22531935 -3.67190556 -0.4687539 0 0 Z " fill="#E8E8E8" transform="translate(323,342)"/>
<path d="M0 0 C1.60875 -0.04125 3.2175 -0.0825 4.875 -0.125 C5.77992188 -0.14820313 6.68484375 -0.17140625 7.6171875 -0.1953125 C10 0 10 0 12 2 C12.27328143 5.14273643 12.40391132 7.25949592 10.875 10.0625 C9.69460607 12.10070585 9.69460607 12.10070585 10.875 14.75 C11.24625 15.4925 11.6175 16.235 12 17 C10.68 17 9.36 17 8 17 C7.54625 16.030625 7.0925 15.06125 6.625 14.0625 C5.34213779 10.92920418 5.34213779 10.92920418 3 10 C3 12.31 3 14.62 3 17 C2.01 17 1.02 17 0 17 C0 11.39 0 5.78 0 0 Z " fill="#F5F5F5" transform="translate(254,232)"/>
<path d="M0 0 C8 0 8 0 10.5 1.1875 C12 3 12 3 12.375 5.4375 C12 8 12 8 10.875 10 C9.69689905 12.09393753 9.69689905 12.09393753 10.875 14.75 C11.24625 15.4925 11.6175 16.235 12 17 C9.625 16.75 9.625 16.75 7 16 C5.8125 14 5.8125 14 5 12 C4.34 11.67 3.68 11.34 3 11 C3 12.98 3 14.96 3 17 C2.01 17 1.02 17 0 17 C0 11.39 0 5.78 0 0 Z " fill="#F5F5F5" transform="translate(131,342)"/>
<path d="M0 0 C2.38671875 0.0078125 2.38671875 0.0078125 5 1 C6.23264809 3.38007607 7.04420428 5.35095962 7.8125 7.875 C8.02841797 8.51308594 8.24433594 9.15117188 8.46679688 9.80859375 C9.40188875 12.65246048 10 14.98995706 10 18 C8.68 17.67 7.36 17.34 6 17 C6 16.01 6 15.02 6 14 C3.69 14.33 1.38 14.66 -1 15 C-1.33 15.99 -1.66 16.98 -2 18 C-3.32 18 -4.64 18 -6 18 C-5.31040267 14.12101499 -4.25091639 10.48435333 -3 6.75 C-2.649375 5.69296875 -2.29875 4.6359375 -1.9375 3.546875 C-1 1 -1 1 0 0 Z " fill="#E6E5E5" transform="translate(155,84)"/>
<path d="M0 0 C2.32421875 0.10546875 2.32421875 0.10546875 5 1 C6.58203125 3.80078125 6.58203125 3.80078125 7.8125 7.3125 C8.23144531 8.46363281 8.65039062 9.61476563 9.08203125 10.80078125 C10 14 10 14 10 18 C8.68 17.67 7.36 17.34 6 17 C6 16.01 6 15.02 6 14 C3.69 14.33 1.38 14.66 -1 15 C-1.33 15.99 -1.66 16.98 -2 18 C-3.32 18 -4.64 18 -6 18 C-5.31583566 13.82423832 -3.98634991 10.11919593 -2.4375 6.1875 C-1.75494141 4.44533203 -1.75494141 4.44533203 -1.05859375 2.66796875 C-0.70925781 1.78753906 -0.35992187 0.90710938 0 0 Z " fill="#D3D2D2" transform="translate(59,84)"/>
<path d="M0 0 C9 0 9 0 11.5625 1.1875 C13 3 13 3 13.5 5.5 C13 8 13 8 11.3125 9.8125 C8.65769564 11.17577792 6.94425817 11.24535485 4 11 C4 13.31 4 15.62 4 18 C2.68 18 1.36 18 0 18 C0 12.06 0 6.12 0 0 Z " fill="#E3E3E3" transform="translate(368,342)"/>
<path d="M0 0 C1.65 0 3.3 0 5 0 C6.98 5.61 8.96 11.22 11 17 C9.68 17 8.36 17 7 17 C6.67 16.34 6.34 15.68 6 15 C3.69 15 1.38 15 -1 15 C-1.33 15.66 -1.66 16.32 -2 17 C-3.32 16.67 -4.64 16.34 -6 16 C-4.02 10.72 -2.04 5.44 0 0 Z " fill="#EEEEEE" transform="translate(179,232)"/>
<path d="M0 0 C1.65 0 3.3 0 5 0 C4.525625 0.680625 4.05125 1.36125 3.5625 2.0625 C1.78162385 5.41054716 1.50184395 8.27201636 1 12 C-1.49036572 13.24518286 -3.22621061 13 -6 13 C-7.299375 13.3403125 -7.299375 13.3403125 -8.625 13.6875 C-11 14 -11 14 -12.8125 12.9375 C-14.49943411 10.18513382 -14.33661952 8.1642235 -14 5 C-12 3 -12 3 -9.1875 2.75 C-6.03686185 2.99710887 -3.84084818 3.66313027 -1 5 C-0.67 3.35 -0.34 1.7 0 0 Z " fill="#211E1E" transform="translate(161,195)"/>
<path d="M0 0 C4.59195094 1.14798774 4.87820524 1.73528573 7.25 5.5625 C8.03117187 6.80193359 8.03117187 6.80193359 8.828125 8.06640625 C9.21484375 8.70449219 9.6015625 9.34257812 10 10 C10.33 6.7 10.66 3.4 11 0 C11.99 0 12.98 0 14 0 C14 5.61 14 11.22 14 17 C12.68 17 11.36 17 10 17 C8.296875 15.03125 8.296875 15.03125 6.75 12.5 C6.22921875 11.6646875 5.7084375 10.829375 5.171875 9.96875 C4.59179688 8.99421875 4.59179688 8.99421875 4 8 C3.67 10.97 3.34 13.94 3 17 C2.01 17 1.02 17 0 17 C0 11.39 0 5.78 0 0 Z " fill="#F7F7F7" transform="translate(79,342)"/>
<path d="M0 0 C1.588125 -0.061875 3.17625 -0.12375 4.8125 -0.1875 C6.15248047 -0.23970703 6.15248047 -0.23970703 7.51953125 -0.29296875 C10 0 10 0 11.8359375 1.3515625 C13 3 13 3 12.8125 5.5625 C12 8 12 8 10 10 C6.875 10.125 6.875 10.125 4 10 C4 12.31 4 14.62 4 17 C2.68 17 1.36 17 0 17 C0 11.39 0 5.78 0 0 Z " fill="#E8E8E8" transform="translate(159,232)"/>
<path d="M0 0 C1.32 0 2.64 0 4 0 C5.703125 2.1875 5.703125 2.1875 7.25 5 C8.03117188 6.3921875 8.03117188 6.3921875 8.828125 7.8125 C9.21484375 8.534375 9.6015625 9.25625 10 10 C10.33 6.7 10.66 3.4 11 0 C11.99 0 12.98 0 14 0 C14 5.61 14 11.22 14 17 C9.40804906 15.85201226 9.12179476 15.26471427 6.75 11.4375 C6.22921875 10.61121094 5.7084375 9.78492188 5.171875 8.93359375 C4.78515625 8.29550781 4.3984375 7.65742188 4 7 C3.67 10.3 3.34 13.6 3 17 C2.01 17 1.02 17 0 17 C0 11.39 0 5.78 0 0 Z " fill="#FAFAFA" transform="translate(245,195)"/>
<path d="M0 0 C8.625 -0.25 8.625 -0.25 12 2 C12.375 5.5 12.375 5.5 12 9 C8.5647952 11.29013653 7.014669 11.17842973 3 11 C3 12.98 3 14.96 3 17 C2.01 17 1.02 17 0 17 C0 11.39 0 5.78 0 0 Z " fill="#F4F4F4" transform="translate(278,84)"/>
<path d="M0 0 C8.625 -0.25 8.625 -0.25 12 2 C12.375 5.5 12.375 5.5 12 9 C8.5647952 11.29013653 7.014669 11.17842973 3 11 C3 12.98 3 14.96 3 17 C2.01 17 1.02 17 0 17 C0 11.39 0 5.78 0 0 Z " fill="#F4F4F4" transform="translate(135,84)"/>
<path d="M0 0 C8.625 -0.25 8.625 -0.25 12 2 C12.375 5.5 12.375 5.5 12 9 C8.5647952 11.29013653 7.014669 11.17842973 3 11 C3 12.98 3 14.96 3 17 C2.01 17 1.02 17 0 17 C0 11.39 0 5.78 0 0 Z " fill="#F4F4F4" transform="translate(39,84)"/>
<path d="M0 0 C0.66 0 1.32 0 2 0 C3.33912585 3.12254943 4.67030658 6.24842358 6 9.375 C6.3815625 10.26445312 6.763125 11.15390625 7.15625 12.0703125 C7.69765625 13.34648437 7.69765625 13.34648437 8.25 14.6484375 C8.58515625 15.43395996 8.9203125 16.21948242 9.265625 17.02880859 C10 19 10 19 10 21 C8.54207116 21.05399736 7.08357288 21.09279177 5.625 21.125 C4.40683594 21.15980469 4.40683594 21.15980469 3.1640625 21.1953125 C1 21 1 21 -1 19 C-1.24291992 17.13647461 -1.24291992 17.13647461 -1.23046875 14.90234375 C-1.22853516 14.10119141 -1.22660156 13.30003906 -1.22460938 12.47460938 C-1.21236328 11.63736328 -1.20011719 10.80011719 -1.1875 9.9375 C-1.18685547 9.09638672 -1.18621094 8.25527344 -1.18554688 7.38867188 C-1.14023184 1.14023184 -1.14023184 1.14023184 0 0 Z " fill="#3B372F" transform="translate(219,146)"/>
<path d="M0 0 C2.9375 1.875 2.9375 1.875 5 4 C5 4.66 5 5.32 5 6 C0.125 5.125 0.125 5.125 -1 4 C-3.5 3.83333333 -3.5 3.83333333 -6 4 C-7.40432936 5.17718985 -7.40432936 5.17718985 -7.125 8.5 C-7.40432936 11.82281015 -7.40432936 11.82281015 -6 13 C-2.16680771 13.17423601 1.26835686 12.87803368 5 12 C4.06788763 14.33028092 3.30996602 15.75891532 1.3125 17.3125 C-2.15265918 18.34268246 -4.52817876 17.92995212 -8 17 C-11.14674823 14.25668103 -11.89954133 12.62507614 -12.5625 8.5 C-12 5 -12 5 -9.9375 2.0625 C-6.2404927 -0.53327109 -4.43355658 -0.71253588 0 0 Z " fill="#E6E5E5" transform="translate(120,84)"/>
<path d="M0 0 C2.58324013 1.29162007 2.69721131 2.27331625 3.7265625 4.9296875 C4.190625 6.12271484 4.190625 6.12271484 4.6640625 7.33984375 C4.98117187 8.17644531 5.29828125 9.01304687 5.625 9.875 C5.94984375 10.70386719 6.2746875 11.53273438 6.609375 12.38671875 C9 18.60435268 9 18.60435268 9 22 C2.375 22.25 2.375 22.25 -1 20 C-1.35644531 18.04467773 -1.35644531 18.04467773 -1.328125 15.68359375 C-1.32039063 14.41418945 -1.32039063 14.41418945 -1.3125 13.11914062 C-1.291875 12.23419922 -1.27125 11.34925781 -1.25 10.4375 C-1.24484375 9.54869141 -1.2396875 8.65988281 -1.234375 7.74414062 C-1.15394546 1.15394546 -1.15394546 1.15394546 0 0 Z " fill="#29241A" transform="translate(323,293)"/>
<path d="M0 0 C2.97 0 5.94 0 9 0 C11 2 11 2 11.22705078 3.87939453 C11.21134033 4.99483643 11.21134033 4.99483643 11.1953125 6.1328125 C11.18564453 7.34130859 11.18564453 7.34130859 11.17578125 8.57421875 C11.15902344 9.41597656 11.14226562 10.25773437 11.125 11.125 C11.11597656 11.97449219 11.10695313 12.82398438 11.09765625 13.69921875 C11.07405647 15.79959884 11.03818483 17.89983444 11 20 C10.01 20.33 9.02 20.66 8 21 C5.36 14.07 2.72 7.14 0 0 Z " fill="#24201A" transform="translate(330,292)"/>
<path d="M0 0 C2.4375 1.375 2.4375 1.375 4 3 C4 3.66 4 4.32 4 5 C3.28972656 4.91621094 2.57945312 4.83242187 1.84765625 4.74609375 C0.46900391 4.59333984 0.46900391 4.59333984 -0.9375 4.4375 C-1.85402344 4.33308594 -2.77054687 4.22867188 -3.71484375 4.12109375 C-4.84599609 4.06115234 -4.84599609 4.06115234 -6 4 C-7.41577477 5.18424326 -7.41577477 5.18424326 -7.0625 8.5625 C-7.041875 9.696875 -7.02125 10.83125 -7 12 C-4.69 12.66 -2.38 13.32 0 14 C0 13.34 0 12.68 0 12 C1.65 12 3.3 12 5 12 C4.06788763 14.33028092 3.30996602 15.75891532 1.3125 17.3125 C-2.15265918 18.34268246 -4.52817876 17.92995212 -8 17 C-11.14674823 14.25668103 -11.89954133 12.62507614 -12.5625 8.5 C-12 5 -12 5 -9.9375 2.0625 C-6.27096589 -0.51187502 -4.39593437 -0.63940864 0 0 Z " fill="#E7E7E7" transform="translate(367,84)"/>
<path d="M0 0 C3.44514968 2.73128984 4.65483751 6.52643058 6.1875 10.5 C6.46013672 11.17675781 6.73277344 11.85351562 7.01367188 12.55078125 C8.17796141 15.50965239 9 17.79271544 9 21 C6.03 21 3.06 21 0 21 C-1.13945516 18.72108967 -1.12894214 17.43217896 -1.1328125 14.90234375 C-1.13410156 14.10119141 -1.13539063 13.30003906 -1.13671875 12.47460938 C-1.13285156 11.63736328 -1.12898438 10.80011719 -1.125 9.9375 C-1.12886719 9.09638672 -1.13273437 8.25527344 -1.13671875 7.38867188 C-1.12662682 1.12662682 -1.12662682 1.12662682 0 0 Z " fill="#24201A" transform="translate(357,293)"/>
<path d="M0 0 C0 4.62 0 9.24 0 14 C-5.28 14 -10.56 14 -16 14 C-16 12 -16 12 -14.4609375 10.44921875 C-13.77257812 9.86785156 -13.08421875 9.28648437 -12.375 8.6875 C-11.64796875 8.07132812 -10.9209375 7.45515625 -10.171875 6.8203125 C-9.09679687 5.91925781 -9.09679687 5.91925781 -8 5 C-7.11054688 4.22269531 -7.11054688 4.22269531 -6.203125 3.4296875 C-2.24428571 0 -2.24428571 0 0 0 Z " fill="#241F1A" transform="translate(303,293)"/>
<path d="M0 0 C3.44514968 2.73128984 4.65483751 6.52643058 6.1875 10.5 C6.46013672 11.17675781 6.73277344 11.85351562 7.01367188 12.55078125 C8.17796141 15.50965239 9 17.79271544 9 21 C7.52093108 21.02689216 6.04172517 21.04634621 4.5625 21.0625 C3.32693359 21.07990234 3.32693359 21.07990234 2.06640625 21.09765625 C0 21 0 21 -1 20 C-1.09860131 18.59651265 -1.13078937 17.18819523 -1.1328125 15.78125 C-1.13410156 14.93175781 -1.13539063 14.08226562 -1.13671875 13.20703125 C-1.13285156 12.31371094 -1.12898437 11.42039062 -1.125 10.5 C-1.12886719 9.60667969 -1.13273438 8.71335937 -1.13671875 7.79296875 C-1.13542969 6.94347656 -1.13414062 6.09398437 -1.1328125 5.21875 C-1.13168457 4.43435547 -1.13055664 3.64996094 -1.12939453 2.84179688 C-1 1 -1 1 0 0 Z " fill="#25211A" transform="translate(141,35)"/>
<path d="M0 0 C0.99 0.66 1.98 1.32 3 2 C3 2.99 3 3.98 3 5 C1.68 5 0.36 5 -1 5 C-1 4.34 -1 3.68 -1 3 C-2.32 3 -3.64 3 -5 3 C-4.28360801 6.28843538 -4.28360801 6.28843538 -1 7.625 C-0.01 8.07875 0.98 8.5325 2 9 C3 10 3 10 3.25 12.375 C3 15 3 15 1.9375 16.875 C-1.17214989 18.68060316 -3.61739473 17.79952488 -7 17 C-7.66 16.34 -8.32 15.68 -9 15 C-9 14.01 -9 13.02 -9 12 C-7.68 12 -6.36 12 -5 12 C-4.67 12.66 -4.34 13.32 -4 14 C-3.01 14 -2.02 14 -1 14 C-1 13.34 -1 12.68 -1 12 C-1.94875 11.54625 -2.8975 11.0925 -3.875 10.625 C-7 9 -7 9 -9 7 C-9.3125 4.5 -9.3125 4.5 -9 2 C-5.53001271 -0.31332486 -4.07490752 -0.33957563 0 0 Z " fill="#E7E6E6" transform="translate(209,84)"/>
<path d="M0 0 C3.0625 0.25 3.0625 0.25 6.0625 2.25 C6.0625 3.24 6.0625 4.23 6.0625 5.25 C4.7425 5.25 3.4225 5.25 2.0625 5.25 C2.0625 4.59 2.0625 3.93 2.0625 3.25 C0.7425 3.25 -0.5775 3.25 -1.9375 3.25 C-1.22745535 6.52856999 -1.22745535 6.52856999 2 7.8125 C3.010625 8.286875 4.02125 8.76125 5.0625 9.25 C5.7225 9.91 6.3825 10.57 7.0625 11.25 C6.875 13.75 6.875 13.75 6.0625 16.25 C3.0625 18.25 3.0625 18.25 -0.5 18.125 C-3.9375 17.25 -3.9375 17.25 -5.375 15.1875 C-5.560625 14.548125 -5.74625 13.90875 -5.9375 13.25 C-3.2975 13.58 -0.6575 13.91 2.0625 14.25 C2.0625 13.59 2.0625 12.93 2.0625 12.25 C1.11375 11.79625 0.165 11.3425 -0.8125 10.875 C-3.9375 9.25 -3.9375 9.25 -5.9375 7.25 C-5.49166871 2.79168705 -4.82926429 0.41100122 0 0 Z " fill="#E7E6E6" transform="translate(151.9375,341.75)"/>
<path d="M0 0 C3.5625 0.3125 3.5625 0.3125 5.5 1.6875 C6.5625 3.3125 6.5625 3.3125 6.5625 5.3125 C3.9225 4.9825 1.2825 4.6525 -1.4375 4.3125 C-1.4375 4.9725 -1.4375 5.6325 -1.4375 6.3125 C-0.303125 6.786875 0.83125 7.26125 2 7.75 C5.5625 9.3125 5.5625 9.3125 6.5625 10.3125 C6.875 12.6875 6.875 12.6875 6.5625 15.3125 C4.43458838 17.5980347 3.08841672 18.23553658 0 18.6875 C-2.4375 18.3125 -2.4375 18.3125 -4.25 17 C-5.4375 15.3125 -5.4375 15.3125 -5.4375 12.3125 C-4.1175 12.6425 -2.7975 12.9725 -1.4375 13.3125 C-1.4375 13.9725 -1.4375 14.6325 -1.4375 15.3125 C-0.1175 15.3125 1.2025 15.3125 2.5625 15.3125 C2.5625 13.9925 2.5625 12.6725 2.5625 11.3125 C1.428125 11.003125 0.29375 10.69375 -0.875 10.375 C-4.4375 9.3125 -4.4375 9.3125 -5.4375 8.3125 C-5.625 5.375 -5.625 5.375 -5.4375 2.3125 C-3.4375 0.3125 -3.4375 0.3125 0 0 Z " fill="#E7E7E7" transform="translate(394.4375,83.6875)"/>
<path d="M0 0 C6.0546875 -0.1953125 6.0546875 -0.1953125 8 0 C10 2 10 2 10.22705078 3.87939453 C10.21134033 4.99483643 10.21134033 4.99483643 10.1953125 6.1328125 C10.18564453 7.34130859 10.18564453 7.34130859 10.17578125 8.57421875 C10.15902344 9.41597656 10.14226562 10.25773437 10.125 11.125 C10.11597656 11.97449219 10.10695312 12.82398438 10.09765625 13.69921875 C10.07405647 15.79959884 10.03818483 17.89983444 10 20 C9.01 20 8.02 20 7 20 C5.82685974 17.23174812 4.66129785 14.46071514 3.5 11.6875 C2.99919922 10.50897461 2.99919922 10.50897461 2.48828125 9.30664062 C2.17246094 8.54931641 1.85664063 7.79199219 1.53125 7.01171875 C1.23798828 6.31522217 0.94472656 5.61872559 0.64257812 4.90112305 C0 3 0 3 0 0 Z " fill="#211D1A" transform="translate(149,34)"/>
<path d="M0 0 C3.3 0 6.6 0 10 0 C10 0.99 10 1.98 10 3 C8.02 3 6.04 3 4 3 C4 4.32 4 5.64 4 7 C5.98 7 7.96 7 10 7 C10 7.99 10 8.98 10 10 C8.02 10 6.04 10 4 10 C4 11.65 4 13.3 4 15 C6.31 15 8.62 15 11 15 C11 15.99 11 16.98 11 18 C7.37 18 3.74 18 0 18 C0 12.06 0 6.12 0 0 Z " fill="#DDDDDD" transform="translate(331,342)"/>
<path d="M0 0 C3.3 0 6.6 0 10 0 C10 0.99 10 1.98 10 3 C8.02 3 6.04 3 4 3 C4 4.32 4 5.64 4 7 C5.98 7 7.96 7 10 7 C10 7.99 10 8.98 10 10 C8.02 10 6.04 10 4 10 C4 11.65 4 13.3 4 15 C6.31 15 8.62 15 11 15 C11 15.99 11 16.98 11 18 C7.37 18 3.74 18 0 18 C0 12.06 0 6.12 0 0 Z " fill="#DDDCDC" transform="translate(65,342)"/>
<path d="M0 0 C1.65 0 3.3 0 5 0 C5.33 1.65 5.66 3.3 6 5 C7.32 5 8.64 5 10 5 C10 6.65 10 8.3 10 10 C8.68 10 7.36 10 6 10 C6 11.65 6 13.3 6 15 C4.02 15 2.04 15 0 15 C0 13.35 0 11.7 0 10 C-1.32 10 -2.64 10 -4 10 C-4 8.35 -4 6.7 -4 5 C-2.68 5 -1.36 5 0 5 C0 3.35 0 1.7 0 0 Z " fill="#E9BF1E" transform="translate(132,294)"/>
<path d="M0 0 C6.625 -0.25 6.625 -0.25 10 2 C10.34057617 3.97119141 10.34057617 3.97119141 10.29296875 6.3515625 C10.28330078 7.20234375 10.27363281 8.053125 10.26367188 8.9296875 C10.23853516 9.81914062 10.21339844 10.70859375 10.1875 11.625 C10.17396484 12.5221875 10.16042969 13.419375 10.14648438 14.34375 C10.11106925 16.56309789 10.06168461 18.78125188 10 21 C9.34 21.33 8.68 21.66 8 22 C6.65791246 18.89954577 5.32786246 15.79407011 4 12.6875 C3.6184375 11.80642578 3.236875 10.92535156 2.84375 10.01757812 C2.4828125 9.17001953 2.121875 8.32246094 1.75 7.44921875 C1.41484375 6.66893311 1.0796875 5.88864746 0.734375 5.0847168 C0 3 0 3 0 0 Z " fill="#372819" transform="translate(227,144)"/>
<path d="M0 0 C6.0546875 -0.1953125 6.0546875 -0.1953125 8 0 C10 2 10 2 10.22705078 3.97119141 C10.21134033 5.1494751 10.21134033 5.1494751 10.1953125 6.3515625 C10.18564453 7.62773437 10.18564453 7.62773437 10.17578125 8.9296875 C10.15902344 9.81914062 10.14226562 10.70859375 10.125 11.625 C10.11597656 12.5221875 10.10695313 13.419375 10.09765625 14.34375 C10.0740497 16.56276586 10.0411231 18.78125077 10 21 C9.34 21.33 8.68 21.66 8 22 C6.66108439 18.71057634 5.32982297 15.41810891 4 12.125 C3.6184375 11.18785156 3.236875 10.25070312 2.84375 9.28515625 C2.4828125 8.38925781 2.121875 7.49335938 1.75 6.5703125 C1.41484375 5.74289551 1.0796875 4.91547852 0.734375 4.06298828 C0 2 0 2 0 0 Z " fill="#211D1A" transform="translate(365,292)"/>
<path d="M0 0 C1.32 0 2.64 0 4 0 C4.33 4.29 4.66 8.58 5 13 C6.65 12.67 8.3 12.34 10 12 C10.33 8.04 10.66 4.08 11 0 C11.99 0 12.98 0 14 0 C14.10832169 2.08218362 14.18573541 4.16599129 14.25 6.25 C14.29640625 7.41015625 14.3428125 8.5703125 14.390625 9.765625 C14 13 14 13 12.171875 15.390625 C10 17 10 17 7 17.5 C3.25501218 16.87583536 2.28887786 15.99314797 0 13 C-0.390625 9.765625 -0.390625 9.765625 -0.25 6.25 C-0.21390625 5.07953125 -0.1778125 3.9090625 -0.140625 2.703125 C-0.09421875 1.81109375 -0.0478125 0.9190625 0 0 Z " fill="#F0F0F0" transform="translate(227,195)"/>
<path d="M0 0 C2.5 2 2.5 2 4 4 C2.0625 4.5625 2.0625 4.5625 0 5 C-0.33 4.67 -0.66 4.34 -1 4 C-4 3.83333333 -4 3.83333333 -7 4 C-8.20561184 4.98267859 -8.20561184 4.98267859 -8.09765625 6.84765625 C-8.08605469 7.57855469 -8.07445312 8.30945313 -8.0625 9.0625 C-8.041875 10.361875 -8.02125 11.66125 -8 13 C-6.00045254 13.04254356 -3.99958364 13.04080783 -2 13 C-1.67 12.67 -1.34 12.34 -1 12 C0.66617115 11.95936168 2.33388095 11.957279 4 12 C1.26913819 15.31013553 -0.22556321 16.84787849 -4.5 17.6875 C-8 17 -8 17 -10.9375 14.375 C-13.18818265 10.69206475 -13.89426216 9.20303214 -13 5 C-9.2217441 -0.43124286 -6.19885712 -0.88555102 0 0 Z " fill="#EEEEEE" transform="translate(156,195)"/>
<path d="M0 0 C1.875 1.375 1.875 1.375 3 3 C3 3.66 3 4.32 3 5 C0.36 4.67 -2.28 4.34 -5 4 C-5 4.66 -5 5.32 -5 6 C-3.865625 6.474375 -2.73125 6.94875 -1.5625 7.4375 C2 9 2 9 3 10 C3.3125 12.375 3.3125 12.375 3 15 C0.87208838 17.2855347 -0.47408328 17.92303658 -3.5625 18.375 C-6 18 -6 18 -7.8125 16.625 C-9 15 -9 15 -9 13 C-7.68 13 -6.36 13 -5 13 C-5 13.66 -5 14.32 -5 15 C-3.68 15 -2.36 15 -1 15 C-1 13.68 -1 12.36 -1 11 C-2.134375 10.690625 -3.26875 10.38125 -4.4375 10.0625 C-8 9 -8 9 -9 8 C-9.25 5.0625 -9.25 5.0625 -9 2 C-5.53076119 -0.31282587 -4.07794425 -0.42478586 0 0 Z " fill="#EBEBEB" transform="translate(415,342)"/>
<path d="M0 0 C3.3 0 6.6 0 10 0 C10 0.99 10 1.98 10 3 C8.02 3 6.04 3 4 3 C4 4.32 4 5.64 4 7 C5.98 7 7.96 7 10 7 C10 7.99 10 8.98 10 10 C8.02 10 6.04 10 4 10 C4 11.65 4 13.3 4 15 C5.98 15 7.96 15 10 15 C10 15.99 10 16.98 10 18 C6.7 18 3.4 18 0 18 C0 12.06 0 6.12 0 0 Z " fill="#E2E1E1" transform="translate(283,342)"/>
<path d="M0 0 C2.01822917 0.06510417 4.03645833 0.13020833 6.0546875 0.1953125 C6.7146875 1.5153125 7.3746875 2.8353125 8.0546875 4.1953125 C5.7446875 3.8653125 3.4346875 3.5353125 1.0546875 3.1953125 C0.7246875 4.1853125 0.3946875 5.1753125 0.0546875 6.1953125 C1.1684375 6.4840625 2.2821875 6.7728125 3.4296875 7.0703125 C7.0546875 8.1953125 7.0546875 8.1953125 9.0546875 10.1953125 C8.72497271 13.49246043 8.4320036 14.8179964 6.0546875 17.1953125 C-0.15044071 17.75941506 -0.15044071 17.75941506 -2.8828125 15.8203125 C-3.9453125 14.1953125 -3.9453125 14.1953125 -3.9453125 12.1953125 C-0.92111725 12.78335047 2.07227203 13.42209368 5.0546875 14.1953125 C4.38498239 11.13131384 4.38498239 11.13131384 2.20703125 10.02734375 C1.47613281 9.69089844 0.74523437 9.35445312 -0.0078125 9.0078125 C-1.10802734 8.49154297 -1.10802734 8.49154297 -2.23046875 7.96484375 C-2.79636719 7.71089844 -3.36226563 7.45695313 -3.9453125 7.1953125 C-4.0703125 4.8203125 -4.0703125 4.8203125 -3.9453125 2.1953125 C-1.9453125 0.1953125 -1.9453125 0.1953125 0 0 Z " fill="#ECECEC" transform="translate(272.9453125,231.8046875)"/>
<path d="M0 0 C1.65 0 3.3 0 5 0 C5 1.65 5 3.3 5 5 C6.65 5 8.3 5 10 5 C10 6.65 10 8.3 10 10 C8.35 10 6.7 10 5 10 C5 11.65 5 13.3 5 15 C3.35 15 1.7 15 0 15 C0 13.35 0 11.7 0 10 C-1.65 10 -3.3 10 -5 10 C-5 8.35 -5 6.7 -5 5 C-3.35 5 -1.7 5 0 5 C0 3.35 0 1.7 0 0 Z " fill="#F4C91E" transform="translate(389,294)"/>
<path d="M0 0 C1.65 0 3.3 0 5 0 C5 1.65 5 3.3 5 5 C6.65 5 8.3 5 10 5 C10 6.65 10 8.3 10 10 C8.35 10 6.7 10 5 10 C5 11.65 5 13.3 5 15 C3.35 15 1.7 15 0 15 C0 13.35 0 11.7 0 10 C-1.65 10 -3.3 10 -5 10 C-5 8.35 -5 6.7 -5 5 C-3.35 5 -1.7 5 0 5 C0 3.35 0 1.7 0 0 Z " fill="#EFC520" transform="translate(251,147)"/>
<path d="M0 0 C1.65 0 3.3 0 5 0 C5 1.65 5 3.3 5 5 C6.65 5 8.3 5 10 5 C10 6.65 10 8.3 10 10 C8.35 10 6.7 10 5 10 C5 11.65 5 13.3 5 15 C3.35 15 1.7 15 0 15 C0 13.35 0 11.7 0 10 C-1.65 10 -3.3 10 -5 10 C-5 8.35 -5 6.7 -5 5 C-3.35 5 -1.7 5 0 5 C0 3.35 0 1.7 0 0 Z " fill="#F3C81E" transform="translate(370,36)"/>
<path d="M0 0 C1.65 0 3.3 0 5 0 C5 1.65 5 3.3 5 5 C6.65 5 8.3 5 10 5 C10 6.65 10 8.3 10 10 C8.35 10 6.7 10 5 10 C5 11.65 5 13.3 5 15 C3.35 15 1.7 15 0 15 C0 13.35 0 11.7 0 10 C-1.65 10 -3.3 10 -5 10 C-5 8.35 -5 6.7 -5 5 C-3.35 5 -1.7 5 0 5 C0 3.35 0 1.7 0 0 Z " fill="#F2C71E" transform="translate(173,36)"/>
<path d="M0 0 C0.66 0 1.32 0 2 0 C2 4.62 2 9.24 2 14 C-3.28 14 -8.56 14 -14 14 C-11.24274689 10.55343361 -9.13056321 8.06673124 -5.875 5.3125 C-3.84411909 3.5843353 -1.88645821 1.88645821 0 0 Z " fill="#221E1A" transform="translate(79,293)"/>
<path d="M0 0 C2.24698596 1.76033927 2.94562164 2.74032364 3.5390625 5.57421875 C3.73473009 12.66272192 2.5574032 18.28922229 -0.1875 24.75 C-0.47866699 25.45342529 -0.76983398 26.15685059 -1.06982422 26.8815918 C-1.98046875 28.859375 -1.98046875 28.859375 -4 32 C-6.73828125 32.953125 -6.73828125 32.953125 -9 33 C-8.566875 31.989375 -8.13375 30.97875 -7.6875 29.9375 C-7.41421875 29.29941406 -7.1409375 28.66132813 -6.859375 28.00390625 C-6.05431241 26.12664666 -5.24602244 24.25077206 -4.4375 22.375 C-3.963125 21.26125 -3.48875 20.1475 -3 19 C-2.47986328 17.88431641 -2.47986328 17.88431641 -1.94921875 16.74609375 C-0.77660767 13.35372508 -0.57570138 10.26667454 -0.375 6.6875 C-0.30023438 5.43324219 -0.22546875 4.17898437 -0.1484375 2.88671875 C-0.09945312 1.93410156 -0.05046875 0.98148438 0 0 Z " fill="#1A1818" transform="translate(224,198)"/>
<path d="M0 0 C2.97 0 5.94 0 9 0 C9 0.66 9 1.32 9 2 C7.02 2 5.04 2 3 2 C3 3.65 3 5.3 3 7 C4.98 7 6.96 7 9 7 C9 7.99 9 8.98 9 10 C7.02 10 5.04 10 3 10 C3 11.32 3 12.64 3 14 C5.31 14 7.62 14 10 14 C10 14.99 10 15.98 10 17 C6.7 17 3.4 17 0 17 C0 11.39 0 5.78 0 0 Z " fill="#F2F1F1" transform="translate(241,232)"/>
<path d="M0 0 C3.3 0 6.6 0 10 0 C10 0.99 10 1.98 10 3 C7.69 3 5.38 3 3 3 C3 4.32 3 5.64 3 7 C4.98 7 6.96 7 9 7 C9 7.99 9 8.98 9 10 C7.02 10 5.04 10 3 10 C3 11.65 3 13.3 3 15 C4.98 15 6.96 15 9 15 C9 15.66 9 16.32 9 17 C6.03 17 3.06 17 0 17 C0 11.39 0 5.78 0 0 Z " fill="#F2F1F1" transform="translate(343,84)"/>
<path d="M0 0 C4.29 0 8.58 0 13 0 C13 0.99 13 1.98 13 3 C11.35 3 9.7 3 8 3 C8 7.95 8 12.9 8 18 C6.68 18 5.36 18 4 18 C4 13.05 4 8.1 4 3 C2.68 3 1.36 3 0 3 C0 2.01 0 1.02 0 0 Z " fill="#E0E0E0" transform="translate(96,342)"/>
<path d="M0 0 C4.29 0 8.58 0 13 0 C13 0.99 13 1.98 13 3 C11.35 3 9.7 3 8 3 C8 7.95 8 12.9 8 18 C6.68 18 5.36 18 4 18 C4 13.05 4 8.1 4 3 C2.68 3 1.36 3 0 3 C0 2.01 0 1.02 0 0 Z " fill="#E0DFDF" transform="translate(374,84)"/>
<path d="M0 0 C1.65 0 3.3 0 5 0 C5 5.61 5 11.22 5 17 C3.68 17 2.36 17 1 17 C0.67 14.69 0.34 12.38 0 10 C-0.99 11.485 -0.99 11.485 -2 13 C-2.66 12.67 -3.32 12.34 -4 12 C-2.66666667 8 -1.33333333 4 0 0 Z " fill="#F0F0F0" transform="translate(219,195)"/>
<path d="M0 0 C3 0.25 3 0.25 5 2.25 C5.25 5.75 5.25 5.75 5 9.25 C4.34 9.91 3.68 10.57 3 11.25 C-0.5625 11 -0.5625 11 -4 10.25 C-5.38125018 7.48749964 -5.19079306 5.30268901 -5 2.25 C-3 0.25 -3 0.25 0 0 Z " fill="#373636" transform="translate(171,197.75)"/>
<path d="M0 0 C3.5625 0.25 3.5625 0.25 7 1 C8.38125018 3.76250036 8.19079306 5.94731099 8 9 C6 11 6 11 3 11.25 C0 11 0 11 -2 9 C-2.25 5.5 -2.25 5.5 -2 2 C-1.34 1.34 -0.68 0.68 0 0 Z " fill="#232020" transform="translate(314,87)"/>
<path d="M0 0 C3.96 0 7.92 0 12 0 C12 0.99 12 1.98 12 3 C10.68 3 9.36 3 8 3 C8 7.95 8 12.9 8 18 C6.68 18 5.36 18 4 18 C4 13.05 4 8.1 4 3 C2.68 3 1.36 3 0 3 C0 2.01 0 1.02 0 0 Z " fill="#E2E2E2" transform="translate(87,84)"/>
<path d="M0 0 C1.32 0 2.64 0 4 0 C4.99 1.98 5.98 3.96 7 6 C7.598125 5.01 8.19625 4.02 8.8125 3 C9.8953125 1.515 9.8953125 1.515 11 0 C11.99 0 12.98 0 14 0 C12.21656051 5.60509554 12.21656051 5.60509554 10.9375 7.9375 C9.60329743 10.87274566 9.36721785 13.81744533 9 17 C7.68 17 6.36 17 5 17 C4.89042969 16.35933594 4.78085937 15.71867188 4.66796875 15.05859375 C3.67539672 9.6438309 2.37541347 4.96677361 0 0 Z " fill="#EFEFEF" transform="translate(283,195)"/>
<path d="M0 0 C1 1 1 1 1.1875 4.4375 C1 8 1 8 -1 10 C-4 10.25 -4 10.25 -7 10 C-9 8 -9 8 -9.3125 5.0625 C-9 2 -9 2 -7.875 0.0625 C-5.04805609 -1.53943488 -3.05073223 -0.79584319 0 0 Z " fill="#232020" transform="translate(123,346)"/>
<path d="M0 0 C3.96 0 7.92 0 12 0 C12 0.99 12 1.98 12 3 C10.68 3 9.36 3 8 3 C8 7.62 8 12.24 8 17 C6.68 17 5.36 17 4 17 C4 12.38 4 7.76 4 3 C2.68 3 1.36 3 0 3 C0 2.01 0 1.02 0 0 Z " fill="#E4E3E3" transform="translate(269,195)"/>
<path d="M0 0 C3.31248187 -0.02888146 6.62493167 -0.04675799 9.9375 -0.0625 C10.88302734 -0.07087891 11.82855469 -0.07925781 12.80273438 -0.08789062 C14.15141602 -0.09272461 14.15141602 -0.09272461 15.52734375 -0.09765625 C16.77632446 -0.10551147 16.77632446 -0.10551147 18.05053711 -0.11352539 C20 0 20 0 21 1 C21.125 4.5 21.125 4.5 21 8 C20 9 20 9 18.14233398 9.11352539 C17.35157471 9.10828857 16.56081543 9.10305176 15.74609375 9.09765625 C14.89208984 9.09443359 14.03808594 9.09121094 13.15820312 9.08789062 C12.26037109 9.07951172 11.36253906 9.07113281 10.4375 9.0625 C9.53580078 9.05798828 8.63410156 9.05347656 7.70507812 9.04882812 C5.46998686 9.03700225 3.23502563 9.0205222 1 9 C1 8.67 1 8.34 1 8 C1.75925781 7.98582031 2.51851562 7.97164062 3.30078125 7.95703125 C4.29464844 7.90933594 5.28851563 7.86164063 6.3125 7.8125 C7.29863281 7.77769531 8.28476563 7.74289063 9.30078125 7.70703125 C12.70084415 7.15252316 12.70084415 7.15252316 15 2 C10.05 1.67 5.1 1.34 0 1 C0 0.67 0 0.34 0 0 Z " fill="#504629" transform="translate(182,144)"/>
<path d="M0 0 C5 0 5 0 6.8125 1.125 C8.57002414 3.90003811 8.46822746 5.78929745 8 9 C6.25 10.875 6.25 10.875 4 12 C2.68 12 1.36 12 0 12 C0 8.04 0 4.08 0 0 Z " fill="#262323" transform="translate(348,345)"/>
<path d="M0 0 C2.64899487 0.70279456 4.75298863 1.35836321 7.0625 2.8125 C7.3925 3.4725 7.7225 4.1325 8.0625 4.8125 C4.7625 4.8125 1.4625 4.8125 -1.9375 4.8125 C-1.9375 5.8025 -1.9375 6.7925 -1.9375 7.8125 C0.0425 7.8125 2.0225 7.8125 4.0625 7.8125 C3.7325 8.8025 3.4025 9.7925 3.0625 10.8125 C-0.3125 11 -0.3125 11 -3.9375 10.8125 C-6.09252531 7.57996204 -6.40606135 6.56099077 -5.9375 2.8125 C-4.19275825 -0.09540291 -3.40849421 -0.21756346 0 0 Z " fill="#2C2929" transform="translate(320.9375,345.1875)"/>
<path d="M0 0 C4.29 0 8.58 0 13 0 C13 0.99 13 1.98 13 3 C11.35 3 9.7 3 8 3 C8 7.62 8 12.24 8 17 C7.01 17 6.02 17 5 17 C5 12.38 5 7.76 5 3 C3.35 3 1.7 3 0 3 C0 2.01 0 1.02 0 0 Z " fill="#F6F5F5" transform="translate(185,84)"/>
<path d="M0 0 C0.99 0 1.98 0 3 0 C3.08074203 2.62561109 3.1403623 5.24875676 3.1875 7.875 C3.22520508 8.99455078 3.22520508 8.99455078 3.26367188 10.13671875 C3.29296875 12.3046875 3.29296875 12.3046875 3 16 C0 18 0 18 -3.1875 17.625 C-4.115625 17.41875 -5.04375 17.2125 -6 17 C-6.33 15.35 -6.66 13.7 -7 12 C-6.01 12 -5.02 12 -4 12 C-4 12.66 -4 13.32 -4 14 C-2.68 14 -1.36 14 0 14 C0 9.38 0 4.76 0 0 Z " fill="#EEEEEE" transform="translate(335,84)"/>
<path d="M0 0 C0.99 0.33 1.98 0.66 3 1 C1.48728707 5.71437718 -0.26772954 10.28958585 -2.125 14.875 C-2.54072266 15.90753906 -2.54072266 15.90753906 -2.96484375 16.9609375 C-3.64164233 18.64126501 -4.32059803 20.32072342 -5 22 C-6.32 22 -7.64 22 -9 22 C-7.00878667 14.10501383 -3.81085857 7.17773362 0 0 Z " fill="#1A1818" transform="translate(178,172)"/>
<path d="M0 0 C3.96 0 7.92 0 12 0 C12 0.66 12 1.32 12 2 C10.68 2 9.36 2 8 2 C8 6.95 8 11.9 8 17 C7.01 17 6.02 17 5 17 C5 12.05 5 7.1 5 2 C3.35 2 1.7 2 0 2 C0 1.34 0 0.68 0 0 Z " fill="#FFFFFF" transform="translate(207,232)"/>
<path d="M0 0 C0.33 0 0.66 0 1 0 C1 5.28 1 10.56 1 16 C0.34 16.33 -0.32 16.66 -1 17 C-2.32 13.7 -3.64 10.4 -5 7 C-4.34 6.67 -3.68 6.34 -3 6 C-1.95191959 4.02477154 -0.9479589 2.02518491 0 0 Z " fill="#34312D" transform="translate(236,149)"/>
<path d="M0 0 C0.66 0 1.32 0 2 0 C1.44271087 3.34373475 0.64826111 6.03312999 -1 9 C-0.34 9 0.32 9 1 9 C1 9.66 1 10.32 1 11 C-2 13 -2 13 -5 13 C-5.50477602 7.69985182 -4.20817314 5.18034682 -1 1 C-0.67 0.67 -0.34 0.34 0 0 Z " fill="#1E1B15" transform="translate(166,280)"/>
<path d="M0 0 C1.32 0 2.64 0 4 0 C4 5.28 4 10.56 4 16 C3.34 16 2.68 16 2 16 C2 12.7 2 9.4 2 6 C0.68 6.33 -0.64 6.66 -2 7 C-1.125 2.25 -1.125 2.25 0 0 Z " fill="#F8F8F8" transform="translate(275,343)"/>
<path d="M0 0 C1.32 0 2.64 0 4 0 C4 5.28 4 10.56 4 16 C3.34 16 2.68 16 2 16 C1.67 13.03 1.34 10.06 1 7 C0.01 7 -0.98 7 -2 7 C-1.34 4.69 -0.68 2.38 0 0 Z " fill="#F7F7F7" transform="translate(57,343)"/>
<path d="M0 0 C0.99 0 1.98 0 3 0 C3 5.61 3 11.22 3 17 C2.01 17 1.02 17 0 17 C0 11.39 0 5.78 0 0 Z " fill="#FFFFFF" transform="translate(263,195)"/>
<path d="M0 0 C0.99 0 1.98 0 3 0 C3 5.61 3 11.22 3 17 C2.01 17 1.02 17 0 17 C0 11.39 0 5.78 0 0 Z " fill="#FDFDFD" transform="translate(128,84)"/>
<path d="M0 0 C0.99 0 1.98 0 3 0 C3 5.61 3 11.22 3 17 C2.01 17 1.02 17 0 17 C0 11.39 0 5.78 0 0 Z " fill="#FDFDFD" transform="translate(102,84)"/>
<path d="M0 0 C0 5.28 0 10.56 0 16 C-0.99 16 -1.98 16 -3 16 C-3 11.05 -3 6.1 -3 1 C-1 0 -1 0 0 0 Z " fill="#41371A" transform="translate(350,295)"/>
<path d="M0 0 C2.67901932 2.31881505 3.66204403 4.31814468 4.6875 7.6875 C4.93886719 8.49574219 5.19023437 9.30398437 5.44921875 10.13671875 C5.63097656 10.75160156 5.81273437 11.36648437 6 12 C4.35 12 2.7 12 1 12 C-0.26237731 9.47524538 -0.09856404 7.68799534 -0.0625 4.875 C-0.05347656 3.96492187 -0.04445312 3.05484375 -0.03515625 2.1171875 C-0.02355469 1.41851562 -0.01195312 0.71984375 0 0 Z " fill="#261F17" transform="translate(223,155)"/>
<path d="M0 0 C0.94875 0.04125 1.8975 0.0825 2.875 0.125 C3.205 0.785 3.535 1.445 3.875 2.125 C2.7553014 3.13093243 1.6290588 4.1295849 0.5 5.125 C-0.12648437 5.681875 -0.75296875 6.23875 -1.3984375 6.8125 C-3.125 8.125 -3.125 8.125 -5.125 8.125 C-5.25 5.25 -5.25 5.25 -5.125 2.125 C-3.125 0.125 -3.125 0.125 0 0 Z " fill="#383636" transform="translate(152.125,197.875)"/>
<path d="M0 0 C2.64 0 5.28 0 8 0 C8 2.64 8 5.28 8 8 C7.67 7.34 7.34 6.68 7 6 C5.6846659 5.29848848 4.34882408 4.63474075 3 4 C2.01 3.34 1.02 2.68 0 2 C0 1.34 0 0.68 0 0 Z " fill="#F0E6BF" transform="translate(433,0)"/>
<path d="M0 0 C0.66 0 1.32 0 2 0 C5 3.46153846 5 3.46153846 5 6 C5.66 6.33 6.32 6.66 7 7 C4.69 7 2.38 7 0 7 C0 4.69 0 2.38 0 0 Z " fill="#F8EEC5" transform="translate(0,375)"/>
<path d="M0 0 C1.65 0 3.3 0 5 0 C5.5625 1.9375 5.5625 1.9375 6 4 C5 5 5 5 2.4375 5.0625 C1.2309375 5.0315625 1.2309375 5.0315625 0 5 C0 3.35 0 1.7 0 0 Z " fill="#302E2E" transform="translate(134,345)"/>
<path d="M0 0 C1.65 0 3.3 0 5 0 C5.5625 1.9375 5.5625 1.9375 6 4 C5 5 5 5 2.4375 5.0625 C1.2309375 5.0315625 1.2309375 5.0315625 0 5 C0 3.35 0 1.7 0 0 Z " fill="#402F30" transform="translate(296,87)"/>
<path d="M0 0 C1.65 0 3.3 0 5 0 C5.5625 1.9375 5.5625 1.9375 6 4 C5 5 5 5 2.4375 5.0625 C1.2309375 5.0315625 1.2309375 5.0315625 0 5 C0 3.35 0 1.7 0 0 Z " fill="#423233" transform="translate(281,87)"/>
<path d="M0 0 C1.65 0 3.3 0 5 0 C5.5625 1.9375 5.5625 1.9375 6 4 C5 5 5 5 2.4375 5.0625 C1.2309375 5.0315625 1.2309375 5.0315625 0 5 C0 3.35 0 1.7 0 0 Z " fill="#343232" transform="translate(138,87)"/>
<path d="M0 0 C1.65 0 3.3 0 5 0 C5.5625 1.9375 5.5625 1.9375 6 4 C5 5 5 5 2.4375 5.0625 C1.2309375 5.0315625 1.2309375 5.0315625 0 5 C0 3.35 0 1.7 0 0 Z " fill="#302D2D" transform="translate(75,87)"/>
<path d="M0 0 C1.65 0 3.3 0 5 0 C5.5625 1.9375 5.5625 1.9375 6 4 C5 5 5 5 2.4375 5.0625 C1.2309375 5.0315625 1.2309375 5.0315625 0 5 C0 3.35 0 1.7 0 0 Z " fill="#353232" transform="translate(42,87)"/>
<path d="M0 0 C1.65 0 3.3 0 5 0 C5.33 1.32 5.66 2.64 6 4 C4.02 4.33 2.04 4.66 0 5 C0 3.35 0 1.7 0 0 Z " fill="#383636" transform="translate(257,235)"/>
<path d="M0 0 C-1.19899698 3.0831351 -2.47700477 6.06279492 -4 9 C-4.66 9 -5.32 9 -6 9 C-5.6875 5.625 -5.6875 5.625 -5 2 C-2 0 -2 0 0 0 Z " fill="#191616" transform="translate(237,147)"/>
<path d="M0 0 C0 1.65 0 3.3 0 5 C-2.64 5 -5.28 5 -8 5 C-8 4.34 -8 3.68 -8 3 C-1.125 0 -1.125 0 0 0 Z " fill="#F7EFD2" transform="translate(441,377)"/>
<path d="M0 0 C0 3.63 0 7.26 0 11 C-0.33 11 -0.66 11 -1 11 C-1.33 8.69 -1.66 6.38 -2 4 C-2.99 5.485 -2.99 5.485 -4 7 C-4.66 6.67 -5.32 6.34 -6 6 C-5.67 4.35 -5.34 2.7 -5 1 C-1.125 0 -1.125 0 0 0 Z " fill="#D1D1D1" transform="translate(221,201)"/>
<path d="M0 0 C2.31 0 4.62 0 7 0 C6.01 0.495 6.01 0.495 5 1 C3.86649466 3.01669827 3.86649466 3.01669827 3 5 C2.34 5 1.68 5 1 5 C0.67 5.66 0.34 6.32 0 7 C0 4.69 0 2.38 0 0 Z " fill="#FAF1D1" transform="translate(0,0)"/>
<path d="M0 0 C2.475 0.495 2.475 0.495 5 1 C5 2.32 5 3.64 5 5 C3.35 5 1.7 5 0 5 C0 3.35 0 1.7 0 0 Z " fill="#242121" transform="translate(387,345)"/>
<path d="M0 0 C2.475 0.495 2.475 0.495 5 1 C5 2.32 5 3.64 5 5 C3.35 5 1.7 5 0 5 C0 3.35 0 1.7 0 0 Z " fill="#232020" transform="translate(300,345)"/>
<path d="M0 0 C1.65 0.33 3.3 0.66 5 1 C5.33 2.32 5.66 3.64 6 5 C4.68 5 3.36 5 2 5 C2 4.34 2 3.68 2 3 C1.01 3 0.02 3 -1 3 C-0.67 2.01 -0.34 1.02 0 0 Z " fill="#ECECEC" transform="translate(152,342)"/>
<path d="M0 0 C2.475 0.495 2.475 0.495 5 1 C4.67 2.32 4.34 3.64 4 5 C2.68 5 1.36 5 0 5 C0 3.35 0 1.7 0 0 Z " fill="#221F1F" transform="translate(372,345)"/>
<path d="M0 0 C0.33 0 0.66 0 1 0 C1 5.61 1 11.22 1 17 C0.67 17 0.34 17 0 17 C0 13.7 0 10.4 0 7 C-0.66 7 -1.32 7 -2 7 C-2 6.01 -2 5.02 -2 4 C-1.34 4 -0.68 4 0 4 C0 2.68 0 1.36 0 0 Z " fill="#3F2F30" transform="translate(292,84)"/>
<path d="M0 0 C2.35953094 2.35953094 2.49141413 3.77895617 3 7 C1.35 7 -0.3 7 -2 7 C-1.34 4.69 -0.68 2.38 0 0 Z " fill="#493E3F" transform="translate(181,236)"/>
<path d="M0 0 C1.65 0 3.3 0 5 0 C5 1.32 5 2.64 5 4 C3.35 4 1.7 4 0 4 C0 2.68 0 1.36 0 0 Z " fill="#393737" transform="translate(196,235)"/>
<path d="M0 0 C1.65 0 3.3 0 5 0 C5 1.32 5 2.64 5 4 C3.35 4 1.7 4 0 4 C0 2.68 0 1.36 0 0 Z " fill="#383636" transform="translate(163,235)"/>
<path d="M0 0 C1.2077558 3.62326739 0.54311128 4.64146369 -1 8 C-1.66 7.67 -2.32 7.34 -3 7 C-3.1875 4.625 -3.1875 4.625 -3 2 C-2.01 1.34 -1.02 0.68 0 0 Z " fill="#2A2828" transform="translate(216,199)"/>
<path d="M0 0 C0.99 0 1.98 0 3 0 C2.67 1.65 2.34 3.3 2 5 C1.01 5.33 0.02 5.66 -1 6 C-1.042721 4.33388095 -1.04063832 2.66617115 -1 1 C-0.67 0.67 -0.34 0.34 0 0 Z " fill="#E0E0E0" transform="translate(400,342)"/>
<path d="M0 0 C2 1.25 2 1.25 4 3 C4 4.32 4 5.64 4 7 C2.68 6.34 1.36 5.68 0 5 C0 3.35 0 1.7 0 0 Z " fill="#191616" transform="translate(172,234)"/>
<path d="M0 0 C1.2077558 3.62326739 0.54311128 4.64146369 -1 8 C-1.66 7.67 -2.32 7.34 -3 7 C-2.25 2.25 -2.25 2.25 0 0 Z " fill="#1C1919" transform="translate(169,199)"/>
<path d="M0 0 C0.66 0.33 1.32 0.66 2 1 C1.25 5.75 1.25 5.75 -1 8 C-1.93065133 5.39417629 -2.14917407 4.35801776 -1.0625 1.75 C-0.711875 1.1725 -0.36125 0.595 0 0 Z " fill="#2B2A2A" transform="translate(291,194)"/>
<path d="M0 0 C0.66 0 1.32 0 2 0 C2.33 1.98 2.66 3.96 3 6 C1.68 6 0.36 6 -1 6 C-0.67 4.02 -0.34 2.04 0 0 Z " fill="#3F3D3D" transform="translate(156,89)"/>
</svg>
