<svg width="219" height="66" viewBox="0 0 219 66" fill="none" xmlns="http://www.w3.org/2000/svg">
<g clip-path="url(#clip0_1535_4624)">
<path d="M61.4801 53.9209C60.9914 54.6423 60.5705 55.3539 60.2317 56.0493C59.0567 58.4108 58.9198 60.4742 59.7854 62.1806C60.9063 64.2567 63.8219 65.9493 70.7809 65.1748C75.1983 64.6832 81.1887 63.1911 89.3698 60.2025C95.5178 63.9498 102.778 65.5869 109.949 64.7888C118.255 63.8643 125.57 59.8289 130.755 53.9209H125.055C120.812 57.6306 115.444 60.1125 109.499 60.7742C104.294 61.3534 99.0493 60.4702 94.3982 58.3285C94.4267 58.3101 94.4636 58.2984 94.5006 58.2866C94.5376 58.2749 94.5745 58.2632 94.603 58.2447C94.7563 58.1828 94.911 58.1208 95.0674 58.0584C95.6549 57.8228 96.2579 57.5814 96.8585 57.3215C96.9309 57.2883 96.9986 57.2608 97.0626 57.2345C97.155 57.197 97.2412 57.162 97.3259 57.1163C98.0582 56.8211 98.8183 56.4924 99.5775 56.1631C99.5922 56.1443 99.6184 56.1338 99.6476 56.1218C99.6715 56.1125 99.6969 56.102 99.7216 56.0859C100.114 55.905 100.507 55.7318 100.9 55.5585C101.296 55.3843 101.691 55.21 102.085 55.0281L102.609 54.7866C103.18 54.539 103.749 54.2748 104.33 54.0047C104.39 53.9768 104.45 53.9489 104.511 53.9209H94.3605C92.5069 54.6847 90.6858 55.4013 88.9062 56.0667C72.057 62.343 64.324 61.9509 63.3984 60.2505C63.1621 59.7878 63.3402 58.9121 63.7933 57.7616C64.3488 56.6244 65.2441 55.3344 66.4489 53.9209H61.4801Z" fill="#FAFAFA"/>
<path d="M76.125 20.8006H80.5258C84.5708 11.9701 93.0268 5.5783 103.218 4.44405C109.572 3.73696 115.826 5.1495 121.288 8.5147C123.888 10.1203 126.23 12.1521 128.208 14.4991C128.454 14.7776 128.669 15.0588 128.884 15.3407C130.179 17.0326 131.284 18.8584 132.181 20.8006H136.625C136.588 20.7057 136.55 20.61 136.51 20.5127C136.436 20.3988 136.392 20.2816 136.348 20.1638C136.286 20.0178 136.224 19.8718 136.161 19.7256C136.099 19.5801 136.036 19.4345 135.975 19.289C135.953 19.2299 135.923 19.1718 135.893 19.1137C135.864 19.056 135.835 18.9985 135.813 18.9401C135.702 18.7416 135.601 18.5319 135.498 18.3182C135.421 18.16 135.344 17.9996 135.261 17.8398L135.257 17.8096C135.16 17.6229 135.055 17.4368 134.951 17.2506C134.845 17.0629 134.74 16.8751 134.642 16.6865C134.604 16.6296 134.575 16.5717 134.546 16.5137C134.516 16.4558 134.486 16.3979 134.449 16.341C134.375 16.2132 134.292 16.0787 134.208 15.9441C134.123 15.807 134.038 15.6698 133.962 15.5394C133.921 15.4523 133.847 15.3384 133.773 15.2246C133.662 15.0543 133.545 14.8849 133.426 14.7155C133.307 14.5445 133.188 14.3737 133.076 14.2021C133.046 14.2054 133.042 14.1753 133.042 14.1753C139.265 12.0158 144.626 10.6549 148.741 10.1969L149.224 10.143C153.316 9.74874 155.196 10.3954 155.55 11.0892C156.099 12.1121 154.726 15.4188 149.12 20.8006H154.789C158.609 16.5388 160.827 12.3442 159.136 9.19266C157.742 6.59751 154.383 5.59591 148.839 6.15186C144.082 6.62021 137.709 8.2464 130.374 10.8654C128.345 8.61577 126.014 6.67496 123.415 5.06938C117.162 1.21159 110.03 -0.378616 102.739 0.432841C90.4717 1.798 80.3925 9.83854 76.125 20.8006Z" fill="#FAFAFA"/>
<path d="M0.481737 48.1964C-0.924955 51.7254 2.52414 55.2533 6.18406 54.0291L11.3891 52.2881L11.0644 51.3573C10.4213 49.5146 10.1389 47.4608 11.7682 45.9042L14.0229 43.7502C13.1825 37.7504 15.1617 31.9028 18.18 29.019L20.2146 27.0752L22.2492 29.019C25.2677 31.9028 27.2469 37.7504 26.4066 43.7502L28.6613 45.9042C30.2902 47.4608 30.0082 49.5146 29.3651 51.3576L29.0404 52.2882L34.2453 54.0291C37.9052 55.2533 41.3543 51.7254 39.9476 48.1964L25.5068 11.9687C23.6247 7.24741 16.8046 7.24741 14.9226 11.9687L0.481737 48.1964Z" fill="#FBCE1F"/>
<path d="M18.1025 49.9629V51.3076C18.1025 53.2502 20.2139 56.0149 20.2139 56.0149C20.2139 56.0149 22.3257 53.465 22.3257 51.3076V49.9629H18.1025Z" fill="#FBCE1F"/>
<path d="M20.2018 41.8272C22.0843 41.8272 23.6105 40.3322 23.6105 38.4881C23.6105 36.6439 22.0843 35.1489 20.2018 35.1489C18.3192 35.1489 16.7931 36.6439 16.7931 38.4881C16.7931 40.3322 18.3192 41.8272 20.2018 41.8272Z" fill="#FBCE1F"/>
<path d="M60.5222 34.7955C60.5222 36.0262 60.2366 37.1466 59.6652 38.1568C59.0939 39.1487 58.2461 39.9385 57.1219 40.5262C56.0161 41.1139 54.6707 41.4079 53.0857 41.4079H50.653V47.6069H44.5157V28.1006H53.0857C55.4816 28.1006 57.3154 28.7067 58.5871 29.919C59.8772 31.1312 60.5222 32.7567 60.5222 34.7955ZM52.3946 36.5864C53.6663 36.5864 54.3021 35.9894 54.3021 34.7955C54.3021 33.6017 53.6663 33.0047 52.3946 33.0047H50.653V36.5864H52.3946ZM72.4763 32.9771V35.3741H78.5585V39.9752H72.4763V42.7303H79.3878V47.6069H66.3391V28.1006H79.3878V32.9771H72.4763ZM95.4126 47.6069L91.7356 40.6089H91.7079V47.6069H85.5706V28.1006H94.6934C96.2781 28.1006 97.6334 28.3853 98.7577 28.9547C99.8812 29.5057 100.72 30.268 101.273 31.2414C101.844 32.1966 102.13 33.2802 102.13 34.4925C102.13 35.7966 101.762 36.9537 101.024 37.964C100.306 38.9742 99.2644 39.6997 97.9006 40.1405L102.157 47.6069H95.4126ZM91.7079 36.5313H94.1405C94.7303 36.5313 95.1723 36.4027 95.4673 36.1456C95.7622 35.8701 95.9101 35.4476 95.9101 34.8782C95.9101 34.3639 95.753 33.9599 95.4403 33.6659C95.1454 33.3721 94.7118 33.2251 94.1405 33.2251H91.7079V36.5313ZM123.332 28.1006V32.9496H118.134V47.6069H111.997V32.9496H106.855V28.1006H123.332ZM138.708 47.6069L135.031 40.6089H135.003V47.6069H128.867V28.1006H137.99C139.574 28.1006 140.929 28.3853 142.053 28.9547C143.177 29.5057 144.016 30.268 144.569 31.2414C145.14 32.1966 145.426 33.2802 145.426 34.4925C145.426 35.7966 145.057 36.9537 144.32 37.964C143.601 38.9742 142.56 39.6997 141.196 40.1405L145.454 47.6069H138.708ZM135.003 36.5313H137.437C138.026 36.5313 138.468 36.4027 138.763 36.1456C139.058 35.8701 139.205 35.4476 139.205 34.8782C139.205 34.3639 139.049 33.9599 138.736 33.6659C138.441 33.3721 138.008 33.2251 137.437 33.2251H135.003V36.5313ZM157.394 32.9771V35.3741H163.476V39.9752H157.394V42.7303H164.305V47.6069H151.257V28.1006H164.305V32.9771H157.394Z" fill="#FAFAFA"/>
<path d="M192.337 47.5002H177.975V39.6702C177.975 35.2945 178.541 32.8905 181.588 31.4758L185.461 29.6993C186.94 29.0084 187.288 28.6136 187.288 27.3963V21.975C187.288 20.3629 186.984 20.0009 185.2 20.0009C183.372 20.0009 183.024 20.3958 183.024 22.0737V25.2978H178.149V22.0737C178.149 17.2703 179.368 16.6123 185.287 16.6123C191.206 16.6123 192.337 17.2703 192.337 21.975V27.5608C192.337 30.2915 191.728 31.1468 188.899 32.397L184.721 34.2723C183.285 34.9303 183.024 37.0711 183.024 38.4858V44.1445H187.245V37.8607H192.337V47.5002Z" fill="#FAFAFA"/>
<path d="M200.609 43.1582V47.5009H196.039V43.1582H200.609Z" fill="#FAFAFA"/>
<path d="M218.085 22.0737V42.335C218.085 47.1712 216.823 47.8292 210.905 47.8292C204.986 47.8292 203.768 47.1712 203.768 42.335V22.0737C203.768 17.2703 204.986 16.6123 210.905 16.6123C216.823 16.6123 218.085 17.2703 218.085 22.0737ZM213.037 42.335V22.0737C213.037 20.3299 212.733 20.0009 210.948 20.0009C209.076 20.0009 208.772 20.3629 208.772 22.0737V42.335C208.772 44.1445 209.076 44.4735 210.861 44.4735C212.776 44.4735 213.037 44.0787 213.037 42.335Z" fill="#FAFAFA"/>
</g>
<defs>
<clipPath id="clip0_1535_4624">
<rect width="217.925" height="66" fill="white" transform="translate(0.160278)"/>
</clipPath>
</defs>
</svg>
