<?xml version="1.0" encoding="UTF-8"?>
<svg version="1.1" xmlns="http://www.w3.org/2000/svg" width="1728" height="1008">
<path d="M0 0 C570.24 0 1140.48 0 1728 0 C1728 332.64 1728 665.28 1728 1008 C1157.76 1008 587.52 1008 0 1008 C0 675.36 0 342.72 0 0 Z " fill="#171515" transform="translate(0,0)"/>
<path d="M0 0 C4.46066335 1.5633563 8.24305983 3.95043782 12.1875 6.5 C37.03889769 22.22377223 63.53011914 33.49991758 90.9675293 43.84594727 C93.65708577 44.86949879 96.33192202 45.92190404 99 47 C97.80154731 53.90899717 96.05708726 60.36452412 93.625 66.9375 C93.28412354 67.86481934 92.94324707 68.79213867 92.59204102 69.74755859 C89.62429435 77.64894779 86.33890562 85.40157583 82.9375 93.125 C82.45555176 94.22577881 81.97360352 95.32655762 81.47705078 96.46069336 C78.12264605 103.94511712 74.2640131 110.99590391 70 118 C65.49976204 114.33701561 61.33264515 110.54366684 57.40234375 106.2578125 C37.47891896 85.19228056 10.64590889 76.41435387 -17 71 C-16.27857737 63.63966279 -14.63503068 56.56555393 -12.9375 49.375 C-12.78682068 48.73202972 -12.63614136 48.08905945 -12.480896 47.42660522 C-4.56163271 13.68489813 -4.56163271 13.68489813 0 0 Z " fill="#292626" transform="translate(1321,598)"/>
<path d="M0 0 C1.4007271 4.20218129 0.04523562 6.33779425 -1.63671875 10.30859375 C-3.86157806 14.70093777 -6.7628805 18.31328057 -10 22 C-10.75023437 22.89138672 -10.75023437 22.89138672 -11.515625 23.80078125 C-28.20000383 42.1283186 -55.19910088 46.46434828 -78.44335938 50.54345703 C-80.49475371 50.90977745 -82.53815583 51.320729 -84.578125 51.74609375 C-100.90642121 54.91133834 -118.93244743 54.16099175 -135 50 C-136.08796875 49.73316406 -137.1759375 49.46632813 -138.296875 49.19140625 C-158.91254154 43.53466848 -182.82491346 29.75818098 -194 11 C-194 10.34 -194 9.68 -194 9 C-190.7085483 10.26452274 -187.61147689 11.67001631 -184.515625 13.35546875 C-145.43050599 34.39900436 -103.78032292 45.90759343 -60 33 C-38.42815608 25.92620364 -17.91974346 13.7753094 0 0 Z " fill="#252323" transform="translate(1531,399)"/>
<path d="M0 0 C1.11375 0.391875 2.2275 0.78375 3.375 1.1875 C8.27049729 2.81933243 13.2194208 4.23423984 18.1875 5.625 C18.9594873 5.84309326 19.73147461 6.06118652 20.52685547 6.28588867 C27.99669949 8.35655326 35.1461862 9.20748672 42.875 9.5625 C43.75414062 9.60568359 44.63328125 9.64886719 45.5390625 9.69335938 C47.69255797 9.79869339 49.84626064 9.89977649 52 10 C49.93926815 14.22646541 47.52675372 18.18708812 45.0625 22.1875 C44.61970703 22.92419922 44.17691406 23.66089844 43.72070312 24.41992188 C43.28822266 25.12052734 42.85574219 25.82113281 42.41015625 26.54296875 C42.01965088 27.18258545 41.62914551 27.82220215 41.22680664 28.48120117 C40 30 40 30 37 31 C35.65883834 30.34922536 34.32651177 29.68013876 33 29 C23.2060212 27.15036314 16.62219888 30.90215587 8.67871094 35.94824219 C-6.62818035 45.53842364 -26.17608132 50.43117967 -44.17529297 46.52832031 C-45.79829773 46.06809563 -47.4024166 45.5419211 -49 45 C-47.3846818 41.76936361 -43.90070176 41.21941495 -40.6875 39.9375 C-21.46524632 31.89726787 -10.21701249 17.58972847 0 0 Z " fill="#211F1F" transform="translate(890,483)"/>
<path d="M0 0 C1.17436164 1.61098327 2.28827612 3.26614619 3.375 4.9375 C13.94215551 19.77729601 31.38840028 27.24333081 48.84692383 30.53710938 C53.99285339 31.29256291 59.11968708 31.19048309 64.3125 31.1875 C65.46282715 31.18814453 66.6131543 31.18878906 67.79833984 31.18945312 C76.98699001 31.13296289 85.92748616 30.41521107 95 29 C89.55204923 35.70958147 76.40986776 36.54405171 68.31347656 37.48144531 C37.41682375 40.5313295 8.96574168 32.99534545 -16.12109375 14.6640625 C-16.74113281 14.11492187 -17.36117187 13.56578125 -18 13 C-18 12.34 -18 11.68 -18 11 C-16.0234375 9.66796875 -16.0234375 9.66796875 -13.375 8.1875 C-10.19072651 6.35180693 -7.27000432 4.54358586 -4.5 2.125 C-2 0 -2 0 0 0 Z " fill="#1D1C1C" transform="translate(786,374)"/>
<path d="M0 0 C13.86 0 27.72 0 42 0 C40.02 2.97 38.04 5.94 36 9 C35.03900391 10.44826172 35.03900391 10.44826172 34.05859375 11.92578125 C27.04186655 22.25643262 27.04186655 22.25643262 21.1875 23.6875 C13.42819471 22.01392435 8.78749188 14.74793941 4.54296875 8.52734375 C2.86475602 5.77847378 1.44032524 2.88065049 0 0 Z " fill="#242222" transform="translate(1404,454)"/>
<path d="M0 0 C4.90530333 2.82406276 8.25448877 5.71215442 11.375 10.4375 C11.045 11.4275 10.715 12.4175 10.375 13.4375 C9.90191406 13.03917969 9.42882812 12.64085937 8.94140625 12.23046875 C0.05696773 5.11252678 -8.27878822 3.27679558 -19.625 4.4375 C-31.25610844 6.84816299 -41.22317067 12.33389561 -50.625 19.4375 C-51.285 19.1075 -51.945 18.7775 -52.625 18.4375 C-40.16318028 3.01048845 -19.84325611 -9.36143575 0 0 Z " fill="#100E0E" transform="translate(394.625,721.5625)"/>
<path d="M0 0 C3.40653741 3.2292108 4.9128634 6.03942646 5.125 10.8125 C5.08375 11.534375 5.0425 12.25625 5 13 C2.06077067 14.46961466 -0.60408972 14.20919862 -3.875 14.25 C-5.10992188 14.27578125 -6.34484375 14.3015625 -7.6171875 14.328125 C-11.14948054 13.98550073 -12.4765715 13.40930359 -15 11 C-13.75191868 7.23911494 -11.63864739 5.95426239 -8.203125 4.16015625 C-7.59984375 3.85980469 -6.9965625 3.55945313 -6.375 3.25 C-5.76398437 2.93417969 -5.15296875 2.61835938 -4.5234375 2.29296875 C-3.02094261 1.51824482 -1.51114982 0.75770329 0 0 Z " fill="#1E1C1C" transform="translate(905,397)"/>
<path d="M0 0 C0 0.33 0 0.66 0 1 C-0.6290625 1.01417969 -1.258125 1.02835938 -1.90625 1.04296875 C-8.3823374 1.40383507 -13.15846332 2.52934708 -18 7 C-20.00598182 9.58759785 -21.81420594 12.21565364 -23.5546875 14.98828125 C-24.27011719 15.98408203 -24.27011719 15.98408203 -25 17 C-25.66 17 -26.32 17 -27 17 C-26.97120723 10.78076173 -25.83023054 6.48599762 -21.80078125 1.66796875 C-15.67839653 -4.00287349 -7.09194519 -4.43246574 0 0 Z " fill="#0C0A0A" transform="translate(98,682)"/>
<path d="M0 0 C0.87785156 0.35707031 1.75570313 0.71414063 2.66015625 1.08203125 C4.9375 2.1875 4.9375 2.1875 6.9375 4.1875 C6.5625 6.8125 6.5625 6.8125 5.9375 9.1875 C3.9575 9.8475 1.9775 10.5075 -0.0625 11.1875 C-8.0625 1.67398649 -8.0625 1.67398649 -8.0625 -0.8125 C-4.4042975 -2.03190083 -3.47801324 -1.44959904 0 0 Z " fill="#1C1B1B" transform="translate(429.0625,410.8125)"/>
<path d="M0 0 C-0.33 1.32 -0.66 2.64 -1 4 C-9.24394938 6.37537524 -17.75696147 6.74767951 -26 4 C-26 3.01 -26 2.02 -26 1 C-24.40671875 1.01740234 -24.40671875 1.01740234 -22.78125 1.03515625 C-15.14284647 1.09292721 -7.5522968 0 0 0 Z " fill="#201E1E" transform="translate(901,382)"/>
<path d="M0 0 C1.32 0 2.64 0 4 0 C3.67 1.65 3.34 3.3 3 5 C1.68 5.33 0.36 5.66 -1 6 C-1.33 5.34 -1.66 4.68 -2 4 C-1.0625 1.875 -1.0625 1.875 0 0 Z " fill="#1E1C1C" transform="translate(823,266)"/>
</svg>
