<svg version="1.1" id="Layer_1" xmlns="http://www.w3.org/2000/svg" xmlns:xlink="http://www.w3.org/1999/xlink" x="0px" y="0px"
	 width="100%" viewBox="0 0 256 256" enable-background="new 0 0 256 256" xml:space="preserve">
<path fill="#000000" opacity="1.000000" stroke="none" 
	d="
M117.000000,257.000000 
	C78.000000,257.000000 39.500004,257.000000 1.000005,257.000000 
	C1.000003,171.666672 1.000003,86.333351 1.000002,1.000017 
	C86.333321,1.000011 171.666641,1.000011 257.000000,1.000005 
	C257.000000,86.333313 257.000000,171.666626 257.000000,256.999969 
	C210.500000,257.000000 164.000000,257.000000 117.000000,257.000000 
M120.014992,126.756989 
	C122.196297,124.477730 124.491966,122.295395 126.527870,119.892914 
	C128.719574,117.306572 130.394119,117.665413 132.570541,120.021484 
	C139.455078,127.474289 143.103622,136.226013 144.054779,146.276901 
	C144.707855,153.177719 143.757782,160.485733 150.702942,165.612717 
	C152.551559,166.977386 153.173721,171.386978 152.761627,174.161316 
	C151.686798,181.397079 151.333694,181.345245 158.332535,183.683701 
	C160.322113,184.348450 162.292496,185.081009 164.307434,185.657562 
	C170.860336,187.532578 177.757904,185.267166 179.628418,178.889114 
	C180.862350,174.681671 179.540421,169.277771 178.074005,164.835007 
	C176.109344,158.882751 172.610672,153.456329 170.281067,147.601059 
	C165.025986,134.392868 160.165482,121.028236 154.988449,107.788254 
	C151.185196,98.061630 146.566803,88.614365 143.377625,78.699730 
	C140.925369,71.076080 135.423706,68.807037 128.803619,67.507423 
	C123.490074,66.464317 116.748154,71.903084 114.044472,78.855865 
	C109.069656,91.649071 103.978241,104.396896 98.986885,117.183723 
	C91.945518,135.222260 84.843819,153.238556 77.993286,171.349594 
	C75.527901,177.867416 81.133873,186.251144 87.963562,185.806488 
	C93.187088,185.466415 98.266426,183.271149 103.475906,182.231995 
	C107.073441,181.514374 107.266953,179.979950 106.427757,176.687531 
	C104.981102,171.011810 105.597122,165.642410 110.779938,161.502335 
	C112.220528,160.351578 113.391846,157.861313 113.346077,156.018890 
	C113.094818,145.904739 114.792030,136.334885 120.014992,126.756989 
M125.317299,153.043915 
	C129.384048,157.516083 132.741913,153.184479 135.484497,151.477829 
	C137.894470,149.978149 139.667709,146.644028 138.016586,142.904083 
	C136.131485,138.634125 133.615723,136.538727 128.462250,136.809998 
	C123.634903,137.064133 120.597038,138.127258 119.925423,143.289398 
	C119.366379,147.586349 120.149475,151.119324 125.317299,153.043915 
M134.966812,180.951279 
	C134.966812,178.700806 134.966812,176.450333 134.966812,174.238831 
	C130.670319,174.238831 127.055397,174.238831 123.433586,174.238831 
	C121.518646,181.284973 126.001312,185.745331 129.549820,191.252441 
	C131.424484,187.823318 133.079285,184.796371 134.966812,180.951279 
z"/>
<path fill="#FACE23" opacity="1.000000" stroke="none" 
	d="
M119.964371,127.129639 
	C114.792030,136.334885 113.094818,145.904739 113.346077,156.018890 
	C113.391846,157.861313 112.220528,160.351578 110.779938,161.502335 
	C105.597122,165.642410 104.981102,171.011810 106.427757,176.687531 
	C107.266953,179.979950 107.073441,181.514374 103.475906,182.231995 
	C98.266426,183.271149 93.187088,185.466415 87.963562,185.806488 
	C81.133873,186.251144 75.527901,177.867416 77.993286,171.349594 
	C84.843819,153.238556 91.945518,135.222260 98.986885,117.183723 
	C103.978241,104.396896 109.069656,91.649071 114.044472,78.855865 
	C116.748154,71.903084 123.490074,66.464317 128.803619,67.507423 
	C135.423706,68.807037 140.925369,71.076080 143.377625,78.699730 
	C146.566803,88.614365 151.185196,98.061630 154.988449,107.788254 
	C160.165482,121.028236 165.025986,134.392868 170.281067,147.601059 
	C172.610672,153.456329 176.109344,158.882751 178.074005,164.835007 
	C179.540421,169.277771 180.862350,174.681671 179.628418,178.889114 
	C177.757904,185.267166 170.860336,187.532578 164.307434,185.657562 
	C162.292496,185.081009 160.322113,184.348450 158.332535,183.683701 
	C151.333694,181.345245 151.686798,181.397079 152.761627,174.161316 
	C153.173721,171.386978 152.551559,166.977386 150.702942,165.612717 
	C143.757782,160.485733 144.707855,153.177719 144.054779,146.276901 
	C143.103622,136.226013 139.455078,127.474289 132.570541,120.021484 
	C130.394119,117.665413 128.719574,117.306572 126.527870,119.892914 
	C124.491966,122.295395 122.196297,124.477730 119.964371,127.129639 
z"/>
<path fill="#F8CE26" opacity="1.000000" stroke="none" 
	d="
M124.932434,153.019989 
	C120.149475,151.119324 119.366379,147.586349 119.925423,143.289398 
	C120.597038,138.127258 123.634903,137.064133 128.462250,136.809998 
	C133.615723,136.538727 136.131485,138.634125 138.016586,142.904083 
	C139.667709,146.644028 137.894470,149.978149 135.484497,151.477829 
	C132.741913,153.184479 129.384048,157.516083 124.932434,153.019989 
z"/>
<path fill="#F3CD2C" opacity="1.000000" stroke="none" 
	d="
M134.850433,181.360352 
	C133.079285,184.796371 131.424484,187.823318 129.549820,191.252441 
	C126.001312,185.745331 121.518646,181.284973 123.433586,174.238831 
	C127.055397,174.238831 130.670319,174.238831 134.966812,174.238831 
	C134.966812,176.450333 134.966812,178.700806 134.850433,181.360352 
z"/>
</svg>