<svg width="233" height="96" viewBox="0 0 233 96" fill="none" xmlns="http://www.w3.org/2000/svg">
<path d="M95.4249 19.4672L108.429 11.978C111.506 10.2364 112.551 6.28858 110.752 3.21163C109.01 0.134687 105.062 -0.910314 101.985 0.88941L79.5757 13.8358L95.4249 19.4672Z" fill="#EA4335"/>
<path d="M105.236 38.7992C107.442 38.7992 109.59 37.6381 110.809 35.6061C112.551 32.5292 111.506 28.6394 108.487 26.8397L85.9615 13.8353C82.8846 12.0936 78.9949 13.1386 77.1951 16.1575C75.4535 19.2344 76.4985 23.1242 79.5174 24.9239L101.985 37.9283C103.03 38.5089 104.133 38.7992 105.236 38.7992Z" fill="#4285F4"/>
<path d="M127.588 38.7996C128.691 38.7996 129.794 38.5093 130.781 37.9287L153.306 24.9243L137.631 19.1768L124.394 26.782C121.318 28.5237 120.273 32.4715 122.072 35.5484C123.233 37.6384 125.381 38.7996 127.588 38.7996Z" fill="#F9AB00"/>
<path d="M150.113 25.7948C152.32 25.7948 154.468 24.6337 155.687 22.6018C157.428 19.5248 156.383 15.6351 153.365 13.8354L130.839 0.888978C127.762 -0.85269 123.872 0.192311 122.073 3.2112C120.331 6.28815 121.376 10.1779 124.395 11.9776L146.92 24.924C147.907 25.5046 149.01 25.7948 150.113 25.7948Z" fill="#34A853"/>
<path d="M12.6125 71.4229C11.2928 71.4229 10.0712 71.1028 8.94761 70.4626C7.83705 69.8224 6.95514 68.9405 6.30187 67.8169C5.66167 66.6933 5.34156 65.4521 5.34156 64.0933C5.34156 62.7345 5.66167 61.4932 6.30187 60.3696C6.95514 59.246 7.83705 58.3641 8.94761 57.7239C10.0712 57.0837 11.2928 56.7636 12.6125 56.7636C13.6446 56.7636 14.6115 56.9465 15.513 57.3123C16.4275 57.6782 17.1788 58.1942 17.7668 58.8606L16.5713 60.0561C16.127 59.5073 15.5522 59.0892 14.8466 58.8018C14.1542 58.5013 13.4094 58.351 12.6125 58.351C11.6325 58.351 10.7114 58.5927 9.84912 59.0762C8.99987 59.5465 8.31394 60.2194 7.79132 61.0948C7.28177 61.9571 7.027 62.9566 7.027 64.0933C7.027 65.2169 7.28177 66.2164 7.79132 67.0918C8.31394 67.9671 8.99987 68.6465 9.84912 69.13C10.7114 69.6003 11.6325 69.8355 12.6125 69.8355C13.5532 69.8355 14.3371 69.6918 14.9642 69.4043C15.6044 69.1038 16.1597 68.7119 16.6301 68.2285C16.9698 67.8626 17.2441 67.4184 17.4532 66.8958C17.6622 66.3732 17.7863 65.8048 17.8255 65.1908H12.6517V63.6425H19.3934C19.4587 64.0083 19.4914 64.348 19.4914 64.6616C19.4914 65.5239 19.3542 66.3666 19.0798 67.1898C18.8054 67.9998 18.3678 68.7119 17.7668 69.3259C16.4471 70.7239 14.729 71.4229 12.6125 71.4229ZM25.766 71.4229C24.8122 71.4229 23.9564 71.2008 23.1986 70.7566C22.4408 70.2993 21.8464 69.6787 21.4152 68.8948C20.9971 68.0978 20.7881 67.2159 20.7881 66.249C20.7881 65.2822 20.9971 64.4068 21.4152 63.6229C21.8464 62.8259 22.4408 62.2053 23.1986 61.7611C23.9564 61.3038 24.8122 61.0752 25.766 61.0752C26.7198 61.0752 27.5755 61.3038 28.3333 61.7611C29.1042 62.2053 29.6987 62.8259 30.1168 63.6229C30.5479 64.4068 30.7635 65.2822 30.7635 66.249C30.7635 67.2159 30.5479 68.0978 30.1168 68.8948C29.6987 69.6787 29.1042 70.2993 28.3333 70.7566C27.5755 71.2008 26.7198 71.4229 25.766 71.4229ZM25.766 69.9139C26.3539 69.9139 26.9027 69.7636 27.4122 69.4631C27.9218 69.1626 28.3268 68.738 28.6273 68.1893C28.9409 67.6274 29.0977 66.9807 29.0977 66.249C29.0977 65.5174 28.9409 64.8772 28.6273 64.3284C28.3268 63.7666 27.9218 63.3355 27.4122 63.035C26.9027 62.7345 26.3539 62.5842 25.766 62.5842C25.1911 62.5842 24.6489 62.7345 24.1393 63.035C23.6298 63.3355 23.2182 63.7666 22.9047 64.3284C22.6042 64.8772 22.4539 65.5174 22.4539 66.249C22.4539 66.9807 22.6042 67.6274 22.9047 68.1893C23.2182 68.738 23.6298 69.1626 24.1393 69.4631C24.6489 69.7636 25.1911 69.9139 25.766 69.9139ZM36.93 71.4229C35.9762 71.4229 35.1204 71.2008 34.3627 70.7566C33.6049 70.2993 33.0104 69.6787 32.5792 68.8948C32.1611 68.0978 31.9521 67.2159 31.9521 66.249C31.9521 65.2822 32.1611 64.4068 32.5792 63.6229C33.0104 62.8259 33.6049 62.2053 34.3627 61.7611C35.1204 61.3038 35.9762 61.0752 36.93 61.0752C37.8838 61.0752 38.7396 61.3038 39.4974 61.7611C40.2682 62.2053 40.8627 62.8259 41.2808 63.6229C41.7119 64.4068 41.9275 65.2822 41.9275 66.249C41.9275 67.2159 41.7119 68.0978 41.2808 68.8948C40.8627 69.6787 40.2682 70.2993 39.4974 70.7566C38.7396 71.2008 37.8838 71.4229 36.93 71.4229ZM36.93 69.9139C37.5179 69.9139 38.0667 69.7636 38.5762 69.4631C39.0858 69.1626 39.4908 68.738 39.7913 68.1893C40.1049 67.6274 40.2617 66.9807 40.2617 66.249C40.2617 65.5174 40.1049 64.8772 39.7913 64.3284C39.4908 63.7666 39.0858 63.3355 38.5762 63.035C38.0667 62.7345 37.5179 62.5842 36.93 62.5842C36.3551 62.5842 35.8129 62.7345 35.3034 63.035C34.7938 63.3355 34.3823 63.7666 34.0687 64.3284C33.7682 64.8772 33.6179 65.5174 33.6179 66.249C33.6179 66.9807 33.7682 67.6274 34.0687 68.1893C34.3823 68.738 34.7938 69.1626 35.3034 69.4631C35.8129 69.7636 36.3551 69.9139 36.93 69.9139ZM47.9372 75.6561C46.7614 75.6561 45.801 75.3752 45.0563 74.8134C44.3116 74.2516 43.8086 73.5983 43.5473 72.8536L45.0955 72.2069C45.2915 72.7817 45.6377 73.2456 46.1342 73.5983C46.6438 73.9642 47.2448 74.1471 47.9372 74.1471C48.9694 74.1471 49.7599 73.84 50.3086 73.226C50.8704 72.625 51.1513 71.7822 51.1513 70.6978V69.6591H51.0729C50.7594 70.1556 50.3086 70.5672 49.7207 70.8938C49.1327 71.2204 48.4664 71.3837 47.7217 71.3837C46.8985 71.3837 46.1342 71.1616 45.4287 70.7174C44.7232 70.2732 44.1613 69.6591 43.7432 68.8752C43.3252 68.0913 43.1161 67.2094 43.1161 66.2295C43.1161 65.2495 43.3252 64.3676 43.7432 63.5837C44.1613 62.7998 44.7232 62.1857 45.4287 61.7415C46.1342 61.2973 46.8985 61.0752 47.7217 61.0752C48.4664 61.0752 49.1327 61.2385 49.7207 61.5651C50.3086 61.8917 50.7594 62.3033 51.0729 62.7998H51.1513V61.3887H52.7584V70.7174C52.7584 71.7888 52.5493 72.6968 52.1312 73.4415C51.7131 74.1863 51.1383 74.7416 50.4066 75.1074C49.6749 75.4732 48.8518 75.6561 47.9372 75.6561ZM47.9764 69.8747C48.5513 69.8747 49.0805 69.731 49.5639 69.4435C50.0473 69.143 50.4327 68.7184 50.7202 68.1697C51.0207 67.6209 51.1709 66.9742 51.1709 66.2295C51.1709 65.4847 51.0207 64.838 50.7202 64.2892C50.4327 63.7274 50.0473 63.3028 49.5639 63.0154C49.0805 62.7279 48.5513 62.5842 47.9764 62.5842C47.4016 62.5842 46.8724 62.7345 46.389 63.035C45.9056 63.3224 45.5136 63.7405 45.2131 64.2892C44.9257 64.838 44.7819 65.4847 44.7819 66.2295C44.7819 66.9742 44.9257 67.6209 45.2131 68.1697C45.5136 68.7184 45.9056 69.143 46.389 69.4435C46.8724 69.731 47.4016 69.8747 47.9764 69.8747ZM55.0394 57.0771H56.7052V71.1094H55.0394V57.0771ZM63.2236 71.4229C62.2829 71.4229 61.4402 71.2008 60.6954 70.7566C59.9638 70.3124 59.3889 69.6983 58.9708 68.9144C58.5527 68.1305 58.3437 67.242 58.3437 66.249C58.3437 65.3083 58.5396 64.446 58.9316 63.6621C59.3236 62.8651 59.8789 62.238 60.5974 61.7807C61.3291 61.3103 62.1653 61.0752 63.106 61.0752C64.0467 61.0752 64.8698 61.2907 65.5754 61.7219C66.294 62.14 66.8427 62.7345 67.2216 63.5053C67.6005 64.2762 67.7899 65.1646 67.7899 66.1707C67.7899 66.3536 67.7769 66.4842 67.7507 66.5626H60.0291C60.0552 67.2943 60.2316 67.9149 60.5583 68.4244C60.8849 68.9209 61.2899 69.2933 61.7733 69.5415C62.2698 69.7898 62.7794 69.9139 63.302 69.9139C64.5301 69.9139 65.4774 69.3129 66.1437 68.1109L67.6136 68.8164C67.1955 69.6003 66.6141 70.234 65.8693 70.7174C65.1377 71.1878 64.2558 71.4229 63.2236 71.4229ZM66.0261 65.1712C66 64.7792 65.8889 64.3872 65.693 63.9953C65.497 63.6033 65.1769 63.2701 64.7326 62.9958C64.3015 62.7214 63.7527 62.5842 63.0864 62.5842C62.3417 62.5842 61.7015 62.8194 61.1658 63.2897C60.6301 63.7601 60.2904 64.3872 60.1467 65.1712H66.0261ZM74.2813 57.0771H78.5145C79.9517 57.0771 81.206 57.3776 82.2774 57.9787C83.3487 58.5666 84.1718 59.3897 84.7467 60.448C85.3216 61.5063 85.609 62.7214 85.609 64.0933C85.609 65.4651 85.3216 66.6802 84.7467 67.7385C84.1718 68.7968 83.3487 69.6265 82.2774 70.2275C81.206 70.8154 79.9517 71.1094 78.5145 71.1094H74.2813V57.0771ZM78.5145 69.5219C80.1738 69.5219 81.4869 69.045 82.4537 68.0913C83.4337 67.1375 83.9236 65.8048 83.9236 64.0933C83.9236 62.3817 83.4337 61.049 82.4537 60.0953C81.4869 59.1415 80.1738 58.6646 78.5145 58.6646H75.9276V69.5219H78.5145ZM91.5865 71.4229C90.6457 71.4229 89.803 71.2008 89.0583 70.7566C88.3266 70.3124 87.7518 69.6983 87.3337 68.9144C86.9156 68.1305 86.7065 67.242 86.7065 66.249C86.7065 65.3083 86.9025 64.446 87.2945 63.6621C87.6864 62.8651 88.2417 62.238 88.9603 61.7807C89.692 61.3103 90.5282 61.0752 91.4689 61.0752C92.4096 61.0752 93.2327 61.2907 93.9382 61.7219C94.6568 62.14 95.2056 62.7345 95.5845 63.5053C95.9634 64.2762 96.1528 65.1646 96.1528 66.1707C96.1528 66.3536 96.1397 66.4842 96.1136 66.5626H88.392C88.4181 67.2943 88.5945 67.9149 88.9211 68.4244C89.2478 68.9209 89.6528 69.2933 90.1362 69.5415C90.6327 69.7898 91.1422 69.9139 91.6648 69.9139C92.893 69.9139 93.8402 69.3129 94.5066 68.1109L95.9764 68.8164C95.5583 69.6003 94.9769 70.234 94.2322 70.7174C93.5005 71.1878 92.6186 71.4229 91.5865 71.4229ZM94.389 65.1712C94.3629 64.7792 94.2518 64.3872 94.0558 63.9953C93.8598 63.6033 93.5397 63.2701 93.0955 62.9958C92.6644 62.7214 92.1156 62.5842 91.4493 62.5842C90.7045 62.5842 90.0643 62.8194 89.5287 63.2897C88.993 63.7601 88.6533 64.3872 88.5096 65.1712H94.389ZM96.5945 61.3887H98.3976L101.376 69.1496H101.416L104.453 61.3887H106.198L102.219 71.1094H100.534L96.5945 61.3887ZM111.426 71.4229C110.486 71.4229 109.643 71.2008 108.898 70.7566C108.167 70.3124 107.592 69.6983 107.174 68.9144C106.756 68.1305 106.547 67.242 106.547 66.249C106.547 65.3083 106.743 64.446 107.134 63.6621C107.526 62.8651 108.082 62.238 108.8 61.7807C109.532 61.3103 110.368 61.0752 111.309 61.0752C112.25 61.0752 113.073 61.2907 113.778 61.7219C114.497 62.14 115.046 62.7345 115.424 63.5053C115.803 64.2762 115.993 65.1646 115.993 66.1707C115.993 66.3536 115.98 66.4842 115.954 66.5626H108.232C108.258 67.2943 108.434 67.9149 108.761 68.4244C109.088 68.9209 109.493 69.2933 109.976 69.5415C110.473 69.7898 110.982 69.9139 111.505 69.9139C112.733 69.9139 113.68 69.3129 114.347 68.1109L115.816 68.8164C115.398 69.6003 114.817 70.234 114.072 70.7174C113.341 71.1878 112.459 71.4229 111.426 71.4229ZM114.229 65.1712C114.203 64.7792 114.092 64.3872 113.896 63.9953C113.7 63.6033 113.38 63.2701 112.936 62.9958C112.504 62.7214 111.956 62.5842 111.289 62.5842C110.545 62.5842 109.904 62.8194 109.369 63.2897C108.833 63.7601 108.493 64.3872 108.35 65.1712H114.229ZM117.723 57.0771H119.389V71.1094H117.723V57.0771ZM126.006 71.4229C125.052 71.4229 124.196 71.2008 123.438 70.7566C122.68 70.2993 122.086 69.6787 121.655 68.8948C121.237 68.0978 121.028 67.2159 121.028 66.249C121.028 65.2822 121.237 64.4068 121.655 63.6229C122.086 62.8259 122.68 62.2053 123.438 61.7611C124.196 61.3038 125.052 61.0752 126.006 61.0752C126.959 61.0752 127.815 61.3038 128.573 61.7611C129.344 62.2053 129.938 62.8259 130.356 63.6229C130.788 64.4068 131.003 65.2822 131.003 66.249C131.003 67.2159 130.788 68.0978 130.356 68.8948C129.938 69.6787 129.344 70.2993 128.573 70.7566C127.815 71.2008 126.959 71.4229 126.006 71.4229ZM126.006 69.9139C126.594 69.9139 127.142 69.7636 127.652 69.4631C128.161 69.1626 128.566 68.738 128.867 68.1893C129.18 67.6274 129.337 66.9807 129.337 66.249C129.337 65.5174 129.18 64.8772 128.867 64.3284C128.566 63.7666 128.161 63.3355 127.652 63.035C127.142 62.7345 126.594 62.5842 126.006 62.5842C125.431 62.5842 124.889 62.7345 124.379 63.035C123.869 63.3355 123.458 63.7666 123.144 64.3284C122.844 64.8772 122.694 65.5174 122.694 66.249C122.694 66.9807 122.844 67.6274 123.144 68.1893C123.458 68.738 123.869 69.1626 124.379 69.4631C124.889 69.7636 125.431 69.9139 126.006 69.9139ZM132.566 61.3887H134.154V62.8194H134.232C134.546 62.3229 134.997 61.9113 135.584 61.5847C136.172 61.245 136.852 61.0752 137.623 61.0752C138.459 61.0752 139.23 61.3038 139.935 61.7611C140.641 62.2053 141.203 62.8194 141.621 63.6033C142.039 64.3872 142.248 65.2691 142.248 66.249C142.248 67.229 142.039 68.1109 141.621 68.8948C141.203 69.6787 140.641 70.2993 139.935 70.7566C139.23 71.2008 138.459 71.4229 137.623 71.4229C136.852 71.4229 136.166 71.2596 135.565 70.933C134.977 70.5933 134.533 70.1687 134.232 69.6591H134.154L134.232 71.0114V75.3426H132.566V61.3887ZM137.368 69.9139C137.943 69.9139 138.472 69.7636 138.955 69.4631C139.452 69.1626 139.844 68.738 140.131 68.1893C140.432 67.6274 140.582 66.9807 140.582 66.249C140.582 65.5174 140.432 64.8772 140.131 64.3284C139.844 63.7666 139.452 63.3355 138.955 63.035C138.472 62.7345 137.943 62.5842 137.368 62.5842C136.793 62.5842 136.257 62.7345 135.761 63.035C135.277 63.3224 134.885 63.747 134.585 64.3088C134.298 64.8576 134.154 65.5043 134.154 66.249C134.154 66.9807 134.298 67.6274 134.585 68.1893C134.885 68.7511 135.277 69.1822 135.761 69.4827C136.257 69.7702 136.793 69.9139 137.368 69.9139ZM148.312 71.4229C147.371 71.4229 146.529 71.2008 145.784 70.7566C145.052 70.3124 144.478 69.6983 144.059 68.9144C143.641 68.1305 143.432 67.242 143.432 66.249C143.432 65.3083 143.628 64.446 144.02 63.6621C144.412 62.8651 144.967 62.238 145.686 61.7807C146.418 61.3103 147.254 61.0752 148.195 61.0752C149.135 61.0752 149.958 61.2907 150.664 61.7219C151.383 62.14 151.931 62.7345 152.31 63.5053C152.689 64.2762 152.879 65.1646 152.879 66.1707C152.879 66.3536 152.865 66.4842 152.839 66.5626H145.118C145.144 67.2943 145.32 67.9149 145.647 68.4244C145.973 68.9209 146.379 69.2933 146.862 69.5415C147.358 69.7898 147.868 69.9139 148.391 69.9139C149.619 69.9139 150.566 69.3129 151.232 68.1109L152.702 68.8164C152.284 69.6003 151.703 70.234 150.958 70.7174C150.226 71.1878 149.344 71.4229 148.312 71.4229ZM151.115 65.1712C151.089 64.7792 150.978 64.3872 150.782 63.9953C150.586 63.6033 150.265 63.2701 149.821 62.9958C149.39 62.7214 148.841 62.5842 148.175 62.5842C147.43 62.5842 146.79 62.8194 146.254 63.2897C145.719 63.7601 145.379 64.3872 145.235 65.1712H151.115ZM154.609 61.3887H156.197V62.9762H156.275C156.458 62.4405 156.83 61.9963 157.392 61.6435C157.967 61.2777 158.535 61.0948 159.097 61.0948C159.502 61.0948 159.881 61.1535 160.234 61.2711V63.0742C159.881 62.8782 159.424 62.7802 158.862 62.7802C158.405 62.7802 157.973 62.9174 157.568 63.1917C157.177 63.4531 156.863 63.8058 156.628 64.25C156.393 64.6943 156.275 65.1777 156.275 65.7003V71.1094H154.609V61.3887ZM172.583 71.4229C171.263 71.4229 170.041 71.1028 168.918 70.4626C167.807 69.8224 166.925 68.9405 166.272 67.8169C165.632 66.6933 165.312 65.4521 165.312 64.0933C165.312 62.7345 165.632 61.4932 166.272 60.3696C166.925 59.246 167.807 58.3641 168.918 57.7239C170.041 57.0837 171.263 56.7636 172.583 56.7636C173.615 56.7636 174.582 56.9465 175.483 57.3123C176.398 57.6782 177.149 58.1942 177.737 58.8606L176.541 60.0561C176.097 59.5073 175.522 59.0892 174.817 58.8018C174.124 58.5013 173.38 58.351 172.583 58.351C171.603 58.351 170.682 58.5927 169.819 59.0762C168.97 59.5465 168.284 60.2194 167.761 61.0948C167.252 61.9571 166.997 62.9566 166.997 64.0933C166.997 65.2169 167.252 66.2164 167.761 67.0918C168.284 67.9671 168.97 68.6465 169.819 69.13C170.682 69.6003 171.603 69.8355 172.583 69.8355C173.523 69.8355 174.307 69.6918 174.934 69.4043C175.575 69.1038 176.13 68.7119 176.6 68.2285C176.94 67.8626 177.214 67.4184 177.423 66.8958C177.632 66.3732 177.756 65.8048 177.796 65.1908H172.622V63.6425H179.364C179.429 64.0083 179.462 64.348 179.462 64.6616C179.462 65.5239 179.324 66.3666 179.05 67.1898C178.776 67.9998 178.338 68.7119 177.737 69.3259C176.417 70.7239 174.699 71.4229 172.583 71.4229ZM181.02 61.3887H182.607V62.9762H182.686C182.869 62.4405 183.241 61.9963 183.803 61.6435C184.378 61.2777 184.946 61.0948 185.508 61.0948C185.913 61.0948 186.292 61.1535 186.645 61.2711V63.0742C186.292 62.8782 185.834 62.7802 185.273 62.7802C184.815 62.7802 184.384 62.9174 183.979 63.1917C183.587 63.4531 183.274 63.8058 183.038 64.25C182.803 64.6943 182.686 65.1777 182.686 65.7003V71.1094H181.02V61.3887ZM191.886 71.4229C190.932 71.4229 190.076 71.2008 189.318 70.7566C188.561 70.2993 187.966 69.6787 187.535 68.8948C187.117 68.0978 186.908 67.2159 186.908 66.249C186.908 65.2822 187.117 64.4068 187.535 63.6229C187.966 62.8259 188.561 62.2053 189.318 61.7611C190.076 61.3038 190.932 61.0752 191.886 61.0752C192.84 61.0752 193.695 61.3038 194.453 61.7611C195.224 62.2053 195.818 62.8259 196.237 63.6229C196.668 64.4068 196.883 65.2822 196.883 66.249C196.883 67.2159 196.668 68.0978 196.237 68.8948C195.818 69.6787 195.224 70.2993 194.453 70.7566C193.695 71.2008 192.84 71.4229 191.886 71.4229ZM191.886 69.9139C192.474 69.9139 193.022 69.7636 193.532 69.4631C194.042 69.1626 194.447 68.738 194.747 68.1893C195.061 67.6274 195.217 66.9807 195.217 66.249C195.217 65.5174 195.061 64.8772 194.747 64.3284C194.447 63.7666 194.042 63.3355 193.532 63.035C193.022 62.7345 192.474 62.5842 191.886 62.5842C191.311 62.5842 190.769 62.7345 190.259 63.035C189.75 63.3355 189.338 63.7666 189.024 64.3284C188.724 64.8772 188.574 65.5174 188.574 66.249C188.574 66.9807 188.724 67.6274 189.024 68.1893C189.338 68.738 189.75 69.1626 190.259 69.4631C190.769 69.7636 191.311 69.9139 191.886 69.9139ZM202.111 71.4229C200.909 71.4229 199.995 71.0767 199.368 70.3842C198.754 69.6918 198.447 68.7315 198.447 67.5033V61.3887H200.112V67.229C200.112 68.1827 200.321 68.8687 200.74 69.2868C201.171 69.7048 201.772 69.9139 202.543 69.9139C203.078 69.9139 203.555 69.7636 203.973 69.4631C204.391 69.1626 204.711 68.7707 204.934 68.2873C205.169 67.8038 205.286 67.2943 205.286 66.7586V61.3887H206.933V71.1094H205.365V69.6591H205.286C204.999 70.1556 204.561 70.5737 203.973 70.9134C203.398 71.2531 202.778 71.4229 202.111 71.4229ZM209.151 61.3887H210.739V62.8194H210.817C211.131 62.3229 211.581 61.9113 212.169 61.5847C212.757 61.245 213.437 61.0752 214.208 61.0752C215.044 61.0752 215.815 61.3038 216.52 61.7611C217.226 62.2053 217.787 62.8194 218.206 63.6033C218.624 64.3872 218.833 65.2691 218.833 66.249C218.833 67.229 218.624 68.1109 218.206 68.8948C217.787 69.6787 217.226 70.2993 216.52 70.7566C215.815 71.2008 215.044 71.4229 214.208 71.4229C213.437 71.4229 212.751 71.2596 212.15 70.933C211.562 70.5933 211.118 70.1687 210.817 69.6591H210.739L210.817 71.0114V75.3426H209.151V61.3887ZM213.953 69.9139C214.528 69.9139 215.057 69.7636 215.54 69.4631C216.037 69.1626 216.429 68.738 216.716 68.1893C217.017 67.6274 217.167 66.9807 217.167 66.249C217.167 65.5174 217.017 64.8772 216.716 64.3284C216.429 63.7666 216.037 63.3355 215.54 63.035C215.057 62.7345 214.528 62.5842 213.953 62.5842C213.378 62.5842 212.842 62.7345 212.346 63.035C211.862 63.3224 211.47 63.747 211.17 64.3088C210.882 64.8576 210.739 65.5043 210.739 66.249C210.739 66.9807 210.882 67.6274 211.17 68.1893C211.47 68.7511 211.862 69.1822 212.346 69.4827C212.842 69.7702 213.378 69.9139 213.953 69.9139ZM223.9 71.4229C222.868 71.4229 221.992 71.1616 221.274 70.639C220.555 70.1164 220.052 69.4697 219.765 68.6988L221.254 68.0521C221.502 68.6661 221.862 69.1365 222.332 69.4631C222.815 69.7898 223.338 69.9531 223.9 69.9531C224.527 69.9531 225.043 69.8159 225.448 69.5415C225.866 69.2672 226.075 68.934 226.075 68.542C226.075 68.1631 225.918 67.8496 225.605 67.6013C225.304 67.3531 224.782 67.1375 224.037 66.9546L222.704 66.6214C221.973 66.4516 221.346 66.1445 220.823 65.7003C220.313 65.2561 220.059 64.6681 220.059 63.9365C220.059 63.3355 220.228 62.8194 220.568 62.3882C220.921 61.9571 221.385 61.6304 221.96 61.4083C222.535 61.1862 223.162 61.0752 223.841 61.0752C224.677 61.0752 225.435 61.2711 226.114 61.6631C226.807 62.042 227.297 62.5842 227.584 63.2897L226.114 63.9169C225.905 63.4465 225.585 63.1003 225.154 62.8782C224.736 62.6561 224.266 62.545 223.743 62.545C223.234 62.545 222.77 62.6691 222.352 62.9174C221.947 63.1656 221.744 63.4857 221.744 63.8777C221.744 64.2174 221.875 64.4852 222.136 64.6812C222.41 64.8772 222.842 65.0536 223.43 65.2104L224.88 65.5631C225.847 65.8114 226.565 66.1837 227.036 66.6802C227.519 67.1636 227.761 67.745 227.761 68.4244C227.761 68.9862 227.597 69.4958 227.271 69.9531C226.944 70.4104 226.487 70.7697 225.899 71.031C225.311 71.2923 224.645 71.4229 223.9 71.4229Z" fill="white"/>
<path d="M78.1857 88.2518C77.6846 88.2518 77.2578 88.0834 76.9051 87.7467C76.5711 87.3913 76.4041 86.9611 76.4041 86.4561C76.4041 85.9698 76.5711 85.5583 76.9051 85.2216C77.2578 84.8662 77.6846 84.6885 78.1857 84.6885C78.6868 84.6885 79.1044 84.8662 79.4384 85.2216C79.791 85.5583 79.9673 85.9698 79.9673 86.4561C79.9673 86.9611 79.791 87.3913 79.4384 87.7467C79.1044 88.0834 78.6868 88.2518 78.1857 88.2518Z" fill="white"/>
<path d="M6.11793 91.0351C5.17933 91.0351 4.3273 90.8073 3.56184 90.3517C2.79638 89.896 2.19495 89.2764 1.75754 88.4927C1.32014 87.709 1.10143 86.8524 1.10143 85.9229C1.10143 84.9934 1.32014 84.1369 1.75754 83.3532C2.19495 82.5695 2.79638 81.9498 3.56184 81.4942C4.3273 81.0386 5.17933 80.8107 6.11793 80.8107C7.05653 80.8107 7.90856 81.0386 8.67402 81.4942C9.43948 81.9498 10.0409 82.5695 10.4783 83.3532C10.9157 84.1369 11.1344 84.9934 11.1344 85.9229C11.1344 86.8524 10.9157 87.709 10.4783 88.4927C10.0409 89.2764 9.43948 89.896 8.67402 90.3517C7.90856 90.8073 7.05653 91.0351 6.11793 91.0351ZM6.11793 89.9279C6.8196 89.9279 7.46204 89.7593 8.04525 89.4222C8.63757 89.0759 9.10231 88.602 9.43948 88.0006C9.78576 87.3901 9.9589 86.6975 9.9589 85.9229C9.9589 85.1484 9.78576 84.4604 9.43948 83.8589C9.10231 83.2484 8.63757 82.7745 8.04525 82.4374C7.46204 82.0911 6.8196 81.9179 6.11793 81.9179C5.41626 81.9179 4.76926 82.0911 4.17694 82.4374C3.59373 82.7745 3.12899 83.2484 2.78271 83.8589C2.44554 84.4604 2.27696 85.1484 2.27696 85.9229C2.27696 86.6975 2.44554 87.3901 2.78271 88.0006C3.12899 88.602 3.59373 89.0759 4.17694 89.4222C4.76926 89.7593 5.41626 89.9279 6.11793 89.9279ZM12.5202 84.0366H13.6274V85.0481H13.6821C13.8734 84.7018 14.1742 84.4102 14.5842 84.1733C14.9943 83.9364 15.4317 83.8179 15.8964 83.8179C16.7257 83.8179 17.3545 84.0594 17.7828 84.5424C18.2202 85.0253 18.4389 85.686 18.4389 86.5244V90.8164H17.2907V86.7021C17.2907 86.0459 17.1403 85.5766 16.8396 85.2942C16.548 85.0117 16.1288 84.8704 15.5821 84.8704C15.2176 84.8704 14.8895 84.9752 14.5979 85.1848C14.3063 85.3944 14.0785 85.6678 13.9145 86.0049C13.7595 86.3421 13.6821 86.6975 13.6821 87.0711V90.8164H12.5202V84.0366ZM27.8103 91.0351C26.8717 91.0351 26.0151 90.8118 25.2405 90.3653C24.466 89.9188 23.8554 89.3037 23.4089 88.52C22.9715 87.7363 22.7528 86.8706 22.7528 85.9229C22.7528 84.9752 22.9715 84.1095 23.4089 83.3258C23.8554 82.5421 24.466 81.927 25.2405 81.4805C26.0151 81.034 26.8717 80.8107 27.8103 80.8107C28.5484 80.8107 29.2182 80.952 29.8196 81.2345C30.4302 81.5079 30.9542 81.8997 31.3916 82.41L30.5714 83.2165C30.2069 82.77 29.7969 82.4419 29.3412 82.2323C28.8947 82.0227 28.3844 81.9179 27.8103 81.9179C27.1086 81.9179 26.4616 82.0865 25.8693 82.4237C25.277 82.7517 24.8031 83.221 24.4478 83.8316C24.1015 84.433 23.9283 85.1301 23.9283 85.9229C23.9283 86.7157 24.1015 87.4174 24.4478 88.0279C24.8031 88.6294 25.277 89.0987 25.8693 89.4358C26.4616 89.7639 27.1086 89.9279 27.8103 89.9279C29.0041 89.9279 30.0156 89.4404 30.8448 88.4654L31.6786 89.2855C31.2321 89.8231 30.6762 90.2514 30.011 90.5704C29.3458 90.8802 28.6122 91.0351 27.8103 91.0351ZM35.0374 91.0351C34.5454 91.0351 34.0988 90.9394 33.6979 90.7481C33.306 90.5476 32.9962 90.2742 32.7684 89.9279C32.5497 89.5725 32.4403 89.1761 32.4403 88.7387C32.4403 88.0188 32.7092 87.4584 33.2468 87.0575C33.7936 86.6565 34.4907 86.456 35.3381 86.456C35.7573 86.456 36.1355 86.5016 36.4727 86.5927C36.8098 86.6838 37.0787 86.7841 37.2791 86.8934V86.538C37.2791 86.21 37.1926 85.9184 37.0194 85.6632C36.8554 85.399 36.6321 85.1985 36.3497 85.0618C36.0672 84.916 35.7619 84.8431 35.4338 84.8431C34.6593 84.8431 34.0669 85.1575 33.6569 85.7862L32.6864 85.1438C32.978 84.7246 33.3516 84.4011 33.8072 84.1733C34.272 83.9364 34.7959 83.8179 35.3792 83.8179C36.3086 83.8179 37.0422 84.0685 37.5799 84.5697C38.1175 85.0709 38.3863 85.7452 38.3863 86.5927V90.8164H37.2791V89.8186H37.2245C37.0058 90.1649 36.7096 90.4565 36.336 90.6934C35.9624 90.9212 35.5295 91.0351 35.0374 91.0351ZM35.1331 90.0099C35.4976 90.0099 35.8439 89.9143 36.172 89.7229C36.5 89.5315 36.7643 89.2718 36.9648 88.9438C37.1743 88.6157 37.2791 88.2603 37.2791 87.8776C36.7688 87.5495 36.1811 87.3855 35.5158 87.3855C34.9418 87.3855 34.4816 87.5176 34.1353 87.7819C33.7981 88.0371 33.6295 88.3651 33.6295 88.7661C33.6295 89.1306 33.7799 89.4313 34.0806 89.6682C34.3813 89.896 34.7322 90.0099 35.1331 90.0099ZM39.9782 84.0366H41.0854V85.0481H41.1401C41.3314 84.7018 41.6276 84.4102 42.0286 84.1733C42.4386 83.9364 42.8532 83.8179 43.2724 83.8179C43.7827 83.8179 44.2201 83.9409 44.5846 84.187C44.9583 84.4239 45.2271 84.752 45.3911 85.1711C45.6463 84.7611 45.9743 84.433 46.3753 84.187C46.7762 83.9409 47.2364 83.8179 47.7558 83.8179C48.5486 83.8179 49.1455 84.0594 49.5465 84.5424C49.9474 85.0253 50.1479 85.6906 50.1479 86.538V90.8164H48.986V86.7157C48.986 86.0505 48.8585 85.5766 48.6033 85.2942C48.3573 85.0117 47.9745 84.8704 47.4551 84.8704C47.1088 84.8704 46.7945 84.9752 46.512 85.1848C46.2386 85.3853 46.0244 85.6541 45.8695 85.9913C45.7146 86.3284 45.6372 86.6838 45.6372 87.0575V90.8164H44.489V86.7157C44.489 86.0505 44.3614 85.5766 44.1062 85.2942C43.8511 85.0117 43.4684 84.8704 42.958 84.8704C42.6027 84.8704 42.2883 84.9752 42.0149 85.1848C41.7415 85.3944 41.5274 85.6678 41.3724 86.0049C41.2175 86.3421 41.1401 86.7021 41.1401 87.0848V90.8164H39.9782V84.0366ZM51.737 84.0366H52.8442V85.0344H52.8989C53.1176 84.6882 53.432 84.4011 53.842 84.1733C54.2521 83.9364 54.726 83.8179 55.2636 83.8179C55.8468 83.8179 56.3845 83.9774 56.8765 84.2963C57.3686 84.6062 57.7605 85.0344 58.0521 85.5812C58.3437 86.128 58.4895 86.7431 58.4895 87.4265C58.4895 88.11 58.3437 88.7251 58.0521 89.2718C57.7605 89.8186 57.3686 90.2514 56.8765 90.5704C56.3845 90.8802 55.8468 91.0351 55.2636 91.0351C54.726 91.0351 54.2475 90.9212 53.8284 90.6934C53.4183 90.4565 53.1085 90.1603 52.8989 89.8049H52.8442L52.8989 90.7481V93.7689H51.737V84.0366ZM55.0859 89.9826C55.4869 89.9826 55.8559 89.8778 56.1931 89.6682C56.5394 89.4586 56.8127 89.1625 57.0132 88.7797C57.2228 88.3879 57.3276 87.9368 57.3276 87.4265C57.3276 86.9162 57.2228 86.4697 57.0132 86.087C56.8127 85.6951 56.5394 85.3944 56.1931 85.1848C55.8559 84.9752 55.4869 84.8704 55.0859 84.8704C54.685 84.8704 54.3113 84.9752 53.9651 85.1848C53.6279 85.3853 53.3545 85.6814 53.1449 86.0733C52.9444 86.456 52.8442 86.9071 52.8442 87.4265C52.8442 87.9368 52.9444 88.3879 53.1449 88.7797C53.3545 89.1716 53.6279 89.4723 53.9651 89.6819C54.3113 89.8824 54.685 89.9826 55.0859 89.9826ZM62.2355 91.0351C61.3971 91.0351 60.7593 90.7936 60.3219 90.3107C59.8936 89.8277 59.6794 89.1579 59.6794 88.3013V84.0366H60.8413V88.11C60.8413 88.7752 60.9871 89.2536 61.2787 89.5452C61.5794 89.8368 61.9986 89.9826 62.5362 89.9826C62.9098 89.9826 63.2424 89.8778 63.5341 89.6682C63.8257 89.4586 64.0489 89.1852 64.2038 88.8481C64.3679 88.5109 64.4499 88.1555 64.4499 87.7819V84.0366H65.5981V90.8164H64.5045V89.8049H64.4499C64.2494 90.1512 63.9441 90.4428 63.5341 90.6797C63.1331 90.9166 62.7002 91.0351 62.2355 91.0351ZM69.628 91.0351C68.9082 91.0351 68.2976 90.8529 67.7964 90.4884C67.2952 90.1238 66.9444 89.6728 66.7439 89.1351L67.7827 88.6841C67.9559 89.1123 68.2065 89.4404 68.5345 89.6682C68.8717 89.896 69.2362 90.0099 69.628 90.0099C70.0655 90.0099 70.4254 89.9143 70.7079 89.7229C70.9995 89.5315 71.1453 89.2992 71.1453 89.0258C71.1453 88.7615 71.0359 88.5428 70.8172 88.3697C70.6077 88.1965 70.2432 88.0462 69.7237 87.9186L68.7942 87.6862C68.2839 87.5678 67.8465 87.3536 67.482 87.0438C67.1266 86.734 66.9489 86.3239 66.9489 85.8136C66.9489 85.3944 67.0674 85.0344 67.3043 84.7337C67.5504 84.433 67.8739 84.2052 68.2748 84.0503C68.6758 83.8954 69.1132 83.8179 69.587 83.8179C70.1702 83.8179 70.6988 83.9546 71.1726 84.228C71.6556 84.4922 71.9973 84.8704 72.1978 85.3625L71.1726 85.7999C71.0268 85.4719 70.8036 85.2304 70.5029 85.0755C70.2113 84.9205 69.8832 84.8431 69.5187 84.8431C69.1633 84.8431 68.8398 84.9297 68.5482 85.1028C68.2657 85.2759 68.1245 85.4992 68.1245 85.7726C68.1245 86.0095 68.2156 86.1963 68.3978 86.333C68.5892 86.4697 68.8899 86.5927 69.3 86.7021L70.3115 86.9481C70.9858 87.1212 71.487 87.3809 71.8151 87.7272C72.1522 88.0644 72.3208 88.4699 72.3208 88.9438C72.3208 89.3356 72.2069 89.691 71.9791 90.0099C71.7513 90.3289 71.4323 90.5795 71.0223 90.7617C70.6122 90.944 70.1475 91.0351 69.628 91.0351Z" fill="#4285F4"/>
<path d="M87.4401 81.0295H88.7523L92.4702 90.8164H91.199L90.2149 88.1236H85.9775L84.9933 90.8164H83.7221L87.4401 81.0295ZM89.8185 87.0301L88.5063 83.5035L88.1235 82.451H88.0688L87.6861 83.5035L86.3739 87.0301H89.8185ZM96.3839 91.0351C95.7278 91.0351 95.1355 90.8802 94.607 90.5704C94.0784 90.2514 93.6638 89.8186 93.3631 89.2718C93.0715 88.7159 92.9257 88.1008 92.9257 87.4265C92.9257 86.7431 93.0715 86.128 93.3631 85.5812C93.6638 85.0344 94.0784 84.6062 94.607 84.2963C95.1355 83.9774 95.7278 83.8179 96.3839 83.8179C97.1221 83.8179 97.7417 83.9956 98.2429 84.351C98.7441 84.7064 99.1086 85.1666 99.3364 85.7316L98.2839 86.1826C98.1108 85.7543 97.8556 85.4308 97.5185 85.2121C97.1904 84.9843 96.7894 84.8704 96.3156 84.8704C95.9329 84.8704 95.5684 84.9798 95.2221 85.1985C94.8849 85.4081 94.6115 85.7088 94.4019 86.1006C94.1923 86.4834 94.0876 86.9253 94.0876 87.4265C94.0876 87.9186 94.1923 88.3606 94.4019 88.7524C94.6115 89.1442 94.8849 89.4495 95.2221 89.6682C95.5684 89.8778 95.9329 89.9826 96.3156 89.9826C96.7986 89.9826 97.2132 89.8687 97.5595 89.6409C97.9057 89.4131 98.1655 89.0896 98.3386 88.6704L99.3638 89.1078C99.1359 89.6728 98.7669 90.1375 98.2566 90.502C97.7463 90.8574 97.1221 91.0351 96.3839 91.0351ZM102.744 91.0351C102.252 91.0351 101.805 90.9394 101.404 90.7481C101.013 90.5476 100.703 90.2742 100.475 89.9279C100.256 89.5725 100.147 89.1761 100.147 88.7387C100.147 88.0188 100.416 87.4584 100.953 87.0575C101.5 86.6565 102.197 86.456 103.045 86.456C103.464 86.456 103.842 86.5016 104.179 86.5927C104.516 86.6838 104.785 86.7841 104.986 86.8934V86.538C104.986 86.21 104.899 85.9184 104.726 85.6632C104.562 85.399 104.339 85.1985 104.056 85.0618C103.774 84.916 103.468 84.8431 103.14 84.8431C102.366 84.8431 101.774 85.1575 101.363 85.7862L100.393 85.1438C100.685 84.7246 101.058 84.4011 101.514 84.1733C101.979 83.9364 102.503 83.8179 103.086 83.8179C104.015 83.8179 104.749 84.0685 105.286 84.5697C105.824 85.0709 106.093 85.7452 106.093 86.5927V90.8164H104.986V89.8186H104.931C104.712 90.1649 104.416 90.4565 104.043 90.6934C103.669 90.9212 103.236 91.0351 102.744 91.0351ZM102.84 90.0099C103.204 90.0099 103.551 89.9143 103.879 89.7229C104.207 89.5315 104.471 89.2718 104.671 88.9438C104.881 88.6157 104.986 88.2603 104.986 87.8776C104.475 87.5495 103.888 87.3855 103.222 87.3855C102.648 87.3855 102.188 87.5176 101.842 87.7819C101.505 88.0371 101.336 88.3651 101.336 88.7661C101.336 89.1306 101.487 89.4313 101.787 89.6682C102.088 89.896 102.439 90.0099 102.84 90.0099ZM110.461 91.0351C109.878 91.0351 109.34 90.8802 108.848 90.5704C108.356 90.2605 107.964 89.8322 107.673 89.2855C107.381 88.7296 107.235 88.11 107.235 87.4265C107.235 86.7431 107.381 86.128 107.673 85.5812C107.964 85.0253 108.356 84.5925 108.848 84.2827C109.34 83.9728 109.878 83.8179 110.461 83.8179C110.99 83.8179 111.464 83.9364 111.883 84.1733C112.302 84.4011 112.616 84.6882 112.826 85.0344H112.881L112.826 84.105V81.0295H113.974V90.8164H112.881V89.8049H112.826C112.616 90.1603 112.302 90.4565 111.883 90.6934C111.464 90.9212 110.99 91.0351 110.461 91.0351ZM110.639 89.9826C111.04 89.9826 111.409 89.8824 111.746 89.6819C112.092 89.4723 112.366 89.1716 112.566 88.7797C112.776 88.3879 112.881 87.9368 112.881 87.4265C112.881 86.9071 112.776 86.456 112.566 86.0733C112.366 85.6814 112.092 85.3853 111.746 85.1848C111.409 84.9752 111.04 84.8704 110.639 84.8704C110.238 84.8704 109.864 84.9752 109.518 85.1848C109.181 85.3944 108.908 85.6951 108.698 86.087C108.497 86.4697 108.397 86.9162 108.397 87.4265C108.397 87.9368 108.497 88.3879 108.698 88.7797C108.908 89.1625 109.181 89.4586 109.518 89.6682C109.864 89.8778 110.238 89.9826 110.639 89.9826ZM118.635 91.0351C117.979 91.0351 117.391 90.8802 116.871 90.5704C116.361 90.2605 115.96 89.8322 115.669 89.2855C115.377 88.7387 115.231 88.1191 115.231 87.4265C115.231 86.7704 115.368 86.169 115.641 85.6222C115.915 85.0663 116.302 84.6289 116.803 84.31C117.313 83.9819 117.897 83.8179 118.553 83.8179C119.209 83.8179 119.783 83.9683 120.275 84.269C120.776 84.5606 121.159 84.9752 121.423 85.5129C121.687 86.0505 121.82 86.6702 121.82 87.3718C121.82 87.4994 121.81 87.5905 121.792 87.6452H116.407C116.425 88.1555 116.548 88.5884 116.776 88.9438C117.004 89.29 117.286 89.5498 117.623 89.7229C117.969 89.896 118.325 89.9826 118.689 89.9826C119.546 89.9826 120.207 89.5634 120.671 88.7251L121.697 89.2171C121.405 89.7639 120.999 90.2059 120.48 90.543C119.97 90.8711 119.355 91.0351 118.635 91.0351ZM120.589 86.6747C120.571 86.4013 120.494 86.128 120.357 85.8546C120.22 85.5812 119.997 85.3488 119.687 85.1575C119.386 84.9661 119.004 84.8704 118.539 84.8704C118.02 84.8704 117.573 85.0344 117.199 85.3625C116.826 85.6906 116.589 86.128 116.489 86.6747H120.589ZM123.129 84.0366H124.236V85.0481H124.291C124.482 84.7018 124.779 84.4102 125.179 84.1733C125.59 83.9364 126.004 83.8179 126.423 83.8179C126.934 83.8179 127.371 83.9409 127.736 84.187C128.109 84.4239 128.378 84.752 128.542 85.1711C128.797 84.7611 129.125 84.433 129.526 84.187C129.927 83.9409 130.387 83.8179 130.907 83.8179C131.7 83.8179 132.296 84.0594 132.697 84.5424C133.098 85.0253 133.299 85.6906 133.299 86.538V90.8164H132.137V86.7157C132.137 86.0505 132.009 85.5766 131.754 85.2942C131.508 85.0117 131.125 84.8704 130.606 84.8704C130.26 84.8704 129.945 84.9752 129.663 85.1848C129.389 85.3853 129.175 85.6541 129.02 85.9913C128.866 86.3284 128.788 86.6838 128.788 87.0575V90.8164H127.64V86.7157C127.64 86.0505 127.512 85.5766 127.257 85.2942C127.002 85.0117 126.619 84.8704 126.109 84.8704C125.754 84.8704 125.439 84.9752 125.166 85.1848C124.892 85.3944 124.678 85.6678 124.523 86.0049C124.368 86.3421 124.291 86.7021 124.291 87.0848V90.8164H123.129V84.0366ZM136.82 90.379L134.004 84.0366H135.261L137.366 89.0258H137.394L139.43 84.0366H140.688L136.451 93.7689H135.261L136.82 90.379ZM149.311 91.0351C148.372 91.0351 147.52 90.8073 146.755 90.3517C145.989 89.896 145.388 89.2764 144.95 88.4927C144.513 87.709 144.294 86.8524 144.294 85.9229C144.294 84.9934 144.513 84.1369 144.95 83.3532C145.388 82.5695 145.989 81.9498 146.755 81.4942C147.52 81.0386 148.372 80.8107 149.311 80.8107C150.249 80.8107 151.101 81.0386 151.867 81.4942C152.632 81.9498 153.234 82.5695 153.671 83.3532C154.108 84.1369 154.327 84.9934 154.327 85.9229C154.327 86.8524 154.108 87.709 153.671 88.4927C153.234 89.2764 152.632 89.896 151.867 90.3517C151.101 90.8073 150.249 91.0351 149.311 91.0351ZM149.311 89.9279C150.012 89.9279 150.655 89.7593 151.238 89.4222C151.83 89.0759 152.295 88.602 152.632 88.0006C152.978 87.3901 153.152 86.6975 153.152 85.9229C153.152 85.1484 152.978 84.4604 152.632 83.8589C152.295 83.2484 151.83 82.7745 151.238 82.4374C150.655 82.0911 150.012 81.9179 149.311 81.9179C148.609 81.9179 147.962 82.0911 147.37 82.4374C146.786 82.7745 146.322 83.2484 145.975 83.8589C145.638 84.4604 145.47 85.1484 145.47 85.9229C145.47 86.6975 145.638 87.3901 145.975 88.0006C146.322 88.602 146.786 89.0759 147.37 89.4222C147.962 89.7593 148.609 89.9279 149.311 89.9279ZM156.572 85.0891H155.301V84.0366H156.572V83.0935C156.572 82.6561 156.668 82.2733 156.86 81.9453C157.06 81.6172 157.324 81.3666 157.652 81.1935C157.99 81.0112 158.363 80.9201 158.773 80.9201C159.001 80.9201 159.183 80.9338 159.32 80.9611C159.466 80.9884 159.616 81.0295 159.771 81.0841V82.205C159.47 82.0683 159.151 81.9999 158.814 81.9999C158.513 81.9999 158.258 82.1093 158.049 82.328C157.839 82.5376 157.734 82.8338 157.734 83.2165V84.0366H159.484V85.0891H157.734V90.8164H156.572V85.0891ZM165.724 82.1366H162.976V81.0295H169.619V82.1366H166.886V90.8164H165.724V82.1366ZM172.75 91.0351C172.094 91.0351 171.506 90.8802 170.986 90.5704C170.476 90.2605 170.075 89.8322 169.784 89.2855C169.492 88.7387 169.346 88.1191 169.346 87.4265C169.346 86.7704 169.483 86.169 169.756 85.6222C170.03 85.0663 170.417 84.6289 170.918 84.31C171.428 83.9819 172.012 83.8179 172.668 83.8179C173.324 83.8179 173.898 83.9683 174.39 84.269C174.891 84.5606 175.274 84.9752 175.538 85.5129C175.803 86.0505 175.935 86.6702 175.935 87.3718C175.935 87.4994 175.926 87.5905 175.907 87.6452H170.522C170.54 88.1555 170.663 88.5884 170.891 88.9438C171.119 89.29 171.401 89.5498 171.738 89.7229C172.085 89.896 172.44 89.9826 172.804 89.9826C173.661 89.9826 174.322 89.5634 174.786 88.7251L175.812 89.2171C175.52 89.7639 175.115 90.2059 174.595 90.543C174.085 90.8711 173.47 91.0351 172.75 91.0351ZM174.704 86.6747C174.686 86.4013 174.609 86.128 174.472 85.8546C174.335 85.5812 174.112 85.3488 173.802 85.1575C173.502 84.9661 173.119 84.8704 172.654 84.8704C172.135 84.8704 171.688 85.0344 171.315 85.3625C170.941 85.6906 170.704 86.128 170.604 86.6747H174.704ZM180.386 91.0351C179.73 91.0351 179.138 90.8802 178.609 90.5704C178.081 90.2514 177.666 89.8186 177.366 89.2718C177.074 88.7159 176.928 88.1008 176.928 87.4265C176.928 86.7431 177.074 86.128 177.366 85.5812C177.666 85.0344 178.081 84.6062 178.609 84.2963C179.138 83.9774 179.73 83.8179 180.386 83.8179C181.125 83.8179 181.744 83.9956 182.245 84.351C182.747 84.7064 183.111 85.1666 183.339 85.7316L182.286 86.1826C182.113 85.7543 181.858 85.4308 181.521 85.2121C181.193 84.9843 180.792 84.8704 180.318 84.8704C179.935 84.8704 179.571 84.9798 179.225 85.1985C178.887 85.4081 178.614 85.7088 178.404 86.1006C178.195 86.4834 178.09 86.9253 178.09 87.4265C178.09 87.9186 178.195 88.3606 178.404 88.7524C178.614 89.1442 178.887 89.4495 179.225 89.6682C179.571 89.8778 179.935 89.9826 180.318 89.9826C180.801 89.9826 181.216 89.8687 181.562 89.6409C181.908 89.4131 182.168 89.0896 182.341 88.6704L183.366 89.1078C183.138 89.6728 182.769 90.1375 182.259 90.502C181.749 90.8574 181.125 91.0351 180.386 91.0351ZM184.613 81.0295H185.774V84.0913L185.72 85.0618H185.774C185.966 84.7064 186.262 84.4102 186.663 84.1733C187.073 83.9364 187.515 83.8179 187.989 83.8179C188.845 83.8179 189.483 84.064 189.902 84.556C190.331 85.039 190.545 85.6951 190.545 86.5244V90.8164H189.397V86.7021C189.397 86.0733 189.242 85.6131 188.932 85.3215C188.631 85.0208 188.226 84.8704 187.715 84.8704C187.351 84.8704 187.018 84.9798 186.718 85.1985C186.426 85.4081 186.194 85.6906 186.021 86.0459C185.856 86.3922 185.774 86.7522 185.774 87.1258V90.8164H184.613V81.0295ZM192.195 84.0366H193.302V85.0481H193.356C193.548 84.7018 193.849 84.4102 194.259 84.1733C194.669 83.9364 195.106 83.8179 195.571 83.8179C196.4 83.8179 197.029 84.0594 197.457 84.5424C197.895 85.0253 198.113 85.686 198.113 86.5244V90.8164H196.965V86.7021C196.965 86.0459 196.815 85.5766 196.514 85.2942C196.222 85.0117 195.803 84.8704 195.256 84.8704C194.892 84.8704 194.564 84.9752 194.272 85.1848C193.981 85.3944 193.753 85.6678 193.589 86.0049C193.434 86.3421 193.356 86.6975 193.356 87.0711V90.8164H192.195V84.0366ZM202.852 91.0351C202.187 91.0351 201.59 90.8802 201.062 90.5704C200.533 90.2514 200.119 89.8186 199.818 89.2718C199.526 88.7159 199.38 88.1008 199.38 87.4265C199.38 86.7522 199.526 86.1416 199.818 85.5949C200.119 85.039 200.533 84.6062 201.062 84.2963C201.59 83.9774 202.187 83.8179 202.852 83.8179C203.518 83.8179 204.114 83.9774 204.643 84.2963C205.181 84.6062 205.595 85.039 205.887 85.5949C206.188 86.1416 206.338 86.7522 206.338 87.4265C206.338 88.1008 206.188 88.7159 205.887 89.2718C205.595 89.8186 205.181 90.2514 204.643 90.5704C204.114 90.8802 203.518 91.0351 202.852 91.0351ZM202.852 89.9826C203.262 89.9826 203.645 89.8778 204.001 89.6682C204.356 89.4586 204.638 89.1625 204.848 88.7797C205.067 88.3879 205.176 87.9368 205.176 87.4265C205.176 86.9162 205.067 86.4697 204.848 86.087C204.638 85.6951 204.356 85.3944 204.001 85.1848C203.645 84.9752 203.262 84.8704 202.852 84.8704C202.451 84.8704 202.073 84.9752 201.718 85.1848C201.362 85.3944 201.075 85.6951 200.857 86.087C200.647 86.4697 200.542 86.9162 200.542 87.4265C200.542 87.9368 200.647 88.3879 200.857 88.7797C201.075 89.1625 201.362 89.4586 201.718 89.6682C202.073 89.8778 202.451 89.9826 202.852 89.9826ZM207.585 81.0295H208.747V90.8164H207.585V81.0295ZM213.465 91.0351C212.799 91.0351 212.202 90.8802 211.674 90.5704C211.145 90.2514 210.731 89.8186 210.43 89.2718C210.138 88.7159 209.993 88.1008 209.993 87.4265C209.993 86.7522 210.138 86.1416 210.43 85.5949C210.731 85.039 211.145 84.6062 211.674 84.2963C212.202 83.9774 212.799 83.8179 213.465 83.8179C214.13 83.8179 214.727 83.9774 215.255 84.2963C215.793 84.6062 216.207 85.039 216.499 85.5949C216.8 86.1416 216.95 86.7522 216.95 87.4265C216.95 88.1008 216.8 88.7159 216.499 89.2718C216.207 89.8186 215.793 90.2514 215.255 90.5704C214.727 90.8802 214.13 91.0351 213.465 91.0351ZM213.465 89.9826C213.875 89.9826 214.257 89.8778 214.613 89.6682C214.968 89.4586 215.251 89.1625 215.46 88.7797C215.679 88.3879 215.788 87.9368 215.788 87.4265C215.788 86.9162 215.679 86.4697 215.46 86.087C215.251 85.6951 214.968 85.3944 214.613 85.1848C214.257 84.9752 213.875 84.8704 213.465 84.8704C213.064 84.8704 212.685 84.9752 212.33 85.1848C211.975 85.3944 211.688 85.6951 211.469 86.087C211.259 86.4697 211.154 86.9162 211.154 87.4265C211.154 87.9368 211.259 88.3879 211.469 88.7797C211.688 89.1625 211.975 89.4586 212.33 89.6682C212.685 89.8778 213.064 89.9826 213.465 89.9826ZM221.244 93.9876C220.424 93.9876 219.754 93.7917 219.235 93.3998C218.715 93.008 218.365 92.5524 218.182 92.0329L219.262 91.5819C219.399 91.9828 219.64 92.3063 219.987 92.5524C220.342 92.8075 220.761 92.9351 221.244 92.9351C221.964 92.9351 222.515 92.7209 222.898 92.2927C223.29 91.8735 223.486 91.2857 223.486 90.5294V89.8049H223.431C223.212 90.1512 222.898 90.4382 222.488 90.666C222.078 90.8939 221.613 91.0078 221.094 91.0078C220.52 91.0078 219.987 90.8529 219.495 90.543C219.002 90.2332 218.611 89.8049 218.319 89.2581C218.027 88.7114 217.882 88.0963 217.882 87.4128C217.882 86.7294 218.027 86.1143 218.319 85.5675C218.611 85.0208 219.002 84.5925 219.495 84.2827C219.987 83.9728 220.52 83.8179 221.094 83.8179C221.613 83.8179 222.078 83.9318 222.488 84.1596C222.898 84.3875 223.212 84.6745 223.431 85.0208H223.486V84.0366H224.607V90.543C224.607 91.2903 224.461 91.9236 224.169 92.443C223.878 92.9624 223.477 93.3497 222.966 93.6049C222.456 93.86 221.882 93.9876 221.244 93.9876ZM221.271 89.9553C221.672 89.9553 222.042 89.855 222.379 89.6545C222.716 89.445 222.985 89.1488 223.185 88.7661C223.395 88.3833 223.5 87.9323 223.5 87.4128C223.5 86.8934 223.395 86.4423 223.185 86.0596C222.985 85.6678 222.716 85.3716 222.379 85.1711C222.042 84.9707 221.672 84.8704 221.271 84.8704C220.871 84.8704 220.501 84.9752 220.164 85.1848C219.827 85.3853 219.554 85.6769 219.344 86.0596C219.144 86.4423 219.043 86.8934 219.043 87.4128C219.043 87.9323 219.144 88.3833 219.344 88.7661C219.554 89.1488 219.827 89.445 220.164 89.6545C220.501 89.855 220.871 89.9553 221.271 89.9553ZM228.364 90.379L225.548 84.0366H226.806L228.911 89.0258H228.938L230.975 84.0366H232.232L227.995 93.7689H226.806L228.364 90.379Z" fill="white"/>
</svg>
