<svg width="80" height="80" viewBox="0 0 80 80" fill="none" xmlns="http://www.w3.org/2000/svg">
<path d="M40.2765 79.299C18.3727 79.299 0.552582 61.7196 0.552582 40.1119C0.552582 18.5041 18.3727 0.924805 40.2765 0.924805C62.1803 0.924805 80.0005 18.5041 80.0005 40.1119C80.0005 61.7196 62.1803 79.299 40.2765 79.299ZM40.2765 6.52307C21.5018 6.52307 6.22755 21.5909 6.22755 40.1119C6.22755 58.6329 21.5018 73.7007 40.2765 73.7007C59.0513 73.7007 74.3255 58.6329 74.3255 40.1119C74.3255 21.5909 59.0513 6.52307 40.2765 6.52307Z" fill="white"/>
<path d="M32.1799 61.6616C32.1799 64.2934 32.2335 71.3471 32.2335 72.0842C32.1974 72.6183 31.9141 73.223 31.238 73.4781C34.0723 74.2932 37.0679 74.7387 40.1708 74.7387C43.2672 74.7387 46.2569 74.2951 49.0864 73.4832C48.4679 73.2234 48.2156 72.6324 48.2156 72.0842C48.2156 71.0312 48.2693 63.0829 48.2693 58.8719C48.2693 55.9242 47.2504 54.0291 46.0706 53.0291C53.257 52.1869 60.7652 49.5022 60.7652 37.3954C60.7652 33.9211 59.4782 31.1313 57.4399 28.9204C57.8153 28.1308 58.9415 24.9198 57.1718 20.5508C57.1718 20.5508 54.4904 19.7087 48.3229 23.8143C45.7488 23.0772 43.0134 22.7089 40.2784 22.7089C37.5434 22.7614 34.808 23.1301 32.2339 23.8143C26.0664 19.7083 23.385 20.5508 23.385 20.5508C21.6153 24.8673 22.7415 28.1308 23.0632 28.9204C20.9718 31.1313 19.7379 33.9736 19.7379 37.3954C19.7379 49.5022 27.2462 52.2395 34.379 53.0291C33.4673 53.8187 32.6093 55.1871 32.3412 57.2401L32.1799 61.6616Z" fill="white"/>
<path d="M32.5534 61.3242C30.141 61.642 27.4894 61.4724 26.7613 59.4382C26.7478 59.4005 26.7334 59.3629 26.718 59.3261C26.7017 59.2873 25.036 55.4215 22.7019 54.2698C21.5308 53.6925 20.1075 54.16 19.5224 55.3153C18.942 56.4595 19.4032 57.8495 20.5512 58.4361C21.0001 58.7461 21.9495 60.2101 22.3165 61.0617C23.0745 63.1217 25.1433 66.1274 30.7531 66.1274C31.2977 66.1274 31.8769 66.098 32.4902 66.038" fill="white"/>
</svg>
