<svg width="625" height="190" viewBox="0 0 625 190" fill="none" xmlns="http://www.w3.org/2000/svg">
<g clip-path="url(#clip0_371_634)">
<path d="M175.864 155.169C174.462 157.245 173.255 159.293 172.283 161.294C168.913 168.09 168.521 174.028 171.003 178.938C174.218 184.913 182.58 189.783 202.538 187.555C215.207 186.14 232.387 181.846 255.85 173.246C273.483 184.029 294.304 188.74 314.87 186.444C338.693 183.783 359.671 172.17 374.543 155.169H358.196C346.027 165.844 330.632 172.987 313.58 174.891C298.653 176.558 283.611 174.016 270.272 167.853C270.353 167.8 270.459 167.766 270.565 167.732C270.671 167.699 270.777 167.665 270.859 167.612C271.299 167.434 271.743 167.255 272.191 167.076C273.876 166.398 275.605 165.703 277.328 164.955C277.535 164.859 277.73 164.78 277.913 164.704C278.178 164.597 278.425 164.496 278.668 164.364C280.769 163.515 282.948 162.569 285.126 161.621C285.168 161.567 285.243 161.537 285.327 161.503C285.395 161.476 285.468 161.446 285.539 161.399C286.665 160.879 287.792 160.38 288.918 159.882C290.053 159.38 291.186 158.879 292.317 158.355L293.821 157.66C295.457 156.948 297.089 156.187 298.757 155.41C298.929 155.33 299.101 155.25 299.276 155.169H270.163C264.848 157.367 259.625 159.429 254.521 161.344C206.198 179.405 184.02 178.277 181.365 173.384C180.688 172.052 181.199 169.532 182.498 166.221C184.091 162.949 186.659 159.237 190.114 155.169H175.864Z" fill="#FAFAFA"/>
<path d="M217.863 59.8586H230.485C242.086 34.4469 266.337 16.0531 295.566 12.7891C313.788 10.7543 331.726 14.8192 347.39 24.5033C354.846 29.1238 361.562 34.9706 367.236 41.7245C367.94 42.526 368.559 43.3354 369.175 44.1466C372.887 49.0154 376.059 54.2694 378.629 59.8586H391.375C391.269 59.5854 391.16 59.31 391.046 59.0302C390.833 58.7025 390.708 58.365 390.582 58.026C390.403 57.6059 390.224 57.1857 390.045 56.7652C389.866 56.3462 389.687 55.9273 389.511 55.5088C389.447 55.3385 389.363 55.1713 389.277 55.0041C389.193 54.8383 389.109 54.6726 389.047 54.5046C388.729 53.9332 388.439 53.3299 388.144 52.7148C387.923 52.2597 387.702 51.7981 387.463 51.3383L387.452 51.2515C387.174 50.7139 386.874 50.1786 386.573 49.6428C386.271 49.1026 385.968 48.5622 385.688 48.0194C385.58 47.8555 385.496 47.689 385.412 47.5222C385.328 47.3555 385.242 47.189 385.136 47.0251C384.921 46.6574 384.683 46.2703 384.442 45.8829C384.199 45.4885 383.956 45.0936 383.738 44.7184C383.621 44.4677 383.409 44.14 383.197 43.8124C382.879 43.3224 382.541 42.8347 382.201 42.3473C381.858 41.8553 381.518 41.3637 381.198 40.8699C381.11 40.8796 381.101 40.7928 381.101 40.7928C398.945 34.5786 414.321 30.662 426.123 29.344L427.51 29.189C439.243 28.0545 444.636 29.9154 445.65 31.912C447.225 34.8555 443.289 44.3714 427.209 59.8586H443.468C454.424 47.5945 460.787 35.5233 455.935 26.4542C451.938 18.9861 442.304 16.1038 426.403 17.7037C412.761 19.0514 394.484 23.7312 373.448 31.268C367.629 24.7941 360.944 19.209 353.488 14.5886C335.555 3.48697 315.1 -1.08919 294.19 1.24595C259.009 5.17449 230.102 28.3129 217.863 59.8586Z" fill="#FAFAFA"/>
<path d="M0.921932 138.695C-3.11241 148.851 6.77948 159.003 17.276 155.48L32.2038 150.47L31.2725 147.791C29.4282 142.489 28.6184 136.579 33.2911 132.099L39.7575 125.9C37.3474 108.635 43.0236 91.8072 51.68 83.5081L57.515 77.9145L63.3503 83.5081C72.0073 91.8072 77.6835 108.635 75.2734 125.9L81.7398 132.099C86.4117 136.579 85.6027 142.489 83.7584 147.792L82.8273 150.47L97.7547 155.48C108.251 159.003 118.143 148.851 114.109 138.695L72.6928 34.4423C67.2953 20.8558 47.7354 20.8558 42.3379 34.4423L0.921932 138.695Z" fill="#FBCE1F"/>
<path d="M51.457 143.778V147.648C51.457 153.238 57.5125 161.194 57.5125 161.194C57.5125 161.194 63.5688 153.856 63.5688 147.648V143.778H51.457Z" fill="#FBCE1F"/>
<path d="M57.4792 120.367C62.8783 120.367 67.2552 116.065 67.2552 110.758C67.2552 105.451 62.8783 101.148 57.4792 101.148C52.0799 101.148 47.7031 105.451 47.7031 110.758C47.7031 116.065 52.0799 120.367 57.4792 120.367Z" fill="#FBCE1F"/>
<path d="M173.118 100.13C173.118 103.672 172.299 106.896 170.66 109.803C169.022 112.658 166.59 114.93 163.366 116.622C160.194 118.313 156.336 119.159 151.79 119.159H144.813V136.998H127.212V80.8643H151.79C158.662 80.8643 163.921 82.6085 167.568 86.097C171.268 89.5855 173.118 94.2633 173.118 100.13ZM149.808 105.284C153.455 105.284 155.279 103.566 155.279 100.13C155.279 96.6949 153.455 94.9769 149.808 94.9769H144.813V105.284H149.808ZM207.402 94.8976V101.795H224.845V115.036H207.402V122.965H227.224V136.998H189.8V80.8643H227.224V94.8976H207.402ZM273.182 136.998L262.637 116.86H262.557V136.998H244.956V80.8643H271.12C275.665 80.8643 279.552 81.6836 282.776 83.3221C285.998 84.9078 288.403 87.1015 289.989 89.9027C291.628 92.6514 292.447 95.7697 292.447 99.2583C292.447 103.011 291.391 106.341 289.275 109.248C287.215 112.155 284.229 114.243 280.318 115.512L292.526 136.998H273.182ZM262.557 105.126H269.534C271.226 105.126 272.493 104.755 273.339 104.016C274.185 103.223 274.609 102.007 274.609 100.368C274.609 98.8883 274.158 97.7256 273.262 96.8797C272.416 96.0341 271.173 95.6112 269.534 95.6112H262.557V105.126ZM353.253 80.8643V94.8183H338.348V136.998H320.746V94.8183H305.998V80.8643H353.253ZM397.352 136.998L386.806 116.86H386.727V136.998H369.128V80.8643H395.291C399.836 80.8643 403.721 81.6836 406.946 83.3221C410.17 84.9078 412.575 87.1015 414.161 89.9027C415.799 92.6514 416.619 95.7697 416.619 99.2583C416.619 103.011 415.561 106.341 413.447 109.248C411.385 112.155 408.399 114.243 404.488 115.512L416.698 136.998H397.352ZM386.727 105.126H393.706C395.395 105.126 396.665 104.755 397.511 104.016C398.357 103.223 398.779 102.007 398.779 100.368C398.779 98.8883 398.33 97.7256 397.431 96.8797C396.586 96.0341 395.344 95.6112 393.706 95.6112H386.727V105.126ZM450.943 94.8976V101.795H468.385V115.036H450.943V122.965H470.764V136.998H433.341V80.8643H470.764V94.8976H450.943Z" fill="#FAFAFA"/>
<path d="M551.157 136.693H509.969V114.161C509.969 101.569 511.592 94.6507 520.329 90.5796L531.438 85.4672C535.68 83.4791 536.679 82.3429 536.679 78.84V63.2388C536.679 58.5997 535.806 57.5582 530.689 57.5582C525.446 57.5582 524.448 58.6945 524.448 63.5229V72.8009H510.468V63.5229C510.468 49.7002 513.964 47.8066 530.939 47.8066C547.913 47.8066 551.157 49.7002 551.157 63.2388V79.3133C551.157 87.1715 549.41 89.6328 541.297 93.2307L529.316 98.6271C525.197 100.521 524.448 106.681 524.448 110.752V127.037H536.555V108.953H551.157V136.693Z" fill="#FAFAFA"/>
<path d="M574.879 124.196V136.693H561.773V124.196H574.879Z" fill="#FAFAFA"/>
<path d="M625 63.5229V121.829C625 135.747 621.381 137.64 604.406 137.64C587.432 137.64 583.938 135.747 583.938 121.829V63.5229C583.938 49.7002 587.432 47.8066 604.406 47.8066C621.381 47.8066 625 49.7002 625 63.5229ZM610.521 121.829V63.5229C610.521 58.505 609.649 57.5582 604.532 57.5582C599.163 57.5582 598.291 58.5997 598.291 63.5229V121.829C598.291 127.037 599.163 127.983 604.28 127.983C609.773 127.983 610.521 126.847 610.521 121.829Z" fill="#FAFAFA"/>
</g>
<defs>
<clipPath id="clip0_371_634">
<rect width="625" height="189.929" fill="white"/>
</clipPath>
</defs>
</svg>
