<svg width="188" height="188" viewBox="0 0 188 188" fill="none" xmlns="http://www.w3.org/2000/svg">
<path d="M166.347 1.09814H21.8236C10.4244 1.09814 1.18359 10.339 1.18359 21.7381V166.261C1.18359 177.66 10.4244 186.901 21.8236 186.901H166.347C177.746 186.901 186.987 177.661 186.987 166.261V21.7381C186.987 10.339 177.746 1.09814 166.347 1.09814Z" fill="white"/>
<path d="M22.6336 17.2554H17.3408V22.5481H22.6336V17.2554Z" fill="black"/>
<path d="M27.9263 17.2554H22.6336V22.5481H27.9263V17.2554Z" fill="black"/>
<path d="M33.2191 17.2554H27.9263V22.5481H33.2191V17.2554Z" fill="black"/>
<path d="M38.5118 17.2554H33.2191V22.5481H38.5118V17.2554Z" fill="black"/>
<path d="M43.8045 17.2554H38.5118V22.5481H43.8045V17.2554Z" fill="black"/>
<path d="M49.0973 17.2554H43.8045V22.5481H49.0973V17.2554Z" fill="black"/>
<path d="M54.39 17.2554H49.0973V22.5481H54.39V17.2554Z" fill="black"/>
<path d="M64.9755 17.2554H59.6828V22.5481H64.9755V17.2554Z" fill="black"/>
<path d="M75.561 17.2554H70.2683V22.5481H75.561V17.2554Z" fill="black"/>
<path d="M80.8538 17.2554H75.561V22.5481H80.8538V17.2554Z" fill="black"/>
<path d="M86.1465 17.2554H80.8538V22.5481H86.1465V17.2554Z" fill="black"/>
<path d="M91.4392 17.2554H86.1465V22.5481H91.4392V17.2554Z" fill="black"/>
<path d="M112.61 17.2554H107.317V22.5481H112.61V17.2554Z" fill="black"/>
<path d="M117.903 17.2554H112.61V22.5481H117.903V17.2554Z" fill="black"/>
<path d="M123.196 17.2554H117.903V22.5481H123.196V17.2554Z" fill="black"/>
<path d="M128.488 17.2554H123.196V22.5481H128.488V17.2554Z" fill="black"/>
<path d="M139.074 17.2554H133.781V22.5481H139.074V17.2554Z" fill="black"/>
<path d="M144.367 17.2554H139.074V22.5481H144.367V17.2554Z" fill="black"/>
<path d="M149.659 17.2554H144.367V22.5481H149.659V17.2554Z" fill="black"/>
<path d="M154.952 17.2554H149.659V22.5481H154.952V17.2554Z" fill="black"/>
<path d="M160.245 17.2554H154.952V22.5481H160.245V17.2554Z" fill="black"/>
<path d="M165.538 17.2554H160.245V22.5481H165.538V17.2554Z" fill="black"/>
<path d="M170.83 17.2554H165.538V22.5481H170.83V17.2554Z" fill="black"/>
<path d="M22.6336 22.5481H17.3408V27.8409H22.6336V22.5481Z" fill="black"/>
<path d="M54.39 22.5481H49.0973V27.8409H54.39V22.5481Z" fill="black"/>
<path d="M70.2683 22.5481H64.9755V27.8409H70.2683V22.5481Z" fill="black"/>
<path d="M96.732 22.5481H91.4392V27.8409H96.732V22.5481Z" fill="black"/>
<path d="M117.903 22.5481H112.61V27.8409H117.903V22.5481Z" fill="black"/>
<path d="M123.196 22.5481H117.903V27.8409H123.196V22.5481Z" fill="black"/>
<path d="M128.488 22.5481H123.196V27.8409H128.488V22.5481Z" fill="black"/>
<path d="M139.074 22.5481H133.781V27.8409H139.074V22.5481Z" fill="black"/>
<path d="M170.83 22.5481H165.538V27.8409H170.83V22.5481Z" fill="black"/>
<path d="M22.6336 27.8409H17.3408V33.1336H22.6336V27.8409Z" fill="black"/>
<path d="M33.2191 27.8409H27.9263V33.1336H33.2191V27.8409Z" fill="black"/>
<path d="M38.5118 27.8409H33.2191V33.1336H38.5118V27.8409Z" fill="black"/>
<path d="M43.8045 27.8409H38.5118V33.1336H43.8045V27.8409Z" fill="black"/>
<path d="M54.39 27.8409H49.0973V33.1336H54.39V27.8409Z" fill="black"/>
<path d="M80.8538 27.8409H75.561V33.1336H80.8538V27.8409Z" fill="black"/>
<path d="M86.1465 27.8409H80.8538V33.1336H86.1465V27.8409Z" fill="black"/>
<path d="M91.4392 27.8409H86.1465V33.1336H91.4392V27.8409Z" fill="black"/>
<path d="M128.488 27.8409H123.196V33.1336H128.488V27.8409Z" fill="black"/>
<path d="M139.074 27.8409H133.781V33.1336H139.074V27.8409Z" fill="black"/>
<path d="M149.659 27.8409H144.367V33.1336H149.659V27.8409Z" fill="black"/>
<path d="M154.952 27.8409H149.659V33.1336H154.952V27.8409Z" fill="black"/>
<path d="M160.245 27.8409H154.952V33.1336H160.245V27.8409Z" fill="black"/>
<path d="M170.83 27.8409H165.538V33.1336H170.83V27.8409Z" fill="black"/>
<path d="M22.6336 33.1336H17.3408V38.4263H22.6336V33.1336Z" fill="black"/>
<path d="M33.2191 33.1336H27.9263V38.4263H33.2191V33.1336Z" fill="black"/>
<path d="M38.5118 33.1336H33.2191V38.4263H38.5118V33.1336Z" fill="black"/>
<path d="M43.8045 33.1336H38.5118V38.4263H43.8045V33.1336Z" fill="black"/>
<path d="M54.39 33.1336H49.0973V38.4263H54.39V33.1336Z" fill="black"/>
<path d="M64.9755 33.1336H59.6828V38.4263H64.9755V33.1336Z" fill="black"/>
<path d="M80.8538 33.1336H75.561V38.4263H80.8538V33.1336Z" fill="black"/>
<path d="M96.732 33.1336H91.4392V38.4263H96.732V33.1336Z" fill="black"/>
<path d="M112.61 33.1336H107.317V38.4263H112.61V33.1336Z" fill="black"/>
<path d="M139.074 33.1336H133.781V38.4263H139.074V33.1336Z" fill="black"/>
<path d="M149.659 33.1336H144.367V38.4263H149.659V33.1336Z" fill="black"/>
<path d="M154.952 33.1336H149.659V38.4263H154.952V33.1336Z" fill="black"/>
<path d="M160.245 33.1336H154.952V38.4263H160.245V33.1336Z" fill="black"/>
<path d="M170.83 33.1336H165.538V38.4263H170.83V33.1336Z" fill="black"/>
<path d="M22.6336 38.4263H17.3408V43.7191H22.6336V38.4263Z" fill="black"/>
<path d="M33.2191 38.4263H27.9263V43.7191H33.2191V38.4263Z" fill="black"/>
<path d="M38.5118 38.4263H33.2191V43.7191H38.5118V38.4263Z" fill="black"/>
<path d="M43.8045 38.4263H38.5118V43.7191H43.8045V38.4263Z" fill="black"/>
<path d="M54.39 38.4263H49.0973V43.7191H54.39V38.4263Z" fill="black"/>
<path d="M64.9755 38.4263H59.6828V43.7191H64.9755V38.4263Z" fill="black"/>
<path d="M70.2683 38.4263H64.9755V43.7191H70.2683V38.4263Z" fill="black"/>
<path d="M86.1465 38.4263H80.8538V43.7191H86.1465V38.4263Z" fill="black"/>
<path d="M96.732 38.4263H91.4392V43.7191H96.732V38.4263Z" fill="black"/>
<path d="M107.317 38.4263H102.025V43.7191H107.317V38.4263Z" fill="black"/>
<path d="M117.903 38.4263H112.61V43.7191H117.903V38.4263Z" fill="black"/>
<path d="M123.196 38.4263H117.903V43.7191H123.196V38.4263Z" fill="black"/>
<path d="M139.074 38.4263H133.781V43.7191H139.074V38.4263Z" fill="black"/>
<path d="M149.659 38.4263H144.367V43.7191H149.659V38.4263Z" fill="black"/>
<path d="M154.952 38.4263H149.659V43.7191H154.952V38.4263Z" fill="black"/>
<path d="M160.245 38.4263H154.952V43.7191H160.245V38.4263Z" fill="black"/>
<path d="M170.83 38.4263H165.538V43.7191H170.83V38.4263Z" fill="black"/>
<path d="M22.6336 43.7191H17.3408V49.0118H22.6336V43.7191Z" fill="black"/>
<path d="M54.39 43.7191H49.0973V49.0118H54.39V43.7191Z" fill="black"/>
<path d="M64.9755 43.7191H59.6828V49.0118H64.9755V43.7191Z" fill="black"/>
<path d="M75.561 43.7191H70.2683V49.0118H75.561V43.7191Z" fill="black"/>
<path d="M91.4392 43.7191H86.1465V49.0118H91.4392V43.7191Z" fill="black"/>
<path d="M96.732 43.7191H91.4392V49.0118H96.732V43.7191Z" fill="black"/>
<path d="M107.317 43.7191H102.025V49.0118H107.317V43.7191Z" fill="black"/>
<path d="M112.61 43.7191H107.317V49.0118H112.61V43.7191Z" fill="black"/>
<path d="M123.196 43.7191H117.903V49.0118H123.196V43.7191Z" fill="black"/>
<path d="M128.488 43.7191H123.196V49.0118H128.488V43.7191Z" fill="black"/>
<path d="M139.074 43.7191H133.781V49.0118H139.074V43.7191Z" fill="black"/>
<path d="M170.83 43.7191H165.538V49.0118H170.83V43.7191Z" fill="black"/>
<path d="M22.6336 49.0118H17.3408V54.3046H22.6336V49.0118Z" fill="black"/>
<path d="M27.9263 49.0118H22.6336V54.3046H27.9263V49.0118Z" fill="black"/>
<path d="M33.2191 49.0118H27.9263V54.3046H33.2191V49.0118Z" fill="black"/>
<path d="M38.5118 49.0118H33.2191V54.3046H38.5118V49.0118Z" fill="black"/>
<path d="M43.8045 49.0118H38.5118V54.3046H43.8045V49.0118Z" fill="black"/>
<path d="M49.0973 49.0118H43.8045V54.3046H49.0973V49.0118Z" fill="black"/>
<path d="M54.39 49.0118H49.0973V54.3046H54.39V49.0118Z" fill="black"/>
<path d="M64.9755 49.0118H59.6828V54.3046H64.9755V49.0118Z" fill="black"/>
<path d="M75.561 49.0118H70.2683V54.3046H75.561V49.0118Z" fill="black"/>
<path d="M86.1465 49.0118H80.8538V54.3046H86.1465V49.0118Z" fill="black"/>
<path d="M96.732 49.0118H91.4392V54.3046H96.732V49.0118Z" fill="black"/>
<path d="M107.317 49.0118H102.025V54.3046H107.317V49.0118Z" fill="black"/>
<path d="M117.903 49.0118H112.61V54.3046H117.903V49.0118Z" fill="black"/>
<path d="M128.488 49.0118H123.196V54.3046H128.488V49.0118Z" fill="black"/>
<path d="M139.074 49.0118H133.781V54.3046H139.074V49.0118Z" fill="black"/>
<path d="M144.367 49.0118H139.074V54.3046H144.367V49.0118Z" fill="black"/>
<path d="M149.659 49.0118H144.367V54.3046H149.659V49.0118Z" fill="black"/>
<path d="M154.952 49.0118H149.659V54.3046H154.952V49.0118Z" fill="black"/>
<path d="M160.245 49.0118H154.952V54.3046H160.245V49.0118Z" fill="black"/>
<path d="M165.538 49.0118H160.245V54.3046H165.538V49.0118Z" fill="black"/>
<path d="M170.83 49.0118H165.538V54.3046H170.83V49.0118Z" fill="black"/>
<path d="M64.9755 54.3046H59.6828V59.5973H64.9755V54.3046Z" fill="black"/>
<path d="M70.2683 54.3046H64.9755V59.5973H70.2683V54.3046Z" fill="black"/>
<path d="M75.561 54.3046H70.2683V59.5973H75.561V54.3046Z" fill="black"/>
<path d="M102.025 54.3046H96.732V59.5973H102.025V54.3046Z" fill="black"/>
<path d="M107.317 54.3046H102.025V59.5973H107.317V54.3046Z" fill="black"/>
<path d="M22.6336 59.5973H17.3408V64.8901H22.6336V59.5973Z" fill="black"/>
<path d="M27.9263 59.5973H22.6336V64.8901H27.9263V59.5973Z" fill="black"/>
<path d="M33.2191 59.5973H27.9263V64.8901H33.2191V59.5973Z" fill="black"/>
<path d="M43.8045 59.5973H38.5118V64.8901H43.8045V59.5973Z" fill="black"/>
<path d="M54.39 59.5973H49.0973V64.8901H54.39V59.5973Z" fill="black"/>
<path d="M64.9755 59.5973H59.6828V64.8901H64.9755V59.5973Z" fill="black"/>
<path d="M75.561 59.5973H70.2683V64.8901H75.561V59.5973Z" fill="black"/>
<path d="M86.1465 59.5973H80.8538V64.8901H86.1465V59.5973Z" fill="black"/>
<path d="M91.4392 59.5973H86.1465V64.8901H91.4392V59.5973Z" fill="black"/>
<path d="M96.732 59.5973H91.4392V64.8901H96.732V59.5973Z" fill="black"/>
<path d="M102.025 59.5973H96.732V64.8901H102.025V59.5973Z" fill="black"/>
<path d="M112.61 59.5973H107.317V64.8901H112.61V59.5973Z" fill="black"/>
<path d="M128.488 59.5973H123.196V64.8901H128.488V59.5973Z" fill="black"/>
<path d="M133.781 59.5973H128.488V64.8901H133.781V59.5973Z" fill="black"/>
<path d="M139.074 59.5973H133.781V64.8901H139.074V59.5973Z" fill="black"/>
<path d="M144.367 59.5973H139.074V64.8901H144.367V59.5973Z" fill="black"/>
<path d="M149.659 59.5973H144.367V64.8901H149.659V59.5973Z" fill="black"/>
<path d="M154.952 59.5973H149.659V64.8901H154.952V59.5973Z" fill="black"/>
<path d="M170.83 59.5973H165.538V64.8901H170.83V59.5973Z" fill="black"/>
<path d="M22.6336 64.8901H17.3408V70.1828H22.6336V64.8901Z" fill="black"/>
<path d="M38.5118 64.8901H33.2191V70.1828H38.5118V64.8901Z" fill="black"/>
<path d="M64.9755 64.8901H59.6828V70.1828H64.9755V64.8901Z" fill="black"/>
<path d="M70.2683 64.8901H64.9755V70.1828H70.2683V64.8901Z" fill="black"/>
<path d="M96.732 64.8901H91.4392V70.1828H96.732V64.8901Z" fill="black"/>
<path d="M102.025 64.8901H96.732V70.1828H102.025V64.8901Z" fill="black"/>
<path d="M112.61 64.8901H107.317V70.1828H112.61V64.8901Z" fill="black"/>
<path d="M123.196 64.8901H117.903V70.1828H123.196V64.8901Z" fill="black"/>
<path d="M27.9263 70.1828H22.6336V75.4756H27.9263V70.1828Z" fill="black"/>
<path d="M49.0973 70.1828H43.8045V75.4756H49.0973V70.1828Z" fill="black"/>
<path d="M54.39 70.1828H49.0973V75.4756H54.39V70.1828Z" fill="black"/>
<path d="M64.9755 70.1828H59.6828V75.4756H64.9755V70.1828Z" fill="black"/>
<path d="M70.2683 70.1828H64.9755V75.4756H70.2683V70.1828Z" fill="black"/>
<path d="M75.561 70.1828H70.2683V75.4756H75.561V70.1828Z" fill="black"/>
<path d="M80.8538 70.1828H75.561V75.4756H80.8538V70.1828Z" fill="black"/>
<path d="M86.1465 70.1828H80.8538V75.4756H86.1465V70.1828Z" fill="black"/>
<path d="M91.4392 70.1828H86.1465V75.4756H91.4392V70.1828Z" fill="black"/>
<path d="M96.732 70.1828H91.4392V75.4756H96.732V70.1828Z" fill="black"/>
<path d="M102.025 70.1828H96.732V75.4756H102.025V70.1828Z" fill="black"/>
<path d="M107.317 70.1828H102.025V75.4756H107.317V70.1828Z" fill="black"/>
<path d="M112.61 70.1828H107.317V75.4756H112.61V70.1828Z" fill="black"/>
<path d="M117.903 70.1828H112.61V75.4756H117.903V70.1828Z" fill="black"/>
<path d="M133.781 70.1828H128.488V75.4756H133.781V70.1828Z" fill="black"/>
<path d="M139.074 70.1828H133.781V75.4756H139.074V70.1828Z" fill="black"/>
<path d="M149.659 70.1828H144.367V75.4756H149.659V70.1828Z" fill="black"/>
<path d="M160.245 70.1828H154.952V75.4756H160.245V70.1828Z" fill="black"/>
<path d="M170.83 70.1828H165.538V75.4756H170.83V70.1828Z" fill="black"/>
<path d="M22.6336 75.4756H17.3408V80.7683H22.6336V75.4756Z" fill="black"/>
<path d="M33.2191 75.4756H27.9263V80.7683H33.2191V75.4756Z" fill="black"/>
<path d="M38.5118 75.4756H33.2191V80.7683H38.5118V75.4756Z" fill="black"/>
<path d="M43.8045 75.4756H38.5118V80.7683H43.8045V75.4756Z" fill="black"/>
<path d="M49.0973 75.4756H43.8045V80.7683H49.0973V75.4756Z" fill="black"/>
<path d="M59.6828 75.4756H54.39V80.7683H59.6828V75.4756Z" fill="black"/>
<path d="M75.561 75.4756H70.2683V80.7683H75.561V75.4756Z" fill="black"/>
<path d="M80.8538 75.4756H75.561V80.7683H80.8538V75.4756Z" fill="black"/>
<path d="M86.1465 75.4756H80.8538V80.7683H86.1465V75.4756Z" fill="black"/>
<path d="M96.732 75.4756H91.4392V80.7683H96.732V75.4756Z" fill="black"/>
<path d="M102.025 75.4756H96.732V80.7683H102.025V75.4756Z" fill="black"/>
<path d="M107.317 75.4756H102.025V80.7683H107.317V75.4756Z" fill="black"/>
<path d="M123.196 75.4756H117.903V80.7683H123.196V75.4756Z" fill="black"/>
<path d="M139.074 75.4756H133.781V80.7683H139.074V75.4756Z" fill="black"/>
<path d="M144.367 75.4756H139.074V80.7683H144.367V75.4756Z" fill="black"/>
<path d="M149.659 75.4756H144.367V80.7683H149.659V75.4756Z" fill="black"/>
<path d="M160.245 75.4756H154.952V80.7683H160.245V75.4756Z" fill="black"/>
<path d="M165.538 75.4756H160.245V80.7683H165.538V75.4756Z" fill="black"/>
<path d="M170.83 75.4756H165.538V80.7683H170.83V75.4756Z" fill="black"/>
<path d="M22.6336 80.7683H17.3408V86.0611H22.6336V80.7683Z" fill="black"/>
<path d="M27.9263 80.7683H22.6336V86.0611H27.9263V80.7683Z" fill="black"/>
<path d="M38.5118 80.7683H33.2191V86.0611H38.5118V80.7683Z" fill="black"/>
<path d="M49.0973 80.7683H43.8045V86.0611H49.0973V80.7683Z" fill="black"/>
<path d="M54.39 80.7683H49.0973V86.0611H54.39V80.7683Z" fill="black"/>
<path d="M59.6828 80.7683H54.39V86.0611H59.6828V80.7683Z" fill="black"/>
<path d="M75.561 80.7683H70.2683V86.0611H75.561V80.7683Z" fill="black"/>
<path d="M86.1465 80.7683H80.8538V86.0611H86.1465V80.7683Z" fill="black"/>
<path d="M91.4392 80.7683H86.1465V86.0611H91.4392V80.7683Z" fill="black"/>
<path d="M102.025 80.7683H96.732V86.0611H102.025V80.7683Z" fill="black"/>
<path d="M107.317 80.7683H102.025V86.0611H107.317V80.7683Z" fill="black"/>
<path d="M123.196 80.7683H117.903V86.0611H123.196V80.7683Z" fill="black"/>
<path d="M128.488 80.7683H123.196V86.0611H128.488V80.7683Z" fill="black"/>
<path d="M133.781 80.7683H128.488V86.0611H133.781V80.7683Z" fill="black"/>
<path d="M144.367 80.7683H139.074V86.0611H144.367V80.7683Z" fill="black"/>
<path d="M154.952 80.7683H149.659V86.0611H154.952V80.7683Z" fill="black"/>
<path d="M170.83 80.7683H165.538V86.0611H170.83V80.7683Z" fill="black"/>
<path d="M22.6336 86.0611H17.3408V91.3538H22.6336V86.0611Z" fill="black"/>
<path d="M27.9263 86.0611H22.6336V91.3538H27.9263V86.0611Z" fill="black"/>
<path d="M33.2191 86.0611H27.9263V91.3538H33.2191V86.0611Z" fill="black"/>
<path d="M43.8045 86.0611H38.5118V91.3538H43.8045V86.0611Z" fill="black"/>
<path d="M49.0973 86.0611H43.8045V91.3538H49.0973V86.0611Z" fill="black"/>
<path d="M64.9755 86.0611H59.6828V91.3538H64.9755V86.0611Z" fill="black"/>
<path d="M86.1465 86.0611H80.8538V91.3538H86.1465V86.0611Z" fill="black"/>
<path d="M102.025 86.0611H96.732V91.3538H102.025V86.0611Z" fill="black"/>
<path d="M117.903 86.0611H112.61V91.3538H117.903V86.0611Z" fill="black"/>
<path d="M123.196 86.0611H117.903V91.3538H123.196V86.0611Z" fill="black"/>
<path d="M128.488 86.0611H123.196V91.3538H128.488V86.0611Z" fill="black"/>
<path d="M133.781 86.0611H128.488V91.3538H133.781V86.0611Z" fill="black"/>
<path d="M139.074 86.0611H133.781V91.3538H139.074V86.0611Z" fill="black"/>
<path d="M144.367 86.0611H139.074V91.3538H144.367V86.0611Z" fill="black"/>
<path d="M149.659 86.0611H144.367V91.3538H149.659V86.0611Z" fill="black"/>
<path d="M160.245 86.0611H154.952V91.3538H160.245V86.0611Z" fill="black"/>
<path d="M22.6336 91.3538H17.3408V96.6465H22.6336V91.3538Z" fill="black"/>
<path d="M27.9263 91.3538H22.6336V96.6465H27.9263V91.3538Z" fill="black"/>
<path d="M33.2191 91.3538H27.9263V96.6465H33.2191V91.3538Z" fill="black"/>
<path d="M38.5118 91.3538H33.2191V96.6465H38.5118V91.3538Z" fill="black"/>
<path d="M49.0973 91.3538H43.8045V96.6465H49.0973V91.3538Z" fill="black"/>
<path d="M54.39 91.3538H49.0973V96.6465H54.39V91.3538Z" fill="black"/>
<path d="M59.6828 91.3538H54.39V96.6465H59.6828V91.3538Z" fill="black"/>
<path d="M64.9755 91.3538H59.6828V96.6465H64.9755V91.3538Z" fill="black"/>
<path d="M70.2683 91.3538H64.9755V96.6465H70.2683V91.3538Z" fill="black"/>
<path d="M75.561 91.3538H70.2683V96.6465H75.561V91.3538Z" fill="black"/>
<path d="M80.8538 91.3538H75.561V96.6465H80.8538V91.3538Z" fill="black"/>
<path d="M86.1465 91.3538H80.8538V96.6465H86.1465V91.3538Z" fill="black"/>
<path d="M96.732 91.3538H91.4392V96.6465H96.732V91.3538Z" fill="black"/>
<path d="M102.025 91.3538H96.732V96.6465H102.025V91.3538Z" fill="black"/>
<path d="M117.903 91.3538H112.61V96.6465H117.903V91.3538Z" fill="black"/>
<path d="M154.952 91.3538H149.659V96.6465H154.952V91.3538Z" fill="black"/>
<path d="M22.6336 96.6465H17.3408V101.939H22.6336V96.6465Z" fill="black"/>
<path d="M27.9263 96.6465H22.6336V101.939H27.9263V96.6465Z" fill="black"/>
<path d="M38.5118 96.6465H33.2191V101.939H38.5118V96.6465Z" fill="black"/>
<path d="M43.8045 96.6465H38.5118V101.939H43.8045V96.6465Z" fill="black"/>
<path d="M64.9755 96.6465H59.6828V101.939H64.9755V96.6465Z" fill="black"/>
<path d="M80.8538 96.6465H75.561V101.939H80.8538V96.6465Z" fill="black"/>
<path d="M96.732 96.6465H91.4392V101.939H96.732V96.6465Z" fill="black"/>
<path d="M107.317 96.6465H102.025V101.939H107.317V96.6465Z" fill="black"/>
<path d="M123.196 96.6465H117.903V101.939H123.196V96.6465Z" fill="black"/>
<path d="M139.074 96.6465H133.781V101.939H139.074V96.6465Z" fill="black"/>
<path d="M149.659 96.6465H144.367V101.939H149.659V96.6465Z" fill="black"/>
<path d="M165.538 96.6465H160.245V101.939H165.538V96.6465Z" fill="black"/>
<path d="M54.39 101.939H49.0973V107.232H54.39V101.939Z" fill="black"/>
<path d="M64.9755 101.939H59.6828V107.232H64.9755V101.939Z" fill="black"/>
<path d="M102.025 101.939H96.732V107.232H102.025V101.939Z" fill="black"/>
<path d="M117.903 101.939H112.61V107.232H117.903V101.939Z" fill="black"/>
<path d="M123.196 101.939H117.903V107.232H123.196V101.939Z" fill="black"/>
<path d="M133.781 101.939H128.488V107.232H133.781V101.939Z" fill="black"/>
<path d="M139.074 101.939H133.781V107.232H139.074V101.939Z" fill="black"/>
<path d="M144.367 101.939H139.074V107.232H144.367V101.939Z" fill="black"/>
<path d="M149.659 101.939H144.367V107.232H149.659V101.939Z" fill="black"/>
<path d="M154.952 101.939H149.659V107.232H154.952V101.939Z" fill="black"/>
<path d="M160.245 101.939H154.952V107.232H160.245V101.939Z" fill="black"/>
<path d="M22.6336 107.232H17.3408V112.525H22.6336V107.232Z" fill="black"/>
<path d="M27.9263 107.232H22.6336V112.525H27.9263V107.232Z" fill="black"/>
<path d="M38.5118 107.232H33.2191V112.525H38.5118V107.232Z" fill="black"/>
<path d="M49.0973 107.232H43.8045V112.525H49.0973V107.232Z" fill="black"/>
<path d="M64.9755 107.232H59.6828V112.525H64.9755V107.232Z" fill="black"/>
<path d="M70.2683 107.232H64.9755V112.525H70.2683V107.232Z" fill="black"/>
<path d="M80.8538 107.232H75.561V112.525H80.8538V107.232Z" fill="black"/>
<path d="M91.4392 107.232H86.1465V112.525H91.4392V107.232Z" fill="black"/>
<path d="M96.732 107.232H91.4392V112.525H96.732V107.232Z" fill="black"/>
<path d="M117.903 107.232H112.61V112.525H117.903V107.232Z" fill="black"/>
<path d="M128.488 107.232H123.196V112.525H128.488V107.232Z" fill="black"/>
<path d="M133.781 107.232H128.488V112.525H133.781V107.232Z" fill="black"/>
<path d="M144.367 107.232H139.074V112.525H144.367V107.232Z" fill="black"/>
<path d="M154.952 107.232H149.659V112.525H154.952V107.232Z" fill="black"/>
<path d="M160.245 107.232H154.952V112.525H160.245V107.232Z" fill="black"/>
<path d="M170.83 107.232H165.538V112.525H170.83V107.232Z" fill="black"/>
<path d="M22.6336 112.525H17.3408V117.818H22.6336V112.525Z" fill="black"/>
<path d="M27.9263 112.525H22.6336V117.818H27.9263V112.525Z" fill="black"/>
<path d="M43.8045 112.525H38.5118V117.818H43.8045V112.525Z" fill="black"/>
<path d="M49.0973 112.525H43.8045V117.818H49.0973V112.525Z" fill="black"/>
<path d="M54.39 112.525H49.0973V117.818H54.39V112.525Z" fill="black"/>
<path d="M70.2683 112.525H64.9755V117.818H70.2683V112.525Z" fill="black"/>
<path d="M86.1465 112.525H80.8538V117.818H86.1465V112.525Z" fill="black"/>
<path d="M91.4392 112.525H86.1465V117.818H91.4392V112.525Z" fill="black"/>
<path d="M102.025 112.525H96.732V117.818H102.025V112.525Z" fill="black"/>
<path d="M112.61 112.525H107.317V117.818H112.61V112.525Z" fill="black"/>
<path d="M117.903 112.525H112.61V117.818H117.903V112.525Z" fill="black"/>
<path d="M133.781 112.525H128.488V117.818H133.781V112.525Z" fill="black"/>
<path d="M144.367 112.525H139.074V117.818H144.367V112.525Z" fill="black"/>
<path d="M149.659 112.525H144.367V117.818H149.659V112.525Z" fill="black"/>
<path d="M154.952 112.525H149.659V117.818H154.952V112.525Z" fill="black"/>
<path d="M170.83 112.525H165.538V117.818H170.83V112.525Z" fill="black"/>
<path d="M27.9263 117.818H22.6336V123.11H27.9263V117.818Z" fill="black"/>
<path d="M43.8045 117.818H38.5118V123.11H43.8045V117.818Z" fill="black"/>
<path d="M59.6828 117.818H54.39V123.11H59.6828V117.818Z" fill="black"/>
<path d="M64.9755 117.818H59.6828V123.11H64.9755V117.818Z" fill="black"/>
<path d="M70.2683 117.818H64.9755V123.11H70.2683V117.818Z" fill="black"/>
<path d="M80.8538 117.818H75.561V123.11H80.8538V117.818Z" fill="black"/>
<path d="M96.732 117.818H91.4392V123.11H96.732V117.818Z" fill="black"/>
<path d="M102.025 117.818H96.732V123.11H102.025V117.818Z" fill="black"/>
<path d="M112.61 117.818H107.317V123.11H112.61V117.818Z" fill="black"/>
<path d="M117.903 117.818H112.61V123.11H117.903V117.818Z" fill="black"/>
<path d="M123.196 117.818H117.903V123.11H123.196V117.818Z" fill="black"/>
<path d="M128.488 117.818H123.196V123.11H128.488V117.818Z" fill="black"/>
<path d="M139.074 117.818H133.781V123.11H139.074V117.818Z" fill="black"/>
<path d="M144.367 117.818H139.074V123.11H144.367V117.818Z" fill="black"/>
<path d="M149.659 117.818H144.367V123.11H149.659V117.818Z" fill="black"/>
<path d="M154.952 117.818H149.659V123.11H154.952V117.818Z" fill="black"/>
<path d="M160.245 117.818H154.952V123.11H160.245V117.818Z" fill="black"/>
<path d="M165.538 117.818H160.245V123.11H165.538V117.818Z" fill="black"/>
<path d="M170.83 117.818H165.538V123.11H170.83V117.818Z" fill="black"/>
<path d="M27.9263 123.11H22.6336V128.403H27.9263V123.11Z" fill="black"/>
<path d="M49.0973 123.11H43.8045V128.403H49.0973V123.11Z" fill="black"/>
<path d="M54.39 123.11H49.0973V128.403H54.39V123.11Z" fill="black"/>
<path d="M64.9755 123.11H59.6828V128.403H64.9755V123.11Z" fill="black"/>
<path d="M80.8538 123.11H75.561V128.403H80.8538V123.11Z" fill="black"/>
<path d="M86.1465 123.11H80.8538V128.403H86.1465V123.11Z" fill="black"/>
<path d="M96.732 123.11H91.4392V128.403H96.732V123.11Z" fill="black"/>
<path d="M102.025 123.11H96.732V128.403H102.025V123.11Z" fill="black"/>
<path d="M112.61 123.11H107.317V128.403H112.61V123.11Z" fill="black"/>
<path d="M128.488 123.11H123.196V128.403H128.488V123.11Z" fill="black"/>
<path d="M133.781 123.11H128.488V128.403H133.781V123.11Z" fill="black"/>
<path d="M139.074 123.11H133.781V128.403H139.074V123.11Z" fill="black"/>
<path d="M144.367 123.11H139.074V128.403H144.367V123.11Z" fill="black"/>
<path d="M149.659 123.11H144.367V128.403H149.659V123.11Z" fill="black"/>
<path d="M170.83 123.11H165.538V128.403H170.83V123.11Z" fill="black"/>
<path d="M64.9755 128.403H59.6828V133.696H64.9755V128.403Z" fill="black"/>
<path d="M70.2683 128.403H64.9755V133.696H70.2683V128.403Z" fill="black"/>
<path d="M91.4392 128.403H86.1465V133.696H91.4392V128.403Z" fill="black"/>
<path d="M96.732 128.403H91.4392V133.696H96.732V128.403Z" fill="black"/>
<path d="M123.196 128.403H117.903V133.696H123.196V128.403Z" fill="black"/>
<path d="M128.488 128.403H123.196V133.696H128.488V128.403Z" fill="black"/>
<path d="M149.659 128.403H144.367V133.696H149.659V128.403Z" fill="black"/>
<path d="M160.245 128.403H154.952V133.696H160.245V128.403Z" fill="black"/>
<path d="M165.538 128.403H160.245V133.696H165.538V128.403Z" fill="black"/>
<path d="M170.83 128.403H165.538V133.696H170.83V128.403Z" fill="black"/>
<path d="M22.6336 133.696H17.3408V138.988H22.6336V133.696Z" fill="black"/>
<path d="M27.9263 133.696H22.6336V138.988H27.9263V133.696Z" fill="black"/>
<path d="M33.2191 133.696H27.9263V138.988H33.2191V133.696Z" fill="black"/>
<path d="M38.5118 133.696H33.2191V138.988H38.5118V133.696Z" fill="black"/>
<path d="M43.8045 133.696H38.5118V138.988H43.8045V133.696Z" fill="black"/>
<path d="M49.0973 133.696H43.8045V138.988H49.0973V133.696Z" fill="black"/>
<path d="M54.39 133.696H49.0973V138.988H54.39V133.696Z" fill="black"/>
<path d="M80.8538 133.696H75.561V138.988H80.8538V133.696Z" fill="black"/>
<path d="M86.1465 133.696H80.8538V138.988H86.1465V133.696Z" fill="black"/>
<path d="M91.4392 133.696H86.1465V138.988H91.4392V133.696Z" fill="black"/>
<path d="M96.732 133.696H91.4392V138.988H96.732V133.696Z" fill="black"/>
<path d="M117.903 133.696H112.61V138.988H117.903V133.696Z" fill="black"/>
<path d="M128.488 133.696H123.196V138.988H128.488V133.696Z" fill="black"/>
<path d="M139.074 133.696H133.781V138.988H139.074V133.696Z" fill="black"/>
<path d="M149.659 133.696H144.367V138.988H149.659V133.696Z" fill="black"/>
<path d="M170.83 133.696H165.538V138.988H170.83V133.696Z" fill="black"/>
<path d="M22.6336 138.988H17.3408V144.281H22.6336V138.988Z" fill="black"/>
<path d="M54.39 138.988H49.0973V144.281H54.39V138.988Z" fill="black"/>
<path d="M70.2683 138.988H64.9755V144.281H70.2683V138.988Z" fill="black"/>
<path d="M75.561 138.988H70.2683V144.281H75.561V138.988Z" fill="black"/>
<path d="M80.8538 138.988H75.561V144.281H80.8538V138.988Z" fill="black"/>
<path d="M91.4392 138.988H86.1465V144.281H91.4392V138.988Z" fill="black"/>
<path d="M96.732 138.988H91.4392V144.281H96.732V138.988Z" fill="black"/>
<path d="M102.025 138.988H96.732V144.281H102.025V138.988Z" fill="black"/>
<path d="M107.317 138.988H102.025V144.281H107.317V138.988Z" fill="black"/>
<path d="M117.903 138.988H112.61V144.281H117.903V138.988Z" fill="black"/>
<path d="M128.488 138.988H123.196V144.281H128.488V138.988Z" fill="black"/>
<path d="M149.659 138.988H144.367V144.281H149.659V138.988Z" fill="black"/>
<path d="M154.952 138.988H149.659V144.281H154.952V138.988Z" fill="black"/>
<path d="M160.245 138.988H154.952V144.281H160.245V138.988Z" fill="black"/>
<path d="M165.538 138.988H160.245V144.281H165.538V138.988Z" fill="black"/>
<path d="M170.83 138.988H165.538V144.281H170.83V138.988Z" fill="black"/>
<path d="M22.6336 144.281H17.3408V149.574H22.6336V144.281Z" fill="black"/>
<path d="M33.2191 144.281H27.9263V149.574H33.2191V144.281Z" fill="black"/>
<path d="M38.5118 144.281H33.2191V149.574H38.5118V144.281Z" fill="black"/>
<path d="M43.8045 144.281H38.5118V149.574H43.8045V144.281Z" fill="black"/>
<path d="M54.39 144.281H49.0973V149.574H54.39V144.281Z" fill="black"/>
<path d="M64.9755 144.281H59.6828V149.574H64.9755V144.281Z" fill="black"/>
<path d="M70.2683 144.281H64.9755V149.574H70.2683V144.281Z" fill="black"/>
<path d="M80.8538 144.281H75.561V149.574H80.8538V144.281Z" fill="black"/>
<path d="M91.4392 144.281H86.1465V149.574H91.4392V144.281Z" fill="black"/>
<path d="M96.732 144.281H91.4392V149.574H96.732V144.281Z" fill="black"/>
<path d="M102.025 144.281H96.732V149.574H102.025V144.281Z" fill="black"/>
<path d="M112.61 144.281H107.317V149.574H112.61V144.281Z" fill="black"/>
<path d="M117.903 144.281H112.61V149.574H117.903V144.281Z" fill="black"/>
<path d="M123.196 144.281H117.903V149.574H123.196V144.281Z" fill="black"/>
<path d="M128.488 144.281H123.196V149.574H128.488V144.281Z" fill="black"/>
<path d="M133.781 144.281H128.488V149.574H133.781V144.281Z" fill="black"/>
<path d="M139.074 144.281H133.781V149.574H139.074V144.281Z" fill="black"/>
<path d="M144.367 144.281H139.074V149.574H144.367V144.281Z" fill="black"/>
<path d="M149.659 144.281H144.367V149.574H149.659V144.281Z" fill="black"/>
<path d="M160.245 144.281H154.952V149.574H160.245V144.281Z" fill="black"/>
<path d="M165.538 144.281H160.245V149.574H165.538V144.281Z" fill="black"/>
<path d="M170.83 144.281H165.538V149.574H170.83V144.281Z" fill="black"/>
<path d="M22.6336 149.574H17.3408V154.867H22.6336V149.574Z" fill="black"/>
<path d="M33.2191 149.574H27.9263V154.867H33.2191V149.574Z" fill="black"/>
<path d="M38.5118 149.574H33.2191V154.867H38.5118V149.574Z" fill="black"/>
<path d="M43.8045 149.574H38.5118V154.867H43.8045V149.574Z" fill="black"/>
<path d="M54.39 149.574H49.0973V154.867H54.39V149.574Z" fill="black"/>
<path d="M80.8538 149.574H75.561V154.867H80.8538V149.574Z" fill="black"/>
<path d="M91.4392 149.574H86.1465V154.867H91.4392V149.574Z" fill="black"/>
<path d="M107.317 149.574H102.025V154.867H107.317V149.574Z" fill="black"/>
<path d="M117.903 149.574H112.61V154.867H117.903V149.574Z" fill="black"/>
<path d="M123.196 149.574H117.903V154.867H123.196V149.574Z" fill="black"/>
<path d="M128.488 149.574H123.196V154.867H128.488V149.574Z" fill="black"/>
<path d="M133.781 149.574H128.488V154.867H133.781V149.574Z" fill="black"/>
<path d="M139.074 149.574H133.781V154.867H139.074V149.574Z" fill="black"/>
<path d="M149.659 149.574H144.367V154.867H149.659V149.574Z" fill="black"/>
<path d="M165.538 149.574H160.245V154.867H165.538V149.574Z" fill="black"/>
<path d="M22.6336 154.867H17.3408V160.159H22.6336V154.867Z" fill="black"/>
<path d="M33.2191 154.867H27.9263V160.159H33.2191V154.867Z" fill="black"/>
<path d="M38.5118 154.867H33.2191V160.159H38.5118V154.867Z" fill="black"/>
<path d="M43.8045 154.867H38.5118V160.159H43.8045V154.867Z" fill="black"/>
<path d="M54.39 154.867H49.0973V160.159H54.39V154.867Z" fill="black"/>
<path d="M64.9755 154.867H59.6828V160.159H64.9755V154.867Z" fill="black"/>
<path d="M70.2683 154.867H64.9755V160.159H70.2683V154.867Z" fill="black"/>
<path d="M75.561 154.867H70.2683V160.159H75.561V154.867Z" fill="black"/>
<path d="M91.4392 154.867H86.1465V160.159H91.4392V154.867Z" fill="black"/>
<path d="M96.732 154.867H91.4392V160.159H96.732V154.867Z" fill="black"/>
<path d="M102.025 154.867H96.732V160.159H102.025V154.867Z" fill="black"/>
<path d="M112.61 154.867H107.317V160.159H112.61V154.867Z" fill="black"/>
<path d="M123.196 154.867H117.903V160.159H123.196V154.867Z" fill="black"/>
<path d="M128.488 154.867H123.196V160.159H128.488V154.867Z" fill="black"/>
<path d="M160.245 154.867H154.952V160.159H160.245V154.867Z" fill="black"/>
<path d="M165.538 154.867H160.245V160.159H165.538V154.867Z" fill="black"/>
<path d="M22.6336 160.159H17.3408V165.452H22.6336V160.159Z" fill="black"/>
<path d="M54.39 160.159H49.0973V165.452H54.39V160.159Z" fill="black"/>
<path d="M64.9755 160.159H59.6828V165.452H64.9755V160.159Z" fill="black"/>
<path d="M70.2683 160.159H64.9755V165.452H70.2683V160.159Z" fill="black"/>
<path d="M91.4392 160.159H86.1465V165.452H91.4392V160.159Z" fill="black"/>
<path d="M112.61 160.159H107.317V165.452H112.61V160.159Z" fill="black"/>
<path d="M128.488 160.159H123.196V165.452H128.488V160.159Z" fill="black"/>
<path d="M144.367 160.159H139.074V165.452H144.367V160.159Z" fill="black"/>
<path d="M154.952 160.159H149.659V165.452H154.952V160.159Z" fill="black"/>
<path d="M160.245 160.159H154.952V165.452H160.245V160.159Z" fill="black"/>
<path d="M22.6336 165.452H17.3408V170.745H22.6336V165.452Z" fill="black"/>
<path d="M27.9263 165.452H22.6336V170.745H27.9263V165.452Z" fill="black"/>
<path d="M33.2191 165.452H27.9263V170.745H33.2191V165.452Z" fill="black"/>
<path d="M38.5118 165.452H33.2191V170.745H38.5118V165.452Z" fill="black"/>
<path d="M43.8045 165.452H38.5118V170.745H43.8045V165.452Z" fill="black"/>
<path d="M49.0973 165.452H43.8045V170.745H49.0973V165.452Z" fill="black"/>
<path d="M54.39 165.452H49.0973V170.745H54.39V165.452Z" fill="black"/>
<path d="M64.9755 165.452H59.6828V170.745H64.9755V165.452Z" fill="black"/>
<path d="M80.8538 165.452H75.561V170.745H80.8538V165.452Z" fill="black"/>
<path d="M86.1465 165.452H80.8538V170.745H86.1465V165.452Z" fill="black"/>
<path d="M91.4392 165.452H86.1465V170.745H91.4392V165.452Z" fill="black"/>
<path d="M96.732 165.452H91.4392V170.745H96.732V165.452Z" fill="black"/>
<path d="M102.025 165.452H96.732V170.745H102.025V165.452Z" fill="black"/>
<path d="M117.903 165.452H112.61V170.745H117.903V165.452Z" fill="black"/>
<path d="M144.367 165.452H139.074V170.745H144.367V165.452Z" fill="black"/>
<path d="M160.245 165.452H154.952V170.745H160.245V165.452Z" fill="black"/>
<path d="M165.538 165.452H160.245V170.745H165.538V165.452Z" fill="black"/>
</svg>
