<?xml version="1.0" encoding="UTF-8"?>
<svg version="1.1" xmlns="http://www.w3.org/2000/svg" width="164" height="62">
<path d="M0 0 C3.56234428 -0.08741124 7.12441108 -0.14052896 10.6875 -0.1875 C11.69490234 -0.21263672 12.70230469 -0.23777344 13.74023438 -0.26367188 C23.0046958 -0.35539922 23.0046958 -0.35539922 27 3 C30.30117469 6.30117469 30.77011176 9.40223521 31 14 C30.59158825 18.67009953 29.60403589 21.88061441 26 25 C23 27 23 27 21 27 C21 31.95 21 36.9 21 42 C22.98 42.33 24.96 42.66 27 43 C27 44.98 27 46.96 27 49 C25.58376784 49.05447047 24.16691809 49.09300508 22.75 49.125 C21.96109375 49.14820313 21.1721875 49.17140625 20.359375 49.1953125 C17.75385683 48.97962391 16.20013023 48.3921178 14 47 C12.8517315 44.703463 12.88438825 43.41686833 12.90234375 40.8671875 C12.90556641 40.06152344 12.90878906 39.25585938 12.91210938 38.42578125 C12.92048828 37.58402344 12.92886719 36.74226563 12.9375 35.875 C12.94201172 35.02550781 12.94652344 34.17601562 12.95117188 33.30078125 C12.96297126 31.20049091 12.98090694 29.1002367 13 27 C9.04 27 5.08 27 1 27 C0.67 33.93 0.34 40.86 0 48 C-2.97 48 -5.94 48 -9 48 C-9 35.79 -9 23.58 -9 11 C-5.7 11 -2.4 11 1 11 C1 12.65 1 14.3 1 16 C7.6 16 14.2 16 21 16 C21.33 15.01 21.66 14.02 22 13 C21.67 12.34 21.34 11.68 21 11 C14.73 10.67 8.46 10.34 2 10 C0.76276024 7.52552048 1 5.7446651 1 3 C0.67 2.01 0.34 1.02 0 0 Z " fill="#49C670" transform="translate(9,7)"/>
<path d="M0 0 C-0.15240609 2.66710654 -0.49364919 4.4505871 -2.33203125 6.4453125 C-6.50625 10 -6.50625 10 -9 10 C-9 14.95 -9 19.9 -9 25 C-7.02 25.33 -5.04 25.66 -3 26 C-3 27.98 -3 29.96 -3 32 C-4.41623216 32.05447047 -5.83308191 32.09300508 -7.25 32.125 C-8.03890625 32.14820313 -8.8278125 32.17140625 -9.640625 32.1953125 C-12.24614317 31.97962391 -13.79986977 31.3921178 -16 30 C-17.2263757 27.54724859 -17.11415314 25.9494219 -17.09765625 23.2109375 C-17.09443359 22.26992188 -17.09121094 21.32890625 -17.08789062 20.359375 C-17.07951172 19.37453125 -17.07113281 18.3896875 -17.0625 17.375 C-17.05798828 16.38242187 -17.05347656 15.38984375 -17.04882812 14.3671875 C-17.03702145 11.9113984 -17.020554 9.45572896 -17 7 C-14.73272667 5.82592979 -12.46165376 4.66060261 -10.1875 3.5 C-9.22360352 2.99919922 -9.22360352 2.99919922 -8.24023438 2.48828125 C-5.30452301 0.99760916 -3.33873483 0 0 0 Z " fill="#3D9B65" transform="translate(39,24)"/>
<path d="M0 0 C3.3 0 6.6 0 10 0 C10.3329871 8.10268609 9.99496596 13.56674633 4.4375 19.9375 C2 22 2 22 0 22 C0 14.74 0 7.48 0 0 Z " fill="#47BE71" transform="translate(0,18)"/>
<path d="M0 0 C0.33 0 0.66 0 1 0 C0.67 8.91 0.34 17.82 0 27 C-2.97 27 -5.94 27 -9 27 C-9 22.05 -9 17.1 -9 12 C-7.68 11.34 -6.36 10.68 -5 10 C-2.56842126 6.8042108 -0.61776653 4.01548242 0 0 Z " fill="#47B179" transform="translate(9,28)"/>
<path d="M0 0 C2.475 0.495 2.475 0.495 5 1 C5.66 2.98 6.32 4.96 7 7 C7.99 4.69 8.98 2.38 10 0 C11.65 0 13.3 0 15 0 C15 4.62 15 9.24 15 14 C13.68 14 12.36 14 11 14 C10.67 13.34 10.34 12.68 10 12 C9.67 12.66 9.34 13.32 9 14 C7.0625 13.625 7.0625 13.625 5 13 C4.67 12.34 4.34 11.68 4 11 C3.67 11.99 3.34 12.98 3 14 C2.01 14 1.02 14 0 14 C0 9.38 0 4.76 0 0 Z " fill="#55B785" transform="translate(90,33)"/>
<path d="M0 0 C2.60478883 -0.0809313 5.20706653 -0.14045434 7.8125 -0.1875 C8.55048828 -0.21263672 9.28847656 -0.23777344 10.04882812 -0.26367188 C15.54974762 -0.33834499 15.54974762 -0.33834499 18.01171875 1.51171875 C18.50091797 2.24841797 18.50091797 2.24841797 19 3 C19.66 2.01 20.32 1.02 21 0 C22.32 0.33 23.64 0.66 25 1 C24.360625 2.03125 23.72125 3.0625 23.0625 4.125 C21.18288629 7.38609658 20.36873469 10.22046944 20 14 C19.01 14 18.02 14 17 14 C16.80664062 13.37351562 16.61328125 12.74703125 16.4140625 12.1015625 C16.15367187 11.28429688 15.89328125 10.46703125 15.625 9.625 C15.36976563 8.81289063 15.11453125 8.00078125 14.8515625 7.1640625 C14.10145717 4.83540815 14.10145717 4.83540815 12 3 C10.68 3 9.36 3 8 3 C8 6.63 8 10.26 8 14 C6.68 14 5.36 14 4 14 C4 10.37 4 6.74 4 3 C2.68 3 1.36 3 0 3 C0 2.01 0 1.02 0 0 Z " fill="#59A59C" transform="translate(139,33)"/>
<path d="M0 0 C1.32 0 2.64 0 4 0 C4.66 2.31 5.32 4.62 6 7 C6.66 7 7.32 7 8 7 C8.66 4.69 9.32 2.38 10 0 C11.32 0 12.64 0 14 0 C14 4.62 14 9.24 14 14 C13.01 14 12.02 14 11 14 C10.67 13.01 10.34 12.02 10 11 C9.67 11.99 9.34 12.98 9 14 C7.0625 13.625 7.0625 13.625 5 13 C4.67 12.34 4.34 11.68 4 11 C3.67 11.99 3.34 12.98 3 14 C2.01 14 1.02 14 0 14 C0 9.38 0 4.76 0 0 Z " fill="#4EB977" transform="translate(73,33)"/>
<path d="M0 0 C2.475 0.495 2.475 0.495 5 1 C6.3125 3.0625 6.3125 3.0625 7 5 C7.33 3.35 7.66 1.7 8 0 C9.32 0 10.64 0 12 0 C12 4.62 12 9.24 12 14 C10.35 13.67 8.7 13.34 7 13 C6.34 12.01 5.68 11.02 5 10 C4.67 11.32 4.34 12.64 4 14 C2.68 14 1.36 14 0 14 C0 9.38 0 4.76 0 0 Z " fill="#5AAD98" transform="translate(120,33)"/>
<path d="M0 0 C2.90161446 0.05209362 3.81958643 0.08112608 6.1875 1.875 C7.49177243 5.26610833 6.75588237 7.77955873 6.125 11.3125 C6.47159295 13.63408065 6.47159295 13.63408065 7.125 15.3125 C5.805 15.3125 4.485 15.3125 3.125 15.3125 C2.83625 14.673125 2.5475 14.03375 2.25 13.375 C1.29676549 11.16043921 1.29676549 11.16043921 -0.875 10.3125 C-0.875 11.9625 -0.875 13.6125 -0.875 15.3125 C-2.195 14.9825 -3.515 14.6525 -4.875 14.3125 C-4.90185938 12.16673363 -4.92133088 10.02087355 -4.9375 7.875 C-4.94910156 6.68003906 -4.96070312 5.48507813 -4.97265625 4.25390625 C-4.82554854 -0.17697809 -4.60685011 0.37152017 0 0 Z M-0.875 3.3125 C-0.875 4.6325 -0.875 5.9525 -0.875 7.3125 C0.445 6.9825 1.765 6.6525 3.125 6.3125 C2.795 5.3225 2.465 4.3325 2.125 3.3125 C1.135 3.3125 0.145 3.3125 -0.875 3.3125 Z " fill="#519D85" transform="translate(112.875,13.6875)"/>
<path d="M0 0 C7.26325581 -0.3572093 7.26325581 -0.3572093 10.0625 1 C11.37117433 3.79183857 10.7689281 6.0971456 10.26171875 9.05859375 C9.9639934 11.26709377 10.21828972 12.91543924 11 15 C9.68 15 8.36 15 7 15 C6.71125 14.360625 6.4225 13.72125 6.125 13.0625 C5.17176549 10.84793921 5.17176549 10.84793921 3 10 C3 11.65 3 13.3 3 15 C2.01 15 1.02 15 0 15 C0 10.05 0 5.1 0 0 Z M3 3 C3.33 4.32 3.66 5.64 4 7 C4.99 6.67 5.98 6.34 7 6 C6.67 5.01 6.34 4.02 6 3 C5.01 3 4.02 3 3 3 Z " fill="#46C06B" transform="translate(46,14)"/>
<path d="M0 0 C3.3332151 0.48609387 4.01221348 0.83541211 6 3.4375 C6.61337133 6.48777907 6.506988 9.37278603 6 12.4375 C4.375 14.5625 4.375 14.5625 2 15.4375 C-1.67293796 15.21712372 -3.36966546 15.06783454 -6 12.4375 C-6.32696519 8.38313169 -6.54237312 5.6427736 -4.875 1.9375 C-3 0.4375 -3 0.4375 0 0 Z M-1 3.4375 C-2.41577477 4.62174326 -2.41577477 4.62174326 -2.0625 8 C-2.041875 9.134375 -2.02125 10.26875 -2 11.4375 C-0.68 11.4375 0.64 11.4375 2 11.4375 C2.6878236 9.08382287 2.6878236 9.08382287 3 6.4375 C2.34 5.4475 1.68 4.4575 1 3.4375 C0.34 3.4375 -0.32 3.4375 -1 3.4375 Z " fill="#569E9D" transform="translate(146,13.5625)"/>
<path d="M0 0 C3.625 0.3125 3.625 0.3125 5.5625 1.9375 C6.96330596 5.06871331 7.18006621 6.91271945 6.625 10.3125 C4.125 13.1875 4.125 13.1875 1.625 15.3125 C-1.25 14.75 -1.25 14.75 -4.375 13.3125 C-6.06823793 9.57326625 -6.68782492 7.41941896 -5.5625 3.4375 C-3.84024986 0.35557869 -3.84024986 0.35557869 0 0 Z M-1.375 3.3125 C-1.705 5.6225 -2.035 7.9325 -2.375 10.3125 C-0.42896726 10.90320014 -0.42896726 10.90320014 1.625 11.3125 C2.98118499 10.18715895 2.98118499 10.18715895 2.6875 7.25 C2.666875 6.280625 2.64625 5.31125 2.625 4.3125 C1.305 3.9825 -0.015 3.6525 -1.375 3.3125 Z " fill="#48B972" transform="translate(64.375,32.6875)"/>
<path d="M0 0 C1.88964676 1.96838204 2.00421286 3.29083454 1.98828125 5.97265625 C1.8125 8.125 1.8125 8.125 1 12 C-2.23253796 14.15502531 -3.25150923 14.46856135 -7 14 C-9.58508686 12.33815845 -9.97163627 11.10036398 -10.8125 8.125 C-11.01519462 4.74675636 -10.60361016 2.95401872 -9 0 C-5.81926598 -1.59036701 -3.37573597 -0.78365299 0 0 Z M-6 2 C-6.33 4.31 -6.66 6.62 -7 9 C-5.02 9.99 -5.02 9.99 -3 11 C-1.58422523 9.81575674 -1.58422523 9.81575674 -1.9375 6.4375 C-1.958125 5.303125 -1.97875 4.16875 -2 3 C-3.32 2.67 -4.64 2.34 -6 2 Z " fill="#5AB78D" transform="translate(92,15)"/>
<path d="M0 0 C3.3 0 6.6 0 10 0 C10 0.99 10 1.98 10 3 C8.02 3 6.04 3 4 3 C4 3.99 4 4.98 4 6 C5.98 6 7.96 6 10 6 C10 6.99 10 7.98 10 9 C8.02 9 6.04 9 4 9 C4 9.99 4 10.98 4 12 C5.98 12 7.96 12 10 12 C10 12.99 10 13.98 10 15 C6.7 15 3.4 15 0 15 C0 10.05 0 5.1 0 0 Z " fill="#46BE69" transform="translate(58,14)"/>
<path d="M0 0 C3 0.25 3 0.25 5 2.25 C5 3.24 5 4.23 5 5.25 C2.03 4.755 2.03 4.755 -1 4.25 C-0.01 4.78625 0.98 5.3225 2 5.875 C3.485 7.050625 3.485 7.050625 5 8.25 C5.375 11.5 5.375 11.5 5 14.25 C2.20129973 15.64935013 0.09501208 15.50265405 -3 15.25 C-4.875 13.9375 -4.875 13.9375 -6 12.25 C-6 11.26 -6 10.27 -6 9.25 C-5.34 8.92 -4.68 8.59 -4 8.25 C-4.33 7.92 -4.66 7.59 -5 7.25 C-5.1875 4.8125 -5.1875 4.8125 -5 2.25 C-3 0.25 -3 0.25 0 0 Z M-3 9.25 C-2.67 10.24 -2.34 11.23 -2 12.25 C-0.68 11.92 0.64 11.59 2 11.25 C1.67 10.59 1.34 9.93 1 9.25 C-0.32 9.25 -1.64 9.25 -3 9.25 Z " fill="#46B76B" transform="translate(75,13.75)"/>
<path d="M0 0 C0.99 0 1.98 0 3 0 C3.33 3.63 3.66 7.26 4 11 C4.66 11 5.32 11 6 11 C6.33 7.37 6.66 3.74 7 0 C8.32 0 9.64 0 11 0 C11.08142927 1.7492214 11.13938541 3.49954542 11.1875 5.25 C11.22230469 6.22453125 11.25710937 7.1990625 11.29296875 8.203125 C10.95593979 11.4206281 10.28331713 12.73792303 8 15 C4.9375 15.375 4.9375 15.375 2 15 C0 13 0 13 -0.1953125 9.9609375 C-0.17210938 8.77757812 -0.14890625 7.59421875 -0.125 6.375 C-0.10695313 5.18648437 -0.08890625 3.99796875 -0.0703125 2.7734375 C-0.04710938 1.85820312 -0.02390625 0.94296875 0 0 Z " fill="#59B48D" transform="translate(96,14)"/>
<path d="M0 0 C0.99 0 1.98 0 3 0 C3.33 3.3 3.66 6.6 4 10 C4.99 10.33 5.98 10.66 7 11 C7 7.37 7 3.74 7 0 C8.32 0 9.64 0 11 0 C11.10807131 1.93627769 11.1856225 3.87427756 11.25 5.8125 C11.29640625 6.89144531 11.3428125 7.97039063 11.390625 9.08203125 C11 12 11 12 9.1484375 13.8984375 C7 15 7 15 4.375 14.8125 C2 14 2 14 0 12 C-0.1953125 9.1796875 -0.1953125 9.1796875 -0.125 5.875 C-0.10695313 4.77929688 -0.08890625 3.68359375 -0.0703125 2.5546875 C-0.04710938 1.71164063 -0.02390625 0.86859375 0 0 Z " fill="#58B090" transform="translate(107,33)"/>
<path d="M0 0 C2.375 1.3125 2.375 1.3125 3.1875 3.4375 C3.249375 4.05625 3.31125 4.675 3.375 5.3125 C2.385 5.6425 1.395 5.9725 0.375 6.3125 C0.045 5.6525 -0.285 4.9925 -0.625 4.3125 C-1.615 4.3125 -2.605 4.3125 -3.625 4.3125 C-3.625 6.2925 -3.625 8.2725 -3.625 10.3125 C-0.16 9.8175 -0.16 9.8175 3.375 9.3125 C3.0625 11.1875 3.0625 11.1875 2.375 13.3125 C-0.625 15.3125 -0.625 15.3125 -3.125 15.1875 C-6.23466171 14.0991184 -7.12453812 13.23445208 -8.625 10.3125 C-9.05352343 6.88431257 -9.02710312 5.0209674 -7.3125 2 C-4.85050135 -0.46199865 -3.36421811 -0.88110474 0 0 Z " fill="#43B966" transform="translate(53.625,32.6875)"/>
<path d="M0 0 C3 0.5 3 0.5 4.875 3 C5.24625 3.825 5.6175 4.65 6 5.5 C4.68 5.83 3.36 6.16 2 6.5 C1.67 5.84 1.34 5.18 1 4.5 C0.01 4.17 -0.98 3.84 -2 3.5 C-2.20970559 7.64093698 -2.20970559 7.64093698 -1 11.5 C-0.34 11.5 0.32 11.5 1 11.5 C1.33 10.84 1.66 10.18 2 9.5 C3.32 9.5 4.64 9.5 6 9.5 C4.125 14.375 4.125 14.375 3 15.5 C-2.36779911 15.96676514 -2.36779911 15.96676514 -4.671875 14.265625 C-6.34618396 12.03977898 -6.40262507 10.76250748 -6.375 8 C-6.38273437 7.2265625 -6.39046875 6.453125 -6.3984375 5.65625 C-5.66957252 1.71180422 -3.82166614 0.63694436 0 0 Z " fill="#5CA696" transform="translate(127,13.5)"/>
<path d="M0 0 C0 1.98 0 3.96 0 6 C2.97 6.495 2.97 6.495 6 7 C6 8.98 6 10.96 6 13 C4.58376784 13.05447047 3.16691809 13.09300508 1.75 13.125 C0.96109375 13.14820313 0.1721875 13.17140625 -0.640625 13.1953125 C-3.2979611 12.97533435 -4.81803622 12.53509841 -7 11 C-7.9609375 9.109375 -7.9609375 9.109375 -8 7 C-6.6015625 5.078125 -6.6015625 5.078125 -4.625 3.25 C-3.97789063 2.63640625 -3.33078125 2.0228125 -2.6640625 1.390625 C-1 0 -1 0 0 0 Z " fill="#317A72" transform="translate(30,43)"/>
<path d="M0 0 C-0.20835805 3.64626587 -1.00829509 5.00957126 -3.4375 7.8125 C-7.5305799 11.0149097 -12.05191304 10.44004726 -17 10 C-17 9.01 -17 8.02 -17 7 C-14.73272667 5.82592979 -12.46165376 4.66060261 -10.1875 3.5 C-9.22360352 2.99919922 -9.22360352 2.99919922 -8.24023438 2.48828125 C-5.30452301 0.99760916 -3.33873483 0 0 0 Z " fill="#3F947F" transform="translate(39,24)"/>
<path d="M0 0 C1.32 0 2.64 0 4 0 C6.09230769 4.43076923 6.09230769 4.43076923 5.625 7.3125 C5.41875 7.869375 5.2125 8.42625 5 9 C4.67 9 4.34 9 4 9 C3.67 10.65 3.34 12.3 3 14 C2.01 14 1.02 14 0 14 C0 9.38 0 4.76 0 0 Z " fill="#47BE6E" transform="translate(73,33)"/>
<path d="M0 0 C1.32 0 2.64 0 4 0 C4 4.95 4 9.9 4 15 C2.68 15 1.36 15 0 15 C0 10.05 0 5.1 0 0 Z " fill="#5AA69E" transform="translate(134,14)"/>
<path d="M0 0 C1.125 4.75 1.125 4.75 0 7 C-1.8125 7.8125 -1.8125 7.8125 -4 8 C-6.25 6.5625 -6.25 6.5625 -8 5 C-7.625 2.5625 -7.625 2.5625 -7 0 C-4.3333581 -1.33332095 -2.83319697 -0.67102033 0 0 Z " fill="#55E86C" transform="translate(8,9)"/>
<path d="M0 0 C2.64 0 5.28 0 8 0 C7.071875 1.546875 7.071875 1.546875 6.125 3.125 C4.70766981 5.58037484 3.78405743 7.6478277 2.875 10.375 C2 13 2 13 0 14 C0 9.38 0 4.76 0 0 Z " fill="#54DF6E" transform="translate(0,18)"/>
<path d="M0 0 C1.32 0 2.64 0 4 0 C4 4.62 4 9.24 4 14 C2.68 14 1.36 14 0 14 C0 9.38 0 4.76 0 0 Z " fill="#5CA89A" transform="translate(134,33)"/>
<path d="M0 0 C0.33 0 0.66 0 1 0 C1 5.61 1 11.22 1 17 C-0.98 17 -2.96 17 -5 17 C-3.35 11.39 -1.7 5.78 0 0 Z " fill="#3D9281" transform="translate(8,38)"/>
<path d="M0 0 C0.66 0 1.32 0 2 0 C2 7.36274735 -1.98285597 10.95999882 -7 16 C-7 9.86122381 -4.24165249 4.37847999 0 0 Z " fill="#42BC62" transform="translate(8,18)"/>
<path d="M0 0 C0.66 0.33 1.32 0.66 2 1 C2 2.98 2 4.96 2 7 C-0.79870027 8.39935013 -2.90498792 8.25265405 -6 8 C-7.875 6.6875 -7.875 6.6875 -9 5 C-9 4.01 -9 3.02 -9 2 C-7.68 2.33 -6.36 2.66 -5 3 C-5 3.66 -5 4.32 -5 5 C-1.88667752 4.33131686 -1.88667752 4.33131686 -0.8125 1.9375 C-0.544375 1.298125 -0.27625 0.65875 0 0 Z " fill="#5DBB90" transform="translate(78,21)"/>
<path d="M0 0 C2.64 0 5.28 0 8 0 C6.4722133 3.43752007 4.49818944 6.18953688 2 9 C1.34 9 0.68 9 0 9 C0 6.03 0 3.06 0 0 Z " fill="#4DC869" transform="translate(22,34)"/>
<path d="M0 0 C0.33 0.66 0.66 1.32 1 2 C-2.01031744 2.93423645 -2.86650268 3.04449911 -6 2 C-6 2.66 -6 3.32 -6 4 C-7.62626404 5.38232443 -9.2925002 6.71937515 -11 8 C-10.67264472 5.05380252 -10.37532687 2.64639628 -8.875 0.0625 C-5.80504256 -1.67714255 -3.30676537 -0.79607314 0 0 Z " fill="#47BD6F" transform="translate(92,15)"/>
<path d="M0 0 C0.66 0.33 1.32 0.66 2 1 C-0.31 2.65 -2.62 4.3 -5 6 C-4.67 6.66 -4.34 7.32 -4 8 C-5.98 8 -7.96 8 -10 8 C-10 7.01 -10 6.02 -10 5 C-8.38007835 4.13624104 -6.75388139 3.28424146 -5.125 2.4375 C-4.22007813 1.96183594 -3.31515625 1.48617188 -2.3828125 0.99609375 C-1.20332031 0.50302734 -1.20332031 0.50302734 0 0 Z " fill="#419980" transform="translate(32,26)"/>
<path d="M0 0 C0.33 0.99 0.66 1.98 1 3 C-3.39453125 7.00390625 -3.39453125 7.00390625 -5 8 C-5.99 7.67 -6.98 7.34 -8 7 C-5.42215154 4.35247996 -3.08351902 2.05567935 0 0 Z " fill="#387E77" transform="translate(37,26)"/>
<path d="M0 0 C0 0.99 0 1.98 0 3 C-2.97 3 -5.94 3 -9 3 C-9 2.34 -9 1.68 -9 1 C-6.04335481 -0.4783226 -3.25770263 -0.06032783 0 0 Z " fill="#51B17C" transform="translate(68,26)"/>
<path d="M0 0 C-0.33 1.98 -0.66 3.96 -1 6 C-2.9375 5.6875 -2.9375 5.6875 -5 5 C-5.33 4.01 -5.66 3.02 -6 2 C-2.25 0 -2.25 0 0 0 Z " fill="#58B886" transform="translate(83,41)"/>
<path d="M0 0 C0.99 0 1.98 0 3 0 C2.67 1.32 2.34 2.64 2 4 C0.35 4.33 -1.3 4.66 -3 5 C-1.6875 2.5 -1.6875 2.5 0 0 Z " fill="#4ABD71" transform="translate(54,42)"/>
<path d="M0 0 C0.99 0 1.98 0 3 0 C3 1.98 3 3.96 3 6 C2.01 6 1.02 6 0 6 C0 4.02 0 2.04 0 0 Z " fill="#54B982" transform="translate(73,41)"/>
<path d="M0 0 C1.9375 0.3125 1.9375 0.3125 4 1 C4.33 1.99 4.66 2.98 5 4 C3.68 4.33 2.36 4.66 1 5 C0.67 3.35 0.34 1.7 0 0 Z " fill="#54B580" transform="translate(69,23)"/>
<path d="M0 0 C0.66 0.66 1.32 1.32 2 2 C1.625 4.625 1.625 4.625 1 7 C0.01 7 -0.98 7 -2 7 C-1.125 2.25 -1.125 2.25 0 0 Z " fill="#4DD06B" transform="translate(7,9)"/>
<path d="M0 0 C1.32 0.33 2.64 0.66 4 1 C2.68 2.65 1.36 4.3 0 6 C-0.66 5.67 -1.32 5.34 -2 5 C-1.34 3.35 -0.68 1.7 0 0 Z " fill="#4ED26D" transform="translate(4,18)"/>
</svg>
