<?xml version="1.0" encoding="UTF-8"?>
<svg version="1.1" xmlns="http://www.w3.org/2000/svg" width="100" height="92">
<path d="M0 0 C33 0 66 0 100 0 C100 30.36 100 60.72 100 92 C67 92 34 92 0 92 C0 61.64 0 31.28 0 0 Z " fill="#FEFEFE" transform="translate(0,0)"/>
<path d="M0 0 C7.92119565 1.94293478 7.92119565 1.94293478 10 5 C10 5.99 10 6.98 10 8 C10.94746094 7.93039063 10.94746094 7.93039063 11.9140625 7.859375 C22.625247 7.42722346 33.04085179 10.02723453 42 16 C42 16.66 42 17.32 42 18 C43.485 18.495 43.485 18.495 45 19 C46.08338114 23.16685052 46.39117678 25.24773695 44.375 29.125 C39.28507809 34.48810981 30.15350153 36.96989578 23 38 C21.14500605 37.97105683 19.29026814 37.90784412 17.4375 37.8125 C13.08897294 37.6923741 13.08897294 37.6923741 9.4375 39.9375 C8.963125 40.618125 8.48875 41.29875 8 42 C4.08202269 43.95898865 -0.71852452 43.35781784 -5 43 C-8.1875 41.625 -8.1875 41.625 -10 40 C-10 39.34 -10 38.68 -10 38 C-6.7 37.01 -3.4 36.02 0 35 C-0.886875 34.71125 -1.77375 34.4225 -2.6875 34.125 C-4.59459853 33.47730616 -6.49124002 32.79040426 -8.34375 32 C-11.16803617 30.93673933 -13.83958196 30.37645605 -16.8125 29.875 C-17.78832031 29.70742187 -18.76414062 29.53984375 -19.76953125 29.3671875 C-20.50558594 29.24601562 -21.24164063 29.12484375 -22 29 C-22.33 28.01 -22.66 27.02 -23 26 C-26.00847418 24.77479736 -26.00847418 24.77479736 -29 24 C-28.8125 21.6875 -28.8125 21.6875 -28 19 C-25.5 17.3125 -25.5 17.3125 -23 16 C-22.67 15.34 -22.34 14.68 -22 14 C-18.25879194 13.39657934 -14.78319079 13 -11 13 C-9.64560332 15.70879335 -9.93498549 18.00933268 -10 21 C-6.22777911 22.75163456 -3.333361 23.22490027 0.8125 23.125 C1.78832031 23.10695313 2.76414062 23.08890625 3.76953125 23.0703125 C4.50558594 23.04710938 5.24164063 23.02390625 6 23 C6 22.34 6 21.68 6 21 C-0.93 20.505 -0.93 20.505 -8 20 C-8.1953125 13.9453125 -8.1953125 13.9453125 -8 12 C-6 10 -6 10 -3.375 9.875 C-2.59125 9.91625 -1.8075 9.9575 -1 10 C-1.99 10.495 -1.99 10.495 -3 11 C-2.67 13.31 -2.34 15.62 -2 18 C1.3 18.66 4.6 19.32 8 20 C8 21.32 8 22.64 8 24 C6.33657163 25.66342837 4.2174291 25.36048097 1.9375 25.5625 C0.55884766 25.68818359 0.55884766 25.68818359 -0.84765625 25.81640625 C-1.55792969 25.87699219 -2.26820312 25.93757813 -3 26 C-2.06454002 28.59256899 -2.06454002 28.59256899 0 31 C6.22403665 32.44486565 12.63442568 32.10531281 19 32 C18.36578125 31.70480469 17.7315625 31.40960938 17.078125 31.10546875 C14.43213014 29.69791885 13.92145278 28.84114607 13 26 C12.9222654 23.66796188 12.91032272 21.33160941 13 19 C13.66 19 14.32 19 15 19 C15.495 17.515 15.495 17.515 16 16 C22.98942918 15.397463 22.98942918 15.397463 25.8671875 17.11328125 C27.30861002 18.33745588 28.66278229 19.66278229 30 21 C30.66 18.69 31.32 16.38 32 14 C21.71666174 9.36241608 11.0259352 9.56375594 0 11 C0 10.34 0 9.68 0 9 C-0.71027344 8.82984375 -1.42054687 8.6596875 -2.15234375 8.484375 C-3.07144531 8.24203125 -3.99054687 7.9996875 -4.9375 7.75 C-6.31228516 7.40195312 -6.31228516 7.40195312 -7.71484375 7.046875 C-10 6 -10 6 -10.81640625 3.890625 C-10.87699219 3.26671875 -10.93757813 2.6428125 -11 2 C-10.34 2.33 -9.68 2.66 -9 3 C-7.40109202 3.67918215 -5.79607078 4.34403111 -4.1875 5 C-3.33542969 5.350625 -2.48335937 5.70125 -1.60546875 6.0625 C1.57708934 7.20764834 4.6072597 8 8 8 C8 7.01 8 6.02 8 5 C4.73454239 3.11608215 1.71888239 2.50712033 -2 2 C-1.34 1.34 -0.68 0.68 0 0 Z " fill="#B8B8B8" transform="translate(33,38)"/>
<path d="M0 0 C4.875 1.875 4.875 1.875 6 3 C7.75376849 2.8518368 9.50343476 2.65467761 11.25 2.4375 C20.20868701 1.60363653 28.54575268 3.00946774 37 6 C36.01 8.64 35.02 11.28 34 14 C31 13 31 13 29.8125 11.4375 C26.81860452 9.06303117 23.72806308 9.81665264 20 10 C19.67 10.66 19.34 11.32 19 12 C18.34 12 17.68 12 17 12 C17.66 15.63 18.32 19.26 19 23 C20.65 23.33 22.3 23.66 24 24 C23.67 24.66 23.34 25.32 23 26 C19.33145858 26.06069278 15.66867266 26.04833561 12 26 C11.21753906 26.00773437 10.43507813 26.01546875 9.62890625 26.0234375 C7.5625 25.9375 7.5625 25.9375 4 25 C2.09649817 22.75677972 1.19573748 20.74023173 0 18 C3.63 17.67 7.26 17.34 11 17 C11.33 16.01 11.66 15.02 12 14 C11.28972656 13.86722656 10.57945313 13.73445313 9.84765625 13.59765625 C8.92855469 13.42105469 8.00945313 13.24445312 7.0625 13.0625 C6.14597656 12.88847656 5.22945312 12.71445312 4.28515625 12.53515625 C2 12 2 12 1 11 C1.04125 9.865625 1.0825 8.73125 1.125 7.5625 C1.08375 6.386875 1.0425 5.21125 1 4 C0.01 3.34 -0.98 2.68 -2 2 C-1.34 1.34 -0.68 0.68 0 0 Z " fill="#D0D0D0" transform="translate(29,45)"/>
<path d="M0 0 C0.78375 0.04125 1.5675 0.0825 2.375 0.125 C1.385 0.62 1.385 0.62 0.375 1.125 C0.705 3.435 1.035 5.745 1.375 8.125 C4.675 8.785 7.975 9.445 11.375 10.125 C11.375 11.445 11.375 12.765 11.375 14.125 C9.71157163 15.78842837 7.5924291 15.48548097 5.3125 15.6875 C4.39339844 15.77128906 3.47429688 15.85507812 2.52734375 15.94140625 C1.81707031 16.00199219 1.10679688 16.06257813 0.375 16.125 C0.705 18.435 1.035 20.745 1.375 23.125 C-2.54332379 23.125 -4.1202451 22.56043026 -7.625 21.125 C-9.55292077 20.70351125 -11.4915317 20.32823562 -13.4375 20 C-14.41332031 19.83242187 -15.38914062 19.66484375 -16.39453125 19.4921875 C-17.13058594 19.37101562 -17.86664063 19.24984375 -18.625 19.125 C-18.955 18.135 -19.285 17.145 -19.625 16.125 C-22.63347418 14.89979736 -22.63347418 14.89979736 -25.625 14.125 C-25.4375 11.8125 -25.4375 11.8125 -24.625 9.125 C-22.125 7.4375 -22.125 7.4375 -19.625 6.125 C-19.295 5.465 -18.965 4.805 -18.625 4.125 C-14.88379194 3.52157934 -11.40819079 3.125 -7.625 3.125 C-6.27060332 5.83379335 -6.55998549 8.13433268 -6.625 11.125 C-2.85277911 12.87663456 0.041639 13.34990027 4.1875 13.25 C5.16332031 13.23195313 6.13914062 13.21390625 7.14453125 13.1953125 C7.88058594 13.17210937 8.61664063 13.14890625 9.375 13.125 C9.375 12.465 9.375 11.805 9.375 11.125 C2.445 10.63 2.445 10.63 -4.625 10.125 C-4.8203125 4.0703125 -4.8203125 4.0703125 -4.625 2.125 C-2.625 0.125 -2.625 0.125 0 0 Z " fill="#634030" transform="translate(29.625,47.875)"/>
<path d="M0 0 C7.92119565 1.94293478 7.92119565 1.94293478 10 5 C10 5.99 10 6.98 10 8 C10.94746094 7.93039063 10.94746094 7.93039063 11.9140625 7.859375 C22.625247 7.42722346 33.04085179 10.02723453 42 16 C42 16.66 42 17.32 42 18 C42.99 18.33 43.98 18.66 45 19 C46.08338114 23.16685052 46.39117678 25.24773695 44.375 29.125 C39.68845299 34.00846075 31.96386578 36.53400983 25.375 37.30859375 C23.1875 37.3125 23.1875 37.3125 20 37 C20 36.67 20 36.34 20 36 C23.63 35.01 27.26 34.02 31 33 C30.34 31.35 29.68 29.7 29 28 C28.89929248 23.09890053 29.8619321 18.41867367 32 14 C21.71666174 9.36241608 11.0259352 9.56375594 0 11 C0 10.34 0 9.68 0 9 C-0.71027344 8.82984375 -1.42054687 8.6596875 -2.15234375 8.484375 C-3.07144531 8.24203125 -3.99054687 7.9996875 -4.9375 7.75 C-5.85402344 7.51796875 -6.77054688 7.2859375 -7.71484375 7.046875 C-10 6 -10 6 -10.81640625 3.890625 C-10.87699219 3.26671875 -10.93757813 2.6428125 -11 2 C-10.01 2.495 -10.01 2.495 -9 3 C-7.40109202 3.67918215 -5.79607078 4.34403111 -4.1875 5 C-3.33542969 5.350625 -2.48335937 5.70125 -1.60546875 6.0625 C1.57708934 7.20764834 4.6072597 8 8 8 C8 7.01 8 6.02 8 5 C4.73454239 3.11608215 1.71888239 2.50712033 -2 2 C-1.34 1.34 -0.68 0.68 0 0 Z " fill="#9C3842" transform="translate(33,38)"/>
<path d="M0 0 C7.25581395 -0.48372093 7.25581395 -0.48372093 10.5 1.625 C12.44280469 4.70110743 12.52224493 6.41889189 12 10 C11 12.3125 11 12.3125 9 14 C6.30953595 14.81834948 3.80998984 15.16425828 1 15 C-1.22001715 13.49611741 -1.81299258 12.37401485 -3 10 C-3.04022391 7.6670134 -3.04320247 5.33293334 -3 3 C-2.34 3 -1.68 3 -1 3 C-0.67 2.01 -0.34 1.02 0 0 Z " fill="#553336" transform="translate(49,54)"/>
<path d="M0 0 C0.78375 0.04125 1.5675 0.0825 2.375 0.125 C1.385 0.62 1.385 0.62 0.375 1.125 C0.705 3.435 1.035 5.745 1.375 8.125 C4.675 8.785 7.975 9.445 11.375 10.125 C11.375 11.445 11.375 12.765 11.375 14.125 C9.71157163 15.78842837 7.5924291 15.48548097 5.3125 15.6875 C4.39339844 15.77128906 3.47429688 15.85507812 2.52734375 15.94140625 C1.81707031 16.00199219 1.10679688 16.06257813 0.375 16.125 C0.705 18.435 1.035 20.745 1.375 23.125 C-2.625 23.125 -2.625 23.125 -5.625 21.125 C-7.62267079 18.07592353 -7.82516822 15.72802803 -7.625 12.125 C-6.861875 12.29 -6.09875 12.455 -5.3125 12.625 C-0.40354151 13.29062149 4.42935114 13.20420078 9.375 13.125 C9.375 12.465 9.375 11.805 9.375 11.125 C2.445 10.63 2.445 10.63 -4.625 10.125 C-4.8203125 4.0703125 -4.8203125 4.0703125 -4.625 2.125 C-2.625 0.125 -2.625 0.125 0 0 Z " fill="#745558" transform="translate(29.625,47.875)"/>
<path d="M0 0 C2.88029243 0.58667164 5.71184863 1.22998894 8.5625 1.9375 C9.36880859 2.13279297 10.17511719 2.32808594 11.00585938 2.52929688 C13.00517341 3.01433756 15.00275401 3.50651292 17 4 C15.68 4.33 14.36 4.66 13 5 C12.9175 5.61875 12.835 6.2375 12.75 6.875 C12 9 12 9 10.29296875 10.11328125 C5.05058165 12.14057575 -1.08998004 11.82393018 -6.1875 9.625 C-6.785625 9.08875 -7.38375 8.5525 -8 8 C-8 7.34 -8 6.68 -8 6 C-3.05 4.515 -3.05 4.515 2 3 C1.01 2.34 0.02 1.68 -1 1 C-0.67 0.67 -0.34 0.34 0 0 Z " fill="#5E5E5E" transform="translate(31,70)"/>
<path d="M0 0 C0.99 0 1.98 0 3 0 C3 4.29 3 8.58 3 13 C-2 13 -2 13 -3.5625 11.625 C-4.2740625 10.820625 -4.2740625 10.820625 -5 10 C-7.09989652 8.82425289 -7.09989652 8.82425289 -9 8 C-7.63016497 4.83884224 -7.0109362 4.0072908 -4 2 C-2.68 2 -1.36 2 0 2 C0 1.34 0 0.68 0 0 Z " fill="#ECDE58" transform="translate(14,53)"/>
<path d="M0 0 C7.92119565 1.94293478 7.92119565 1.94293478 10 5 C10 5.99 10 6.98 10 8 C10.94746094 7.93039063 10.94746094 7.93039063 11.9140625 7.859375 C20.16673925 7.52641398 27.19472791 9.44761905 35 12 C31.52274955 13.06187003 29.69495535 12.63885639 26.23828125 11.55078125 C17.64246767 9.43558105 8.70004356 9.86672779 0 11 C0 10.34 0 9.68 0 9 C-0.71027344 8.82984375 -1.42054687 8.6596875 -2.15234375 8.484375 C-3.07144531 8.24203125 -3.99054687 7.9996875 -4.9375 7.75 C-5.85402344 7.51796875 -6.77054688 7.2859375 -7.71484375 7.046875 C-10 6 -10 6 -10.81640625 3.890625 C-10.87699219 3.26671875 -10.93757813 2.6428125 -11 2 C-10.01 2.495 -10.01 2.495 -9 3 C-7.40109202 3.67918215 -5.79607078 4.34403111 -4.1875 5 C-3.33542969 5.350625 -2.48335937 5.70125 -1.60546875 6.0625 C1.57708934 7.20764834 4.6072597 8 8 8 C8 7.01 8 6.02 8 5 C4.73454239 3.11608215 1.71888239 2.50712033 -2 2 C-1.34 1.34 -0.68 0.68 0 0 Z " fill="#707070" transform="translate(33,38)"/>
<path d="M0 0 C0 0.33 0 0.66 0 1 C0.928125 1.28875 1.85625 1.5775 2.8125 1.875 C6 3 6 3 9 5 C9 5.99 9 6.98 9 8 C3.84316238 9.35060033 1.5778099 8.57501807 -3 6 C-4.98867713 5.30028027 -6.98608051 4.62335603 -9 4 C-8.67 3.01 -8.34 2.02 -8 1 C-5.07175348 0.02391783 -3.04386724 -0.08226668 0 0 Z " fill="#C5C5C5" transform="translate(32,38)"/>
<path d="M0 0 C2.125 4.625 2.125 4.625 1 8 C-5.75 9.125 -5.75 9.125 -8 8 C-8 5.69 -8 3.38 -8 1 C-5.29120665 -0.35439668 -2.99066732 -0.06501451 0 0 Z " fill="#D0D0D0" transform="translate(57,57)"/>
<path d="M0 0 C0.66 0.33 1.32 0.66 2 1 C1.67 3.31 1.34 5.62 1 8 C1.75925781 7.98839844 2.51851562 7.97679687 3.30078125 7.96484375 C4.29464844 7.95582031 5.28851563 7.94679688 6.3125 7.9375 C7.29863281 7.92589844 8.28476562 7.91429687 9.30078125 7.90234375 C12 8 12 8 15 9 C15 9.66 15 10.32 15 11 C10.57470667 13.21264666 5.03473859 12.29045294 0.4375 11 C-0.366875 10.67 -1.17125 10.34 -2 10 C-2.1953125 3.9453125 -2.1953125 3.9453125 -2 2 C-1.34 1.34 -0.68 0.68 0 0 Z " fill="#C6C6C6" transform="translate(24,50)"/>
<path d="M0 0 C-2.09906755 2.70847425 -3.71305369 4.76413617 -7.1953125 5.40234375 C-11.40299673 5.46483411 -14.29357318 5.0927444 -18 3 C-17 1 -17 1 -13.5 -0.1875 C-8.85094684 -1.27396351 -4.66221677 -0.79862047 0 0 Z " fill="#BDBDBD" transform="translate(43,75)"/>
<path d="M0 0 C0.78375 0.04125 1.5675 0.0825 2.375 0.125 C1.385 0.62 1.385 0.62 0.375 1.125 C0.705 3.435 1.035 5.745 1.375 8.125 C3.025 8.455 4.675 8.785 6.375 9.125 C6.375 9.455 6.375 9.785 6.375 10.125 C2.745 10.125 -0.885 10.125 -4.625 10.125 C-4.8203125 4.0703125 -4.8203125 4.0703125 -4.625 2.125 C-2.625 0.125 -2.625 0.125 0 0 Z " fill="#6C3E43" transform="translate(29.625,47.875)"/>
<path d="M0 0 C0.33 0 0.66 0 1 0 C1.33 2.97 1.66 5.94 2 9 C5.3 8.67 8.6 8.34 12 8 C10 12 10 12 8.125 13.3125 C6 14 6 14 3.9375 14.0625 C0.61186564 12.23876503 0.08828941 9.49398178 -1 6 C-0.6875 2.5625 -0.6875 2.5625 0 0 Z " fill="#9B2D37" transform="translate(64,58)"/>
<path d="M0 0 C0.66 -0.33 1.32 -0.66 2 -1 C3.125 4.75 3.125 4.75 2 7 C2 8.32 2 9.64 2 11 C1.01 10.67 0.02 10.34 -1 10 C-1.33 6.7 -1.66 3.4 -2 0 C-2.99 0 -3.98 0 -5 0 C-5 0.66 -5 1.32 -5 2 C-6.32 1.67 -7.64 1.34 -9 1 C-8 -1 -8 -1 -6.1875 -1.75 C-3.49164615 -2.05809758 -2.34762682 -1.25206764 0 0 Z " fill="#A74F46" transform="translate(19,53)"/>
<path d="M0 0 C3.375 0.3125 3.375 0.3125 7 1 C9.30441554 4.45662331 9.25860135 5.94857881 9 10 C8.67 10.66 8.34 11.32 8 12 C7.01 11.67 6.02 11.34 5 11 C5.185625 10.4225 5.37125 9.845 5.5625 9.25 C6.04023546 6.79307475 5.75729364 5.35602466 5 3 C3.35 2.67 1.7 2.34 0 2 C0 1.34 0 0.68 0 0 Z " fill="#542529" transform="translate(52,54)"/>
<path d="M0 0 C-1 3 -1 3 -3 4 C-4.54023996 4.06950541 -6.08334988 4.08452357 -7.625 4.0625 C-8.85089844 4.04896484 -8.85089844 4.04896484 -10.1015625 4.03515625 C-11.04128906 4.01775391 -11.04128906 4.01775391 -12 4 C-12 3.34 -12 2.68 -12 2 C-7.8803623 0.70756464 -4.33168317 -0.26252625 0 0 Z " fill="#D0D0D0" transform="translate(39,74)"/>
<path d="M0 0 C0.66 0.33 1.32 0.66 2 1 C1.67 3.31 1.34 5.62 1 8 C1.99 8.33 2.98 8.66 4 9 C2.35 9 0.7 9 -1 9 C-1.625 5.625 -1.625 5.625 -2 2 C-1.34 1.34 -0.68 0.68 0 0 Z " fill="#ABABAB" transform="translate(24,50)"/>
<path d="M0 0 C7.92119565 1.94293478 7.92119565 1.94293478 10 5 C10 5.99 10 6.98 10 8 C9.34 8 8.68 8 8 8 C8 7.01 8 6.02 8 5 C4.73454239 3.11608215 1.71888239 2.50712033 -2 2 C-1.34 1.34 -0.68 0.68 0 0 Z " fill="#808080" transform="translate(33,38)"/>
<path d="M0 0 C0.99 0 1.98 0 3 0 C3 0.66 3 1.32 3 2 C3.99 2.33 4.98 2.66 6 3 C3.03 3.66 0.06 4.32 -3 5 C-3 4.34 -3 3.68 -3 3 C-2.34 3 -1.68 3 -1 3 C-0.67 2.01 -0.34 1.02 0 0 Z " fill="#684447" transform="translate(49,54)"/>
<path d="M0 0 C1.98 0.66 3.96 1.32 6 2 C5.34 3.32 4.68 4.64 4 6 C3.01 5.67 2.02 5.34 1 5 C1.66 4.67 2.32 4.34 3 4 C3 3.34 3 2.68 3 2 C2.01 2 1.02 2 0 2 C0 1.34 0 0.68 0 0 Z " fill="#7A7A7A" transform="translate(36,57)"/>
</svg>
