<svg width="323" height="179" viewBox="0 0 323 179" fill="none" xmlns="http://www.w3.org/2000/svg">
<mask id="path-1-inside-1_12_216" fill="white">
<path fill-rule="evenodd" clip-rule="evenodd" d="M1.24394 13.2901C0.0608938 14.9572 1.43096 17.0996 3.47512 17.0996V17.0996C43.3639 17.0996 75.7001 49.4358 75.7001 89.3246C75.7001 129.213 43.3639 161.55 3.47512 161.55V161.55C1.43074 161.55 0.0605051 163.692 1.24365 165.359C6.95094 173.402 16.3377 178.65 26.9501 178.65H291.4C308.797 178.65 322.9 164.547 322.9 147.15V31.5C322.9 14.103 308.797 0 291.4 0H26.9502C16.3379 0 6.95126 5.2479 1.24394 13.2901Z"/>
</mask>
<path fill-rule="evenodd" clip-rule="evenodd" d="M1.24394 13.2901C0.0608938 14.9572 1.43096 17.0996 3.47512 17.0996V17.0996C43.3639 17.0996 75.7001 49.4358 75.7001 89.3246C75.7001 129.213 43.3639 161.55 3.47512 161.55V161.55C1.43074 161.55 0.0605051 163.692 1.24365 165.359C6.95094 173.402 16.3377 178.65 26.9501 178.65H291.4C308.797 178.65 322.9 164.547 322.9 147.15V31.5C322.9 14.103 308.797 0 291.4 0H26.9502C16.3379 0 6.95126 5.2479 1.24394 13.2901Z" fill="#2D2D2D"/>
<path d="M1.24394 13.2901L-1.20259 11.5539L1.24394 13.2901ZM3.47512 20.0996C41.707 20.0996 72.7001 51.0927 72.7001 89.3246H78.7001C78.7001 47.779 45.0207 14.0996 3.47512 14.0996V20.0996ZM72.7001 89.3246C72.7001 127.557 41.707 158.55 3.47512 158.55V164.55C45.0207 164.55 78.7001 130.87 78.7001 89.3246H72.7001ZM26.9501 175.65C17.3508 175.65 8.85906 170.907 3.69021 163.623L-1.20291 167.096C5.04281 175.897 15.3245 181.65 26.9501 181.65V175.65ZM291.4 175.65H26.9501V181.65H291.4V175.65ZM319.9 147.15C319.9 162.89 307.14 175.65 291.4 175.65V181.65C310.454 181.65 325.9 166.204 325.9 147.15H319.9ZM319.9 31.5V147.15H325.9V31.5H319.9ZM291.4 3C307.14 3 319.9 15.7599 319.9 31.5H325.9C325.9 12.4462 310.454 -3 291.4 -3V3ZM26.9502 3H291.4V-3H26.9502V3ZM3.69047 15.0263C8.85936 7.74283 17.351 3 26.9502 3V-3C15.3247 -3 5.04316 2.75296 -1.20259 11.5539L3.69047 15.0263ZM3.47512 158.55C1.37825 158.55 -0.436969 159.656 -1.41765 161.276C-2.42913 162.948 -2.5481 165.2 -1.20291 167.096L3.69021 163.623C3.7405 163.694 3.8029 163.837 3.8054 164.02C3.8077 164.187 3.75929 164.31 3.71578 164.382C3.63553 164.515 3.52761 164.55 3.47512 164.55V158.55ZM3.47512 14.0996C3.52774 14.0996 3.63576 14.1343 3.71607 14.267C3.7596 14.3389 3.80802 14.4625 3.80572 14.6299C3.80321 14.8126 3.74079 14.9554 3.69047 15.0263L-1.20259 11.5539C-2.54775 13.4494 -2.42882 15.7014 -1.41741 17.373C-0.436794 18.9937 1.37834 20.0996 3.47512 20.0996V14.0996Z" fill="#FBCE1F" mask="url(#path-1-inside-1_12_216)"/>
</svg>
