<svg width="74" height="74" viewBox="0 0 74 74" fill="none" xmlns="http://www.w3.org/2000/svg">
<g filter="url(#filter0_d_1094_6986)">
<g clip-path="url(#clip0_1094_6986)">
<rect x="8.5" y="8.5" width="57" height="57" rx="28.5" fill="url(#paint0_linear_1094_6986)"/>
<g filter="url(#filter1_d_1094_6986)">
<path fill-rule="evenodd" clip-rule="evenodd" d="M0.387841 17.9952L2.85481 15.7816C3.94199 14.806 3.30812 13.003 1.84964 12.9224C1.26771 12.8903 0.71242 13.1693 0.390864 13.6553L0.0412622 14.1838C-0.14598 14.4668 -0.213115 14.8127 -0.145376 15.1452L-0.102441 15.356C-0.0145163 15.7876 -0.221651 16.2256 -0.611093 16.4314L-0.67776 16.4666C-1.24859 16.7684 -1.35146 17.5429 -0.87918 17.9832C-0.523647 18.3146 0.0260778 18.3198 0.387841 17.9952ZM-1.03588 14.9676L-1.27723 14.4124C-1.4522 14.0099 -1.95393 13.8714 -2.31057 14.1273C-2.49205 14.2575 -2.59915 14.4675 -2.5979 14.6909L-2.59452 15.2963C-2.5921 15.7284 -2.25208 16.0831 -1.82046 16.1039C-1.21877 16.1327 -0.795741 15.5201 -1.03588 14.9676ZM-4.67044 16.4293L-4.31576 15.9386C-4.05863 15.583 -4.19524 15.0807 -4.59712 14.9043C-4.80163 14.8145 -5.03697 14.8294 -5.22849 14.9443L-5.74763 15.2558C-6.11817 15.4782 -6.25006 15.9515 -6.04788 16.3334C-5.76603 16.8658 -5.02334 16.9175 -4.67044 16.4293ZM12.6843 41.7743V41.6121C12.6843 40.3323 13.2884 39.1275 14.314 38.3618L14.7311 38.0503C15.9334 37.1527 17.4703 36.8307 18.9318 37.1703L19.3006 37.256L22.7496 38.0539C22.8618 38.0798 22.9778 38.0844 23.0916 38.0674L23.7532 37.9685C24.3142 37.8847 24.4949 37.1652 24.0401 36.8262C23.8786 36.7058 23.7835 36.5162 23.7835 36.3147V36.2706C23.7835 35.931 24.0189 35.6368 24.3503 35.5623L25.1971 35.372C25.7163 35.2553 26.0078 34.7017 25.8102 34.2076C25.6789 33.8795 25.3611 33.6643 25.0076 33.6643H24.6296C24.1081 33.6643 23.6285 33.9495 23.3795 34.4077L23.1566 34.8177C23.1245 34.8768 23.0881 34.9335 23.0477 34.9874C22.4577 35.7741 21.2585 35.7122 20.7526 34.869L20.666 34.7248C20.2967 34.1091 19.5424 33.8422 18.868 34.0884L16.8856 34.8121C16.7142 34.8747 16.5527 34.9619 16.4063 35.0708L15.2213 35.9527C14.7705 36.2882 14.1236 36.0831 13.9484 35.5492C13.8259 35.1758 13.9846 34.7678 14.3274 34.5754L14.6908 34.3714C15.0527 34.1682 15.2768 33.7854 15.2768 33.3702C15.2768 33.0111 15.4449 32.6726 15.731 32.4555L17.4147 31.1783C17.5538 31.0728 17.6661 30.9359 17.7425 30.7789C17.9611 30.3296 18.4525 30.0813 18.9439 30.172L19.7543 30.3214C20.4327 30.4466 21.114 30.1175 21.4376 29.5083L21.6032 29.1966C21.7346 28.9493 21.7407 28.6543 21.6198 28.4017C21.3127 27.7604 20.412 27.7273 20.0586 28.3442L19.762 28.8621C19.5295 29.2679 18.975 29.3419 18.6443 29.0112L18.6042 28.9711C18.4968 28.8637 18.3511 28.8033 18.1992 28.8033C17.8828 28.8033 17.6263 28.5468 17.6263 28.2305V27.3532C17.6263 27.0494 17.7217 26.7533 17.899 26.5066L19.3317 24.5138C20.0986 23.4472 21.4293 22.9431 22.7104 23.2338L24.043 23.5363C24.2691 23.5876 24.455 23.7478 24.539 23.9639L24.5481 23.9873C24.6791 24.324 24.5202 24.704 24.1886 24.8474L24.0095 24.9248C23.8723 24.9842 23.7835 25.1194 23.7835 25.2689C23.7835 25.4759 23.9513 25.6437 24.1583 25.6437H24.5973C24.9872 25.6437 25.3223 25.3673 25.3964 24.9845L25.4581 24.6657C25.5413 24.2358 25.8507 23.8847 26.2667 23.7481L28.4618 23.027C28.9743 22.8587 29.3546 22.4249 29.4545 21.8948C29.5683 21.2905 30.044 20.8195 30.6495 20.7117L30.8799 20.6706C31.3509 20.5868 31.7699 20.3207 32.0462 19.93L34.2574 16.8032C34.752 16.1038 35.6139 15.7639 36.4527 15.9375L36.6338 15.975C37.1336 16.0784 37.5635 16.3947 37.8108 16.8412C38.2251 17.5889 39.1186 17.9283 39.9248 17.6442L40.5741 17.4154C41.0736 17.2394 41.6259 17.2986 42.0767 17.5766C42.6342 17.9204 43.3369 17.9247 43.8985 17.5877L44.7014 17.1059C45.3382 16.7239 46.0855 16.5683 46.8218 16.6645L49.1813 16.9729C50.0026 17.0802 50.8376 16.9566 51.5926 16.6159C52.2873 16.3025 53.0508 16.1723 53.8101 16.2379L56.4533 16.4664C56.8067 16.4969 57.1147 16.7189 57.2555 17.0444C57.3828 17.3387 57.3554 17.677 57.1826 17.9471L56.9841 18.2573C56.7359 18.6451 56.6602 19.1187 56.7753 19.5645L56.8792 19.9673C56.9765 20.3441 56.9883 20.738 56.9137 21.12L56.7077 22.1758C56.6376 22.5352 56.386 22.8325 56.0431 22.9611C55.6024 23.1263 55.3246 23.5637 55.3624 24.0328L55.6483 27.5863C55.6643 27.7855 55.5245 27.9635 55.3271 27.9951C55.14 28.025 54.9591 27.9136 54.9017 27.733L54.2933 25.8191C53.9615 24.7752 52.8821 24.1626 51.8157 24.4129C51.3273 24.5275 50.8963 24.8134 50.6006 25.2186L50.3608 25.5474C49.7486 26.3867 49.5828 27.4712 49.9161 28.4551L50.6199 30.5324C50.8907 31.3317 50.7058 32.2151 50.1372 32.8387L49.7289 33.2865C49.5113 33.5252 49.4142 33.8501 49.4652 34.1691L49.5072 34.4312C49.6044 35.0386 49.0631 35.5552 48.4608 35.4297C47.8331 35.299 47.2814 35.8631 47.4261 36.4878L47.8449 38.2951C48.0262 39.0778 47.7371 39.8946 47.1036 40.3887L46.3552 40.9727C45.9321 41.3028 45.6847 41.8095 45.6847 42.3462V43.3068C45.6847 43.7384 45.3349 44.0883 44.9033 44.0883H44.3531C44.1242 44.0883 43.9562 44.3035 44.0117 44.5256C44.1052 44.8995 43.6162 45.13 43.3872 44.82L41.4073 42.1395C41.1286 41.7622 40.6272 41.6258 40.1958 41.8098L39.536 42.0914C39.1288 42.2651 38.7942 42.5742 38.5888 42.9663L37.6195 44.8169C37.5274 44.9927 37.2836 45.0124 37.1644 44.8538L34.9807 41.9478C34.2883 41.0265 33.3003 40.3711 32.1821 40.0915L30.9394 39.685C30.4825 39.5356 30.1209 40.0852 30.439 40.4456C30.4843 40.497 30.5403 40.5379 30.6031 40.5654L30.6441 40.5834C31.0963 40.782 31.1891 41.3832 30.8177 41.7088L30.2342 42.2203C29.8771 42.5334 29.366 42.5992 28.9412 42.3868L28.4381 42.1353C27.6131 41.7228 26.7031 42.5184 27.0016 43.3911C27.1443 43.8081 27.5363 44.0883 27.9771 44.0883H28.0053C28.7777 44.0883 29.2958 44.8814 28.9856 45.5887L27.7281 48.4558C27.655 48.6224 27.5966 48.7951 27.5537 48.972L26.9774 51.3449C26.7946 52.0975 26.4522 52.8019 25.9732 53.4105L23.6781 56.3269C23.3183 56.784 22.7688 57.0508 22.1872 57.0508C21.6714 57.0508 21.1779 56.8409 20.8203 56.4693L20.3122 55.9414C19.6632 55.2671 19.3006 54.3676 19.3006 53.4316V50.6776L19.0148 48.3552C18.9206 47.5903 18.5461 46.8875 17.9638 46.3828C17.4973 45.9785 16.9212 45.722 16.3086 45.6459L16.0795 45.6174C14.1402 45.3764 12.6843 43.7284 12.6843 41.7743ZM-2.42681 19.2939L-2.84045 19.8669C-3.25236 20.4375 -4.12025 20.3771 -4.44916 19.7549C-4.68474 19.3093 -4.53094 18.7573 -4.09889 18.4977L-3.49313 18.1337C-3.26934 17.9993 -2.99422 17.9818 -2.75523 18.0869C-2.28652 18.2929 -2.12713 18.8787 -2.42681 19.2939ZM-1.3319 20.2077L-1.74913 20.5013C-1.92738 20.6268 -2.03345 20.8311 -2.03345 21.0491C-2.03345 21.2855 -1.90873 21.5045 -1.70532 21.6251L-0.675519 22.2358C-0.077598 22.5904 0.289006 23.234 0.289006 23.9292V24.0434C0.289006 24.3474 0.376673 24.645 0.541506 24.9005L0.778605 25.268C1.10807 25.7787 1.78286 25.9366 2.30473 25.6252C2.74106 25.3648 2.94948 24.8448 2.81378 24.3551L2.11989 21.8511C1.91844 21.1241 1.39859 20.5275 0.706042 20.2285L0.27434 20.042C-0.253446 19.8141 -0.861747 19.8769 -1.3319 20.2077ZM8.11764 14.1162L4.03891 16.5086C3.68996 16.7133 3.47559 17.0875 3.47559 17.4921C3.47559 17.7837 3.58732 18.0642 3.78782 18.276L4.4999 19.0281C5.36131 19.9379 5.71001 21.2185 5.42874 22.4395L4.83081 25.035C4.74249 25.4184 4.83621 25.8211 5.08474 26.1261C5.52514 26.6666 6.31811 26.7529 6.86446 26.3198L9.57994 24.1671C10.5495 23.3985 11.1838 22.2843 11.3497 21.0582L11.4763 20.1229C11.5432 19.6283 11.6784 19.1454 11.8779 18.688L12.3849 17.5256C12.5808 17.0764 12.6507 16.5822 12.5869 16.0963C12.4355 14.9436 11.5625 14.0177 10.4207 13.7989L10.2029 13.7571C9.48724 13.62 8.74615 13.7476 8.11764 14.1162ZM-22.5436 24.9821C-22.9171 22.9789 -22.5874 18.838 -18.5789 17.0723C-18.4956 17.0357 -18.4124 16.997 -18.3289 16.9582C-17.9777 16.795 -17.6215 16.6295 -17.2402 16.6019C-16.4505 16.5449 -15.2217 16.9733 -13.8135 18.7628C-13.7624 18.8279 -13.7138 18.8908 -13.6669 18.9515C-13.3301 19.3876 -13.0769 19.7156 -12.5355 19.9597C-11.5061 20.4239 -10.8181 19.4984 -10.1268 18.5686C-9.43752 17.6413 -8.74503 16.7098 -7.70764 17.1479C-7.41751 17.2704 -7.05924 17.5135 -6.62025 17.9092C-6.16056 18.3236 -5.82943 18.8626 -5.59576 19.4356L-5.10061 20.6499C-4.91784 21.0981 -4.56416 21.4551 -4.11768 21.6421C-2.93435 22.1377 -2.62059 23.6687 -3.5136 24.5898L-4.64277 25.7545C-5.35889 26.4932 -5.32541 27.6768 -4.56869 28.3738L-4.1362 28.7722C-3.48971 29.3676 -2.45704 29.2049 -2.02497 28.4395C-1.53654 27.5743 -0.316455 27.5052 0.266585 28.3097L1.20771 29.6083C1.93948 30.618 1.77307 32.0204 0.825324 32.8309L-4.70607 37.5609C-4.98093 37.796 -5.13918 38.1395 -5.13918 38.5011C-5.13918 39.3781 -6.02629 39.9766 -6.83944 39.6483L-7.40962 39.4181C-8.40313 39.017 -9.48702 39.7483 -9.48702 40.8197C-9.48702 41.3412 -9.21826 41.8258 -8.77593 42.1019L-6.20987 43.7039C-5.32155 44.2584 -4.24051 44.4125 -3.23262 44.1282C-2.22786 43.8448 -1.15024 43.9971 -0.263294 44.5477L4.87442 47.7371C6.14407 48.5253 6.5322 50.1948 5.74045 51.4623L0.873805 59.2528C0.611132 59.6733 0.407607 60.128 0.268961 60.604L-0.110343 61.9063C-0.25505 62.4031 -0.249906 62.9316 -0.0955576 63.4255L0.361037 64.8866C0.430644 65.1093 0.348074 65.3515 0.156899 65.4853C-0.104257 65.6681 -0.466297 65.5838 -0.619861 65.3045L-2.39542 62.0745C-2.70724 61.5072 -2.87073 60.8704 -2.87073 60.2231V54.5857C-2.87073 53.419 -3.3533 52.3042 -4.20399 51.5058L-4.71708 51.0242C-5.48148 50.3067 -5.81303 49.2406 -5.59032 48.2162C-5.32029 46.974 -5.86727 45.6972 -6.95279 45.0358L-10.5266 42.8583C-10.8021 42.6904 -11.0357 42.4619 -11.2097 42.1902L-13.7645 38.1996C-13.9215 37.9544 -14.2983 38.0329 -14.3443 38.3204C-14.396 38.643 -14.843 38.6859 -14.9549 38.3789L-16.0027 35.5066C-16.0686 35.3258 -16.0865 35.131 -16.0546 34.9412L-15.4951 31.6181C-15.3109 30.5244 -15.4679 29.4006 -15.9447 28.3992L-17.3696 25.407C-17.7014 24.7104 -18.4041 24.2666 -19.1757 24.2666H-19.2428C-19.6243 24.2666 -19.996 24.3882 -20.3038 24.6137L-21.4082 25.4227C-21.7868 25.7 -22.3251 25.5487 -22.5038 25.1148C-22.5216 25.0716 -22.535 25.0281 -22.5436 24.9821ZM46.547 46.398L46.364 46.6136C45.9977 47.045 46.0312 47.6872 46.4403 48.0781L46.6177 48.2476C46.8079 48.4294 47.0831 48.4911 47.3327 48.4079C47.6225 48.3112 47.8181 48.0399 47.8181 47.7344V46.8649C47.8181 46.6009 47.6739 46.3581 47.4422 46.2317C47.1421 46.068 46.7683 46.1374 46.547 46.398ZM46.3598 55.315V55.9222C46.3598 57.0818 47.2999 58.022 48.4596 58.022C48.6963 58.022 48.9314 57.9819 49.1548 57.9035L49.4949 57.7842C50.0501 57.5894 50.6573 57.6046 51.202 57.8269C51.517 57.9555 51.8011 58.1493 52.0357 58.3957L53.0011 59.4092C53.1976 59.6156 53.4405 59.7722 53.7097 59.866C54.5099 60.1449 55.3962 59.8256 55.8347 59.1003L56.2096 58.4803C56.3926 58.1777 56.514 57.842 56.567 57.4924L56.7951 55.9868C56.8578 55.573 56.781 55.1502 56.5768 54.7849L55.0182 51.9967C54.8066 51.6182 54.2453 51.6743 54.1128 52.0873C54.047 52.2926 53.856 52.4319 53.6404 52.4319H53.5073C53.2345 52.4319 52.9882 52.2684 52.8821 52.017L52.7897 51.7981C52.5455 51.2191 51.8465 50.9888 51.3059 51.3092L49.7346 52.2403C49.5202 52.3674 49.2889 52.4633 49.0474 52.5253L48.3939 52.693C47.1968 53.0002 46.3598 54.0791 46.3598 55.315ZM42.8489 47.2949L43.6892 48.6178C43.7883 48.7739 43.9604 48.8684 44.1452 48.8684C44.4436 48.8684 44.6855 48.6265 44.6855 48.3281V48.2798C44.6855 48.137 44.6336 47.9991 44.5394 47.8917L43.5531 46.7673C43.424 46.6201 43.2132 46.5756 43.0356 46.6581C42.7938 46.7704 42.706 47.0698 42.8489 47.2949ZM27.7932 53.1235L28.649 51.8106C28.7946 51.5873 29.1035 51.5431 29.3059 51.7167C29.4546 51.8442 29.5014 52.0544 29.4209 52.2329L28.8063 53.5965C28.7476 53.7267 28.6436 53.8311 28.5136 53.8903L28.4696 53.9103C28.198 54.0339 27.8777 53.914 27.754 53.6424C27.6774 53.4742 27.6922 53.2784 27.7932 53.1235ZM53.8496 49.5288L53.959 49.6292C54.1259 49.7824 54.3441 49.8674 54.5707 49.8674H55.0899C55.3163 49.8674 55.5398 49.9176 55.7445 50.0143L56.5685 50.4038C56.7707 50.4994 57.0124 50.4346 57.1397 50.2507C57.2854 50.0403 57.2299 49.7511 57.0165 49.6096L54.8903 48.1992C54.7516 48.1071 54.5887 48.058 54.4222 48.058C53.6501 48.058 53.2807 49.0067 53.8496 49.5288ZM60.0777 62.8421L58.8329 63.8954C58.6907 64.0158 58.6441 64.2152 58.7184 64.3861C58.8017 64.5776 59.0126 64.6795 59.2144 64.6257L59.5999 64.5229C59.8973 64.4436 60.1322 64.2155 60.2203 63.9206L60.4665 63.0964C60.5355 62.8655 60.2617 62.6864 60.0777 62.8421ZM61.11 61.4696L61.584 59.9093C61.654 59.6787 61.9812 59.6806 62.0485 59.912L62.289 60.7378C62.3751 61.0333 62.3015 61.3524 62.0947 61.5804L61.8267 61.8759C61.6864 62.0307 61.454 62.0595 61.2801 61.9438C61.125 61.8406 61.0558 61.6479 61.11 61.4696Z" fill="#A7CF75"/>
</g>
<g filter="url(#filter2_d_1094_6986)">
<path fill-rule="evenodd" clip-rule="evenodd" d="M85.8878 17.9952L88.3548 15.7816C89.442 14.806 88.8081 13.003 87.3496 12.9224C86.7677 12.8903 86.2124 13.1693 85.8909 13.6553L85.5413 14.1838C85.354 14.4668 85.2869 14.8127 85.3546 15.1452L85.3976 15.356C85.4855 15.7876 85.2783 16.2256 84.8889 16.4314L84.8222 16.4666C84.2514 16.7684 84.1485 17.5429 84.6208 17.9832C84.9764 18.3146 85.5261 18.3198 85.8878 17.9952ZM84.4641 14.9676L84.2228 14.4124C84.0478 14.0099 83.5461 13.8714 83.1894 14.1273C83.008 14.2575 82.9009 14.4675 82.9021 14.6909L82.9055 15.2963C82.9079 15.7284 83.2479 16.0831 83.6795 16.1039C84.2812 16.1327 84.7043 15.5201 84.4641 14.9676ZM80.8296 16.4293L81.1842 15.9386C81.4414 15.583 81.3048 15.0807 80.9029 14.9043C80.6984 14.8145 80.463 14.8294 80.2715 14.9443L79.7524 15.2558C79.3818 15.4782 79.2499 15.9515 79.4521 16.3334C79.734 16.8658 80.4767 16.9175 80.8296 16.4293ZM98.1843 41.7743V41.6121C98.1843 40.3323 98.7884 39.1275 99.814 38.3618L100.231 38.0503C101.433 37.1527 102.97 36.8307 104.432 37.1703L104.801 37.256L108.25 38.0539C108.362 38.0798 108.478 38.0844 108.592 38.0674L109.253 37.9685C109.814 37.8847 109.995 37.1652 109.54 36.8262C109.379 36.7058 109.283 36.5162 109.283 36.3147V36.2706C109.283 35.931 109.519 35.6368 109.85 35.5623L110.697 35.372C111.216 35.2553 111.508 34.7017 111.31 34.2076C111.179 33.8795 110.861 33.6643 110.508 33.6643H110.13C109.608 33.6643 109.128 33.9495 108.879 34.4077L108.657 34.8177C108.624 34.8768 108.588 34.9335 108.548 34.9874C107.958 35.7741 106.759 35.7122 106.253 34.869L106.166 34.7248C105.797 34.1091 105.042 33.8422 104.368 34.0884L102.386 34.8121C102.214 34.8747 102.053 34.9619 101.906 35.0708L100.721 35.9527C100.271 36.2882 99.6236 36.0831 99.4484 35.5492C99.3259 35.1758 99.4846 34.7678 99.8274 34.5754L100.191 34.3714C100.553 34.1682 100.777 33.7854 100.777 33.3702C100.777 33.0111 100.945 32.6726 101.231 32.4555L102.915 31.1783C103.054 31.0728 103.166 30.9359 103.242 30.7789C103.461 30.3296 103.953 30.0813 104.444 30.172L105.254 30.3214C105.933 30.4466 106.614 30.1175 106.938 29.5083L107.103 29.1966C107.235 28.9493 107.241 28.6543 107.12 28.4017C106.813 27.7604 105.912 27.7273 105.559 28.3442L105.262 28.8621C105.03 29.2679 104.475 29.3419 104.144 29.0112L104.104 28.9711C103.997 28.8637 103.851 28.8033 103.699 28.8033C103.383 28.8033 103.126 28.5468 103.126 28.2305V27.3532C103.126 27.0494 103.222 26.7533 103.399 26.5066L104.832 24.5138C105.599 23.4472 106.929 22.9431 108.21 23.2338L109.543 23.5363C109.769 23.5876 109.955 23.7478 110.039 23.9639L110.048 23.9873C110.179 24.324 110.02 24.704 109.689 24.8474L109.51 24.9248C109.372 24.9842 109.283 25.1194 109.283 25.2689C109.283 25.4759 109.451 25.6437 109.658 25.6437H110.097C110.487 25.6437 110.822 25.3673 110.896 24.9845L110.958 24.6657C111.041 24.2358 111.351 23.8847 111.767 23.7481L113.962 23.027C114.474 22.8587 114.855 22.4249 114.954 21.8948C115.068 21.2905 115.544 20.8195 116.15 20.7117L116.38 20.6706C116.851 20.5868 117.27 20.3207 117.546 19.93L119.757 16.8032C120.252 16.1038 121.114 15.7639 121.953 15.9375L122.134 15.975C122.634 16.0784 123.063 16.3947 123.311 16.8412C123.725 17.5889 124.619 17.9283 125.425 17.6442L126.074 17.4154C126.574 17.2394 127.126 17.2986 127.577 17.5766C128.134 17.9204 128.837 17.9247 129.399 17.5877L130.201 17.1059C130.838 16.7239 131.585 16.5683 132.322 16.6645L134.681 16.9729C135.503 17.0802 136.338 16.9566 137.093 16.6159C137.787 16.3025 138.551 16.1723 139.31 16.2379L141.953 16.4664C142.307 16.4969 142.615 16.7189 142.755 17.0444C142.883 17.3387 142.855 17.677 142.683 17.9471L142.484 18.2573C142.236 18.6451 142.16 19.1187 142.275 19.5645L142.379 19.9673C142.476 20.3441 142.488 20.738 142.414 21.12L142.208 22.1758C142.138 22.5352 141.886 22.8325 141.543 22.9611C141.102 23.1263 140.825 23.5637 140.862 24.0328L141.148 27.5863C141.164 27.7855 141.024 27.9635 140.827 27.9951C140.64 28.025 140.459 27.9136 140.402 27.733L139.793 25.8191C139.461 24.7752 138.382 24.1626 137.316 24.4129C136.827 24.5275 136.396 24.8134 136.101 25.2186L135.861 25.5474C135.249 26.3867 135.083 27.4712 135.416 28.4551L136.12 30.5324C136.391 31.3317 136.206 32.2151 135.637 32.8387L135.229 33.2865C135.011 33.5252 134.914 33.8501 134.965 34.1691L135.007 34.4312C135.104 35.0386 134.563 35.5552 133.961 35.4297C133.333 35.299 132.781 35.8631 132.926 36.4878L133.345 38.2951C133.526 39.0778 133.237 39.8946 132.604 40.3887L131.855 40.9727C131.432 41.3028 131.185 41.8095 131.185 42.3462V43.3068C131.185 43.7384 130.835 44.0883 130.403 44.0883H129.853C129.624 44.0883 129.456 44.3035 129.512 44.5256C129.605 44.8995 129.116 45.13 128.887 44.82L126.907 42.1395C126.629 41.7622 126.127 41.6258 125.696 41.8098L125.036 42.0914C124.629 42.2651 124.294 42.5742 124.089 42.9663L123.119 44.8169C123.027 44.9927 122.784 45.0124 122.664 44.8538L120.481 41.9478C119.788 41.0265 118.8 40.3711 117.682 40.0915L116.439 39.685C115.983 39.5356 115.621 40.0852 115.939 40.4456C115.984 40.497 116.04 40.5379 116.103 40.5654L116.144 40.5834C116.596 40.782 116.689 41.3832 116.318 41.7088L115.734 42.2203C115.377 42.5334 114.866 42.5992 114.441 42.3868L113.938 42.1353C113.113 41.7228 112.203 42.5184 112.502 43.3911C112.644 43.8081 113.036 44.0883 113.477 44.0883H113.505C114.278 44.0883 114.796 44.8814 114.486 45.5887L113.228 48.4558C113.155 48.6224 113.097 48.7951 113.054 48.972L112.477 51.3449C112.295 52.0975 111.952 52.8019 111.473 53.4105L109.178 56.3269C108.818 56.784 108.269 57.0508 107.687 57.0508C107.171 57.0508 106.678 56.8409 106.32 56.4693L105.812 55.9414C105.163 55.2671 104.801 54.3676 104.801 53.4316V50.6776L104.515 48.3552C104.421 47.5903 104.046 46.8875 103.464 46.3828C102.997 45.9785 102.421 45.722 101.809 45.6459L101.579 45.6174C99.6402 45.3764 98.1843 43.7284 98.1843 41.7743ZM83.0732 19.2939L82.6596 19.8669C82.2476 20.4375 81.3798 20.3771 81.0508 19.7549C80.8153 19.3093 80.9691 18.7573 81.4011 18.4977L82.0069 18.1337C82.2307 17.9993 82.5058 17.9818 82.7448 18.0869C83.2135 18.2929 83.3729 18.8787 83.0732 19.2939ZM84.1681 20.2077L83.7509 20.5013C83.5726 20.6268 83.4666 20.8311 83.4666 21.0491C83.4666 21.2855 83.5913 21.5045 83.7947 21.6251L84.8245 22.2358C85.4224 22.5904 85.789 23.234 85.789 23.9292V24.0434C85.789 24.3474 85.8767 24.645 86.0415 24.9005L86.2786 25.268C86.6081 25.7787 87.2829 25.9366 87.8047 25.6252C88.2411 25.3648 88.4495 24.8448 88.3138 24.3551L87.6199 21.8511C87.4184 21.1241 86.8986 20.5275 86.206 20.2285L85.7743 20.042C85.2466 19.8141 84.6383 19.8769 84.1681 20.2077ZM93.6176 14.1162L89.5389 16.5086C89.19 16.7133 88.9756 17.0875 88.9756 17.4921C88.9756 17.7837 89.0873 18.0642 89.2878 18.276L89.9999 19.0281C90.8613 19.9379 91.21 21.2185 90.9287 22.4395L90.3308 25.035C90.2425 25.4184 90.3362 25.8211 90.5847 26.1261C91.0251 26.6666 91.8181 26.7529 92.3645 26.3198L95.0799 24.1671C96.0495 23.3985 96.6838 22.2843 96.8497 21.0582L96.9763 20.1229C97.0432 19.6283 97.1784 19.1454 97.3779 18.688L97.8849 17.5256C98.0808 17.0764 98.1507 16.5822 98.0869 16.0963C97.9355 14.9436 97.0625 14.0177 95.9207 13.7989L95.7029 13.7571C94.9872 13.62 94.2462 13.7476 93.6176 14.1162ZM62.9564 24.9821C62.5829 22.9789 62.9126 18.838 66.9211 17.0723C67.0044 17.0357 67.0876 16.997 67.1711 16.9582C67.5223 16.795 67.8785 16.6295 68.2598 16.6019C69.0495 16.5449 70.2783 16.9733 71.6865 18.7628C71.7376 18.8279 71.7862 18.8908 71.8331 18.9515C72.1699 19.3876 72.4231 19.7156 72.9645 19.9597C73.9939 20.4239 74.6819 19.4984 75.3732 18.5686C76.0625 17.6413 76.755 16.7098 77.7924 17.1479C78.0825 17.2704 78.4408 17.5135 78.8798 17.9092C79.3394 18.3236 79.6706 18.8626 79.9042 19.4356L80.3994 20.6499C80.5822 21.0981 80.9358 21.4551 81.3823 21.6421C82.5657 22.1377 82.8794 23.6687 81.9864 24.5898L80.8572 25.7545C80.1411 26.4932 80.1746 27.6768 80.9313 28.3738L81.3638 28.7722C82.0103 29.3676 83.043 29.2049 83.475 28.4395C83.9635 27.5743 85.1835 27.5052 85.7666 28.3097L86.7077 29.6083C87.4395 30.618 87.2731 32.0204 86.3253 32.8309L80.7939 37.5609C80.5191 37.796 80.3608 38.1395 80.3608 38.5011C80.3608 39.3781 79.4737 39.9766 78.6606 39.6483L78.0904 39.4181C77.0969 39.017 76.013 39.7483 76.013 40.8197C76.013 41.3412 76.2817 41.8258 76.7241 42.1019L79.2901 43.7039C80.1784 44.2584 81.2595 44.4125 82.2674 44.1282C83.2721 43.8448 84.3498 43.9971 85.2367 44.5477L90.3744 47.7371C91.6441 48.5253 92.0322 50.1948 91.2405 51.4623L86.3738 59.2528C86.1111 59.6733 85.9076 60.128 85.769 60.604L85.3897 61.9063C85.2449 62.4031 85.2501 62.9316 85.4044 63.4255L85.861 64.8866C85.9306 65.1093 85.8481 65.3515 85.6569 65.4853C85.3957 65.6681 85.0337 65.5838 84.8801 65.3045L83.1046 62.0745C82.7928 61.5072 82.6293 60.8704 82.6293 60.2231V54.5857C82.6293 53.419 82.1467 52.3042 81.296 51.5058L80.7829 51.0242C80.0185 50.3067 79.687 49.2406 79.9097 48.2162C80.1797 46.974 79.6327 45.6972 78.5472 45.0358L74.9734 42.8583C74.6979 42.6904 74.4643 42.4619 74.2903 42.1902L71.7355 38.1996C71.5785 37.9544 71.2017 38.0329 71.1557 38.3204C71.104 38.643 70.657 38.6859 70.5451 38.3789L69.4973 35.5066C69.4314 35.3258 69.4135 35.131 69.4454 34.9412L70.0049 31.6181C70.1891 30.5244 70.0321 29.4006 69.5553 28.3992L68.1304 25.407C67.7986 24.7104 67.0959 24.2666 66.3243 24.2666H66.2572C65.8757 24.2666 65.504 24.3882 65.1962 24.6137L64.0918 25.4227C63.7132 25.7 63.1749 25.5487 62.9962 25.1148C62.9784 25.0716 62.965 25.0281 62.9564 24.9821ZM132.047 46.398L131.864 46.6136C131.498 47.045 131.531 47.6872 131.94 48.0781L132.118 48.2476C132.308 48.4294 132.583 48.4911 132.833 48.4079C133.123 48.3112 133.318 48.0399 133.318 47.7344V46.8649C133.318 46.6009 133.174 46.3581 132.942 46.2317C132.642 46.068 132.268 46.1374 132.047 46.398ZM131.86 55.315V55.9222C131.86 57.0818 132.8 58.022 133.96 58.022C134.196 58.022 134.431 57.9819 134.655 57.9035L134.995 57.7842C135.55 57.5894 136.157 57.6046 136.702 57.8269C137.017 57.9555 137.301 58.1493 137.536 58.3957L138.501 59.4092C138.698 59.6156 138.941 59.7722 139.21 59.866C140.01 60.1449 140.896 59.8256 141.335 59.1003L141.71 58.4803C141.893 58.1777 142.014 57.842 142.067 57.4924L142.295 55.9868C142.358 55.573 142.281 55.1502 142.077 54.7849L140.518 51.9967C140.307 51.6182 139.745 51.6743 139.613 52.0873C139.547 52.2926 139.356 52.4319 139.14 52.4319H139.007C138.734 52.4319 138.488 52.2684 138.382 52.017L138.29 51.7981C138.045 51.2191 137.347 50.9888 136.806 51.3092L135.235 52.2403C135.02 52.3674 134.789 52.4633 134.547 52.5253L133.894 52.693C132.697 53.0002 131.86 54.0791 131.86 55.315ZM128.349 47.2949L129.189 48.6178C129.288 48.7739 129.46 48.8684 129.645 48.8684C129.944 48.8684 130.186 48.6265 130.186 48.3281V48.2798C130.186 48.137 130.134 47.9991 130.039 47.8917L129.053 46.7673C128.924 46.6201 128.713 46.5756 128.536 46.6581C128.294 46.7704 128.206 47.0698 128.349 47.2949ZM113.293 53.1235L114.149 51.8106C114.295 51.5873 114.604 51.5431 114.806 51.7167C114.955 51.8442 115.001 52.0544 114.921 52.2329L114.306 53.5965C114.248 53.7267 114.144 53.8311 114.014 53.8903L113.97 53.9103C113.698 54.0339 113.378 53.914 113.254 53.6424C113.177 53.4742 113.192 53.2784 113.293 53.1235ZM139.35 49.5288L139.459 49.6292C139.626 49.7824 139.844 49.8674 140.071 49.8674H140.59C140.816 49.8674 141.04 49.9176 141.245 50.0143L142.068 50.4038C142.271 50.4994 142.512 50.4346 142.64 50.2507C142.785 50.0403 142.73 49.7511 142.517 49.6096L140.39 48.1992C140.252 48.1071 140.089 48.058 139.922 48.058C139.15 48.058 138.781 49.0067 139.35 49.5288ZM145.578 62.8421L144.333 63.8954C144.191 64.0158 144.144 64.2152 144.218 64.3861C144.302 64.5776 144.513 64.6795 144.714 64.6257L145.1 64.5229C145.397 64.4436 145.632 64.2155 145.72 63.9206L145.967 63.0964C146.035 62.8655 145.762 62.6864 145.578 62.8421ZM146.61 61.4696L147.084 59.9093C147.154 59.6787 147.481 59.6806 147.549 59.912L147.789 60.7378C147.875 61.0333 147.802 61.3524 147.595 61.5804L147.327 61.8759C147.186 62.0307 146.954 62.0595 146.78 61.9438C146.625 61.8406 146.556 61.6479 146.61 61.4696Z" fill="#A7CF75"/>
</g>
<g opacity="0.6" filter="url(#filter3_f_1094_6986)">
<path d="M51.2041 10.4181L50.9698 10.7255C50.4045 11.4671 49.4348 11.7745 48.5455 11.494C48.3303 11.4261 48.1059 11.3915 47.8802 11.3915H45.9481C45.3515 11.3915 44.7909 11.6772 44.4402 12.1599C43.8341 12.9941 44.0205 14.1619 44.8561 14.766L45.8726 15.5008C46.5466 15.988 47.3874 16.1855 48.2078 16.0493L49.9213 15.7648C50.2123 15.7165 50.4973 15.6376 50.7717 15.5295C52.2839 14.9332 54.0046 15.2658 55.1857 16.3827L56.767 17.878C57.0518 18.1474 57.3607 18.3902 57.6898 18.6032C60.5546 20.4582 64.3695 19.7511 66.3792 16.9927L67.3267 15.6922C67.8545 14.9678 68.0439 14.0508 67.8463 13.1765L67.5131 11.7027C67.2923 10.7256 66.2845 10.145 65.3284 10.4441C64.9751 10.5546 64.6671 10.7764 64.4504 11.0764L64.352 11.2126C63.7846 11.9977 62.7738 12.3245 61.8543 12.02L55.4184 9.8889L54.3473 9.498C53.2111 9.08334 51.9373 9.45623 51.2041 10.4181Z" fill="white"/>
<path d="M30.5421 37.7765L30.3079 38.0838C29.7426 38.8255 28.7729 39.1328 27.8836 38.8523L27.8423 38.8393C27.6544 38.78 27.4585 38.7499 27.2615 38.7499H26.6398C25.5488 38.7499 24.8129 39.8648 25.2416 40.8679C25.8351 42.4661 27.4787 43.4188 29.1604 43.1396L29.3064 43.1154C29.5661 43.0723 29.8204 43.0019 30.0653 42.9053L30.1097 42.8878C31.6219 42.2915 33.3426 42.6242 34.5237 43.741L36.105 45.2364C36.3899 45.5058 36.6988 45.7485 37.0279 45.9616C39.8926 47.8166 43.7076 47.1095 45.7172 44.3511L46.1415 43.7687C47.0018 42.5879 47.3105 41.0932 46.9884 39.6683C46.6432 38.141 45.6112 36.8591 44.1928 36.1958L44.1144 36.1591C42.8585 35.3706 41.3197 35.1735 39.9057 35.6203L35.7129 36.945C35.0927 37.141 34.4251 37.1263 33.8141 36.9033L33.6853 36.8564C32.5491 36.4417 31.2753 36.8146 30.5421 37.7765Z" fill="white"/>
<path d="M79.9612 56.252L69.6444 58.7687C68.8682 58.958 68.0549 58.9311 67.2929 58.6907L66.9344 58.5776C66.7464 58.5183 66.5506 58.4882 66.3535 58.4882H65.7318C64.6409 58.4882 63.9049 59.603 64.3337 60.6062C64.9271 62.2044 66.5707 63.1571 68.2525 62.8779L68.789 62.7888L77.7368 62.0298C80.5941 61.7875 83.419 62.7754 85.5025 64.7456L85.7447 64.9747C86.0296 65.244 86.3385 65.4868 86.6675 65.6999C89.5323 67.5548 93.3472 66.8478 95.3569 64.0893L95.7812 63.507C96.6415 62.3262 96.9502 60.8315 96.6281 59.4066C96.2829 57.8793 95.2509 56.5974 93.8325 55.9341L93.7541 55.8974C92.4982 55.1088 90.9594 54.9118 89.5454 55.3586L85.9958 56.4801C84.9585 56.8078 83.842 56.7833 82.82 56.4103C81.9037 56.0759 80.9088 56.0208 79.9612 56.252Z" fill="white"/>
<path d="M16.713 20.7882L16.9473 21.0956C17.5126 21.8372 18.4823 22.1446 19.3716 21.8641L19.4128 21.851C19.6007 21.7918 19.7966 21.7616 19.9937 21.7616H20.6154C21.7063 21.7616 22.4422 22.8765 22.0135 23.8796C21.42 25.4778 19.7765 26.4305 18.0947 26.1513L17.9487 26.1271C17.6891 26.084 17.4347 26.0136 17.1898 25.917L17.1454 25.8995C15.6332 25.3033 13.9125 25.6359 12.7314 26.7528L11.1501 28.2481C10.8653 28.5175 10.5564 28.7602 10.2273 28.9733C7.36253 30.8283 3.54758 30.1212 1.53791 27.3628L1.1136 26.7804C0.253333 25.5996 -0.0553651 24.105 0.266715 22.68C0.611925 21.1527 1.64393 19.8708 3.06233 19.2075L3.14075 19.1709C4.39659 18.3823 5.93547 18.1852 7.34946 18.632L11.5423 19.9568C12.1625 20.1527 12.83 20.1381 13.441 19.9151L13.5698 19.8681C14.706 19.4534 15.9798 19.8263 16.713 20.7882Z" fill="white"/>
</g>
<g opacity="0.4" filter="url(#filter4_f_1094_6986)">
<path d="M33.5979 -2.01215C10.0201 23.2257 24.5193 64.5579 58.6965 69.5356L69.6546 71.1316L-27.4466 60.5077L33.5979 -2.01215Z" fill="#1E819A"/>
</g>
<g opacity="0.3" filter="url(#filter5_f_1094_6986)">
<path d="M41.5307 75.818C66.6231 52.0855 54.706 9.93625 20.9017 2.85593L10.0632 0.585806L106.322 17.1901L41.5307 75.818Z" fill="white"/>
</g>
</g>
</g>
<defs>
<filter id="filter0_d_1094_6986" x="0.9" y="0.9" width="72.2" height="72.2" filterUnits="userSpaceOnUse" color-interpolation-filters="sRGB">
<feFlood flood-opacity="0" result="BackgroundImageFix"/>
<feColorMatrix in="SourceAlpha" type="matrix" values="0 0 0 0 0 0 0 0 0 0 0 0 0 0 0 0 0 0 127 0" result="hardAlpha"/>
<feOffset/>
<feGaussianBlur stdDeviation="3.8"/>
<feComposite in2="hardAlpha" operator="out"/>
<feColorMatrix type="matrix" values="0 0 0 0 0 0 0 0 0 0.458156 0 0 0 0 0.566667 0 0 0 0.6 0"/>
<feBlend mode="normal" in2="BackgroundImageFix" result="effect1_dropShadow_1094_6986"/>
<feBlend mode="normal" in="SourceGraphic" in2="effect1_dropShadow_1094_6986" result="shape"/>
</filter>
<filter id="filter1_d_1094_6986" x="-24.5599" y="11.3999" width="88.7844" height="56.4621" filterUnits="userSpaceOnUse" color-interpolation-filters="sRGB">
<feFlood flood-opacity="0" result="BackgroundImageFix"/>
<feColorMatrix in="SourceAlpha" type="matrix" values="0 0 0 0 0 0 0 0 0 0 0 0 0 0 0 0 0 0 127 0" result="hardAlpha"/>
<feOffset dy="0.38"/>
<feGaussianBlur stdDeviation="0.95"/>
<feComposite in2="hardAlpha" operator="out"/>
<feColorMatrix type="matrix" values="0 0 0 0 0.160417 0 0 0 0 0.619952 0 0 0 0 0.7 0 0 0 1 0"/>
<feBlend mode="normal" in2="BackgroundImageFix" result="effect1_dropShadow_1094_6986"/>
<feBlend mode="normal" in="SourceGraphic" in2="effect1_dropShadow_1094_6986" result="shape"/>
</filter>
<filter id="filter2_d_1094_6986" x="60.9401" y="11.3999" width="88.7844" height="56.4621" filterUnits="userSpaceOnUse" color-interpolation-filters="sRGB">
<feFlood flood-opacity="0" result="BackgroundImageFix"/>
<feColorMatrix in="SourceAlpha" type="matrix" values="0 0 0 0 0 0 0 0 0 0 0 0 0 0 0 0 0 0 127 0" result="hardAlpha"/>
<feOffset dy="0.38"/>
<feGaussianBlur stdDeviation="0.95"/>
<feComposite in2="hardAlpha" operator="out"/>
<feColorMatrix type="matrix" values="0 0 0 0 0.160417 0 0 0 0 0.619952 0 0 0 0 0.7 0 0 0 1 0"/>
<feBlend mode="normal" in2="BackgroundImageFix" result="effect1_dropShadow_1094_6986"/>
<feBlend mode="normal" in="SourceGraphic" in2="effect1_dropShadow_1094_6986" result="shape"/>
</filter>
<filter id="filter3_f_1094_6986" x="-136.753" y="7.43008" width="235.406" height="61.2023" filterUnits="userSpaceOnUse" color-interpolation-filters="sRGB">
<feFlood flood-opacity="0" result="BackgroundImageFix"/>
<feBlend mode="normal" in="SourceGraphic" in2="BackgroundImageFix" result="shape"/>
<feGaussianBlur stdDeviation="0.95" result="effect1_foregroundBlur_1094_6986"/>
</filter>
<filter id="filter4_f_1094_6986" x="-31.2465" y="-5.81172" width="104.701" height="80.7426" filterUnits="userSpaceOnUse" color-interpolation-filters="sRGB">
<feFlood flood-opacity="0" result="BackgroundImageFix"/>
<feBlend mode="normal" in="SourceGraphic" in2="BackgroundImageFix" result="shape"/>
<feGaussianBlur stdDeviation="1.9" result="effect1_foregroundBlur_1094_6986"/>
</filter>
<filter id="filter5_f_1094_6986" x="2.46323" y="-7.01406" width="111.459" height="90.4324" filterUnits="userSpaceOnUse" color-interpolation-filters="sRGB">
<feFlood flood-opacity="0" result="BackgroundImageFix"/>
<feBlend mode="normal" in="SourceGraphic" in2="BackgroundImageFix" result="shape"/>
<feGaussianBlur stdDeviation="3.8" result="effect1_foregroundBlur_1094_6986"/>
</filter>
<linearGradient id="paint0_linear_1094_6986" x1="23.1241" y1="38.1197" x2="71.6221" y2="33.9993" gradientUnits="userSpaceOnUse">
<stop stop-color="#228EA9"/>
<stop offset="1" stop-color="#02DEFE"/>
</linearGradient>
<clipPath id="clip0_1094_6986">
<rect x="8.5" y="8.5" width="57" height="57" rx="28.5" fill="white"/>
</clipPath>
</defs>
</svg>
