<svg width="80" height="81" viewBox="0 0 80 81" fill="none" xmlns="http://www.w3.org/2000/svg">
<g filter="url(#filter0_d_1094_6130)">
<g clip-path="url(#clip0_1094_6130)">
<rect x="11.5" y="11.5" width="57" height="57" rx="28.5" fill="url(#paint0_linear_1094_6130)"/>
<g opacity="0.5" filter="url(#filter1_i_1094_6130)">
<path d="M37.8997 49.8853C36.3831 50.6405 35.1391 49.9558 34.364 48.3993C33.5888 46.8428 34.1899 44.9687 35.7066 44.2135C37.2232 43.4582 38.9005 44.1075 39.6756 45.664C40.4507 47.2206 39.4163 49.13 37.8997 49.8853Z" fill="#C0B1E2"/>
</g>
<g opacity="0.7" filter="url(#filter2_i_1094_6130)">
<path d="M37.9376 48.6937C36.9798 49.1707 35.5275 48.9249 35.0505 47.967C34.5735 47.0091 35.2167 45.4492 36.1746 44.9722C37.1324 44.4952 38.3313 45.1378 38.8083 46.0957C39.2853 47.0536 38.8955 48.2167 37.9376 48.6937Z" fill="#A896D3"/>
</g>
<g opacity="0.5" filter="url(#filter3_i_1094_6130)">
<path d="M42.7988 65.9449C41.4025 66.6402 39.0632 65.2519 38.3678 63.8555C37.6725 62.4592 38.6101 60.1852 40.0065 59.4898C41.4028 58.7944 43.1505 59.7312 43.8459 61.1276C44.5412 62.5239 44.1952 65.2495 42.7988 65.9449Z" fill="#A896D3"/>
</g>
<g opacity="0.6" filter="url(#filter4_i_1094_6130)">
<path d="M11.5931 73.9926C13.2723 74.8288 16.0854 73.1593 16.9215 71.4802C17.7577 69.801 16.6302 67.0664 14.9511 66.2303C13.2719 65.3941 11.1702 66.5206 10.3341 68.1997C9.49787 69.8789 9.91399 73.1565 11.5931 73.9926Z" fill="#C0B1E2"/>
</g>
<g opacity="0.7" filter="url(#filter5_i_1094_6130)">
<path d="M12.5554 72.6219C13.7708 73.2271 15.807 72.0187 16.4122 70.8033C17.0174 69.5879 16.2013 67.6086 14.9859 67.0034C13.7705 66.3981 12.2493 67.2135 11.6441 68.4289C11.0388 69.6443 11.34 72.0166 12.5554 72.6219Z" fill="#A896D3"/>
</g>
<g opacity="0.5" filter="url(#filter6_i_1094_6130)">
<path d="M55.9831 34.1959C53.8121 36.2406 52.3958 34.9468 50.2973 32.7187C48.1988 30.4905 47.2292 27.8001 49.4002 25.7554C51.5712 23.7107 54.728 23.9509 56.8265 26.179C58.925 28.4072 58.1541 32.1512 55.9831 34.1959Z" fill="#C0B1E2"/>
</g>
<g opacity="0.7" filter="url(#filter7_i_1094_6130)">
<path d="M55.4406 32.1687C54.0695 33.4601 52.4283 32.9083 51.1369 31.5371C49.8455 30.1659 49.2041 28.0869 50.5753 26.7955C51.9465 25.5041 54.2937 25.9766 55.5851 27.3478C56.8765 28.7189 56.8118 30.8773 55.4406 32.1687Z" fill="#C0B1E2"/>
</g>
<g opacity="0.5" filter="url(#filter8_i_1094_6130)">
<path d="M57.7437 70.0525C54.7971 70.2492 54.5286 68.3687 54.3268 65.3445C54.1249 62.3204 55.0769 59.6533 58.0236 59.4566C60.9702 59.2599 63.2324 61.4303 63.4343 64.4545C63.6362 67.4787 60.6903 69.8558 57.7437 70.0525Z" fill="#E6D7FF"/>
</g>
<g opacity="0.7" filter="url(#filter9_i_1094_6130)">
<path d="M58.6046 68.1609C56.7436 68.2852 55.8363 66.8304 55.712 64.9693C55.5878 63.1083 56.406 61.1152 58.267 60.991C60.1281 60.8667 61.6252 62.7053 61.7494 64.5663C61.8736 66.4273 60.4657 68.0367 58.6046 68.1609Z" fill="#C0B1E2"/>
</g>
<g opacity="0.7" filter="url(#filter10_i_1094_6130)">
<path d="M22.9891 56.6335C22.3291 57.2551 21.5392 56.9895 20.9176 56.3295C20.296 55.6695 19.9873 54.6688 20.6473 54.0473C21.3073 53.4257 22.437 53.6531 23.0586 54.3131C23.6801 54.9731 23.649 56.0119 22.9891 56.6335Z" fill="#A896D3"/>
</g>
<g opacity="0.7" filter="url(#filter11_i_1094_6130)">
<path d="M66.6054 44.7479C65.166 45.3566 64.0487 44.4536 63.4399 43.0142C62.8312 41.5749 62.9324 39.7725 64.3718 39.1637C65.8111 38.555 67.5006 39.6 68.1094 41.0394C68.7181 42.4788 68.0448 44.1391 66.6054 44.7479Z" fill="#E6D7FF"/>
</g>
<g opacity="0.7" filter="url(#filter12_i_1094_6130)">
<path d="M69.4555 36.1971C68.0161 36.8058 66.8987 35.9028 66.29 34.4635C65.6813 33.0241 65.7825 31.2217 67.2219 30.6129C68.6612 30.0042 70.3507 31.0493 70.9595 32.4886C71.5682 33.928 70.8949 35.5883 69.4555 36.1971Z" fill="#E6D7FF"/>
</g>
<g opacity="0.5" filter="url(#filter13_i_1094_6130)">
<path d="M22.8885 34.5895C21.2349 36.6928 21.8952 38.8358 24.0539 40.533C26.2127 42.2302 29.3032 41.9009 30.9569 39.7975C32.6105 37.6941 32.1437 34.8924 29.985 33.1953C27.8262 31.4981 24.5422 32.4861 22.8885 34.5895Z" fill="#C0B1E2"/>
</g>
<g opacity="0.7" filter="url(#filter14_i_1094_6130)">
<path d="M24.7431 34.9122C23.6987 36.2407 23.6138 38.5652 24.9423 39.6096C26.2707 40.654 28.8889 40.159 29.9333 38.8305C30.9777 37.5021 30.368 35.4423 29.0396 34.3979C27.7111 33.3535 25.7875 33.5838 24.7431 34.9122Z" fill="#A896D3"/>
</g>
<g opacity="0.7" filter="url(#filter15_i_1094_6130)">
<path d="M13.914 37.7242C13.5925 38.1331 13.5664 38.8485 13.9753 39.17C14.3842 39.4915 15.1901 39.3391 15.5115 38.9302C15.833 38.5213 15.6453 37.8873 15.2364 37.5659C14.8275 37.2444 14.2355 37.3153 13.914 37.7242Z" fill="#A896D3"/>
</g>
<g opacity="0.7" filter="url(#filter16_i_1094_6130)">
<path d="M26.5115 25.1291C26.2043 25.5198 26.1793 26.2034 26.5701 26.5106C26.9608 26.8178 27.7308 26.6722 28.038 26.2815C28.3452 25.8908 28.1659 25.285 27.7751 24.9778C27.3844 24.6706 26.8187 24.7383 26.5115 25.1291Z" fill="#C0B1E2"/>
</g>
<g opacity="0.7" filter="url(#filter17_i_1094_6130)">
<path d="M15.1113 14.6798C14.8042 15.0706 14.7792 15.7542 15.1699 16.0614C15.5606 16.3686 16.3307 16.223 16.6379 15.8323C16.9451 15.4416 16.7657 14.8358 16.375 14.5286C15.9843 14.2214 15.4185 14.2891 15.1113 14.6798Z" fill="#A896D3"/>
</g>
<g opacity="0.7" filter="url(#filter18_i_1094_6130)">
<path d="M62.9861 68.5607C62.6789 68.9514 62.6539 69.6351 63.0447 69.9423C63.4354 70.2494 64.2055 70.1039 64.5126 69.7131C64.8198 69.3224 64.6405 68.7166 64.2498 68.4094C63.859 68.1023 63.2933 68.17 62.9861 68.5607Z" fill="#C0B1E2"/>
</g>
<g opacity="0.7" filter="url(#filter19_i_1094_6130)">
<path d="M64.886 57.1623C64.5788 57.553 64.5538 58.2367 64.9446 58.5438C65.3353 58.851 66.1054 58.7054 66.4125 58.3147C66.7197 57.924 66.5404 57.3182 66.1497 57.011C65.7589 56.7038 65.1932 56.7715 64.886 57.1623Z" fill="#C0B1E2"/>
</g>
<g opacity="0.7" filter="url(#filter20_i_1094_6130)">
<path d="M25.1111 68.5959C24.8039 68.9866 24.7789 69.6702 25.1697 69.9774C25.5604 70.2846 26.3305 70.139 26.6376 69.7483C26.9448 69.3576 26.7655 68.7518 26.3748 68.4446C25.984 68.1374 25.4183 68.2051 25.1111 68.5959Z" fill="#A896D3"/>
</g>
<g opacity="0.8">
<g opacity="0.5" filter="url(#filter21_i_1094_6130)">
<path d="M50.3035 42.9984C46.4838 44.8707 45.9515 48.3959 47.873 52.316C49.7945 56.2362 54.4486 57.8963 58.2683 56.0241C62.0879 54.1518 63.3518 49.8166 61.4303 45.8964C59.5088 41.9763 54.1231 41.1262 50.3035 42.9984Z" fill="#E6D7FF"/>
</g>
<g opacity="0.7" filter="url(#filter22_i_1094_6130)">
<path d="M52.7373 44.7398C50.3249 45.9223 48.5998 49.1934 49.7823 51.6058C50.9647 54.0182 55.0566 55.1152 57.469 53.9327C59.8814 52.7502 60.4288 49.3792 59.2463 46.9668C58.0639 44.5544 55.1497 43.5574 52.7373 44.7398Z" fill="#C0B1E2"/>
</g>
<g opacity="0.7" filter="url(#filter23_i_1094_6130)">
<path d="M52.3153 47.0389C50.9706 47.6981 50.009 49.5214 50.6681 50.8662C51.3273 52.2109 53.6082 52.8224 54.953 52.1633C56.2977 51.5041 56.6028 49.625 55.9437 48.2803C55.2846 46.9356 53.6601 46.3798 52.3153 47.0389Z" fill="#A896D3"/>
</g>
<g opacity="0.7" filter="url(#filter24_i_1094_6130)">
<path d="M47.2044 36.731C46.3264 37.1614 45.6985 38.3519 46.1289 39.23C46.5593 40.108 48.0486 40.5073 48.9266 40.0769C49.8047 39.6465 50.0039 38.4196 49.5735 37.5415C49.1431 36.6635 48.0825 36.3006 47.2044 36.731Z" fill="#C0B1E2"/>
</g>
</g>
<g opacity="0.8">
<g opacity="0.5" filter="url(#filter25_i_1094_6130)">
<path d="M43.8046 10.0271C43.3966 5.49289 40.0777 3.61071 35.4242 4.0295C30.7706 4.44828 27.329 8.46345 27.7371 12.9976C28.1451 17.5318 31.9934 20.4553 36.6469 20.0366C41.3004 19.6178 44.2127 14.5613 43.8046 10.0271Z" fill="#E6D7FF"/>
</g>
<g opacity="0.7" filter="url(#filter26_i_1094_6130)">
<path d="M41.1322 11.792C40.8745 8.92829 38.2663 5.95153 35.4026 6.20924C32.5389 6.46696 29.8754 10.1359 30.1331 12.9996C30.3908 15.8633 33.55 17.7015 36.4136 17.4438C39.2773 17.1861 41.3899 14.6557 41.1322 11.792Z" fill="#C0B1E2"/>
</g>
<g opacity="0.7" filter="url(#filter27_i_1094_6130)">
<path d="M38.9959 10.4905C38.8523 8.89417 37.3984 7.23484 35.8021 7.37849C34.2058 7.52215 32.7211 9.56734 32.8647 11.1637C33.0084 12.76 34.7694 13.7846 36.3657 13.641C37.962 13.4973 39.1396 12.0868 38.9959 10.4905Z" fill="#A896D3"/>
</g>
</g>
<g opacity="0.8">
<g opacity="0.5" filter="url(#filter28_i_1094_6130)">
<path d="M20.9559 21.346C18.5402 20.4406 16.7638 21.6732 15.8346 24.1524C14.9054 26.6317 16.1104 29.3755 18.5261 30.2809C20.9418 31.1863 23.3801 29.9392 24.3093 27.46C25.2385 24.9807 23.3716 22.2514 20.9559 21.346Z" fill="#E6D7FF"/>
</g>
<g opacity="0.7" filter="url(#filter29_i_1094_6130)">
<path d="M21.2008 23.145C19.6751 22.5732 17.5143 23.1739 16.9425 24.6996C16.3707 26.2253 17.59 28.4867 19.1158 29.0585C20.6415 29.6304 22.3562 28.4686 22.928 26.9429C23.4998 25.4172 22.7265 23.7168 21.2008 23.145Z" fill="#C0B1E2"/>
</g>
<g opacity="0.7" filter="url(#filter30_i_1094_6130)">
<path d="M20.011 23.9161C19.1605 23.5974 17.956 23.9322 17.6373 24.7827C17.3185 25.6332 17.9982 26.8938 18.8487 27.2125C19.6992 27.5313 20.655 26.8837 20.9738 26.0332C21.2925 25.1827 20.8615 24.2349 20.011 23.9161Z" fill="#A896D3"/>
</g>
</g>
<g opacity="0.5" filter="url(#filter31_i_1094_6130)">
<path d="M5.66579 48.0781C5.913 50.9442 8.00584 52.1414 10.9474 51.8877C13.8889 51.6339 16.0731 49.1048 15.8259 46.2387C15.5787 43.3726 13.1538 41.5162 10.2123 41.7699C7.27075 42.0236 5.41859 45.212 5.66579 48.0781Z" fill="#E6D7FF"/>
</g>
<g opacity="0.7" filter="url(#filter32_i_1094_6130)">
<path d="M7.35853 46.9682C7.51466 48.7784 9.15578 50.6655 10.966 50.5094C12.7761 50.3533 14.4678 48.0411 14.3117 46.2309C14.1556 44.4207 12.1636 43.2518 10.3534 43.4079C8.54327 43.564 7.20239 45.158 7.35853 46.9682Z" fill="#C0B1E2"/>
</g>
<g opacity="0.5" filter="url(#filter33_i_1094_6130)">
<path d="M49.3477 12.3608C47.5727 14.6184 48.2815 16.9186 50.5986 18.7403C52.9156 20.5619 56.2329 20.2085 58.0078 17.9508C59.7828 15.6932 59.2817 12.686 56.9646 10.8643C54.6476 9.04265 51.1226 10.1031 49.3477 12.3608Z" fill="#C0B1E2"/>
</g>
<g opacity="0.7" filter="url(#filter34_i_1094_6130)">
<path d="M51.3381 12.708C50.2171 14.1339 50.126 16.6288 51.5519 17.7499C52.9777 18.8709 55.788 18.3396 56.909 16.9137C58.0301 15.4878 57.3756 13.277 55.9497 12.1559C54.5238 11.0349 52.4592 11.2821 51.3381 12.708Z" fill="#A896D3"/>
</g>
<circle cx="34.1093" cy="52.8112" r="0.688176" fill="#A896D3"/>
<circle cx="34.1093" cy="32.5104" r="0.688176" fill="#C0B1E2"/>
<circle cx="25.9858" cy="46.9948" r="0.688176" fill="#A896D3"/>
<circle cx="32.7331" cy="28.4948" r="0.688176" fill="#C0B1E2"/>
<circle cx="31.8154" cy="63.5944" r="0.688176" fill="#A896D3"/>
<circle cx="51.3137" cy="67.9519" r="0.688176" fill="#A896D3"/>
<circle cx="45.5788" cy="50.7468" r="0.688176" fill="#C0B1E2"/>
<circle cx="42.1704" cy="24.4343" r="0.688176" fill="#C0B1E2"/>
<circle cx="35.4855" cy="30.3308" r="0.688176" fill="#C0B1E2"/>
<circle cx="20.3459" cy="36.9831" r="0.688176" fill="#A896D3"/>
<circle cx="63.1081" cy="18.7253" r="0.688176" fill="#A896D3"/>
<g filter="url(#filter35_f_1094_6130)">
<path d="M32.9951 1.78694C12.1846 29.3511 30.9247 68.9413 65.435 70.3193L76.4998 70.7611L-21.1799 70.3452L32.9951 1.78694Z" fill="url(#paint1_linear_1094_6130)" fill-opacity="0.4"/>
</g>
<g opacity="0.2" filter="url(#filter36_f_1094_6130)">
<path d="M34.2499 80.241C61.7316 59.3217 54.3806 16.1414 21.5249 5.49403L10.9906 2.08024L104.928 28.8623L34.2499 80.241Z" fill="white"/>
</g>
</g>
</g>
<defs>
<filter id="filter0_d_1094_6130" x="0.1" y="0.48" width="79.8" height="79.8" filterUnits="userSpaceOnUse" color-interpolation-filters="sRGB">
<feFlood flood-opacity="0" result="BackgroundImageFix"/>
<feColorMatrix in="SourceAlpha" type="matrix" values="0 0 0 0 0 0 0 0 0 0 0 0 0 0 0 0 0 0 127 0" result="hardAlpha"/>
<feMorphology radius="1.9" operator="dilate" in="SourceAlpha" result="effect1_dropShadow_1094_6130"/>
<feOffset dy="0.38"/>
<feGaussianBlur stdDeviation="4.75"/>
<feComposite in2="hardAlpha" operator="out"/>
<feColorMatrix type="matrix" values="0 0 0 0 0.651 0 0 0 0 0.561337 0 0 0 0 0.904167 0 0 0 0.3 0"/>
<feBlend mode="normal" in2="BackgroundImageFix" result="effect1_dropShadow_1094_6130"/>
<feBlend mode="normal" in="SourceGraphic" in2="effect1_dropShadow_1094_6130" result="shape"/>
</filter>
<filter id="filter1_i_1094_6130" x="34.0254" y="43.8984" width="5.91406" height="6.64301" filterUnits="userSpaceOnUse" color-interpolation-filters="sRGB">
<feFlood flood-opacity="0" result="BackgroundImageFix"/>
<feBlend mode="normal" in="SourceGraphic" in2="BackgroundImageFix" result="shape"/>
<feColorMatrix in="SourceAlpha" type="matrix" values="0 0 0 0 0 0 0 0 0 0 0 0 0 0 0 0 0 0 127 0" result="hardAlpha"/>
<feOffset dy="0.348088"/>
<feGaussianBlur stdDeviation="0.348088"/>
<feComposite in2="hardAlpha" operator="arithmetic" k2="-1" k3="1"/>
<feColorMatrix type="matrix" values="0 0 0 0 0.356863 0 0 0 0 0.262745 0 0 0 0 0.623529 0 0 0 0.5 0"/>
<feBlend mode="normal" in2="shape" result="effect1_innerShadow_1094_6130"/>
</filter>
<filter id="filter2_i_1094_6130" x="34.8894" y="44.8105" width="4.12256" height="4.46723" filterUnits="userSpaceOnUse" color-interpolation-filters="sRGB">
<feFlood flood-opacity="0" result="BackgroundImageFix"/>
<feBlend mode="normal" in="SourceGraphic" in2="BackgroundImageFix" result="shape"/>
<feColorMatrix in="SourceAlpha" type="matrix" values="0 0 0 0 0 0 0 0 0 0 0 0 0 0 0 0 0 0 127 0" result="hardAlpha"/>
<feOffset dy="0.348088"/>
<feGaussianBlur stdDeviation="0.348088"/>
<feComposite in2="hardAlpha" operator="arithmetic" k2="-1" k3="1"/>
<feColorMatrix type="matrix" values="0 0 0 0 0.356863 0 0 0 0 0.262745 0 0 0 0 0.623529 0 0 0 0.5 0"/>
<feBlend mode="normal" in2="shape" result="effect1_innerShadow_1094_6130"/>
</filter>
<filter id="filter3_i_1094_6130" x="38.1328" y="59.2539" width="6.06104" height="7.22504" filterUnits="userSpaceOnUse" color-interpolation-filters="sRGB">
<feFlood flood-opacity="0" result="BackgroundImageFix"/>
<feBlend mode="normal" in="SourceGraphic" in2="BackgroundImageFix" result="shape"/>
<feColorMatrix in="SourceAlpha" type="matrix" values="0 0 0 0 0 0 0 0 0 0 0 0 0 0 0 0 0 0 127 0" result="hardAlpha"/>
<feOffset dy="0.348088"/>
<feGaussianBlur stdDeviation="0.348088"/>
<feComposite in2="hardAlpha" operator="arithmetic" k2="-1" k3="1"/>
<feColorMatrix type="matrix" values="0 0 0 0 0.356863 0 0 0 0 0.262745 0 0 0 0 0.623529 0 0 0 0.5 0"/>
<feBlend mode="normal" in2="shape" result="effect1_innerShadow_1094_6130"/>
</filter>
<filter id="filter4_i_1094_6130" x="9.91577" y="65.9473" width="7.28833" height="8.61567" filterUnits="userSpaceOnUse" color-interpolation-filters="sRGB">
<feFlood flood-opacity="0" result="BackgroundImageFix"/>
<feBlend mode="normal" in="SourceGraphic" in2="BackgroundImageFix" result="shape"/>
<feColorMatrix in="SourceAlpha" type="matrix" values="0 0 0 0 0 0 0 0 0 0 0 0 0 0 0 0 0 0 127 0" result="hardAlpha"/>
<feOffset dy="0.348088"/>
<feGaussianBlur stdDeviation="0.348088"/>
<feComposite in2="hardAlpha" operator="arithmetic" k2="-1" k3="1"/>
<feColorMatrix type="matrix" values="0 0 0 0 0.356863 0 0 0 0 0.262745 0 0 0 0 0.623529 0 0 0 0.5 0"/>
<feBlend mode="normal" in2="shape" result="effect1_innerShadow_1094_6130"/>
</filter>
<filter id="filter5_i_1094_6130" x="11.3413" y="66.7988" width="5.27539" height="6.33246" filterUnits="userSpaceOnUse" color-interpolation-filters="sRGB">
<feFlood flood-opacity="0" result="BackgroundImageFix"/>
<feBlend mode="normal" in="SourceGraphic" in2="BackgroundImageFix" result="shape"/>
<feColorMatrix in="SourceAlpha" type="matrix" values="0 0 0 0 0 0 0 0 0 0 0 0 0 0 0 0 0 0 127 0" result="hardAlpha"/>
<feOffset dy="0.348088"/>
<feGaussianBlur stdDeviation="0.348088"/>
<feComposite in2="hardAlpha" operator="arithmetic" k2="-1" k3="1"/>
<feColorMatrix type="matrix" values="0 0 0 0 0.356863 0 0 0 0 0.262745 0 0 0 0 0.623529 0 0 0 0.5 0"/>
<feBlend mode="normal" in2="shape" result="effect1_innerShadow_1094_6130"/>
</filter>
<filter id="filter6_i_1094_6130" x="48.1736" y="24.3555" width="9.88818" height="11.2114" filterUnits="userSpaceOnUse" color-interpolation-filters="sRGB">
<feFlood flood-opacity="0" result="BackgroundImageFix"/>
<feBlend mode="normal" in="SourceGraphic" in2="BackgroundImageFix" result="shape"/>
<feColorMatrix in="SourceAlpha" type="matrix" values="0 0 0 0 0 0 0 0 0 0 0 0 0 0 0 0 0 0 127 0" result="hardAlpha"/>
<feOffset dy="0.348088"/>
<feGaussianBlur stdDeviation="0.348088"/>
<feComposite in2="hardAlpha" operator="arithmetic" k2="-1" k3="1"/>
<feColorMatrix type="matrix" values="0 0 0 0 0.356863 0 0 0 0 0.262745 0 0 0 0 0.623529 0 0 0 0.5 0"/>
<feBlend mode="normal" in2="shape" result="effect1_innerShadow_1094_6130"/>
</filter>
<filter id="filter7_i_1094_6130" x="49.8086" y="26.0371" width="6.70435" height="7.20942" filterUnits="userSpaceOnUse" color-interpolation-filters="sRGB">
<feFlood flood-opacity="0" result="BackgroundImageFix"/>
<feBlend mode="normal" in="SourceGraphic" in2="BackgroundImageFix" result="shape"/>
<feColorMatrix in="SourceAlpha" type="matrix" values="0 0 0 0 0 0 0 0 0 0 0 0 0 0 0 0 0 0 127 0" result="hardAlpha"/>
<feOffset dy="0.348088"/>
<feGaussianBlur stdDeviation="0.348088"/>
<feComposite in2="hardAlpha" operator="arithmetic" k2="-1" k3="1"/>
<feColorMatrix type="matrix" values="0 0 0 0 0.356863 0 0 0 0 0.262745 0 0 0 0 0.623529 0 0 0 0.5 0"/>
<feBlend mode="normal" in2="shape" result="effect1_innerShadow_1094_6130"/>
</filter>
<filter id="filter8_i_1094_6130" x="54.3008" y="59.4434" width="9.14331" height="10.9711" filterUnits="userSpaceOnUse" color-interpolation-filters="sRGB">
<feFlood flood-opacity="0" result="BackgroundImageFix"/>
<feBlend mode="normal" in="SourceGraphic" in2="BackgroundImageFix" result="shape"/>
<feColorMatrix in="SourceAlpha" type="matrix" values="0 0 0 0 0 0 0 0 0 0 0 0 0 0 0 0 0 0 127 0" result="hardAlpha"/>
<feOffset dy="0.348088"/>
<feGaussianBlur stdDeviation="0.348088"/>
<feComposite in2="hardAlpha" operator="arithmetic" k2="-1" k3="1"/>
<feColorMatrix type="matrix" values="0 0 0 0 0.356863 0 0 0 0 0.262745 0 0 0 0 0.623529 0 0 0 0.5 0"/>
<feBlend mode="normal" in2="shape" result="effect1_innerShadow_1094_6130"/>
</filter>
<filter id="filter9_i_1094_6130" x="55.6997" y="60.9844" width="6.05737" height="7.53168" filterUnits="userSpaceOnUse" color-interpolation-filters="sRGB">
<feFlood flood-opacity="0" result="BackgroundImageFix"/>
<feBlend mode="normal" in="SourceGraphic" in2="BackgroundImageFix" result="shape"/>
<feColorMatrix in="SourceAlpha" type="matrix" values="0 0 0 0 0 0 0 0 0 0 0 0 0 0 0 0 0 0 127 0" result="hardAlpha"/>
<feOffset dy="0.348088"/>
<feGaussianBlur stdDeviation="0.348088"/>
<feComposite in2="hardAlpha" operator="arithmetic" k2="-1" k3="1"/>
<feColorMatrix type="matrix" values="0 0 0 0 0.356863 0 0 0 0 0.262745 0 0 0 0 0.623529 0 0 0 0.5 0"/>
<feBlend mode="normal" in2="shape" result="effect1_innerShadow_1094_6130"/>
</filter>
<filter id="filter10_i_1094_6130" x="20.2783" y="53.6816" width="3.22681" height="3.65082" filterUnits="userSpaceOnUse" color-interpolation-filters="sRGB">
<feFlood flood-opacity="0" result="BackgroundImageFix"/>
<feBlend mode="normal" in="SourceGraphic" in2="BackgroundImageFix" result="shape"/>
<feColorMatrix in="SourceAlpha" type="matrix" values="0 0 0 0 0 0 0 0 0 0 0 0 0 0 0 0 0 0 127 0" result="hardAlpha"/>
<feOffset dy="0.348088"/>
<feGaussianBlur stdDeviation="0.348088"/>
<feComposite in2="hardAlpha" operator="arithmetic" k2="-1" k3="1"/>
<feColorMatrix type="matrix" values="0 0 0 0 0.356863 0 0 0 0 0.262745 0 0 0 0 0.623529 0 0 0 0.5 0"/>
<feBlend mode="normal" in2="shape" result="effect1_innerShadow_1094_6130"/>
</filter>
<filter id="filter11_i_1094_6130" x="63.0876" y="38.9863" width="5.24585" height="6.30317" filterUnits="userSpaceOnUse" color-interpolation-filters="sRGB">
<feFlood flood-opacity="0" result="BackgroundImageFix"/>
<feBlend mode="normal" in="SourceGraphic" in2="BackgroundImageFix" result="shape"/>
<feColorMatrix in="SourceAlpha" type="matrix" values="0 0 0 0 0 0 0 0 0 0 0 0 0 0 0 0 0 0 127 0" result="hardAlpha"/>
<feOffset dy="0.348088"/>
<feGaussianBlur stdDeviation="0.348088"/>
<feComposite in2="hardAlpha" operator="arithmetic" k2="-1" k3="1"/>
<feColorMatrix type="matrix" values="0 0 0 0 0.356863 0 0 0 0 0.262745 0 0 0 0 0.623529 0 0 0 0.5 0"/>
<feBlend mode="normal" in2="shape" result="effect1_innerShadow_1094_6130"/>
</filter>
<filter id="filter12_i_1094_6130" x="65.9377" y="30.4355" width="5.24585" height="6.30317" filterUnits="userSpaceOnUse" color-interpolation-filters="sRGB">
<feFlood flood-opacity="0" result="BackgroundImageFix"/>
<feBlend mode="normal" in="SourceGraphic" in2="BackgroundImageFix" result="shape"/>
<feColorMatrix in="SourceAlpha" type="matrix" values="0 0 0 0 0 0 0 0 0 0 0 0 0 0 0 0 0 0 127 0" result="hardAlpha"/>
<feOffset dy="0.348088"/>
<feGaussianBlur stdDeviation="0.348088"/>
<feComposite in2="hardAlpha" operator="arithmetic" k2="-1" k3="1"/>
<feColorMatrix type="matrix" values="0 0 0 0 0.356863 0 0 0 0 0.262745 0 0 0 0 0.623529 0 0 0 0.5 0"/>
<feBlend mode="normal" in2="shape" result="effect1_innerShadow_1094_6130"/>
</filter>
<filter id="filter13_i_1094_6130" x="21.9609" y="32.332" width="9.99023" height="9.6352" filterUnits="userSpaceOnUse" color-interpolation-filters="sRGB">
<feFlood flood-opacity="0" result="BackgroundImageFix"/>
<feBlend mode="normal" in="SourceGraphic" in2="BackgroundImageFix" result="shape"/>
<feColorMatrix in="SourceAlpha" type="matrix" values="0 0 0 0 0 0 0 0 0 0 0 0 0 0 0 0 0 0 127 0" result="hardAlpha"/>
<feOffset dy="0.348088"/>
<feGaussianBlur stdDeviation="0.348088"/>
<feComposite in2="hardAlpha" operator="arithmetic" k2="-1" k3="1"/>
<feColorMatrix type="matrix" values="0 0 0 0 0.356863 0 0 0 0 0.262745 0 0 0 0 0.623529 0 0 0 0.5 0"/>
<feBlend mode="normal" in2="shape" result="effect1_innerShadow_1094_6130"/>
</filter>
<filter id="filter14_i_1094_6130" x="23.9524" y="33.7441" width="6.50977" height="6.77582" filterUnits="userSpaceOnUse" color-interpolation-filters="sRGB">
<feFlood flood-opacity="0" result="BackgroundImageFix"/>
<feBlend mode="normal" in="SourceGraphic" in2="BackgroundImageFix" result="shape"/>
<feColorMatrix in="SourceAlpha" type="matrix" values="0 0 0 0 0 0 0 0 0 0 0 0 0 0 0 0 0 0 127 0" result="hardAlpha"/>
<feOffset dy="0.348088"/>
<feGaussianBlur stdDeviation="0.348088"/>
<feComposite in2="hardAlpha" operator="arithmetic" k2="-1" k3="1"/>
<feColorMatrix type="matrix" values="0 0 0 0 0.356863 0 0 0 0 0.262745 0 0 0 0 0.623529 0 0 0 0.5 0"/>
<feBlend mode="normal" in2="shape" result="effect1_innerShadow_1094_6130"/>
</filter>
<filter id="filter15_i_1094_6130" x="13.6707" y="37.3652" width="2.00366" height="2.13548" filterUnits="userSpaceOnUse" color-interpolation-filters="sRGB">
<feFlood flood-opacity="0" result="BackgroundImageFix"/>
<feBlend mode="normal" in="SourceGraphic" in2="BackgroundImageFix" result="shape"/>
<feColorMatrix in="SourceAlpha" type="matrix" values="0 0 0 0 0 0 0 0 0 0 0 0 0 0 0 0 0 0 127 0" result="hardAlpha"/>
<feOffset dy="0.156963"/>
<feGaussianBlur stdDeviation="0.156963"/>
<feComposite in2="hardAlpha" operator="arithmetic" k2="-1" k3="1"/>
<feColorMatrix type="matrix" values="0 0 0 0 0.403922 0 0 0 0 0.309804 0 0 0 0 0.0156863 0 0 0 0.25 0"/>
<feBlend mode="normal" in2="shape" result="effect1_innerShadow_1094_6130"/>
</filter>
<filter id="filter16_i_1094_6130" x="26.2788" y="24.7852" width="1.91479" height="2.23871" filterUnits="userSpaceOnUse" color-interpolation-filters="sRGB">
<feFlood flood-opacity="0" result="BackgroundImageFix"/>
<feBlend mode="normal" in="SourceGraphic" in2="BackgroundImageFix" result="shape"/>
<feColorMatrix in="SourceAlpha" type="matrix" values="0 0 0 0 0 0 0 0 0 0 0 0 0 0 0 0 0 0 127 0" result="hardAlpha"/>
<feOffset dy="0.348088"/>
<feGaussianBlur stdDeviation="0.348088"/>
<feComposite in2="hardAlpha" operator="arithmetic" k2="-1" k3="1"/>
<feColorMatrix type="matrix" values="0 0 0 0 0.356863 0 0 0 0 0.262745 0 0 0 0 0.623529 0 0 0 0.5 0"/>
<feBlend mode="normal" in2="shape" result="effect1_innerShadow_1094_6130"/>
</filter>
<filter id="filter17_i_1094_6130" x="14.8787" y="14.3359" width="1.91479" height="2.23871" filterUnits="userSpaceOnUse" color-interpolation-filters="sRGB">
<feFlood flood-opacity="0" result="BackgroundImageFix"/>
<feBlend mode="normal" in="SourceGraphic" in2="BackgroundImageFix" result="shape"/>
<feColorMatrix in="SourceAlpha" type="matrix" values="0 0 0 0 0 0 0 0 0 0 0 0 0 0 0 0 0 0 127 0" result="hardAlpha"/>
<feOffset dy="0.348088"/>
<feGaussianBlur stdDeviation="0.348088"/>
<feComposite in2="hardAlpha" operator="arithmetic" k2="-1" k3="1"/>
<feColorMatrix type="matrix" values="0 0 0 0 0.356863 0 0 0 0 0.262745 0 0 0 0 0.623529 0 0 0 0.5 0"/>
<feBlend mode="normal" in2="shape" result="effect1_innerShadow_1094_6130"/>
</filter>
<filter id="filter18_i_1094_6130" x="62.7534" y="68.2168" width="1.91479" height="2.23871" filterUnits="userSpaceOnUse" color-interpolation-filters="sRGB">
<feFlood flood-opacity="0" result="BackgroundImageFix"/>
<feBlend mode="normal" in="SourceGraphic" in2="BackgroundImageFix" result="shape"/>
<feColorMatrix in="SourceAlpha" type="matrix" values="0 0 0 0 0 0 0 0 0 0 0 0 0 0 0 0 0 0 127 0" result="hardAlpha"/>
<feOffset dy="0.348088"/>
<feGaussianBlur stdDeviation="0.348088"/>
<feComposite in2="hardAlpha" operator="arithmetic" k2="-1" k3="1"/>
<feColorMatrix type="matrix" values="0 0 0 0 0.356863 0 0 0 0 0.262745 0 0 0 0 0.623529 0 0 0 0.5 0"/>
<feBlend mode="normal" in2="shape" result="effect1_innerShadow_1094_6130"/>
</filter>
<filter id="filter19_i_1094_6130" x="64.6533" y="56.8184" width="1.91479" height="2.23871" filterUnits="userSpaceOnUse" color-interpolation-filters="sRGB">
<feFlood flood-opacity="0" result="BackgroundImageFix"/>
<feBlend mode="normal" in="SourceGraphic" in2="BackgroundImageFix" result="shape"/>
<feColorMatrix in="SourceAlpha" type="matrix" values="0 0 0 0 0 0 0 0 0 0 0 0 0 0 0 0 0 0 127 0" result="hardAlpha"/>
<feOffset dy="0.348088"/>
<feGaussianBlur stdDeviation="0.348088"/>
<feComposite in2="hardAlpha" operator="arithmetic" k2="-1" k3="1"/>
<feColorMatrix type="matrix" values="0 0 0 0 0.356863 0 0 0 0 0.262745 0 0 0 0 0.623529 0 0 0 0.5 0"/>
<feBlend mode="normal" in2="shape" result="effect1_innerShadow_1094_6130"/>
</filter>
<filter id="filter20_i_1094_6130" x="24.8784" y="68.252" width="1.91479" height="2.23871" filterUnits="userSpaceOnUse" color-interpolation-filters="sRGB">
<feFlood flood-opacity="0" result="BackgroundImageFix"/>
<feBlend mode="normal" in="SourceGraphic" in2="BackgroundImageFix" result="shape"/>
<feColorMatrix in="SourceAlpha" type="matrix" values="0 0 0 0 0 0 0 0 0 0 0 0 0 0 0 0 0 0 127 0" result="hardAlpha"/>
<feOffset dy="0.348088"/>
<feGaussianBlur stdDeviation="0.348088"/>
<feComposite in2="hardAlpha" operator="arithmetic" k2="-1" k3="1"/>
<feColorMatrix type="matrix" values="0 0 0 0 0.356863 0 0 0 0 0.262745 0 0 0 0 0.623529 0 0 0 0.5 0"/>
<feBlend mode="normal" in2="shape" result="effect1_innerShadow_1094_6130"/>
</filter>
<filter id="filter21_i_1094_6130" x="46.79" y="42.0469" width="15.5276" height="15.0942" filterUnits="userSpaceOnUse" color-interpolation-filters="sRGB">
<feFlood flood-opacity="0" result="BackgroundImageFix"/>
<feBlend mode="normal" in="SourceGraphic" in2="BackgroundImageFix" result="shape"/>
<feColorMatrix in="SourceAlpha" type="matrix" values="0 0 0 0 0 0 0 0 0 0 0 0 0 0 0 0 0 0 127 0" result="hardAlpha"/>
<feOffset dy="0.348088"/>
<feGaussianBlur stdDeviation="0.348088"/>
<feComposite in2="hardAlpha" operator="arithmetic" k2="-1" k3="1"/>
<feColorMatrix type="matrix" values="0 0 0 0 0.356863 0 0 0 0 0.262745 0 0 0 0 0.623529 0 0 0 0.5 0"/>
<feBlend mode="normal" in2="shape" result="effect1_innerShadow_1094_6130"/>
</filter>
<filter id="filter22_i_1094_6130" x="49.4004" y="44.2422" width="10.4468" height="10.518" filterUnits="userSpaceOnUse" color-interpolation-filters="sRGB">
<feFlood flood-opacity="0" result="BackgroundImageFix"/>
<feBlend mode="normal" in="SourceGraphic" in2="BackgroundImageFix" result="shape"/>
<feColorMatrix in="SourceAlpha" type="matrix" values="0 0 0 0 0 0 0 0 0 0 0 0 0 0 0 0 0 0 127 0" result="hardAlpha"/>
<feOffset dy="0.348088"/>
<feGaussianBlur stdDeviation="0.348088"/>
<feComposite in2="hardAlpha" operator="arithmetic" k2="-1" k3="1"/>
<feColorMatrix type="matrix" values="0 0 0 0 0.356863 0 0 0 0 0.262745 0 0 0 0 0.623529 0 0 0 0.5 0"/>
<feBlend mode="normal" in2="shape" result="effect1_innerShadow_1094_6130"/>
</filter>
<filter id="filter23_i_1094_6130" x="50.4553" y="46.7617" width="5.82324" height="6.01606" filterUnits="userSpaceOnUse" color-interpolation-filters="sRGB">
<feFlood flood-opacity="0" result="BackgroundImageFix"/>
<feBlend mode="normal" in="SourceGraphic" in2="BackgroundImageFix" result="shape"/>
<feColorMatrix in="SourceAlpha" type="matrix" values="0 0 0 0 0 0 0 0 0 0 0 0 0 0 0 0 0 0 127 0" result="hardAlpha"/>
<feOffset dy="0.348088"/>
<feGaussianBlur stdDeviation="0.348088"/>
<feComposite in2="hardAlpha" operator="arithmetic" k2="-1" k3="1"/>
<feColorMatrix type="matrix" values="0 0 0 0 0.356863 0 0 0 0 0.262745 0 0 0 0 0.623529 0 0 0 0.5 0"/>
<feBlend mode="normal" in2="shape" result="effect1_innerShadow_1094_6130"/>
</filter>
<filter id="filter24_i_1094_6130" x="45.99" y="36.5508" width="3.80225" height="4.04926" filterUnits="userSpaceOnUse" color-interpolation-filters="sRGB">
<feFlood flood-opacity="0" result="BackgroundImageFix"/>
<feBlend mode="normal" in="SourceGraphic" in2="BackgroundImageFix" result="shape"/>
<feColorMatrix in="SourceAlpha" type="matrix" values="0 0 0 0 0 0 0 0 0 0 0 0 0 0 0 0 0 0 127 0" result="hardAlpha"/>
<feOffset dy="0.348088"/>
<feGaussianBlur stdDeviation="0.348088"/>
<feComposite in2="hardAlpha" operator="arithmetic" k2="-1" k3="1"/>
<feColorMatrix type="matrix" values="0 0 0 0 0.356863 0 0 0 0 0.262745 0 0 0 0 0.623529 0 0 0 0.5 0"/>
<feBlend mode="normal" in2="shape" result="effect1_innerShadow_1094_6130"/>
</filter>
<filter id="filter25_i_1094_6130" x="27.7043" y="3.97266" width="16.1382" height="16.4516" filterUnits="userSpaceOnUse" color-interpolation-filters="sRGB">
<feFlood flood-opacity="0" result="BackgroundImageFix"/>
<feBlend mode="normal" in="SourceGraphic" in2="BackgroundImageFix" result="shape"/>
<feColorMatrix in="SourceAlpha" type="matrix" values="0 0 0 0 0 0 0 0 0 0 0 0 0 0 0 0 0 0 127 0" result="hardAlpha"/>
<feOffset dy="0.348088"/>
<feGaussianBlur stdDeviation="0.348088"/>
<feComposite in2="hardAlpha" operator="arithmetic" k2="-1" k3="1"/>
<feColorMatrix type="matrix" values="0 0 0 0 0.356863 0 0 0 0 0.262745 0 0 0 0 0.623529 0 0 0 0.5 0"/>
<feBlend mode="normal" in2="shape" result="effect1_innerShadow_1094_6130"/>
</filter>
<filter id="filter26_i_1094_6130" x="30.1157" y="6.19336" width="11.0378" height="11.6235" filterUnits="userSpaceOnUse" color-interpolation-filters="sRGB">
<feFlood flood-opacity="0" result="BackgroundImageFix"/>
<feBlend mode="normal" in="SourceGraphic" in2="BackgroundImageFix" result="shape"/>
<feColorMatrix in="SourceAlpha" type="matrix" values="0 0 0 0 0 0 0 0 0 0 0 0 0 0 0 0 0 0 127 0" result="hardAlpha"/>
<feOffset dy="0.348088"/>
<feGaussianBlur stdDeviation="0.348088"/>
<feComposite in2="hardAlpha" operator="arithmetic" k2="-1" k3="1"/>
<feColorMatrix type="matrix" values="0 0 0 0 0.356863 0 0 0 0 0.262745 0 0 0 0 0.623529 0 0 0 0.5 0"/>
<feBlend mode="normal" in2="shape" result="effect1_innerShadow_1094_6130"/>
</filter>
<filter id="filter27_i_1094_6130" x="32.855" y="7.36914" width="6.15283" height="6.63324" filterUnits="userSpaceOnUse" color-interpolation-filters="sRGB">
<feFlood flood-opacity="0" result="BackgroundImageFix"/>
<feBlend mode="normal" in="SourceGraphic" in2="BackgroundImageFix" result="shape"/>
<feColorMatrix in="SourceAlpha" type="matrix" values="0 0 0 0 0 0 0 0 0 0 0 0 0 0 0 0 0 0 127 0" result="hardAlpha"/>
<feOffset dy="0.348088"/>
<feGaussianBlur stdDeviation="0.348088"/>
<feComposite in2="hardAlpha" operator="arithmetic" k2="-1" k3="1"/>
<feColorMatrix type="matrix" values="0 0 0 0 0.356863 0 0 0 0 0.262745 0 0 0 0 0.623529 0 0 0 0.5 0"/>
<feBlend mode="normal" in2="shape" result="effect1_innerShadow_1094_6130"/>
</filter>
<filter id="filter28_i_1094_6130" x="15.521" y="21.0488" width="9.03149" height="9.87543" filterUnits="userSpaceOnUse" color-interpolation-filters="sRGB">
<feFlood flood-opacity="0" result="BackgroundImageFix"/>
<feBlend mode="normal" in="SourceGraphic" in2="BackgroundImageFix" result="shape"/>
<feColorMatrix in="SourceAlpha" type="matrix" values="0 0 0 0 0 0 0 0 0 0 0 0 0 0 0 0 0 0 127 0" result="hardAlpha"/>
<feOffset dy="0.348088"/>
<feGaussianBlur stdDeviation="0.348088"/>
<feComposite in2="hardAlpha" operator="arithmetic" k2="-1" k3="1"/>
<feColorMatrix type="matrix" values="0 0 0 0 0.356863 0 0 0 0 0.262745 0 0 0 0 0.623529 0 0 0 0.5 0"/>
<feBlend mode="normal" in2="shape" result="effect1_innerShadow_1094_6130"/>
</filter>
<filter id="filter29_i_1094_6130" x="16.7988" y="22.9316" width="6.31763" height="6.62348" filterUnits="userSpaceOnUse" color-interpolation-filters="sRGB">
<feFlood flood-opacity="0" result="BackgroundImageFix"/>
<feBlend mode="normal" in="SourceGraphic" in2="BackgroundImageFix" result="shape"/>
<feColorMatrix in="SourceAlpha" type="matrix" values="0 0 0 0 0 0 0 0 0 0 0 0 0 0 0 0 0 0 127 0" result="hardAlpha"/>
<feOffset dy="0.348088"/>
<feGaussianBlur stdDeviation="0.348088"/>
<feComposite in2="hardAlpha" operator="arithmetic" k2="-1" k3="1"/>
<feColorMatrix type="matrix" values="0 0 0 0 0.356863 0 0 0 0 0.262745 0 0 0 0 0.623529 0 0 0 0.5 0"/>
<feBlend mode="normal" in2="shape" result="effect1_innerShadow_1094_6130"/>
</filter>
<filter id="filter30_i_1094_6130" x="17.5571" y="23.7969" width="3.52173" height="3.84613" filterUnits="userSpaceOnUse" color-interpolation-filters="sRGB">
<feFlood flood-opacity="0" result="BackgroundImageFix"/>
<feBlend mode="normal" in="SourceGraphic" in2="BackgroundImageFix" result="shape"/>
<feColorMatrix in="SourceAlpha" type="matrix" values="0 0 0 0 0 0 0 0 0 0 0 0 0 0 0 0 0 0 127 0" result="hardAlpha"/>
<feOffset dy="0.348088"/>
<feGaussianBlur stdDeviation="0.348088"/>
<feComposite in2="hardAlpha" operator="arithmetic" k2="-1" k3="1"/>
<feColorMatrix type="matrix" values="0 0 0 0 0.356863 0 0 0 0 0.262745 0 0 0 0 0.623529 0 0 0 0.5 0"/>
<feBlend mode="normal" in2="shape" result="effect1_innerShadow_1094_6130"/>
</filter>
<filter id="filter31_i_1094_6130" x="5.6438" y="41.7461" width="10.2012" height="10.5219" filterUnits="userSpaceOnUse" color-interpolation-filters="sRGB">
<feFlood flood-opacity="0" result="BackgroundImageFix"/>
<feBlend mode="normal" in="SourceGraphic" in2="BackgroundImageFix" result="shape"/>
<feColorMatrix in="SourceAlpha" type="matrix" values="0 0 0 0 0 0 0 0 0 0 0 0 0 0 0 0 0 0 127 0" result="hardAlpha"/>
<feOffset dy="0.348088"/>
<feGaussianBlur stdDeviation="0.348088"/>
<feComposite in2="hardAlpha" operator="arithmetic" k2="-1" k3="1"/>
<feColorMatrix type="matrix" values="0 0 0 0 0.356863 0 0 0 0 0.262745 0 0 0 0 0.623529 0 0 0 0.5 0"/>
<feBlend mode="normal" in2="shape" result="effect1_innerShadow_1094_6130"/>
</filter>
<filter id="filter32_i_1094_6130" x="7.34619" y="43.3945" width="6.97559" height="7.47113" filterUnits="userSpaceOnUse" color-interpolation-filters="sRGB">
<feFlood flood-opacity="0" result="BackgroundImageFix"/>
<feBlend mode="normal" in="SourceGraphic" in2="BackgroundImageFix" result="shape"/>
<feColorMatrix in="SourceAlpha" type="matrix" values="0 0 0 0 0 0 0 0 0 0 0 0 0 0 0 0 0 0 127 0" result="hardAlpha"/>
<feOffset dy="0.348088"/>
<feGaussianBlur stdDeviation="0.348088"/>
<feComposite in2="hardAlpha" operator="arithmetic" k2="-1" k3="1"/>
<feColorMatrix type="matrix" values="0 0 0 0 0.356863 0 0 0 0 0.262745 0 0 0 0 0.623529 0 0 0 0.5 0"/>
<feBlend mode="normal" in2="shape" result="effect1_innerShadow_1094_6130"/>
</filter>
<filter id="filter33_i_1094_6130" x="48.3521" y="9.9375" width="10.7229" height="10.3149" filterUnits="userSpaceOnUse" color-interpolation-filters="sRGB">
<feFlood flood-opacity="0" result="BackgroundImageFix"/>
<feBlend mode="normal" in="SourceGraphic" in2="BackgroundImageFix" result="shape"/>
<feColorMatrix in="SourceAlpha" type="matrix" values="0 0 0 0 0 0 0 0 0 0 0 0 0 0 0 0 0 0 127 0" result="hardAlpha"/>
<feOffset dy="0.348088"/>
<feGaussianBlur stdDeviation="0.348088"/>
<feComposite in2="hardAlpha" operator="arithmetic" k2="-1" k3="1"/>
<feColorMatrix type="matrix" values="0 0 0 0 0.356863 0 0 0 0 0.262745 0 0 0 0 0.623529 0 0 0 0.5 0"/>
<feBlend mode="normal" in2="shape" result="effect1_innerShadow_1094_6130"/>
</filter>
<filter id="filter34_i_1094_6130" x="50.4893" y="11.4531" width="6.9873" height="7.24848" filterUnits="userSpaceOnUse" color-interpolation-filters="sRGB">
<feFlood flood-opacity="0" result="BackgroundImageFix"/>
<feBlend mode="normal" in="SourceGraphic" in2="BackgroundImageFix" result="shape"/>
<feColorMatrix in="SourceAlpha" type="matrix" values="0 0 0 0 0 0 0 0 0 0 0 0 0 0 0 0 0 0 127 0" result="hardAlpha"/>
<feOffset dy="0.348088"/>
<feGaussianBlur stdDeviation="0.348088"/>
<feComposite in2="hardAlpha" operator="arithmetic" k2="-1" k3="1"/>
<feColorMatrix type="matrix" values="0 0 0 0 0.356863 0 0 0 0 0.262745 0 0 0 0 0.623529 0 0 0 0.5 0"/>
<feBlend mode="normal" in2="shape" result="effect1_innerShadow_1094_6130"/>
</filter>
<filter id="filter35_f_1094_6130" x="-24.9799" y="-2.01289" width="105.28" height="76.5746" filterUnits="userSpaceOnUse" color-interpolation-filters="sRGB">
<feFlood flood-opacity="0" result="BackgroundImageFix"/>
<feBlend mode="normal" in="SourceGraphic" in2="BackgroundImageFix" result="shape"/>
<feGaussianBlur stdDeviation="1.9" result="effect1_foregroundBlur_1094_6130"/>
</filter>
<filter id="filter36_f_1094_6130" x="6.24072" y="-2.66992" width="103.437" height="87.6602" filterUnits="userSpaceOnUse" color-interpolation-filters="sRGB">
<feFlood flood-opacity="0" result="BackgroundImageFix"/>
<feBlend mode="normal" in="SourceGraphic" in2="BackgroundImageFix" result="shape"/>
<feGaussianBlur stdDeviation="2.375" result="effect1_foregroundBlur_1094_6130"/>
</filter>
<linearGradient id="paint0_linear_1094_6130" x1="60.4725" y1="20.7625" x2="-4.27" y2="82.0375" gradientUnits="userSpaceOnUse">
<stop stop-color="#E2D8FE"/>
<stop offset="1" stop-color="#836EBE"/>
</linearGradient>
<linearGradient id="paint1_linear_1094_6130" x1="15.3391" y1="49.0032" x2="42.1058" y2="41.6638" gradientUnits="userSpaceOnUse">
<stop stop-color="#705EA9"/>
<stop offset="1" stop-color="#C4B7EA"/>
</linearGradient>
<clipPath id="clip0_1094_6130">
<rect x="11.5" y="11.5" width="57" height="57" rx="28.5" fill="white"/>
</clipPath>
</defs>
</svg>
