<svg width="74" height="74" viewBox="0 0 74 74" fill="none" xmlns="http://www.w3.org/2000/svg">
<g filter="url(#filter0_d_1094_6723)">
<g clip-path="url(#clip0_1094_6723)">
<rect x="8.5" y="8.5" width="57" height="57" rx="28.5" fill="url(#paint0_linear_1094_6723)"/>
<g filter="url(#filter1_f_1094_6723)">
<path opacity="0.8" d="M-15.501 44.5055L3.80685 38.3411C9.4037 36.5542 15.4197 36.5652 21.0099 38.3726L31.4353 41.7432C36.9928 43.54 42.972 43.5617 48.5424 41.8052L59.733 38.2765C65.2698 36.5306 71.2114 36.5412 76.742 38.307L87.5501 41.7577C93.147 43.5446 99.163 43.5335 104.753 41.7261L115.421 38.2773C121.044 36.4591 127.098 36.4591 132.722 38.2773L143.335 41.7087C148.959 43.5269 155.012 43.5269 160.636 41.7087L171.249 38.2773C176.873 36.4591 182.927 36.4591 188.551 38.2773L207.814 44.5055" stroke="#D66C14" stroke-width="3.04"/>
<path opacity="0.5" d="M-26.4487 53.7945L-7.1409 47.6302C-1.54406 45.8433 4.47192 45.8543 10.0622 47.6617L20.4875 51.0323C26.0451 52.8291 32.0242 52.8507 37.5946 51.0942L48.7852 47.5656C54.3221 45.8196 60.2636 45.8303 65.7942 47.596L76.6024 51.0467C82.1992 52.8336 88.2152 52.8226 93.8055 51.0152L104.473 47.5663C110.097 45.7481 116.15 45.7481 121.774 47.5663L132.387 50.9977C138.011 52.8159 144.065 52.8159 149.688 50.9977L160.302 47.5663C165.925 45.7481 171.979 45.7481 177.603 47.5663L196.867 53.7945" stroke="#D66C14" stroke-width="2.28"/>
<path d="M-19.2563 47.9254L0.0514798 41.761C5.64833 39.9741 11.6643 39.9851 17.2546 41.7925L27.6799 45.1631C33.2375 46.96 39.2166 46.9816 44.787 45.2251L55.9776 41.6964C61.5145 39.9505 67.456 39.9611 72.9866 41.7269L83.7948 45.1776C89.3916 46.9645 95.4076 46.9535 100.998 45.1461L111.665 41.6972C117.289 39.879 123.343 39.879 128.966 41.6972L139.58 45.1286C145.203 46.9468 151.257 46.9468 156.881 45.1286L167.494 41.6972C173.118 39.879 179.171 39.879 184.795 41.6972L204.059 47.9254" stroke="#D66C14" stroke-width="1.52"/>
<path d="M-22.7612 49.8258L-3.4534 43.6614C2.14344 41.8745 8.15942 41.8855 13.7497 43.6929L24.175 47.0635C29.7326 48.8603 35.7117 48.882 41.2821 47.1255L52.4727 43.5968C58.0096 41.8509 63.9511 41.8615 69.4817 43.6273L80.2899 47.078C85.8867 48.8649 91.9027 48.8538 97.493 47.0465L108.16 43.5976C113.784 41.7794 119.838 41.7794 125.461 43.5976L136.075 47.029C141.699 48.8472 147.752 48.8472 153.376 47.029L163.989 43.5976C169.613 41.7794 175.667 41.7794 181.29 43.5976L200.554 49.8258" stroke="#D66C14" stroke-width="0.76"/>
<path d="M-21.6951 50.7242L-2.38724 44.5598C3.20961 42.7729 9.22558 42.784 14.8158 44.5914L25.2412 47.962C30.7987 49.7588 36.7779 49.7804 42.3483 48.0239L53.5389 44.4953C59.0758 42.7493 65.0173 42.76 70.5479 44.5257L81.356 47.9764C86.9529 49.7633 92.9689 49.7523 98.5591 47.9449L109.226 44.496C114.85 42.6778 120.904 42.6778 126.528 44.496L137.141 47.9274C142.765 49.7456 148.818 49.7456 154.442 47.9274L165.055 44.496C170.679 42.6778 176.733 42.6778 182.357 44.496L201.62 50.7242" stroke="#D66C14" stroke-width="0.38"/>
<path d="M-24.1702 51.8043L-4.86234 45.6399C0.734509 43.853 6.75048 43.864 12.3407 45.6714L22.7661 49.0421C28.3236 50.8389 34.3028 50.8605 39.8732 49.104L51.0638 45.5753C56.6007 43.8294 62.5422 43.84 68.0728 45.6058L78.8809 49.0565C84.4778 50.8434 90.4938 50.8324 96.084 49.025L106.751 45.5761C112.375 43.7579 118.429 43.7579 124.053 45.5761L134.666 49.0075C140.29 50.8257 146.343 50.8257 151.967 49.0075L162.58 45.5761C168.204 43.7579 174.258 43.7579 179.881 45.5761L199.145 51.8043" stroke="#D66C14" stroke-width="0.38"/>
<path d="M-19.1917 61.0973L1.25091 54.7727C6.6978 53.0875 12.5283 53.0979 17.9691 54.8025L29.7578 58.4959C35.1667 60.1905 40.9615 60.211 46.3822 58.5546L58.9586 54.7117C64.3466 53.0653 70.1049 53.0754 75.4871 54.7405L87.6699 58.5097C93.1167 60.1948 98.9472 60.1844 104.388 58.4798L116.433 54.7062C121.906 52.9913 127.773 52.9913 133.247 54.7062L145.239 58.4634C150.713 60.1782 156.58 60.1782 162.053 58.4633L174.046 54.7062C179.519 52.9913 185.386 52.9913 190.86 54.7062L211.259 61.0973" stroke="#D66C14" stroke-width="0.19"/>
<path d="M-23.2415 62.4879L-2.79889 56.1633C2.648 54.4781 8.47848 54.4885 13.9193 56.1931L25.708 59.8865C31.1169 61.5811 36.9116 61.6016 42.3324 59.9452L54.9088 56.1023C60.2968 54.4559 66.0551 54.466 71.4373 56.1312L83.6201 59.9003C89.0669 61.5855 94.8974 61.5751 100.338 59.8704L112.383 56.0968C117.857 54.382 123.724 54.382 129.197 56.0968L141.189 59.854C146.663 61.5688 152.53 61.5688 158.003 59.854L169.996 56.0968C175.469 54.382 181.336 54.382 186.81 56.0968L207.209 62.4879" stroke="#D66C14" stroke-width="0.19"/>
<path d="M-18.9355 63.8121L1.50701 57.4875C6.9539 55.8024 12.7844 55.8128 18.2252 57.5174L30.0139 61.2107C35.4228 62.9054 41.2176 62.9258 46.6383 61.2694L59.2147 57.4265C64.6027 55.7802 70.361 55.7902 75.7432 57.4554L87.926 61.2245C93.3728 62.9097 99.2033 62.8993 104.644 61.1947L116.689 57.421C122.163 55.7062 128.03 55.7062 133.503 57.421L145.495 61.1782C150.969 62.893 156.836 62.893 162.309 61.1782L174.302 57.421C179.775 55.7062 185.642 55.7062 191.116 57.421L211.515 63.8121" stroke="#D66C14" stroke-width="0.76"/>
<path opacity="0.8" d="M-20.8357 64.7613L-0.393133 58.4367C5.05376 56.7516 10.8842 56.762 16.3251 58.4666L28.1137 62.16C33.5226 63.8546 39.3174 63.875 44.7381 62.2186L57.3145 58.3758C62.7025 56.7294 68.4609 56.7394 73.8431 58.4046L86.0258 62.1737C91.4727 63.8589 97.3032 63.8485 102.744 62.1439L114.789 58.3702C120.262 56.6554 126.129 56.6554 131.603 58.3702L143.595 62.1274C149.069 63.8423 154.936 63.8423 160.409 62.1274L172.401 58.3702C177.875 56.6554 183.742 56.6554 189.216 58.3702L209.615 64.7613" stroke="#D66C14" stroke-width="1.52"/>
<path d="M-21.0308 67.6168L-0.588201 61.2922C4.85869 59.607 10.6892 59.6174 16.13 61.3221L27.9187 65.0154C33.3276 66.71 39.1223 66.7305 44.5431 65.0741L57.1195 61.2312C62.5075 59.5848 68.2658 59.5949 73.648 61.2601L85.8307 65.0292C91.2776 66.7144 97.1081 66.704 102.549 64.9994L114.594 61.2257C120.067 59.5109 125.934 59.5109 131.408 61.2257L143.4 64.9829C148.874 66.6977 154.741 66.6977 160.214 64.9829L172.206 61.2257C177.68 59.5109 183.547 59.5109 189.02 61.2257L209.42 67.6168" stroke="#D66C14" stroke-width="0.38"/>
<path d="M-18.7556 42.3199L0.552212 36.1555C6.14906 34.3687 12.165 34.3797 17.7553 36.1871L28.1807 39.5577C33.7382 41.3545 39.7173 41.3761 45.2878 39.6196L56.4783 36.091C62.0152 34.345 67.9568 34.3557 73.4874 36.1214L84.2955 39.5721C89.8923 41.359 95.9083 41.348 101.499 39.5406L112.166 36.0917C117.79 34.2735 123.843 34.2735 129.467 36.0917L140.08 39.5231C145.704 41.3413 151.758 41.3413 157.382 39.5231L167.995 36.0917C173.619 34.2735 179.672 34.2735 185.296 36.0917L204.56 42.3199" stroke="#D66C14" stroke-width="0.76"/>
<path d="M-21.0605 41.1148L-1.75272 34.9505C3.84413 33.1636 9.8601 33.1746 15.4504 34.982L25.8757 38.3526C31.4333 40.1494 37.4124 40.1711 42.9828 38.4146L54.1734 34.8859C59.7103 33.14 65.6518 33.1506 71.1824 34.9163L81.9906 38.367C87.5874 40.1539 93.6034 40.1429 99.1936 38.3355L109.861 34.8867C115.485 33.0684 121.538 33.0684 127.162 34.8867L137.775 38.318C143.399 40.1362 149.453 40.1362 155.077 38.318L165.69 34.8867C171.314 33.0684 177.367 33.0684 182.991 34.8867L202.255 41.1148" stroke="#D66C14" stroke-width="0.38"/>
<path opacity="0.5" d="M-29.02 21.8004L-8.57746 15.4758C-3.13057 13.7906 2.69991 13.801 8.14075 15.5056L19.9294 19.199C25.3383 20.8936 31.1331 20.9141 36.5538 19.2577L49.1302 15.4148C54.5182 13.7684 60.2765 13.7785 65.6588 15.4437L77.8415 19.2128C83.2884 20.898 89.1189 20.8876 94.5597 19.1829L106.605 15.4093C112.078 13.6945 117.945 13.6945 123.419 15.4093L135.411 19.1665C140.884 20.8813 146.751 20.8813 152.225 19.1665L164.217 15.4093C169.691 13.6945 175.558 13.6945 181.031 15.4093L201.43 21.8004" stroke="#D66C14" stroke-width="0.76"/>
<path d="M-25.3247 20.277L-4.88215 13.9524C0.564744 12.2672 6.39523 12.2776 11.8361 13.9822L23.6247 17.6756C29.0336 19.3702 34.8284 19.3907 40.2491 17.7343L52.8255 13.8914C58.2135 12.245 63.9719 12.2551 69.3541 13.9202L81.5368 17.6893C86.9837 19.3745 92.8142 19.3641 98.255 17.6595L110.3 13.8859C115.773 12.171 121.64 12.171 127.114 13.8859L139.106 17.643C144.58 19.3579 150.447 19.3579 155.92 17.643L167.912 13.8859C173.386 12.171 179.253 12.171 184.727 13.8859L205.126 20.277" stroke="#D66C14" stroke-width="0.38"/>
<path opacity="0.7" d="M-24.1052 13.691L-3.66266 7.36643C1.78423 5.68126 7.61471 5.69166 13.0555 7.39627L24.8442 11.0896C30.2531 12.7843 36.0479 12.8047 41.4686 11.1483L54.045 7.30545C59.433 5.65907 65.1913 5.66911 70.5736 7.33428L82.7563 11.1034C88.2032 12.7886 94.0337 12.7782 99.4745 11.0736L111.519 7.29993C116.993 5.58508 122.86 5.58508 128.333 7.29993L140.326 11.0571C145.799 12.7719 151.666 12.7719 157.14 11.0571L169.132 7.29993C174.605 5.58508 180.472 5.58508 185.946 7.29993L206.345 13.691" stroke="#D66C14" stroke-width="0.38"/>
<path opacity="0.8" d="M-29.5427 24.6227L-9.10016 18.2981C-3.65327 16.6129 2.17721 16.6233 7.61805 18.3279L19.4067 22.0213C24.8156 23.7159 30.6104 23.7364 36.0311 22.08L48.6075 18.2371C53.9955 16.5907 59.7538 16.6008 65.1361 18.2659L77.3188 22.0351C82.7657 23.7202 88.5962 23.7098 94.037 22.0052L106.082 18.2316C111.555 16.5167 117.422 16.5167 122.896 18.2316L134.888 21.9887C140.362 23.7036 146.229 23.7036 151.702 21.9887L163.694 18.2316C169.168 16.5167 175.035 16.5167 180.509 18.2316L200.908 24.6227" stroke="#D66C14" stroke-width="1.52"/>
<path opacity="0.7" d="M-29.1567 29.3648L-8.71418 23.0403C-3.26729 21.3551 2.5632 21.3655 8.00403 23.0701L19.7927 26.7635C25.2016 28.4581 30.9964 28.4785 36.4171 26.8222L48.9935 22.9793C54.3815 21.3329 60.1398 21.3429 65.5221 23.0081L77.7048 26.7772C83.1517 28.4624 88.9821 28.452 94.423 26.7474L106.468 22.9738C111.941 21.2589 117.808 21.2589 123.282 22.9738L135.274 26.7309C140.748 28.4458 146.615 28.4458 152.088 26.7309L164.08 22.9738C169.554 21.2589 175.421 21.2589 180.894 22.9738L201.294 29.3648" stroke="#D66C14" stroke-width="0.76"/>
<path opacity="0.7" d="M-34.1638 27.4645L-13.7213 21.1399C-8.27437 19.4547 -2.44388 19.4651 2.99695 21.1697L14.7856 24.8631C20.1945 26.5577 25.9893 26.5782 31.41 24.9218L43.9864 21.0789C49.3744 19.4325 55.1327 19.4426 60.515 21.1077L72.6977 24.8768C78.1446 26.562 83.9751 26.5516 89.4159 24.847L101.461 21.0734C106.934 19.3585 112.801 19.3585 118.275 21.0734L130.267 24.8305C135.741 26.5454 141.608 26.5454 147.081 24.8305L159.073 21.0734C164.547 19.3585 170.414 19.3585 175.887 21.0734L196.287 27.4645" stroke="#D66C14" stroke-width="0.76"/>
<path d="M-32.7566 23.2691L-12.314 16.9446C-6.86714 15.2594 -1.03666 15.2698 4.40418 16.9744L16.1928 20.6678C21.6017 22.3624 27.3965 22.3828 32.8172 20.7265L45.3936 16.8836C50.7816 15.2372 56.54 15.2472 61.9222 16.9124L74.1049 20.6815C79.5518 22.3667 85.3823 22.3563 90.8231 20.6517L102.868 16.8781C108.341 15.1632 114.208 15.1632 119.682 16.8781L131.674 20.6352C137.148 22.3501 143.015 22.3501 148.488 20.6352L160.481 16.8781C165.954 15.1632 171.821 15.1632 177.295 16.8781L197.694 23.2691" stroke="#D66C14" stroke-width="0.38"/>
<path opacity="0.7" d="M60.6075 49.0657C60.7515 50.2484 56.8921 52.1236 52.9408 52.7216C48.9896 53.3196 45.4565 53.4784 45.3125 52.2956C45.1685 51.1129 48.4681 49.0365 52.4194 48.4385C56.3706 47.8405 60.4635 47.8829 60.6075 49.0657Z" fill="#D66C14"/>
<path opacity="0.6" d="M58.9448 49.2557C59.0565 50.1727 55.9455 51.7769 52.8821 52.2405C49.8187 52.7042 46.8015 52.9277 46.6898 52.0107C46.5782 51.0937 49.4144 49.3835 52.4778 48.9198C55.5412 48.4562 58.8332 48.3387 58.9448 49.2557Z" fill="#F8B375"/>
<path d="M57.1168 23.5728C57.1831 24.4942 55.6226 25.7784 54.0743 25.9351C52.5259 26.0919 50.9984 26.0148 50.9321 25.0934C50.8658 24.172 52.2859 22.7553 53.8342 22.5985C55.3826 22.4418 57.0505 22.6514 57.1168 23.5728Z" fill="#F8B375"/>
<path opacity="0.6" d="M56.0144 23.8168C56.0571 24.4102 55.052 25.2374 54.0546 25.3384C53.0573 25.4393 52.0734 25.3897 52.0307 24.7962C51.988 24.2027 52.9027 23.2902 53.9 23.1892C54.8974 23.0883 55.9717 23.2233 56.0144 23.8168Z" fill="#BA6824"/>
<path opacity="0.5" d="M57.8524 49.3497C57.9227 49.9275 55.3219 51.2447 53.005 51.5953C50.6881 51.946 48.1377 52.3499 48.0674 51.7722C47.997 51.1945 50.4334 49.8539 52.7503 49.5032C55.0671 49.1526 57.7821 48.772 57.8524 49.3497Z" fill="#D66C14"/>
<path opacity="0.6" d="M56.4274 49.809C56.4773 50.2187 54.6107 51.0438 52.9679 51.2925C51.3252 51.5411 49.8273 51.7021 49.7774 51.2924C49.7275 50.8828 51.1446 50.0577 52.7873 49.809C54.4301 49.5604 56.3776 49.3994 56.4274 49.809Z" fill="#91470A"/>
<path opacity="0.6" d="M35.6076 38.7085C35.5244 39.1127 33.4922 39.3001 31.8558 39.0124C30.2194 38.7246 28.7483 38.4 28.8315 37.9958C28.9148 37.5916 30.5208 37.261 32.1572 37.5487C33.7936 37.8365 35.6908 38.3043 35.6076 38.7085Z" fill="#91470A"/>
<path d="M30.1137 53.5055C30.1178 53.9181 28.9069 54.5022 27.8724 54.5425C26.838 54.5828 25.8991 54.5543 25.895 54.1416C25.891 53.729 26.8233 53.0885 27.8577 53.0482C28.8922 53.0079 30.1097 53.0928 30.1137 53.5055Z" fill="#CE7422"/>
<path opacity="0.5" d="M36.9985 18.0679C36.9735 17.6328 35.567 17.2276 33.8662 17.3249C32.1653 17.4223 30.4311 18.0402 30.456 18.4754C30.481 18.9105 32.263 19.1295 33.9639 19.0321C35.6647 18.9348 37.0234 18.5031 36.9985 18.0679Z" fill="#D66C14"/>
<path opacity="0.4" d="M43.9996 16.022C43.8599 15.6091 43.1926 15.323 42.5611 15.5367C41.9297 15.7504 41.4408 16.4625 41.5805 16.8754C41.7203 17.2882 42.4778 17.3702 43.1093 17.1565C43.7407 16.9428 44.1394 16.4348 43.9996 16.022Z" fill="#D66C14"/>
<path opacity="0.3" d="M27.31 20.1561C27.31 19.7202 27.0098 19.2353 26.6394 19.2353C26.2691 19.2353 25.885 19.7531 25.885 20.189C25.885 20.6248 26.2691 20.9453 26.6394 20.9453C27.0098 20.9453 27.31 20.592 27.31 20.1561Z" fill="#D66C14"/>
<path opacity="0.3" d="M20.565 19.0372C20.565 18.7709 20.3848 18.4745 20.1626 18.4745C19.9404 18.4745 19.71 18.7909 19.71 19.0573C19.71 19.3237 19.9404 19.5195 20.1626 19.5195C20.3848 19.5195 20.565 19.3036 20.565 19.0372Z" fill="#D66C14"/>
</g>
<g filter="url(#filter2_f_1094_6723)">
<path d="M33.5979 -2.01215C10.0201 23.2257 24.5193 64.5579 58.6965 69.5356L69.6546 71.1316L-27.4466 60.5077L33.5979 -2.01215Z" fill="url(#paint1_linear_1094_6723)" fill-opacity="0.4"/>
</g>
<g opacity="0.2" filter="url(#filter3_f_1094_6723)">
<path d="M41.5307 75.818C66.6231 52.0855 54.706 9.93625 20.9017 2.85592L10.0632 0.5858L106.322 17.1901L41.5307 75.818Z" fill="#FFEAB3"/>
</g>
</g>
</g>
<defs>
<filter id="filter0_d_1094_6723" x="0.9" y="0.9" width="72.2" height="72.2" filterUnits="userSpaceOnUse" color-interpolation-filters="sRGB">
<feFlood flood-opacity="0" result="BackgroundImageFix"/>
<feColorMatrix in="SourceAlpha" type="matrix" values="0 0 0 0 0 0 0 0 0 0 0 0 0 0 0 0 0 0 127 0" result="hardAlpha"/>
<feOffset/>
<feGaussianBlur stdDeviation="3.8"/>
<feComposite in2="hardAlpha" operator="out"/>
<feColorMatrix type="matrix" values="0 0 0 0 0.404167 0 0 0 0 0.156468 0 0 0 0 0.0690452 0 0 0 0.8 0"/>
<feBlend mode="normal" in2="BackgroundImageFix" result="effect1_dropShadow_1094_6723"/>
<feBlend mode="normal" in="SourceGraphic" in2="effect1_dropShadow_1094_6723" result="shape"/>
</filter>
<filter id="filter1_f_1094_6723" x="-34.7511" y="5.34922" width="254.676" height="62.9246" filterUnits="userSpaceOnUse" color-interpolation-filters="sRGB">
<feFlood flood-opacity="0" result="BackgroundImageFix"/>
<feBlend mode="normal" in="SourceGraphic" in2="BackgroundImageFix" result="shape"/>
<feGaussianBlur stdDeviation="0.2375" result="effect1_foregroundBlur_1094_6723"/>
</filter>
<filter id="filter2_f_1094_6723" x="-31.2465" y="-5.81172" width="104.701" height="80.7426" filterUnits="userSpaceOnUse" color-interpolation-filters="sRGB">
<feFlood flood-opacity="0" result="BackgroundImageFix"/>
<feBlend mode="normal" in="SourceGraphic" in2="BackgroundImageFix" result="shape"/>
<feGaussianBlur stdDeviation="1.9" result="effect1_foregroundBlur_1094_6723"/>
</filter>
<filter id="filter3_f_1094_6723" x="5.31323" y="-4.16406" width="105.759" height="84.7324" filterUnits="userSpaceOnUse" color-interpolation-filters="sRGB">
<feFlood flood-opacity="0" result="BackgroundImageFix"/>
<feBlend mode="normal" in="SourceGraphic" in2="BackgroundImageFix" result="shape"/>
<feGaussianBlur stdDeviation="2.375" result="effect1_foregroundBlur_1094_6723"/>
</filter>
<linearGradient id="paint0_linear_1094_6723" x1="64.3125" y1="28.83" x2="8.5" y2="37.9975" gradientUnits="userSpaceOnUse">
<stop stop-color="#F4E8D5"/>
<stop offset="1" stop-color="#FC7100"/>
</linearGradient>
<linearGradient id="paint1_linear_1094_6723" x1="2.65757" y1="48.9703" x2="30.3764" y2="42.8327" gradientUnits="userSpaceOnUse">
<stop stop-color="#511D04"/>
<stop offset="1" stop-color="#CD7121"/>
</linearGradient>
<clipPath id="clip0_1094_6723">
<rect x="8.5" y="8.5" width="57" height="57" rx="28.5" fill="white"/>
</clipPath>
</defs>
</svg>
