<svg width="1246" height="500" viewBox="0 0 1246 500" fill="none" xmlns="http://www.w3.org/2000/svg">
<path d="M1200.72 17.0112H1187.89V52H1178.97V17.0112H1166.2V9.50521H1200.72V17.0112ZM1243.97 52H1235.64V22.9215L1227.66 52H1218.91L1211.05 23.0397V52H1202.72V9.50521H1215.78L1223.4 40.6523H1223.52L1231.15 9.50521H1243.97V52Z" fill="black"/>
<line x1="0.0473633" y1="436.908" x2="388.628" y2="436.908" stroke="black" stroke-width="13.7146"/>
<line x1="772.636" y1="436.908" x2="1165.79" y2="436.908" stroke="black" stroke-width="13.7146"/>
<path d="M417.597 469.601C415.39 461.894 416.68 455.919 421.468 451.675C430.193 456.802 436.525 459.959 440.463 461.147C447.797 461.079 451.82 459.246 452.533 455.647C452.703 452.761 450.462 449.977 445.811 447.295L432.722 440.929C424.54 436.583 420.296 430.455 419.991 422.545C420.296 417.995 421.858 413.904 424.676 410.271C427.528 406.638 430.719 404.262 434.25 403.141C437.815 401.987 442.042 401.563 446.931 401.868C455.894 402.411 463.754 404.958 470.51 409.507C470.782 415.924 468.779 421.509 464.501 426.262C456.251 420.083 449.647 417.197 444.69 417.605C440.039 417.061 437.578 418.725 437.306 422.595C437.136 424.802 440.412 427.654 447.135 431.151C454.842 434.275 460.546 437.857 464.246 441.897C467.981 445.937 469.645 450.843 469.237 456.615C468.694 464.424 465.061 470.416 458.339 474.592C454.061 477.58 447.882 478.819 439.801 478.31C432.094 477.325 424.693 474.422 417.597 469.601ZM514.97 401.104C524.306 401.104 531.725 404.754 537.225 412.054C542.725 419.353 544.966 428.605 543.947 439.809C542.929 450.979 538.193 461.657 529.739 471.842L533.609 481.773L518.687 487.629L514.41 476.782C501.338 477.834 491.798 474.83 485.789 467.768C479.813 460.672 477.318 451.573 478.302 440.471C479.287 429.369 483.31 420.032 490.372 412.461C497.434 404.89 505.633 401.104 514.97 401.104ZM513.544 420.304C509.062 420.236 505.022 422.035 501.423 425.702C497.858 429.335 495.702 434.19 494.955 440.267C494.208 446.311 495.465 451.318 498.724 455.291C501.983 459.263 505.599 461.181 509.571 461.045L506.414 451.675L518.738 446.378L522.405 455.036C525.359 451.166 527.09 446.395 527.6 440.726C528.143 435.022 527.056 430.201 524.34 426.262C521.624 422.324 518.025 420.338 513.544 420.304ZM555.457 402.479C561.568 401.291 567.391 401.376 572.925 402.734C570.854 429.691 569.886 445.36 570.022 449.74C570.192 454.085 571.108 457.413 572.772 459.721C574.436 461.996 577.271 463.133 581.277 463.133C585.317 463.133 588.084 461.894 589.578 459.416C591.106 456.937 592.073 453.695 592.481 449.689C592.888 445.648 593.584 429.946 594.569 402.581C599.526 401.325 605.162 401.291 611.477 402.479C609.847 438.773 608.031 459.178 606.027 463.694C604.024 468.175 600.969 471.808 596.861 474.592C592.752 477.342 587.371 478.717 580.717 478.717C574.062 478.717 568.223 477.054 563.198 473.726C558.207 470.365 554.981 465.51 553.522 459.161C552.096 452.812 552.741 433.918 555.457 402.479ZM644.07 401.359C649.434 397.998 654.51 397.794 659.297 400.748L679.668 474.083C675.017 477.138 668.973 477.953 661.538 476.527L657.871 462.879L638.977 465.221L634.292 478.972C626.721 479.99 621.085 478.921 617.384 475.763L644.07 401.359ZM655.019 448.619L650.589 425.04L642.593 450.096L655.019 448.619ZM687.918 408.336L688.733 402.225L693.826 401.053L713.382 401.613C732.802 405.11 742.444 417.01 742.308 437.313C741.867 447.669 739.389 456.428 734.873 463.592C729.305 473.132 715.147 477.902 692.4 477.902L686.594 476.273L685.525 469.245L687.918 408.336ZM703.706 416.943L701.669 461.809C710.462 462.387 716.658 460.876 720.257 457.277C723.856 453.678 725.893 448.059 726.368 440.42C726.878 432.747 725.876 426.958 723.364 423.054C720.885 419.115 714.332 417.078 703.706 416.943Z" fill="black"/>
<path fill-rule="evenodd" clip-rule="evenodd" d="M32.8196 172.337V312.788H95.0299H157.236L179.3 290.391L201.361 267.989V172V76.0111L178.963 53.9463L156.561 31.8862H94.6929H32.8196V172.337ZM224.769 172.445V313.003L307.869 311.725L390.969 310.447V284.698V258.948L333.618 257.633L276.268 256.317V228.606V200.895L303.187 199.491L330.107 198.086L331.512 171.167L332.916 144.247H304.592H276.268V116.302V88.3567L333.618 87.0412L390.969 85.7256L392.374 58.8059L393.778 31.8862H309.274H224.769V172.445ZM655.508 65.8284C655.522 84.499 655.241 134.532 654.881 177.019C654.516 219.505 654.506 267.436 654.853 283.527L655.485 312.788H681.234H706.983V256.607C706.983 200.792 707.054 200.427 717.962 200.427C728.018 200.427 730.228 205.142 744.245 256.607L759.549 312.788H787.106C806.109 312.788 814.616 310.971 814.513 306.936C814.428 303.719 807.345 276.481 798.768 246.415L783.183 191.747L803.604 171.705L824.026 151.663V113.835V76.0111L801.629 53.9463L779.227 31.8862H717.358H655.485L655.508 65.8284ZM842.753 172.337V312.788H927.023H1011.29V284.698V256.607H955.113H898.933V228.517V200.427H924.682H950.432V172.337V144.247H924.682H898.933V116.306V88.3614L953.943 87.0459L1008.95 85.7256L1010.36 58.8059L1011.76 31.8862H927.257H842.753V172.337ZM1034.7 172.337V312.788H1100.25H1165.79V284.698V256.607H1126H1086.2V144.247V31.8862H1060.45H1034.7V172.337ZM88.9999 172.337V256.607H111.472C123.832 256.607 136.472 254.079 139.562 250.989C143.453 247.099 145.18 222.899 145.18 172.337C145.18 121.775 143.453 97.575 139.562 93.6845C136.472 90.5946 123.832 88.0665 111.472 88.0665H88.9999V172.337ZM706.983 116.157V144.247H729.666C756.118 144.247 767.845 134.715 767.845 113.212C767.845 93.4645 760.107 88.0665 731.796 88.0665H706.983V116.157Z" fill="black"/>
<path fill-rule="evenodd" clip-rule="evenodd" d="M453.058 41.5913C436.658 51.1466 435.609 61.1935 444.963 118.914C449.935 149.584 454.041 175.207 454.088 175.848C454.135 176.49 450.918 177.019 446.939 177.019C434.677 177.019 416.719 198.845 416.719 213.742C416.719 224.393 423.029 233.583 444.809 254.65C463.372 272.605 472.899 285.531 472.899 292.759V303.696L534.931 302.39L596.964 301.083L599.576 282.357C601.013 272.057 606.552 252.043 611.889 237.881C617.226 223.719 623.074 203.255 624.876 192.403C627.76 175.085 626.73 171.372 616.435 161.972C597.104 144.326 577.095 130.202 571.434 130.202C567.75 130.202 567.24 124.794 569.786 112.645C571.809 102.992 573.485 84.6535 573.508 71.8959C573.551 51.5493 572.001 47.8273 560.896 41.5632C549.182 34.9526 547.258 35.1445 535.184 44.1615C524.411 52.2046 520.877 60.3461 514.898 90.8801C507.15 130.487 503.91 129.448 498.428 85.5992C493.611 47.0455 474.884 28.8805 453.058 41.5913ZM456.101 61.7038C454.748 65.2245 458.016 95.0281 463.367 127.931C468.713 160.834 472.098 188.742 470.89 189.949C469.682 191.162 461.738 193.559 453.24 195.282C440.375 197.894 437.552 200.755 436.4 212.389C435.221 224.266 438.905 229.716 460.979 248.775C475.872 261.636 486.944 275.072 486.944 280.287C486.944 288.677 490.474 289.37 532.59 289.248L578.237 289.117L593.977 241.261C611.416 188.245 611.936 170.797 596.149 168.545C590.55 167.749 582.535 161.85 578.331 155.441C573.054 147.384 568.003 144.635 561.987 146.545C548.129 150.942 546.692 142.014 554.828 102.112C562.918 62.4388 561.856 55.2946 547.862 55.2946C540.952 55.2946 537.965 60.9688 533.7 82.2143C515.792 171.358 511.05 184.271 500.179 173.4C497.609 170.829 491.48 145.122 486.555 116.264C481.635 87.411 476.424 61.8911 474.977 59.5502C470.979 53.0848 458.877 54.4659 456.101 61.7038Z" fill="#7AD2A2"/>
</svg>
