<svg width="249" height="128" viewBox="0 0 249 128" fill="none" xmlns="http://www.w3.org/2000/svg">
<path fill-rule="evenodd" clip-rule="evenodd" d="M30.1517 105.931C31.2181 106.319 32.2846 106.513 33.3511 106.513C33.5683 106.513 33.7515 106.518 33.9126 106.522C34.4704 106.537 34.7635 106.545 35.2901 106.319L45.179 123.77C44.7037 124.042 44.1809 124.218 43.6438 124.4C43.414 124.477 43.1816 124.556 42.9492 124.643C39.459 125.806 36.7443 126 32.5755 126H32.3815H32.1876L28.9883 125.903C23.9468 125.612 19.681 124.934 16.2877 123.867C12.0219 122.51 8.72557 120.571 6.3018 118.147C3.87803 115.723 2.22987 112.815 1.35731 109.324C0.484753 105.834 0 101.956 0 97.5934V13.4402L23.2682 2V93.0368C23.2682 95.1697 23.4621 97.0117 23.7529 98.6599C24.0438 100.308 24.6255 101.665 25.498 102.829C26.3706 103.992 27.631 104.962 29.2791 105.64L30.1517 105.931ZM120.704 23.4262V43.9798L83.6685 23.4262L46.6333 43.9798V23.4262L83.6685 2.87264L120.704 23.4262ZM99.7623 44.6584C104.707 46.7913 108.973 49.6998 112.463 53.3839C115.953 57.0681 118.668 61.6247 120.704 66.957C122.643 72.1924 123.612 75.6826 123.612 82.0814C123.612 88.4801 122.643 94.3941 120.801 99.7264C118.959 105.059 116.244 109.615 112.754 113.396C109.167 117.178 104.998 120.183 100.053 122.219C95.1087 124.255 89.5825 125.321 83.4746 125.321C77.4636 125.321 72.0344 124.255 67.0899 122.219C62.1454 120.086 57.8796 117.178 54.3894 113.396C50.8991 109.615 48.0876 105.059 46.1486 99.7264C44.2095 94.3941 43.24 88.4801 43.24 82.0814C43.24 75.6826 44.2095 72.2893 46.2455 66.957C48.2815 61.6247 51.093 57.0681 54.6802 53.3839C58.1705 49.6029 62.4363 46.6943 67.3808 44.6584C72.3253 42.6224 77.6575 41.5559 83.4746 41.5559C89.3886 41.5559 94.8178 42.6224 99.7623 44.6584ZM83.4746 105.35C88.8069 105.35 92.8788 103.217 95.6904 99.0477C98.5989 94.8789 99.9562 89.1588 99.9562 81.9844C99.9562 74.8101 98.502 71.6107 95.6904 67.5387C92.7819 63.4668 88.8069 61.4308 83.4746 61.4308C78.1423 61.4308 74.0704 63.4668 71.1618 67.5387C68.2533 71.6107 66.7991 74.8101 66.7991 81.9844C66.7991 89.1588 68.2533 94.8789 71.1618 99.0477C74.0704 103.217 78.1423 105.35 83.4746 105.35ZM244.607 104.186C242.474 105.059 240.05 105.64 237.335 106.125C234.718 106.61 232.1 106.804 229.676 106.804C224.538 106.804 221.048 105.35 219.303 102.441C217.557 99.5325 216.782 95.6544 216.782 90.8069V64.9211H244.607V45.6279H216.782V17.706L193.611 30.1157V45.6279H158.321V38.6474C158.321 36.5145 158.514 34.4785 158.999 32.5395C159.484 30.6974 160.26 29.0493 161.326 27.692C162.393 26.3347 163.944 25.2682 165.883 24.4926C167.822 23.717 170.149 23.3292 172.96 23.3292C174.705 23.3292 176.547 23.5231 178.583 23.8139L178.777 23.8462C180.504 24.1334 182.791 24.5139 183.819 25.0743L187.697 6.65365C183.819 4.71464 177.129 4.03598 177.129 4.03598C175.093 3.84208 172.863 3.64818 170.633 3.64818C158.902 3.64818 150.08 6.7506 144.166 12.9555C138.252 19.1603 135.246 27.595 135.246 38.1626V124.255H158.418V64.9211H193.708V91.0978C193.708 96.4301 194.192 101.181 195.162 105.543C196.131 109.906 197.876 113.59 200.397 116.693C202.918 119.795 206.214 122.122 210.383 123.867C214.552 125.612 219.787 126.388 226.089 126.388C231.034 126.388 235.299 126 238.693 125.127C242.086 124.255 245.188 123.285 248 122.219L244.607 104.186Z" fill="#00BDFF"/>
</svg>
