<?xml version="1.0" encoding="utf-8"?>
<!-- Generator: Adobe Illustrator 24.0.0, SVG Export Plug-In . SVG Version: 6.00 Build 0)  -->
<svg version="1.1" id="Layer_1" xmlns="http://www.w3.org/2000/svg" xmlns:xlink="http://www.w3.org/1999/xlink" x="0px" y="0px"
	 viewBox="0 0 320 320" style="enable-background:new 0 0 320 320;" xml:space="preserve">
<style type="text/css">
	.st0{fill:#FFFFFF;}
	.st1{fill:#F05D26;}
</style>
<g>
	<g>
		<path class="st0" d="M105.2,175.1c0-9.6,0-19.3,0-28.9c0.1,0,0.4,0,0.5,0c3.2,0,6.3,0,9.5,0c2.9,0,5.7,0.5,8.3,1.9
			c4,2.1,6.1,5.5,6.8,9.9c0.4,2.9,0.2,5.8-0.9,8.5c-1.8,4.3-5,6.8-9.4,7.9c-1.5,0.4-3,0.6-4.6,0.6c-3.3,0-6.5,0-9.9,0
			C105.6,175.1,105.4,175.1,105.2,175.1z M111,170.3c2.2-0.1,4.4,0,6.5-0.4c3.2-0.4,5.5-2.4,6.5-5.5c0.6-1.8,0.6-3.6,0.4-5.5
			c-0.4-4.3-3.5-7.4-7.9-7.7c-1.8-0.1-3.7-0.1-5.4-0.1c-0.1,0-0.1,0-0.2,0C111,157.5,111,163.8,111,170.3z"/>
		<path class="st0" d="M230.1,155.3c0-1,0-2,0-3c1.9,0,3.8,0,5.8,0c0,7.6,0,15.2,0,22.9c-1.9,0-3.8,0-5.8,0c0-1,0-2.1,0-3.1
			c-0.8,0.7-1.5,1.4-2.4,2c-3.8,2.6-10.2,2.2-13.7-3c-1.5-2.3-2.1-4.9-2.1-7.6c0-2.9,0.7-5.7,2.6-7.9c2-2.4,4.6-3.6,7.6-3.7
			c3-0.1,5.6,1,7.6,3.4c0.1,0.1,0.1,0.1,0.1,0.1S230,155.3,230.1,155.3z M230.2,163.6c-0.1-0.8-0.2-1.6-0.4-2.4
			c-0.7-2.4-2.7-4.1-5.1-4.3c-2.7-0.2-4.9,1-6,3.3c-1.1,2.5-1.1,5,0.4,7.4c2.1,3.5,6.9,3.8,9.6,0.7
			C229.6,166.9,230.1,165.3,230.2,163.6z"/>
		<path class="st0" d="M173.5,166.8c2.1,0,4.1,0,6.2,0c0.1,0.2,0.1,0.4,0.1,0.7c0.4,1.7,1.5,2.8,3.2,3.1c1.2,0.2,2.4,0.1,3.5-0.4
			c2.4-1.1,2.7-4,0.7-5.7c-0.9-0.7-2-1-3-1.4c-2.1-0.7-4.2-1.3-6.2-2.1c-2.3-1-3.8-2.6-4.3-5.2c-0.7-4.6,1.5-8.1,6-9.4
			c3.2-0.9,6.4-0.9,9.5,0.6c2.9,1.3,4.5,3.6,4.8,6.8c0,0.1,0,0.1,0,0.2c0,0,0,0.1-0.1,0.1c-0.1,0-0.3,0-0.4,0c-1.8,0-3.5,0-5.4,0
			c-0.4,0-0.5-0.1-0.6-0.4c-0.2-1.3-1-2.1-2.1-2.6c-1.2-0.5-2.5-0.6-3.8-0.1c-1.2,0.4-1.9,1.2-2.1,2.4c-0.2,1.2,0,2.2,1,3
			c0.9,0.7,2,1.1,3,1.5c1.9,0.7,3.8,1.3,5.7,2c0.9,0.4,1.8,1,2.6,1.5c1.9,1.5,2.6,3.6,2.4,6c-0.3,3.8-2.4,6.3-5.9,7.5
			c-3.5,1.2-7,1-10.4-0.7c-2.6-1.3-4.3-3.4-4.6-6.3C173.5,167.4,173.5,167.1,173.5,166.8z"/>
		<path class="st0" d="M262.1,165.3c0,3.3,0,6.5,0,9.7c-1.9,0-3.8,0-5.7,0c0-10.1,0-20.4,0-30.6c1.9,0,3.8,0,5.7,0
			c0,5.7,0,11.5,0,17.4c0.2-0.2,0.3-0.3,0.4-0.4c2.4-2.9,4.7-6,7.1-8.9c0.2-0.3,0.4-0.4,0.8-0.4c2.1,0,4.3,0,6.5,0
			c0.1,0,0.3,0,0.6,0c-3.4,3.9-6.8,7.6-10.1,11.5c3.4,3.8,6.8,7.6,10.1,11.4c-0.2,0-0.4,0-0.4,0c-2.2,0-4.4,0-6.6,0
			c-0.3,0-0.4-0.1-0.7-0.3c-2.4-3-4.8-6-7.1-9C262.4,165.6,262.2,165.5,262.1,165.3z"/>
		<path class="st0" d="M156,163.5c0,5.9-3.5,10.4-9,11.6c-2.7,0.7-5.4,0.5-7.9-0.7c-4-1.8-6.1-5-6.6-9.3c-0.3-2.3,0-4.6,1-6.7
			c1.8-3.8,4.8-6,9-6.5c3.2-0.4,6.2,0.1,8.8,2c2.9,2.1,4.4,4.9,4.8,8.5C156,162.8,156,163.2,156,163.5z M150.2,163.6
			c-0.1-0.8-0.2-1.7-0.4-2.4c-0.7-2.6-2.9-4.3-5.6-4.3c-2.7,0-4.9,1.7-5.5,4.3c-0.4,1.6-0.4,3.3,0,4.9c0.6,2.4,2.4,4.1,4.6,4.3
			c2.7,0.3,4.9-0.9,6.1-3.2C149.9,166.1,150.1,164.8,150.2,163.6z"/>
		<path class="st0" d="M171.1,170.2c0,1.7,0,3.2,0,4.9l-0.1,0.1c-2.1,0-4.1,0.2-6.1-0.2c-2.6-0.6-4.3-2.4-4.6-5.1
			c-0.1-0.6-0.1-1.2-0.1-1.8c0-3.5,0-6.9,0-10.4c0-0.1,0-0.4,0-0.6c-1,0-1.8,0-2.7,0c0-1.6,0-3.2,0-4.8c0.7,0,1.5,0,2.1,0
			c0.4,0,0.6-0.1,0.6-0.6c0-1.5,0-3,0-4.6c0-0.1,0-0.4,0-0.6c0.1,0,0.3,0,0.4,0c1.6,0,3.2,0,4.9,0c0.4,0,0.5,0.1,0.5,0.5
			c0,1.5,0,3.1,0,4.6c0,0.1,0,0.4,0,0.6c1.8,0,3.4,0,5.1,0c0,1.6,0,3.2,0,4.7c-1.7,0-3.4,0-5.1,0c0,0.2,0,0.4,0,0.5
			c0,3.5,0,6.9,0,10.4c0,0.1,0,0.2,0,0.4c0.1,1.3,0.7,2,2,2C169,170.2,170,170.2,171.1,170.2z"/>
		<path class="st0" d="M205.2,156.9c0,0.2,0,0.4,0,0.6c0,3.4,0,6.8,0,10.2c0,1.8,0.6,2.4,2.4,2.4c0.9,0,1.8,0,2.6,0
			c0,1.6,0,3.2,0,4.9c-0.9,0-1.8,0-2.6,0c-1.2-0.1-2.4-0.1-3.5-0.3c-2.6-0.5-4.3-2.4-4.6-5.1c-0.1-0.6-0.1-1.2-0.1-1.8
			c0-3.5,0-6.9,0-10.4c0-0.1,0-0.4,0-0.6c-1,0-1.8,0-2.7,0c0-1.6,0-3.2,0-4.8c0.6,0,1.3,0,1.8,0c0.9,0,0.9,0,0.9-0.9
			c0-1.4,0-2.8,0-4.2c0-0.1,0-0.4,0-0.6c0.2,0,0.4,0,0.5,0c1.5,0,3.1,0,4.7,0c0.4,0,0.6,0.1,0.6,0.6c0,1.5,0,3,0,4.6
			c0,0.1,0,0.4,0,0.6c1.7,0,3.4,0,5.1,0c0,1.6,0,3.2,0,4.8C208.6,156.9,206.9,156.9,205.2,156.9z"/>
		<path class="st0" d="M246.3,175c-1.9,0-3.8,0-5.7,0c0-7.6,0-15.2,0-22.9c1.9,0,3.8,0,5.7,0c0,1.1,0,2.2,0,3.3l0.1,0.1
			c0.7-1.2,1.8-2.1,2.9-2.8c1.3-0.7,2.6-1,4-1c0,1,0,2.1,0,3c0,1,0,2,0,3c-0.2,0-0.4,0-0.6,0c-0.9,0.1-1.8,0-2.6,0.1
			c-2.4,0.4-3.5,1.8-3.8,4.3c-0.1,0.7-0.1,1.3-0.1,2.1c0,3.4,0,6.7,0,10.1C246.3,174.7,246.3,174.8,246.3,175z"/>
	</g>
	<g>
		<path class="st1" d="M44.1,151.3c0.1,0.1,0.3,0.3,0.4,0.4c5.1,5.1,10.1,10.1,15.3,15.3c0.3,0.3,0.6,0.6,0.9,0.9
			c0.4,0.4,1,0.7,1.7,0.7c2.6,0,5.2,0,7.8,0c1.3,0,2.4,0,3.7,0c0.1,0,0.3,0,0.5,0c0-0.3,0-0.6,0-1c0-2.2,0-4.3,0-6.5
			c0-0.9,0-1.8,0.1-2.6c0-0.1,0-0.3,0.1-0.4c0-1.6-0.6-3-1.8-4.1c-2.9-2.9-5.7-5.7-8.6-8.5c-2.5-2.5-5.1-5.1-7.6-7.6
			c-0.1-0.1-0.1-0.1-0.1-0.1c7.8-4.2,20.3-4.2,29.1,5c8.7,9,9.3,23.3,1.4,33c-8.1,9.9-22.1,12.1-32.7,5.4
			C43.2,174.2,40.4,161.2,44.1,151.3z"/>
		<path class="st1" d="M60.3,162.2c2.4-2.6,4.8-5.3,7.2-7.9c0.1,0.1,0.1,0.1,0.1,0.1c0.9,0.9,1.7,1.7,2.5,2.6
			c0.1,0.1,0.1,0.2,0.1,0.3c0.1,0.6,0.1,1.3,0.1,1.8c0,0.4,0.1,0.8,0.1,1.2c0,0.1,0,0.1,0,0.3c-1.4,0-2.7,0-4.1,0c0,1.4,0,2.7,0,4.1
			c-0.4,0-0.7,0-1,0.1c-0.7,0-1.5,0.1-2.2,0.1c-0.1,0-0.3,0-0.4-0.1C62,163.8,61.2,163,60.3,162.2L60.3,162.2z"/>
		<path class="st1" d="M51.5,140.8c0.4-0.3,0.7-0.6,1.2-0.9c0.1,0.1,0.1,0.1,0.1,0.1c4,4,7.9,7.9,11.8,11.8c0.1,0.1,0.1,0.1,0.3,0.3
			c0.2,0.3,0.2,0.7-0.1,1c-0.3,0.2-0.7,0.3-1,0c-0.1-0.1-0.1-0.1-0.1-0.1c-4.1-4-8.1-8.1-12.1-12.1
			C51.6,140.9,51.6,140.9,51.5,140.8z"/>
	</g>
</g>
</svg>
