<svg width="100" height="101" viewBox="0 0 100 101" fill="none" xmlns="http://www.w3.org/2000/svg">
<g filter="url(#filter0_d_1094_6391)">
<g clip-path="url(#clip0_1094_6391)">
<rect x="21.5" y="21.5" width="57" height="57" rx="28.5" fill="url(#paint0_linear_1094_6391)"/>
<g filter="url(#filter1_i_1094_6391)">
<path d="M48.8499 35.1861C47.3333 35.9413 46.0893 35.2566 45.3142 33.7001C44.539 32.1436 45.1401 30.2695 46.6568 29.5143C48.1734 28.759 49.8507 29.4083 50.6258 30.9648C51.4009 32.5214 50.3665 34.4308 48.8499 35.1861Z" fill="#E31949"/>
</g>
<g filter="url(#filter2_i_1094_6391)">
<path d="M48.8878 33.9945C47.93 34.4715 46.4777 34.2256 46.0007 33.2678C45.5237 32.3099 46.1669 30.75 47.1248 30.273C48.0826 29.796 49.2815 30.4386 49.7585 31.3965C50.2355 32.3543 49.8457 33.5175 48.8878 33.9945Z" fill="#C60C38"/>
</g>
<g filter="url(#filter3_i_1094_6391)">
<path d="M52.7988 75.9449C51.4025 76.6402 49.0632 75.2519 48.3678 73.8555C47.6725 72.4592 48.6101 70.1852 50.0065 69.4898C51.4028 68.7944 53.1505 69.7312 53.8459 71.1276C54.5412 72.5239 54.1952 75.2495 52.7988 75.9449Z" fill="#BA1F44"/>
</g>
<g filter="url(#filter4_i_1094_6391)">
<path d="M21.5931 83.9926C23.2723 84.8288 26.0854 83.1593 26.9215 81.4802C27.7577 79.801 26.6302 77.0664 24.9511 76.2303C23.2719 75.3941 21.1702 76.5206 20.3341 78.1997C19.4979 79.8789 19.914 83.1565 21.5931 83.9926Z" fill="#E31949"/>
</g>
<g filter="url(#filter5_i_1094_6391)">
<path d="M65.9833 44.1959C63.8123 46.2406 62.396 44.9468 60.2975 42.7187C58.1991 40.4905 57.2294 37.8001 59.4004 35.7554C61.5714 33.7107 64.7282 33.9509 66.8267 36.179C68.9252 38.4072 68.1543 42.1512 65.9833 44.1959Z" fill="#E31949"/>
</g>
<g filter="url(#filter6_i_1094_6391)">
<path d="M65.4409 42.1687C64.0697 43.4601 62.4285 42.9083 61.1371 41.5371C59.8458 40.1659 59.2044 38.0869 60.5756 36.7955C61.9467 35.5041 64.294 35.9766 65.5854 37.3478C66.8767 38.7189 66.8121 40.8773 65.4409 42.1687Z" fill="#C60C38"/>
</g>
<g filter="url(#filter7_i_1094_6391)">
<path d="M67.7437 80.0544C64.7971 80.2511 64.5286 78.3707 64.3268 75.3465C64.1249 72.3223 65.0769 69.6552 68.0236 69.4585C70.9702 69.2618 73.2324 71.4323 73.4343 74.4564C73.6362 77.4806 70.6903 79.8577 67.7437 80.0544Z" fill="#E31949"/>
</g>
<g filter="url(#filter8_i_1094_6391)">
<path d="M68.6046 78.1629C66.7436 78.2871 65.8363 76.8323 65.712 74.9713C65.5878 73.1102 66.406 71.1171 68.267 70.9929C70.1281 70.8687 71.6252 72.7072 71.7494 74.5683C71.8736 76.4293 70.4657 78.0387 68.6046 78.1629Z" fill="#C60C38"/>
</g>
<g filter="url(#filter9_i_1094_6391)">
<path d="M32.9891 66.6354C32.3291 67.257 31.5392 66.9914 30.9176 66.3314C30.296 65.6715 29.9873 64.6708 30.6473 64.0492C31.3073 63.4277 32.437 63.6551 33.0586 64.315C33.6801 64.975 33.649 66.0139 32.9891 66.6354Z" fill="#BA1F44"/>
</g>
<g filter="url(#filter10_i_1094_6391)">
<path d="M76.6056 54.7479C75.1663 55.3566 74.0489 54.4536 73.4402 53.0142C72.8314 51.5749 72.9326 49.7725 74.372 49.1637C75.8114 48.555 77.5009 49.6 78.1096 51.0394C78.7184 52.4788 78.045 54.1391 76.6056 54.7479Z" fill="#E31949"/>
</g>
<g opacity="0.5" filter="url(#filter11_i_1094_6391)">
<path d="M32.8885 44.5895C31.2349 46.6928 31.8952 48.8358 34.0539 50.533C36.2127 52.2302 39.3032 51.9009 40.9569 49.7975C42.6105 47.6941 42.1437 44.8924 39.985 43.1953C37.8262 41.4981 34.5422 42.4861 32.8885 44.5895Z" fill="#E31949"/>
</g>
<g filter="url(#filter12_i_1094_6391)">
<path d="M34.7431 44.9122C33.6987 46.2407 33.6138 48.5652 34.9423 49.6096C36.2707 50.654 38.8889 50.159 39.9333 48.8305C40.9777 47.5021 40.368 45.4423 39.0396 44.3979C37.7111 43.3535 35.7875 43.5838 34.7431 44.9122Z" fill="#C60C38"/>
</g>
<g filter="url(#filter13_i_1094_6391)">
<path d="M36.5115 35.1291C36.2043 35.5198 36.1793 36.2034 36.5701 36.5106C36.9608 36.8178 37.7308 36.6722 38.038 36.2815C38.3452 35.8908 38.1659 35.285 37.7751 34.9778C37.3844 34.6706 36.8187 34.7383 36.5115 35.1291Z" fill="#E31949"/>
</g>
<g filter="url(#filter14_i_1094_6391)">
<path d="M25.1116 24.6798C24.8044 25.0706 24.7794 25.7542 25.1702 26.0614C25.5609 26.3686 26.3309 26.223 26.6381 25.8323C26.9453 25.4416 26.766 24.8358 26.3752 24.5286C25.9845 24.2214 25.4188 24.2891 25.1116 24.6798Z" fill="#E31949"/>
</g>
<g filter="url(#filter15_i_1094_6391)">
<path d="M72.9861 78.5626C72.6789 78.9534 72.6539 79.637 73.0447 79.9442C73.4354 80.2514 74.2055 80.1058 74.5126 79.7151C74.8198 79.3244 74.6405 78.7186 74.2498 78.4114C73.859 78.1042 73.2933 78.1719 72.9861 78.5626Z" fill="#C60C38"/>
</g>
<g filter="url(#filter16_i_1094_6391)">
<path d="M74.8862 67.1623C74.5791 67.553 74.5541 68.2367 74.9448 68.5438C75.3355 68.851 76.1056 68.7054 76.4128 68.3147C76.72 67.924 76.5406 67.3182 76.1499 67.011C75.7592 66.7038 75.1934 66.7715 74.8862 67.1623Z" fill="#C60C38"/>
</g>
<g filter="url(#filter17_i_1094_6391)">
<path d="M35.1111 78.5959C34.8039 78.9866 34.7789 79.6702 35.1697 79.9774C35.5604 80.2846 36.3305 80.139 36.6376 79.7483C36.9448 79.3576 36.7655 78.7518 36.3748 78.4446C35.984 78.1374 35.4183 78.2051 35.1111 78.5959Z" fill="#BA1F44"/>
</g>
<g opacity="0.8">
<g filter="url(#filter18_i_1094_6391)">
<path d="M31.2011 33.145C29.6754 32.5732 27.5146 33.1739 26.9427 34.6996C26.3709 36.2253 27.5903 38.4867 29.116 39.0585C30.6417 39.6304 32.3564 38.4686 32.9282 36.9429C33.5001 35.4172 32.7268 33.7168 31.2011 33.145Z" fill="#E31949"/>
</g>
<g filter="url(#filter19_i_1094_6391)">
<path d="M30.0112 33.9161C29.1608 33.5974 27.9563 33.9322 27.6375 34.7827C27.3188 35.6332 27.9985 36.8938 28.8489 37.2125C29.6994 37.5313 30.6553 36.8837 30.974 36.0332C31.2928 35.1827 30.8617 34.2349 30.0112 33.9161Z" fill="#C60C38"/>
</g>
</g>
<g filter="url(#filter20_i_1094_6391)">
<path d="M12.8159 49.5293C13.0631 52.3954 15.156 53.5925 18.0975 53.3388C21.0391 53.0851 23.2233 50.556 22.9761 47.6899C22.7288 44.8238 20.304 42.9673 17.3624 43.221C14.4209 43.4748 12.5687 46.6632 12.8159 49.5293Z" fill="#E31949"/>
</g>
<g filter="url(#filter21_i_1094_6391)">
<path d="M14.5087 48.4194C14.6648 50.2296 16.3059 52.1167 18.1161 51.9606C19.9263 51.8044 21.618 49.4922 21.4618 47.6821C21.3057 45.8719 19.3138 44.7029 17.5036 44.8591C15.6934 45.0152 14.3525 46.6092 14.5087 48.4194Z" fill="#C60C38"/>
</g>
<g filter="url(#filter22_i_1094_6391)">
<path d="M59.3477 22.3627C57.5727 24.6204 58.2815 26.9206 60.5986 28.7422C62.9156 30.5639 66.2329 30.2104 68.0078 27.9528C69.7828 25.6951 69.2817 22.6879 66.9646 20.8663C64.6476 19.0446 61.1226 20.1051 59.3477 22.3627Z" fill="#E31949"/>
</g>
<g filter="url(#filter23_i_1094_6391)">
<path d="M61.3381 22.7099C60.2171 24.1358 60.126 26.6308 61.5519 27.7518C62.9777 28.8728 65.788 28.3415 66.909 26.9156C68.0301 25.4897 67.3756 23.2789 65.9497 22.1579C64.5238 21.0369 62.4592 21.284 61.3381 22.7099Z" fill="#C60C38"/>
</g>
<circle cx="44.1096" cy="62.8112" r="0.688176" fill="#C60C38"/>
<circle cx="35.9858" cy="62.694" r="0.688176" fill="#BA1F44"/>
<circle cx="42.7331" cy="38.4968" r="0.688176" fill="#E31949"/>
<circle cx="41.8156" cy="73.5964" r="0.688176" fill="#BA1F44"/>
<circle cx="61.3139" cy="77.9519" r="0.688176" fill="#BA1F44"/>
<circle cx="55.579" cy="64.5476" r="0.688176" fill="#E31949"/>
<circle cx="52.1706" cy="34.4343" r="0.688176" fill="#E31949"/>
<circle cx="45.4858" cy="40.3308" r="0.688176" fill="#E31949"/>
<circle cx="30.3459" cy="46.9831" r="0.688176" fill="#BA1F44"/>
<circle cx="73.1083" cy="28.7253" r="0.688176" fill="#BA1F44"/>
<path d="M-112.26 61.7809L-92.3264 55.5266C-86.813 53.7967 -80.9004 53.8074 -75.3933 55.5572L-64.2148 59.1089C-58.7399 60.8484 -52.8636 60.8694 -47.3765 59.169L-35.4204 55.464C-29.9663 53.7739 -24.127 53.7842 -18.6789 55.4936L-7.11142 59.1229C-1.59797 60.8528 4.31454 60.8421 9.8217 59.0923L21.25 55.4613C26.7902 53.701 32.7397 53.701 38.2799 55.4613L49.655 59.0754C55.1952 60.8357 61.1447 60.8357 66.6849 59.0754L78.06 55.4613C83.6002 53.701 89.5497 53.701 95.0899 55.4613L114.98 61.7809" stroke="#A60823" stroke-width="1.52"/>
<path d="M-117.01 67.4801L-97.0764 61.2258C-91.563 59.496 -85.6504 59.5066 -80.1433 61.2564L-68.9648 64.8081C-63.4899 66.5476 -57.6136 66.5686 -52.1265 64.8682L-40.1704 61.1633C-34.7163 59.4731 -28.877 59.4834 -23.4289 61.1928L-11.8614 64.8221C-6.34797 66.552 -0.43546 66.5413 5.0717 64.7916L16.5 61.1605C22.0402 59.4002 27.9897 59.4002 33.5299 61.1605L44.905 64.7746C50.4452 66.5349 56.3947 66.5349 61.9349 64.7746L73.31 61.1605C78.8502 59.4002 84.7997 59.4002 90.3399 61.1605L110.23 67.4801" stroke="#A60823" stroke-width="1.52"/>
<path d="M-121.76 70.3316L-101.826 64.0774C-96.313 62.3475 -90.4004 62.3582 -84.8933 64.108L-73.7148 67.6596C-68.2399 69.3992 -62.3636 69.4201 -56.8765 67.7198L-44.9204 64.0148C-39.4663 62.3247 -33.627 62.335 -28.1789 64.0444L-16.6114 67.6737C-11.098 69.4036 -5.18546 69.3929 0.321705 67.6431L11.75 64.0121C17.2902 62.2518 23.2397 62.2518 28.7799 64.0121L40.155 67.6262C45.6952 69.3865 51.6447 69.3865 57.1849 67.6262L68.56 64.0121C74.1002 62.2518 80.0497 62.2518 85.5899 64.0121L105.48 70.3316" stroke="#A60823" stroke-width="2.28"/>
<path d="M-115.11 63.6812L-95.1765 57.427C-89.663 55.6971 -83.7505 55.7078 -78.2434 57.4576L-67.0649 61.0093C-61.59 62.7488 -55.7137 62.7698 -50.2266 61.0694L-38.2705 57.3644C-32.8164 55.6743 -26.9771 55.6846 -21.529 57.394L-9.96152 61.0233C-4.44807 62.7532 1.46444 62.7425 6.97161 60.9927L18.3999 57.3617C23.9401 55.6014 29.8897 55.6014 35.4298 57.3617L46.8049 60.9758C52.3451 62.7361 58.2946 62.7361 63.8348 60.9758L75.2099 57.3617C80.7501 55.6014 86.6996 55.6014 92.2398 57.3617L112.13 63.6812" stroke="#A60823" stroke-width="0.76"/>
<path d="M-111.31 65.5816L-91.3764 59.3274C-85.863 57.5975 -79.9505 57.6082 -74.4433 59.358L-63.2649 62.9096C-57.79 64.6492 -51.9137 64.6701 -46.4265 62.9698L-34.4704 59.2648C-29.0164 57.5747 -23.177 57.585 -17.7289 59.2944L-6.16147 62.9237C-0.648019 64.6536 5.26449 64.6429 10.7717 62.8931L22.1999 59.2621C27.7401 57.5018 33.6897 57.5018 39.2299 59.2621L50.6049 62.8762C56.1451 64.6365 62.0947 64.6365 67.6349 62.8762L79.0099 59.2621C84.5501 57.5018 90.4997 57.5018 96.0399 59.2621L115.93 65.5816" stroke="#A60823" stroke-width="0.76"/>
<g opacity="0.3" filter="url(#filter24_f_1094_6391)">
<path d="M42.9951 11.7869C22.1846 39.3511 40.9247 78.9413 75.435 80.3193L86.4998 80.7611L-11.1799 80.3452L42.9951 11.7869Z" fill="#86041B"/>
</g>
<g opacity="0.3" filter="url(#filter25_f_1094_6391)">
<path d="M44.2499 90.241C71.7316 69.3217 64.3806 26.1414 31.5249 15.494L20.9906 12.0802L114.928 38.8623L44.2499 90.241Z" fill="#FF698D"/>
</g>
</g>
</g>
<defs>
<filter id="filter0_d_1094_6391" x="0.125" y="0.885" width="99.75" height="99.75" filterUnits="userSpaceOnUse" color-interpolation-filters="sRGB">
<feFlood flood-opacity="0" result="BackgroundImageFix"/>
<feColorMatrix in="SourceAlpha" type="matrix" values="0 0 0 0 0 0 0 0 0 0 0 0 0 0 0 0 0 0 127 0" result="hardAlpha"/>
<feMorphology radius="2.375" operator="dilate" in="SourceAlpha" result="effect1_dropShadow_1094_6391"/>
<feOffset dy="0.76"/>
<feGaussianBlur stdDeviation="9.5"/>
<feComposite in2="hardAlpha" operator="out"/>
<feColorMatrix type="matrix" values="0 0 0 0 0.9125 0 0 0 0 0.0114062 0 0 0 0 0.221506 0 0 0 0.4 0"/>
<feBlend mode="normal" in2="BackgroundImageFix" result="effect1_dropShadow_1094_6391"/>
<feBlend mode="normal" in="SourceGraphic" in2="effect1_dropShadow_1094_6391" result="shape"/>
</filter>
<filter id="filter1_i_1094_6391" x="44.9756" y="29.1992" width="5.91406" height="6.64301" filterUnits="userSpaceOnUse" color-interpolation-filters="sRGB">
<feFlood flood-opacity="0" result="BackgroundImageFix"/>
<feBlend mode="normal" in="SourceGraphic" in2="BackgroundImageFix" result="shape"/>
<feColorMatrix in="SourceAlpha" type="matrix" values="0 0 0 0 0 0 0 0 0 0 0 0 0 0 0 0 0 0 127 0" result="hardAlpha"/>
<feOffset dy="0.348088"/>
<feGaussianBlur stdDeviation="0.348088"/>
<feComposite in2="hardAlpha" operator="arithmetic" k2="-1" k3="1"/>
<feColorMatrix type="matrix" values="0 0 0 0 0.541667 0 0 0 0 0.040625 0 0 0 0 0.142143 0 0 0 1 0"/>
<feBlend mode="normal" in2="shape" result="effect1_innerShadow_1094_6391"/>
</filter>
<filter id="filter2_i_1094_6391" x="45.8396" y="30.1113" width="4.12256" height="4.46723" filterUnits="userSpaceOnUse" color-interpolation-filters="sRGB">
<feFlood flood-opacity="0" result="BackgroundImageFix"/>
<feBlend mode="normal" in="SourceGraphic" in2="BackgroundImageFix" result="shape"/>
<feColorMatrix in="SourceAlpha" type="matrix" values="0 0 0 0 0 0 0 0 0 0 0 0 0 0 0 0 0 0 127 0" result="hardAlpha"/>
<feOffset dy="0.348088"/>
<feGaussianBlur stdDeviation="0.348088"/>
<feComposite in2="hardAlpha" operator="arithmetic" k2="-1" k3="1"/>
<feColorMatrix type="matrix" values="0 0 0 0 0.541667 0 0 0 0 0.040625 0 0 0 0 0.142143 0 0 0 1 0"/>
<feBlend mode="normal" in2="shape" result="effect1_innerShadow_1094_6391"/>
</filter>
<filter id="filter3_i_1094_6391" x="48.1328" y="69.2539" width="6.06104" height="7.22504" filterUnits="userSpaceOnUse" color-interpolation-filters="sRGB">
<feFlood flood-opacity="0" result="BackgroundImageFix"/>
<feBlend mode="normal" in="SourceGraphic" in2="BackgroundImageFix" result="shape"/>
<feColorMatrix in="SourceAlpha" type="matrix" values="0 0 0 0 0 0 0 0 0 0 0 0 0 0 0 0 0 0 127 0" result="hardAlpha"/>
<feOffset dy="0.348088"/>
<feGaussianBlur stdDeviation="0.348088"/>
<feComposite in2="hardAlpha" operator="arithmetic" k2="-1" k3="1"/>
<feColorMatrix type="matrix" values="0 0 0 0 0.541667 0 0 0 0 0.040625 0 0 0 0 0.142143 0 0 0 1 0"/>
<feBlend mode="normal" in2="shape" result="effect1_innerShadow_1094_6391"/>
</filter>
<filter id="filter4_i_1094_6391" x="19.9158" y="75.9473" width="7.28833" height="8.61567" filterUnits="userSpaceOnUse" color-interpolation-filters="sRGB">
<feFlood flood-opacity="0" result="BackgroundImageFix"/>
<feBlend mode="normal" in="SourceGraphic" in2="BackgroundImageFix" result="shape"/>
<feColorMatrix in="SourceAlpha" type="matrix" values="0 0 0 0 0 0 0 0 0 0 0 0 0 0 0 0 0 0 127 0" result="hardAlpha"/>
<feOffset dy="0.348088"/>
<feGaussianBlur stdDeviation="0.348088"/>
<feComposite in2="hardAlpha" operator="arithmetic" k2="-1" k3="1"/>
<feColorMatrix type="matrix" values="0 0 0 0 0.541667 0 0 0 0 0.040625 0 0 0 0 0.142143 0 0 0 1 0"/>
<feBlend mode="normal" in2="shape" result="effect1_innerShadow_1094_6391"/>
</filter>
<filter id="filter5_i_1094_6391" x="58.1738" y="34.3555" width="9.88818" height="11.2114" filterUnits="userSpaceOnUse" color-interpolation-filters="sRGB">
<feFlood flood-opacity="0" result="BackgroundImageFix"/>
<feBlend mode="normal" in="SourceGraphic" in2="BackgroundImageFix" result="shape"/>
<feColorMatrix in="SourceAlpha" type="matrix" values="0 0 0 0 0 0 0 0 0 0 0 0 0 0 0 0 0 0 127 0" result="hardAlpha"/>
<feOffset dy="0.348088"/>
<feGaussianBlur stdDeviation="0.348088"/>
<feComposite in2="hardAlpha" operator="arithmetic" k2="-1" k3="1"/>
<feColorMatrix type="matrix" values="0 0 0 0 0.541667 0 0 0 0 0.040625 0 0 0 0 0.142143 0 0 0 1 0"/>
<feBlend mode="normal" in2="shape" result="effect1_innerShadow_1094_6391"/>
</filter>
<filter id="filter6_i_1094_6391" x="59.8088" y="36.0371" width="6.70435" height="7.20942" filterUnits="userSpaceOnUse" color-interpolation-filters="sRGB">
<feFlood flood-opacity="0" result="BackgroundImageFix"/>
<feBlend mode="normal" in="SourceGraphic" in2="BackgroundImageFix" result="shape"/>
<feColorMatrix in="SourceAlpha" type="matrix" values="0 0 0 0 0 0 0 0 0 0 0 0 0 0 0 0 0 0 127 0" result="hardAlpha"/>
<feOffset dy="0.348088"/>
<feGaussianBlur stdDeviation="0.348088"/>
<feComposite in2="hardAlpha" operator="arithmetic" k2="-1" k3="1"/>
<feColorMatrix type="matrix" values="0 0 0 0 0.541667 0 0 0 0 0.040625 0 0 0 0 0.142143 0 0 0 1 0"/>
<feBlend mode="normal" in2="shape" result="effect1_innerShadow_1094_6391"/>
</filter>
<filter id="filter7_i_1094_6391" x="64.3008" y="69.4453" width="9.14331" height="10.9711" filterUnits="userSpaceOnUse" color-interpolation-filters="sRGB">
<feFlood flood-opacity="0" result="BackgroundImageFix"/>
<feBlend mode="normal" in="SourceGraphic" in2="BackgroundImageFix" result="shape"/>
<feColorMatrix in="SourceAlpha" type="matrix" values="0 0 0 0 0 0 0 0 0 0 0 0 0 0 0 0 0 0 127 0" result="hardAlpha"/>
<feOffset dy="0.348088"/>
<feGaussianBlur stdDeviation="0.348088"/>
<feComposite in2="hardAlpha" operator="arithmetic" k2="-1" k3="1"/>
<feColorMatrix type="matrix" values="0 0 0 0 0.541667 0 0 0 0 0.040625 0 0 0 0 0.142143 0 0 0 1 0"/>
<feBlend mode="normal" in2="shape" result="effect1_innerShadow_1094_6391"/>
</filter>
<filter id="filter8_i_1094_6391" x="65.6997" y="70.9863" width="6.05737" height="7.53168" filterUnits="userSpaceOnUse" color-interpolation-filters="sRGB">
<feFlood flood-opacity="0" result="BackgroundImageFix"/>
<feBlend mode="normal" in="SourceGraphic" in2="BackgroundImageFix" result="shape"/>
<feColorMatrix in="SourceAlpha" type="matrix" values="0 0 0 0 0 0 0 0 0 0 0 0 0 0 0 0 0 0 127 0" result="hardAlpha"/>
<feOffset dy="0.348088"/>
<feGaussianBlur stdDeviation="0.348088"/>
<feComposite in2="hardAlpha" operator="arithmetic" k2="-1" k3="1"/>
<feColorMatrix type="matrix" values="0 0 0 0 0.541667 0 0 0 0 0.040625 0 0 0 0 0.142143 0 0 0 1 0"/>
<feBlend mode="normal" in2="shape" result="effect1_innerShadow_1094_6391"/>
</filter>
<filter id="filter9_i_1094_6391" x="30.2783" y="63.6836" width="3.22681" height="3.65082" filterUnits="userSpaceOnUse" color-interpolation-filters="sRGB">
<feFlood flood-opacity="0" result="BackgroundImageFix"/>
<feBlend mode="normal" in="SourceGraphic" in2="BackgroundImageFix" result="shape"/>
<feColorMatrix in="SourceAlpha" type="matrix" values="0 0 0 0 0 0 0 0 0 0 0 0 0 0 0 0 0 0 127 0" result="hardAlpha"/>
<feOffset dy="0.348088"/>
<feGaussianBlur stdDeviation="0.348088"/>
<feComposite in2="hardAlpha" operator="arithmetic" k2="-1" k3="1"/>
<feColorMatrix type="matrix" values="0 0 0 0 0.541667 0 0 0 0 0.040625 0 0 0 0 0.142143 0 0 0 1 0"/>
<feBlend mode="normal" in2="shape" result="effect1_innerShadow_1094_6391"/>
</filter>
<filter id="filter10_i_1094_6391" x="73.0879" y="48.9863" width="5.24585" height="6.30317" filterUnits="userSpaceOnUse" color-interpolation-filters="sRGB">
<feFlood flood-opacity="0" result="BackgroundImageFix"/>
<feBlend mode="normal" in="SourceGraphic" in2="BackgroundImageFix" result="shape"/>
<feColorMatrix in="SourceAlpha" type="matrix" values="0 0 0 0 0 0 0 0 0 0 0 0 0 0 0 0 0 0 127 0" result="hardAlpha"/>
<feOffset dy="0.348088"/>
<feGaussianBlur stdDeviation="0.348088"/>
<feComposite in2="hardAlpha" operator="arithmetic" k2="-1" k3="1"/>
<feColorMatrix type="matrix" values="0 0 0 0 0.541667 0 0 0 0 0.040625 0 0 0 0 0.142143 0 0 0 1 0"/>
<feBlend mode="normal" in2="shape" result="effect1_innerShadow_1094_6391"/>
</filter>
<filter id="filter11_i_1094_6391" x="31.9609" y="42.332" width="9.99023" height="9.6352" filterUnits="userSpaceOnUse" color-interpolation-filters="sRGB">
<feFlood flood-opacity="0" result="BackgroundImageFix"/>
<feBlend mode="normal" in="SourceGraphic" in2="BackgroundImageFix" result="shape"/>
<feColorMatrix in="SourceAlpha" type="matrix" values="0 0 0 0 0 0 0 0 0 0 0 0 0 0 0 0 0 0 127 0" result="hardAlpha"/>
<feOffset dy="0.348088"/>
<feGaussianBlur stdDeviation="0.348088"/>
<feComposite in2="hardAlpha" operator="arithmetic" k2="-1" k3="1"/>
<feColorMatrix type="matrix" values="0 0 0 0 0.541667 0 0 0 0 0.040625 0 0 0 0 0.142143 0 0 0 1 0"/>
<feBlend mode="normal" in2="shape" result="effect1_innerShadow_1094_6391"/>
</filter>
<filter id="filter12_i_1094_6391" x="33.9524" y="43.7441" width="6.50977" height="6.77582" filterUnits="userSpaceOnUse" color-interpolation-filters="sRGB">
<feFlood flood-opacity="0" result="BackgroundImageFix"/>
<feBlend mode="normal" in="SourceGraphic" in2="BackgroundImageFix" result="shape"/>
<feColorMatrix in="SourceAlpha" type="matrix" values="0 0 0 0 0 0 0 0 0 0 0 0 0 0 0 0 0 0 127 0" result="hardAlpha"/>
<feOffset dy="0.348088"/>
<feGaussianBlur stdDeviation="0.348088"/>
<feComposite in2="hardAlpha" operator="arithmetic" k2="-1" k3="1"/>
<feColorMatrix type="matrix" values="0 0 0 0 0.541667 0 0 0 0 0.040625 0 0 0 0 0.142143 0 0 0 1 0"/>
<feBlend mode="normal" in2="shape" result="effect1_innerShadow_1094_6391"/>
</filter>
<filter id="filter13_i_1094_6391" x="36.2788" y="34.7852" width="1.91479" height="2.23871" filterUnits="userSpaceOnUse" color-interpolation-filters="sRGB">
<feFlood flood-opacity="0" result="BackgroundImageFix"/>
<feBlend mode="normal" in="SourceGraphic" in2="BackgroundImageFix" result="shape"/>
<feColorMatrix in="SourceAlpha" type="matrix" values="0 0 0 0 0 0 0 0 0 0 0 0 0 0 0 0 0 0 127 0" result="hardAlpha"/>
<feOffset dy="0.348088"/>
<feGaussianBlur stdDeviation="0.348088"/>
<feComposite in2="hardAlpha" operator="arithmetic" k2="-1" k3="1"/>
<feColorMatrix type="matrix" values="0 0 0 0 0.541667 0 0 0 0 0.040625 0 0 0 0 0.142143 0 0 0 1 0"/>
<feBlend mode="normal" in2="shape" result="effect1_innerShadow_1094_6391"/>
</filter>
<filter id="filter14_i_1094_6391" x="24.8789" y="24.3359" width="1.91479" height="2.23871" filterUnits="userSpaceOnUse" color-interpolation-filters="sRGB">
<feFlood flood-opacity="0" result="BackgroundImageFix"/>
<feBlend mode="normal" in="SourceGraphic" in2="BackgroundImageFix" result="shape"/>
<feColorMatrix in="SourceAlpha" type="matrix" values="0 0 0 0 0 0 0 0 0 0 0 0 0 0 0 0 0 0 127 0" result="hardAlpha"/>
<feOffset dy="0.348088"/>
<feGaussianBlur stdDeviation="0.348088"/>
<feComposite in2="hardAlpha" operator="arithmetic" k2="-1" k3="1"/>
<feColorMatrix type="matrix" values="0 0 0 0 0.541667 0 0 0 0 0.040625 0 0 0 0 0.142143 0 0 0 1 0"/>
<feBlend mode="normal" in2="shape" result="effect1_innerShadow_1094_6391"/>
</filter>
<filter id="filter15_i_1094_6391" x="72.7534" y="78.2188" width="1.91479" height="2.23871" filterUnits="userSpaceOnUse" color-interpolation-filters="sRGB">
<feFlood flood-opacity="0" result="BackgroundImageFix"/>
<feBlend mode="normal" in="SourceGraphic" in2="BackgroundImageFix" result="shape"/>
<feColorMatrix in="SourceAlpha" type="matrix" values="0 0 0 0 0 0 0 0 0 0 0 0 0 0 0 0 0 0 127 0" result="hardAlpha"/>
<feOffset dy="0.348088"/>
<feGaussianBlur stdDeviation="0.348088"/>
<feComposite in2="hardAlpha" operator="arithmetic" k2="-1" k3="1"/>
<feColorMatrix type="matrix" values="0 0 0 0 0.541667 0 0 0 0 0.040625 0 0 0 0 0.142143 0 0 0 1 0"/>
<feBlend mode="normal" in2="shape" result="effect1_innerShadow_1094_6391"/>
</filter>
<filter id="filter16_i_1094_6391" x="74.6536" y="66.8184" width="1.91479" height="2.23871" filterUnits="userSpaceOnUse" color-interpolation-filters="sRGB">
<feFlood flood-opacity="0" result="BackgroundImageFix"/>
<feBlend mode="normal" in="SourceGraphic" in2="BackgroundImageFix" result="shape"/>
<feColorMatrix in="SourceAlpha" type="matrix" values="0 0 0 0 0 0 0 0 0 0 0 0 0 0 0 0 0 0 127 0" result="hardAlpha"/>
<feOffset dy="0.348088"/>
<feGaussianBlur stdDeviation="0.348088"/>
<feComposite in2="hardAlpha" operator="arithmetic" k2="-1" k3="1"/>
<feColorMatrix type="matrix" values="0 0 0 0 0.541667 0 0 0 0 0.040625 0 0 0 0 0.142143 0 0 0 1 0"/>
<feBlend mode="normal" in2="shape" result="effect1_innerShadow_1094_6391"/>
</filter>
<filter id="filter17_i_1094_6391" x="34.8784" y="78.252" width="1.91479" height="2.23871" filterUnits="userSpaceOnUse" color-interpolation-filters="sRGB">
<feFlood flood-opacity="0" result="BackgroundImageFix"/>
<feBlend mode="normal" in="SourceGraphic" in2="BackgroundImageFix" result="shape"/>
<feColorMatrix in="SourceAlpha" type="matrix" values="0 0 0 0 0 0 0 0 0 0 0 0 0 0 0 0 0 0 127 0" result="hardAlpha"/>
<feOffset dy="0.348088"/>
<feGaussianBlur stdDeviation="0.348088"/>
<feComposite in2="hardAlpha" operator="arithmetic" k2="-1" k3="1"/>
<feColorMatrix type="matrix" values="0 0 0 0 0.541667 0 0 0 0 0.040625 0 0 0 0 0.142143 0 0 0 1 0"/>
<feBlend mode="normal" in2="shape" result="effect1_innerShadow_1094_6391"/>
</filter>
<filter id="filter18_i_1094_6391" x="26.7991" y="32.9316" width="6.31763" height="6.62348" filterUnits="userSpaceOnUse" color-interpolation-filters="sRGB">
<feFlood flood-opacity="0" result="BackgroundImageFix"/>
<feBlend mode="normal" in="SourceGraphic" in2="BackgroundImageFix" result="shape"/>
<feColorMatrix in="SourceAlpha" type="matrix" values="0 0 0 0 0 0 0 0 0 0 0 0 0 0 0 0 0 0 127 0" result="hardAlpha"/>
<feOffset dy="0.348088"/>
<feGaussianBlur stdDeviation="0.348088"/>
<feComposite in2="hardAlpha" operator="arithmetic" k2="-1" k3="1"/>
<feColorMatrix type="matrix" values="0 0 0 0 0.541667 0 0 0 0 0.040625 0 0 0 0 0.142143 0 0 0 1 0"/>
<feBlend mode="normal" in2="shape" result="effect1_innerShadow_1094_6391"/>
</filter>
<filter id="filter19_i_1094_6391" x="27.5574" y="33.7969" width="3.52173" height="3.84613" filterUnits="userSpaceOnUse" color-interpolation-filters="sRGB">
<feFlood flood-opacity="0" result="BackgroundImageFix"/>
<feBlend mode="normal" in="SourceGraphic" in2="BackgroundImageFix" result="shape"/>
<feColorMatrix in="SourceAlpha" type="matrix" values="0 0 0 0 0 0 0 0 0 0 0 0 0 0 0 0 0 0 127 0" result="hardAlpha"/>
<feOffset dy="0.348088"/>
<feGaussianBlur stdDeviation="0.348088"/>
<feComposite in2="hardAlpha" operator="arithmetic" k2="-1" k3="1"/>
<feColorMatrix type="matrix" values="0 0 0 0 0.541667 0 0 0 0 0.040625 0 0 0 0 0.142143 0 0 0 1 0"/>
<feBlend mode="normal" in2="shape" result="effect1_innerShadow_1094_6391"/>
</filter>
<filter id="filter20_i_1094_6391" x="12.7939" y="43.1973" width="10.2012" height="10.5219" filterUnits="userSpaceOnUse" color-interpolation-filters="sRGB">
<feFlood flood-opacity="0" result="BackgroundImageFix"/>
<feBlend mode="normal" in="SourceGraphic" in2="BackgroundImageFix" result="shape"/>
<feColorMatrix in="SourceAlpha" type="matrix" values="0 0 0 0 0 0 0 0 0 0 0 0 0 0 0 0 0 0 127 0" result="hardAlpha"/>
<feOffset dy="0.348088"/>
<feGaussianBlur stdDeviation="0.348088"/>
<feComposite in2="hardAlpha" operator="arithmetic" k2="-1" k3="1"/>
<feColorMatrix type="matrix" values="0 0 0 0 0.541667 0 0 0 0 0.040625 0 0 0 0 0.142143 0 0 0 1 0"/>
<feBlend mode="normal" in2="shape" result="effect1_innerShadow_1094_6391"/>
</filter>
<filter id="filter21_i_1094_6391" x="14.4963" y="44.8457" width="6.97559" height="7.47113" filterUnits="userSpaceOnUse" color-interpolation-filters="sRGB">
<feFlood flood-opacity="0" result="BackgroundImageFix"/>
<feBlend mode="normal" in="SourceGraphic" in2="BackgroundImageFix" result="shape"/>
<feColorMatrix in="SourceAlpha" type="matrix" values="0 0 0 0 0 0 0 0 0 0 0 0 0 0 0 0 0 0 127 0" result="hardAlpha"/>
<feOffset dy="0.348088"/>
<feGaussianBlur stdDeviation="0.348088"/>
<feComposite in2="hardAlpha" operator="arithmetic" k2="-1" k3="1"/>
<feColorMatrix type="matrix" values="0 0 0 0 0.541667 0 0 0 0 0.040625 0 0 0 0 0.142143 0 0 0 1 0"/>
<feBlend mode="normal" in2="shape" result="effect1_innerShadow_1094_6391"/>
</filter>
<filter id="filter22_i_1094_6391" x="58.3521" y="19.9395" width="10.7229" height="10.3149" filterUnits="userSpaceOnUse" color-interpolation-filters="sRGB">
<feFlood flood-opacity="0" result="BackgroundImageFix"/>
<feBlend mode="normal" in="SourceGraphic" in2="BackgroundImageFix" result="shape"/>
<feColorMatrix in="SourceAlpha" type="matrix" values="0 0 0 0 0 0 0 0 0 0 0 0 0 0 0 0 0 0 127 0" result="hardAlpha"/>
<feOffset dy="0.348088"/>
<feGaussianBlur stdDeviation="0.348088"/>
<feComposite in2="hardAlpha" operator="arithmetic" k2="-1" k3="1"/>
<feColorMatrix type="matrix" values="0 0 0 0 0.541667 0 0 0 0 0.040625 0 0 0 0 0.142143 0 0 0 1 0"/>
<feBlend mode="normal" in2="shape" result="effect1_innerShadow_1094_6391"/>
</filter>
<filter id="filter23_i_1094_6391" x="60.4893" y="21.4551" width="6.9873" height="7.24848" filterUnits="userSpaceOnUse" color-interpolation-filters="sRGB">
<feFlood flood-opacity="0" result="BackgroundImageFix"/>
<feBlend mode="normal" in="SourceGraphic" in2="BackgroundImageFix" result="shape"/>
<feColorMatrix in="SourceAlpha" type="matrix" values="0 0 0 0 0 0 0 0 0 0 0 0 0 0 0 0 0 0 127 0" result="hardAlpha"/>
<feOffset dy="0.348088"/>
<feGaussianBlur stdDeviation="0.348088"/>
<feComposite in2="hardAlpha" operator="arithmetic" k2="-1" k3="1"/>
<feColorMatrix type="matrix" values="0 0 0 0 0.541667 0 0 0 0 0.040625 0 0 0 0 0.142143 0 0 0 1 0"/>
<feBlend mode="normal" in2="shape" result="effect1_innerShadow_1094_6391"/>
</filter>
<filter id="filter24_f_1094_6391" x="-16.8799" y="6.08711" width="109.08" height="80.3746" filterUnits="userSpaceOnUse" color-interpolation-filters="sRGB">
<feFlood flood-opacity="0" result="BackgroundImageFix"/>
<feBlend mode="normal" in="SourceGraphic" in2="BackgroundImageFix" result="shape"/>
<feGaussianBlur stdDeviation="2.85" result="effect1_foregroundBlur_1094_6391"/>
</filter>
<filter id="filter25_f_1094_6391" x="12.4407" y="3.53008" width="111.037" height="95.2602" filterUnits="userSpaceOnUse" color-interpolation-filters="sRGB">
<feFlood flood-opacity="0" result="BackgroundImageFix"/>
<feBlend mode="normal" in="SourceGraphic" in2="BackgroundImageFix" result="shape"/>
<feGaussianBlur stdDeviation="4.275" result="effect1_foregroundBlur_1094_6391"/>
</filter>
<linearGradient id="paint0_linear_1094_6391" x1="70.4725" y1="30.7625" x2="5.73" y2="92.0375" gradientUnits="userSpaceOnUse">
<stop stop-color="#F3164E"/>
<stop offset="1" stop-color="#8B0119"/>
</linearGradient>
<clipPath id="clip0_1094_6391">
<rect x="21.5" y="21.5" width="57" height="57" rx="28.5" fill="white"/>
</clipPath>
</defs>
</svg>
