<svg width="105" height="96" viewBox="0 0 105 96" fill="none" xmlns="http://www.w3.org/2000/svg">
<g filter="url(#filter0_d_1094_6939)">
<g clip-path="url(#clip0_1094_6939)">
<rect x="10.3535" y="40.75" width="57" height="57" rx="28.5" transform="rotate(-34.68 10.3535 40.75)" fill="url(#paint0_linear_1094_6939)"/>
<g filter="url(#filter1_f_1094_6939)">
<path opacity="0.7" d="M-9.26065 63.1581L-5.88264 59.8921C-0.317821 54.5119 5.96771 49.931 12.7936 46.2811L15.8661 44.6382C20.6535 42.0783 25.062 38.8654 28.965 35.0919V35.0919C32.8679 31.3183 37.2764 28.1055 42.0638 25.5456L48.2088 22.2597C52.9963 19.6998 57.4047 16.4869 61.3077 12.7134V12.7134C65.2107 8.93985 69.6191 5.72702 74.4066 3.16708L83.624 -1.76167C86.3731 -3.23162 88.9044 -5.07647 91.1456 -7.24328V-7.24328C96.7104 -12.6236 102.996 -17.2044 109.822 -20.8543L112.894 -22.4972C117.682 -25.0572 122.09 -28.27 125.993 -32.0436C129.896 -35.8171 134.305 -39.0299 139.092 -41.5899L145.237 -44.8757C150.024 -47.4356 154.433 -50.6485 158.336 -54.422C162.239 -58.1956 166.647 -61.4084 171.435 -63.9683L184.796 -71.1127" stroke="#374F1A" stroke-width="0.76"/>
<path opacity="0.7" d="M-7.09854 66.2831L-3.72053 63.0171C1.84429 57.6369 8.12982 53.056 14.9557 49.4061L18.0282 47.7632C22.8156 45.2033 27.2241 41.9904 31.1271 38.2169V38.2169C35.03 34.4433 39.4385 31.2305 44.2259 28.6706L50.3709 25.3847C55.1584 22.8248 59.5668 19.6119 63.4698 15.8384V15.8384C67.3728 12.0649 71.7812 8.85202 76.5687 6.29208L85.7862 1.36333C88.5352 -0.10662 91.0666 -1.95147 93.3077 -4.11828V-4.11828C98.8725 -9.49856 105.158 -14.0794 111.984 -17.7293L115.056 -19.3722C119.844 -21.9322 124.252 -25.145 128.155 -28.9186C132.058 -32.6921 136.467 -35.9049 141.254 -38.4649L147.399 -41.7507C152.187 -44.3106 156.595 -47.5235 160.498 -51.297C164.401 -55.0706 168.809 -58.2834 173.597 -60.8433L186.958 -67.9877" stroke="#5D7D34" stroke-width="1.52"/>
<path opacity="0.7" d="M1.00961 78.0019L4.38762 74.7359C9.95244 69.3556 16.238 64.7748 23.0639 61.1249L26.1363 59.4819C30.9238 56.922 35.3322 53.7092 39.2352 49.9356V49.9356C43.1382 46.1621 47.5467 42.9492 52.3341 40.3893L58.4791 37.1035C63.2665 34.5435 67.675 31.3307 71.578 27.5571V27.5571C75.4809 23.7836 79.8894 20.5708 84.6768 18.0108L93.8943 13.0821C96.6433 11.6121 99.1747 9.76728 101.416 7.60047V7.60047C106.981 2.22019 113.266 -2.36063 120.092 -6.01056L123.165 -7.65348C127.952 -10.2134 132.36 -13.4263 136.263 -17.1998C140.166 -20.9733 144.575 -24.1862 149.362 -26.7461L155.507 -30.032C160.295 -32.5919 164.703 -35.8047 168.606 -39.5783C172.509 -43.3518 176.918 -46.5647 181.705 -49.1246L195.066 -56.269" stroke="#D7EFB8" stroke-width="1.52"/>
<path opacity="0.7" d="M-1.15274 74.8769L2.22527 71.6109C7.79009 66.2306 14.0756 61.6498 20.9015 57.9999L23.974 56.3569C28.7614 53.797 33.1699 50.5842 37.0729 46.8106V46.8106C40.9758 43.0371 45.3843 39.8242 50.1717 37.2643L56.3167 33.9785C61.1042 31.4185 65.5126 28.2057 69.4156 24.4321V24.4321C73.3186 20.6586 77.727 17.4458 82.5145 14.8858L91.732 9.95708C94.481 8.48713 97.0124 6.64228 99.2535 4.47547V4.47547C104.818 -0.904813 111.104 -5.48563 117.93 -9.13556L121.002 -10.7785C125.79 -13.3384 130.198 -16.5513 134.101 -20.3248C138.004 -24.0983 142.413 -27.3112 147.2 -29.8711L153.345 -33.157C158.132 -35.7169 162.541 -38.9297 166.444 -42.7033C170.347 -46.4768 174.755 -49.6897 179.543 -52.2496L192.904 -59.394" stroke="#62823A" stroke-width="2.28"/>
<path opacity="0.7" d="M14.5233 97.5312L17.9013 94.2652C23.4661 88.8849 29.7516 84.3041 36.5775 80.6542L39.65 79.0112C44.4375 76.4513 48.8459 73.2385 52.7489 69.4649V69.4649C56.6519 65.6914 61.0603 62.4785 65.8478 59.9186L71.9928 56.6328C76.7802 54.0728 81.1887 50.86 85.0916 47.0864V47.0864C88.9946 43.3129 93.4031 40.1001 98.1905 37.5401L107.408 32.6114C110.157 31.1414 112.688 29.2966 114.93 27.1298V27.1298C120.494 21.7495 126.78 17.1687 133.606 13.5187L136.678 11.8758C141.466 9.31588 145.874 6.10304 149.777 2.32949C153.68 -1.44405 158.089 -4.65689 162.876 -7.21683L169.021 -10.5027C173.808 -13.0626 178.217 -16.2754 182.12 -20.049C186.023 -23.8225 190.431 -27.0354 195.219 -29.5953L208.58 -36.7397" stroke="#62823A" stroke-width="0.76"/>
<path opacity="0.7" d="M17.2259 101.437L20.6039 98.1714C26.1688 92.7912 32.4543 88.2103 39.2802 84.5604L42.3527 82.9175C47.1401 80.3576 51.5486 77.1447 55.4515 73.3712V73.3712C59.3545 69.5976 63.763 66.3848 68.5504 63.8249L74.6954 60.539C79.4828 57.9791 83.8913 54.7662 87.7943 50.9927V50.9927C91.6972 47.2191 96.1057 44.0063 100.893 41.4464L110.111 36.5176C112.86 35.0477 115.391 33.2028 117.632 31.036V31.036C123.197 25.6557 129.482 21.0749 136.308 17.425L139.381 15.7821C144.168 13.2221 148.577 10.0093 152.48 6.23574C156.383 2.4622 160.791 -0.75064 165.579 -3.31058L171.724 -6.5964C176.511 -9.15634 180.92 -12.3692 184.822 -16.1427C188.725 -19.9163 193.134 -23.1291 197.921 -25.6891L211.282 -32.8334" stroke="#789E47" stroke-width="1.52"/>
<path opacity="0.7" d="M12.3612 94.4081L15.7392 91.1421C21.304 85.7619 27.5895 81.181 34.4154 77.5311L37.4879 75.8882C42.2754 73.3283 46.6838 70.1154 50.5868 66.3419V66.3419C54.4898 62.5683 58.8982 59.3555 63.6857 56.7956L69.8307 53.5097C74.6181 50.9498 79.0265 47.7369 82.9295 43.9634V43.9634C86.8325 40.1899 91.241 36.977 96.0284 34.4171L105.246 29.4883C107.995 28.0184 110.526 26.1735 112.767 24.0067V24.0067C118.332 18.6264 124.618 14.0456 131.444 10.3957L134.516 8.75277C139.304 6.19284 143.712 2.98 147.615 -0.793553C151.518 -4.5671 155.926 -7.77994 160.714 -10.3399L166.859 -13.6257C171.646 -16.1856 176.055 -19.3985 179.958 -23.172C183.861 -26.9456 188.269 -30.1584 193.057 -32.7183L206.418 -39.8627" stroke="#D0F0A6" stroke-width="1.52"/>
</g>
<g filter="url(#filter2_f_1094_6939)">
<path d="M25.0109 17.8237C19.9821 51.9935 55.423 77.7328 86.3607 62.3796L96.2801 57.457L10.3847 103.97L25.0109 17.8237Z" fill="url(#paint1_linear_1094_6939)" fill-opacity="0.4"/>
</g>
<g opacity="0.2" filter="url(#filter3_f_1094_6939)">
<path d="M75.8195 77.3136C82.9504 43.52 49.1679 15.6396 17.3405 29.0516L7.13587 33.3518L95.7415 -7.76445L75.8195 77.3136Z" fill="#F3FFE2"/>
</g>
</g>
</g>
<g filter="url(#filter4_f_1094_6939)">
<path d="M73.1168 31.1638C89.3829 21.1527 101.187 15.4269 102.501 17.3264C104.406 20.0788 83.5631 37.7997 55.9478 56.9071C28.3325 76.0146 4.40211 89.273 2.49769 86.5206C1.18342 84.6212 10.7026 75.5929 25.8049 63.8997" stroke="url(#paint2_linear_1094_6939)" stroke-width="2.47017"/>
</g>
<g opacity="0.8" filter="url(#filter5_f_1094_6939)">
<path d="M74.5424 33.0539C89.2234 23.616 98.1551 18.6525 98.9161 19.7523C100.019 21.346 80.4389 36.8042 55.1832 54.2791C29.9274 71.7539 8.55964 84.6282 7.45693 83.0344C6.69593 81.9346 13.0651 76.3112 27.0722 65.8993" stroke="url(#paint3_linear_1094_6939)" stroke-width="0.950066"/>
</g>
<g opacity="0.8" filter="url(#filter6_f_1094_6939)">
<path d="M75.162 34.203C88.3823 25.4914 93.5554 22.3191 94.0158 22.9845C94.683 23.9488 76.6451 37.5854 53.7271 53.4428C30.809 69.3002 11.6894 81.3734 11.0222 80.4092C10.5618 79.7437 14.998 76.2672 27.8105 66.9663" stroke="url(#paint4_linear_1094_6939)" stroke-width="1.14008"/>
</g>
<defs>
<filter id="filter0_d_1094_6939" x="2.75352" y="0.71836" width="94.5062" height="94.5047" filterUnits="userSpaceOnUse" color-interpolation-filters="sRGB">
<feFlood flood-opacity="0" result="BackgroundImageFix"/>
<feColorMatrix in="SourceAlpha" type="matrix" values="0 0 0 0 0 0 0 0 0 0 0 0 0 0 0 0 0 0 127 0" result="hardAlpha"/>
<feOffset/>
<feGaussianBlur stdDeviation="3.8"/>
<feComposite in2="hardAlpha" operator="out"/>
<feColorMatrix type="matrix" values="0 0 0 0 0.201042 0 0 0 0 0.304167 0 0 0 0 0.0544965 0 0 0 0.6 0"/>
<feBlend mode="normal" in2="BackgroundImageFix" result="effect1_dropShadow_1094_6939"/>
<feBlend mode="normal" in="SourceGraphic" in2="effect1_dropShadow_1094_6939" result="shape"/>
</filter>
<filter id="filter1_f_1094_6939" x="-11.8049" y="-73.7273" width="225.726" height="177.992" filterUnits="userSpaceOnUse" color-interpolation-filters="sRGB">
<feFlood flood-opacity="0" result="BackgroundImageFix"/>
<feBlend mode="normal" in="SourceGraphic" in2="BackgroundImageFix" result="shape"/>
<feGaussianBlur stdDeviation="1.14" result="effect1_foregroundBlur_1094_6939"/>
</filter>
<filter id="filter2_f_1094_6939" x="6.58477" y="14.0242" width="93.4953" height="93.7465" filterUnits="userSpaceOnUse" color-interpolation-filters="sRGB">
<feFlood flood-opacity="0" result="BackgroundImageFix"/>
<feBlend mode="normal" in="SourceGraphic" in2="BackgroundImageFix" result="shape"/>
<feGaussianBlur stdDeviation="1.9" result="effect1_foregroundBlur_1094_6939"/>
</filter>
<filter id="filter3_f_1094_6939" x="2.38599" y="-12.5137" width="98.1055" height="94.5781" filterUnits="userSpaceOnUse" color-interpolation-filters="sRGB">
<feFlood flood-opacity="0" result="BackgroundImageFix"/>
<feBlend mode="normal" in="SourceGraphic" in2="BackgroundImageFix" result="shape"/>
<feGaussianBlur stdDeviation="2.375" result="effect1_foregroundBlur_1094_6939"/>
</filter>
<filter id="filter4_f_1094_6939" x="0.666813" y="15.2554" width="103.665" height="73.3368" filterUnits="userSpaceOnUse" color-interpolation-filters="sRGB">
<feFlood flood-opacity="0" result="BackgroundImageFix"/>
<feBlend mode="normal" in="SourceGraphic" in2="BackgroundImageFix" result="shape"/>
<feGaussianBlur stdDeviation="0.237516" result="effect1_foregroundBlur_1094_6939"/>
</filter>
<filter id="filter5_f_1094_6939" x="5.97059" y="18.1769" width="94.4153" height="66.4158" filterUnits="userSpaceOnUse" color-interpolation-filters="sRGB">
<feFlood flood-opacity="0" result="BackgroundImageFix"/>
<feBlend mode="normal" in="SourceGraphic" in2="BackgroundImageFix" result="shape"/>
<feGaussianBlur stdDeviation="0.475033" result="effect1_foregroundBlur_1094_6939"/>
</filter>
<filter id="filter6_f_1094_6939" x="9.46888" y="21.3781" width="86.0849" height="60.6052" filterUnits="userSpaceOnUse" color-interpolation-filters="sRGB">
<feFlood flood-opacity="0" result="BackgroundImageFix"/>
<feBlend mode="normal" in="SourceGraphic" in2="BackgroundImageFix" result="shape"/>
<feGaussianBlur stdDeviation="0.475033" result="effect1_foregroundBlur_1094_6939"/>
</filter>
<linearGradient id="paint0_linear_1094_6939" x1="62.8885" y1="55.5225" x2="10.3535" y2="74.5225" gradientUnits="userSpaceOnUse">
<stop stop-color="#A7CF75"/>
<stop offset="1" stop-color="#627B34"/>
</linearGradient>
<linearGradient id="paint1_linear_1094_6939" x1="28.576" y1="77.3536" x2="47.8781" y2="56.5346" gradientUnits="userSpaceOnUse">
<stop/>
<stop offset="1" stop-color="#9DC267"/>
</linearGradient>
<linearGradient id="paint2_linear_1094_6939" x1="49.4609" y1="47.5318" x2="55.9478" y2="56.9071" gradientUnits="userSpaceOnUse">
<stop stop-color="#516932"/>
<stop offset="1" stop-color="#84AB51"/>
</linearGradient>
<linearGradient id="paint3_linear_1094_6939" x1="51.5194" y1="48.9839" x2="55.1832" y2="54.2791" gradientUnits="userSpaceOnUse">
<stop stop-color="#5D7A37"/>
<stop offset="1" stop-color="#F3FFE3"/>
</linearGradient>
<linearGradient id="paint4_linear_1094_6939" x1="51.6643" y1="50.4615" x2="53.7271" y2="53.4428" gradientUnits="userSpaceOnUse">
<stop stop-color="#2B361D"/>
<stop offset="1" stop-color="#64843A"/>
</linearGradient>
<clipPath id="clip0_1094_6939">
<rect x="10.3535" y="40.75" width="57" height="57" rx="28.5" transform="rotate(-34.68 10.3535 40.75)" fill="white"/>
</clipPath>
</defs>
</svg>
