<svg width="74" height="74" viewBox="0 0 74 74" fill="none" xmlns="http://www.w3.org/2000/svg">
<g filter="url(#filter0_d_1094_6588)">
<g clip-path="url(#clip0_1094_6588)">
<rect x="8.5" y="8.5" width="57" height="57" rx="28.5" fill="url(#paint0_linear_1094_6588)"/>
<g opacity="0.2">
<path d="M36.1478 46.1957C36.1478 45.671 35.39 45.0082 34.8653 45.0082C34.3406 45.0082 33.4878 45.006 33.4878 45.5307C33.4878 46.0554 34.3406 46.9082 34.8653 46.9082C35.39 46.9082 36.1478 46.7204 36.1478 46.1957Z" fill="#FFB802"/>
<path d="M49.1153 31.5648C49.1153 31.0402 48.3575 30.3773 47.8328 30.3773C47.3082 30.3773 46.4553 30.3752 46.4553 30.8998C46.4553 31.4245 47.3082 32.2773 47.8328 32.2773C48.3575 32.2773 49.1153 32.0895 49.1153 31.5648Z" fill="#FFB802"/>
<path d="M56.6204 54.0805C56.6204 53.5558 55.8626 52.893 55.3379 52.893C54.8133 52.893 53.9604 52.8908 53.9604 53.4155C53.9604 53.9401 54.8133 54.793 55.3379 54.793C55.8626 54.793 56.6204 54.6051 56.6204 54.0805Z" fill="#FFB802"/>
<path d="M18.5812 14.6999C18.5812 15.2246 19.339 15.8874 19.8637 15.8874C20.3884 15.8874 21.2412 15.8896 21.2412 15.3649C21.2412 14.8403 20.1509 14.9375 19.6262 14.9375C19.1015 14.9375 18.5812 14.1753 18.5812 14.6999Z" fill="#FFB802"/>
<path d="M53.326 15.2854C53.326 14.7608 52.5682 14.0979 52.0435 14.0979C51.5188 14.0979 50.666 14.0958 50.666 14.6204C50.666 15.1451 51.8988 16.1348 52.4235 16.1348C52.9482 16.1348 53.326 15.8101 53.326 15.2854Z" fill="#FFB802"/>
<path d="M16.6254 28.1449C16.6254 27.6203 17.3832 26.9574 17.9079 26.9574C18.4326 26.9574 19.2854 26.9553 19.2854 27.4799C19.2854 28.0046 18.4326 28.8574 17.9079 28.8574C17.3832 28.8574 16.6254 28.6696 16.6254 28.1449Z" fill="#FFB802"/>
<path d="M35.8155 47.7152C35.8155 47.1906 35.0577 47.2877 34.533 47.2877C34.0083 47.2877 33.1555 46.5256 33.1555 47.0502C33.1555 47.5749 34.0083 48.4277 34.533 48.4277C35.0577 48.4277 35.8155 48.2399 35.8155 47.7152Z" fill="#D66C14"/>
<path d="M17.1004 52.6077C17.1004 52.0831 17.6251 51.4677 17.1004 51.4677C16.5757 51.4677 15.2954 51.2756 15.2954 51.8002C15.2954 52.3249 16.1482 53.1777 16.6729 53.1777C17.1976 53.1777 17.1004 53.1324 17.1004 52.6077Z" fill="#D66C14"/>
</g>
<g opacity="0.2">
<path d="M45.8404 46.4239C45.4881 46.0351 45.6047 45.0351 45.9935 44.6828C46.3823 44.3306 47.0129 43.7563 47.3652 44.1452C47.7174 44.534 47.658 45.7386 47.2692 46.0909C46.8804 46.4432 46.1926 46.8128 45.8404 46.4239Z" fill="#FFB802"/>
<path d="M26.4078 44.2892C26.0555 43.9004 26.1721 42.9003 26.5609 42.5481C26.9497 42.1958 27.5803 41.6216 27.9326 42.0104C28.2848 42.3992 28.2254 43.6038 27.8366 43.9561C27.4478 44.3084 26.76 44.678 26.4078 44.2892Z" fill="#FFB802"/>
<path d="M35.9627 66.0138C35.6104 65.625 35.727 64.6249 36.1158 64.2727C36.5047 63.9204 37.1352 63.3462 37.4875 63.735C37.8398 64.1238 37.7803 65.3285 37.3915 65.6807C37.0027 66.033 36.315 66.4026 35.9627 66.0138Z" fill="#FFB802"/>
<path d="M37.713 11.2901C38.0652 11.6789 37.9486 12.6789 37.5598 13.0312C37.171 13.3835 36.5404 13.9577 36.1882 13.5689C35.8359 13.18 36.7092 12.52 37.098 12.1677C37.4868 11.8155 37.3607 10.9013 37.713 11.2901Z" fill="#FFB802"/>
<path d="M12.3567 35.0511C12.0044 34.6622 12.121 33.6622 12.5098 33.3099C12.8986 32.9577 13.5292 32.3835 13.8815 32.7723C14.2337 33.1611 13.9846 34.7223 13.5957 35.0745C13.2069 35.4268 12.7089 35.4399 12.3567 35.0511Z" fill="#FFB802"/>
<path d="M48.1894 19.9399C47.8372 19.5511 46.8305 19.5687 46.4417 19.921C46.0529 20.2732 45.4194 20.8442 45.7717 21.2331C46.1239 21.6219 47.3286 21.6813 47.7174 21.329C48.1062 20.9768 48.5417 20.3288 48.1894 19.9399Z" fill="#FFB802"/>
<path d="M47.1075 47.3282C46.7552 46.9394 47.382 46.5026 47.7709 46.1503C48.1597 45.7981 48.28 44.6606 48.6323 45.0495C48.9845 45.4383 48.9251 46.6429 48.5363 46.9952C48.1475 47.3475 47.4597 47.7171 47.1075 47.3282Z" fill="#D66C14"/>
<path d="M64.2618 38.3871C63.9095 37.9983 63.1076 37.8946 63.4964 37.5423C63.8852 37.19 64.705 36.188 65.0573 36.5768C65.4096 36.9656 65.3502 38.1703 64.9613 38.5225C64.5725 38.8748 64.6141 38.776 64.2618 38.3871Z" fill="#D66C14"/>
</g>
<g filter="url(#filter1_f_1094_6588)">
<path opacity="0.8" d="M-2.90015 39.7555L7.77241 35.2657C14.492 32.4389 22.0704 32.456 28.7772 35.3131V35.3131C35.446 38.1541 42.9783 38.1877 49.6721 35.4065L50.1091 35.2249C56.8566 32.4214 64.4856 32.4548 71.2207 35.2881V35.2881C77.9831 38.133 85.6662 38.1254 92.4157 35.2501V35.2501C99.1831 32.3671 106.85 32.36 113.617 35.243V35.243C120.385 38.1259 128.035 38.1259 134.802 35.243V35.243C141.57 32.36 149.22 32.36 155.987 35.243L166.58 39.7555" stroke="#FFB802" stroke-width="3.04"/>
<path opacity="0.5" d="M-11.2087 49.0445L-0.536187 44.5548C6.18344 41.7279 13.7618 41.745 20.4686 44.6022V44.6022C27.1374 47.4431 34.6697 47.4768 41.3636 44.6956L41.8005 44.514C48.548 41.7105 56.177 41.7439 62.9121 44.5772V44.5772C69.6745 47.4221 77.3576 47.4145 84.1071 44.5391V44.5391C90.8745 41.6561 98.5413 41.6491 105.309 44.532V44.532C112.076 47.415 119.726 47.415 126.494 44.532V44.532C133.261 41.6491 140.911 41.6491 147.679 44.532L158.271 49.0445" stroke="#FFB802" stroke-width="2.28"/>
<path d="M-5.75 43.1754L4.92255 38.6856C11.6422 35.8588 19.2206 35.8759 25.9274 38.733V38.733C32.5961 41.574 40.1284 41.6077 46.8223 38.8264L47.2592 38.6449C54.0068 35.8413 61.6358 35.8747 68.3708 38.7081V38.7081C75.1333 41.5529 82.8163 41.5454 89.5659 38.67V38.67C96.3333 35.787 104 35.7799 110.767 38.6629V38.6629C117.535 41.5459 125.185 41.5459 131.952 38.6629V38.6629C138.72 35.7799 146.37 35.7799 153.138 38.6629L163.73 43.1754" stroke="#FFB802" stroke-width="1.52"/>
<path d="M-8.41016 45.0758L2.2624 40.586C8.98202 37.7592 16.5604 37.7763 23.2672 40.6334V40.6334C29.936 43.4744 37.4682 43.508 44.1621 40.7268L44.5991 40.5453C51.3466 37.7417 58.9756 37.7751 65.7107 40.6085V40.6085C72.4731 43.4533 80.1561 43.4457 86.9057 40.5704V40.5704C93.6731 37.6874 101.34 37.6803 108.107 40.5633V40.5633C114.875 43.4463 122.525 43.4463 129.292 40.5633V40.5633C136.06 37.6803 143.71 37.6803 150.477 40.5633L161.07 45.0758" stroke="#FFB802" stroke-width="0.76"/>
<path d="M-7.60107 45.9742L3.07148 41.4844C9.7911 38.6576 17.3695 38.6747 24.0763 41.5319V41.5319C30.7451 44.3728 38.2773 44.4065 44.9712 41.6252L45.4082 41.4437C52.1557 38.6402 59.7847 38.6736 66.5197 41.5069V41.5069C73.2822 44.3518 80.9652 44.3442 87.7148 41.4688V41.4688C94.4822 38.5858 102.149 38.5787 108.916 41.4617V41.4617C115.684 44.3447 123.334 44.3447 130.101 41.4617V41.4617C136.869 38.5787 144.519 38.5787 151.286 41.4617L161.879 45.9742" stroke="#FFB802" stroke-width="0.38"/>
<path d="M-9.47949 47.0543L1.19306 42.5645C7.91268 39.7377 15.4911 39.7548 22.1979 42.612V42.612C28.8666 45.4529 36.3989 45.4866 43.0928 42.7053L43.5297 42.5238C50.2773 39.7202 57.9063 39.7536 64.6413 42.587V42.587C71.4038 45.4318 79.0868 45.4243 85.8364 42.5489V42.5489C92.6038 39.6659 100.271 39.6588 107.038 42.5418V42.5418C113.805 45.4248 121.456 45.4248 128.223 42.5418V42.5418C134.99 39.6588 142.641 39.6588 149.408 42.5418L160.001 47.0543" stroke="#FFB802" stroke-width="0.38"/>
<path opacity="0.7" d="M-3.18506 58.4703L7.99448 53.9129C14.8392 51.1225 22.5074 51.1395 29.3398 53.96L29.668 54.0955C36.4615 56.9 44.0829 56.9333 50.9007 54.1883L51.8325 53.8131C58.6103 51.0842 66.1842 51.1006 72.9502 53.8588L73.5801 54.1156C80.4249 56.9059 88.0931 56.889 94.9254 54.0684L95.3942 53.8749C102.266 51.038 109.982 51.038 116.854 53.8749L117.256 54.0407C124.128 56.8777 131.844 56.8777 138.716 54.0407L139.118 53.8749C145.99 51.038 153.706 51.038 160.578 53.8749L171.71 58.4703" stroke="#FFB802" stroke-width="1.9"/>
<path opacity="0.3" d="M-5.29175 60.5484L5.88779 55.991C12.7326 53.2007 20.4007 53.2176 27.2331 56.0381L27.5613 56.1736C34.3548 58.9781 41.9762 59.0114 48.794 56.2664L49.7258 55.8912C56.5036 53.1623 64.0775 53.1787 70.8435 55.9369L71.4734 56.1937C78.3182 58.984 85.9864 58.9671 92.8187 56.1466L93.2875 55.953C100.16 53.1161 107.876 53.1161 114.748 55.953L115.149 56.1188C122.022 58.9558 129.737 58.9558 136.61 56.1188L137.011 55.953C143.883 53.1161 151.599 53.1161 158.471 55.953L169.603 60.5484" stroke="#FFB802" stroke-width="0.76"/>
<path d="M-5.70093 61.0973L5.47861 56.5398C12.3234 53.7495 19.9916 53.7664 26.8239 56.587L27.1521 56.7225C33.9456 59.5269 41.5671 59.5602 48.3848 56.8152L49.3166 56.4401C56.0944 53.7111 63.6683 53.7275 70.4343 56.4857L71.0642 56.7425C77.909 59.5328 85.5772 59.5159 92.4096 56.6954L92.8783 56.5019C99.7505 53.6649 107.466 53.6649 114.339 56.5019L114.74 56.6677C121.612 59.5046 129.328 59.5046 136.2 56.6677L136.602 56.5019C143.474 53.6649 151.19 53.6649 158.062 56.5019L169.194 61.0973" stroke="#FFB802" stroke-width="0.19"/>
<path d="M-8.77441 62.4879L2.40513 57.9305C9.24989 55.1401 16.9181 55.1571 23.7504 57.9776L24.0787 58.1131C30.8721 60.9176 38.4936 60.9509 45.3113 58.2059L46.2431 57.8307C53.0209 55.1018 60.5948 55.1181 67.3608 57.8764L67.9908 58.1331C74.8355 60.9235 82.5037 60.9065 89.3361 58.086L89.8048 57.8925C96.677 55.0555 104.393 55.0555 111.265 57.8925L111.667 58.0583C118.539 60.8952 126.255 60.8952 133.127 58.0583L133.529 57.8925C140.401 55.0555 148.117 55.0555 154.989 57.8925L166.121 62.4879" stroke="#FFB802" stroke-width="0.19"/>
<path d="M-5.50684 63.8121L5.67271 59.2547C12.5175 56.4643 20.1857 56.4813 27.018 59.3018L27.3462 59.4373C34.1397 62.2418 41.7612 62.2751 48.5789 59.5301L49.5107 59.1549C56.2885 56.426 63.8624 56.4424 70.6284 59.2006L71.2583 59.4574C78.1031 62.2477 85.7713 62.2308 92.6037 59.4102L93.0724 59.2167C99.9446 56.3798 107.661 56.3798 114.533 59.2167L114.934 59.3825C121.806 62.2195 129.522 62.2195 136.395 59.3825L136.796 59.2167C143.668 56.3798 151.384 56.3798 158.256 59.2167L169.388 63.8121" stroke="#FFB802" stroke-width="0.19"/>
<path opacity="0.4" d="M-6.67383 64.607L4.50571 60.0496C11.3505 57.2593 19.0187 57.2762 25.851 60.0967L26.1792 60.2322C32.9727 63.0367 40.5942 63.07 47.4119 60.325L48.3437 59.9498C55.1215 57.2209 62.6954 57.2373 69.4614 59.9955L70.0913 60.2523C76.9361 63.0426 84.6043 63.0257 91.4367 60.2051L91.9054 60.0116C98.7776 57.1747 106.494 57.1747 113.366 60.0116L113.767 60.1774C120.639 63.0144 128.355 63.0144 135.228 60.1774L135.629 60.0116C142.501 57.1747 150.217 57.1747 157.089 60.0116L168.221 64.607" stroke="#FFB802" stroke-width="0.76"/>
<path d="M-7.09692 67.6168L4.08262 63.0594C10.9274 60.269 18.5956 60.286 25.4279 63.1065L25.7561 63.242C32.5496 66.0465 40.1711 66.0798 46.9888 63.3348L47.9206 62.9596C54.6984 60.2307 62.2723 60.247 69.0383 63.0053L69.6682 63.262C76.513 66.0524 84.1812 66.0354 91.0136 63.2149L91.4823 63.0214C98.3545 60.1844 106.07 60.1844 112.943 63.0214L113.344 63.1872C120.216 66.0242 127.932 66.0241 134.804 63.1872L135.206 63.0214C142.078 60.1844 149.794 60.1844 156.666 63.0214L167.798 67.6168" stroke="#FFB802" stroke-width="0.38"/>
<path d="M-5.37012 37.5699L5.30244 33.0802C12.0221 30.2533 19.6005 30.2704 26.3072 33.1276V33.1276C32.976 35.9685 40.5083 36.0022 47.2022 33.2209L47.6391 33.0394C54.3866 30.2359 62.0156 30.2693 68.7507 33.1026V33.1026C75.5132 35.9475 83.1962 35.9399 89.9457 33.0645V33.0645C96.7132 30.1815 104.38 30.1744 111.147 33.0574V33.0574C117.915 35.9404 125.565 35.9404 132.332 33.0574V33.0574C139.1 30.1744 146.75 30.1744 153.517 33.0574L164.11 37.5699" stroke="#FFB802" stroke-width="0.76"/>
<path d="M-7.11938 36.3648L3.55317 31.8751C10.2728 29.0482 17.8512 29.0653 24.558 31.9225V31.9225C31.2268 34.7635 38.759 34.7971 45.4529 32.0159L45.8898 31.8343C52.6374 29.0308 60.2664 29.0642 67.0014 31.8975V31.8975C73.7639 34.7424 81.4469 34.7348 88.1965 31.8594V31.8594C94.9639 28.9765 102.631 28.9694 109.398 31.8523V31.8523C116.166 34.7353 123.816 34.7353 130.583 31.8523V31.8523C137.351 28.9694 145.001 28.9694 151.768 31.8523L162.361 36.3648" stroke="#FFB802" stroke-width="0.38"/>
<path opacity="0.5" d="M-13.1602 21.8004L-1.98061 17.243C4.86415 14.4526 12.5323 14.4696 19.3647 17.2901L19.6929 17.4256C26.4864 20.2301 34.1078 20.2634 40.9256 17.5184L41.8574 17.1432C48.6352 14.4143 56.2091 14.4306 62.9751 17.1889L63.605 17.4456C70.4498 20.236 78.118 20.219 84.9503 17.3985L85.4191 17.205C92.2912 14.368 100.007 14.368 106.879 17.205L107.281 17.3708C114.153 20.2077 121.869 20.2077 128.741 17.3708L129.143 17.205C136.015 14.368 143.731 14.368 150.603 17.205L161.735 21.8004" stroke="#FFB802" stroke-width="0.76"/>
<path d="M-10.3557 20.277L0.823829 15.7195C7.66859 12.9292 15.3368 12.9461 22.1692 15.7667L22.4974 15.9021C29.2908 18.7066 36.9123 18.7399 43.73 15.9949L44.6618 15.6198C51.4396 12.8908 59.0136 12.9072 65.7795 15.6654L66.4095 15.9222C73.2542 18.7125 80.9224 18.6956 87.7548 15.8751L88.2236 15.6815C95.0957 12.8446 102.812 12.8446 109.684 15.6815L110.085 15.8474C116.958 18.6843 124.674 18.6843 131.546 15.8474L131.947 15.6815C138.819 12.8446 146.535 12.8446 153.408 15.6815L164.539 20.277" stroke="#FFB802" stroke-width="0.38"/>
<path opacity="0.7" d="M-9.43018 13.691L1.74937 9.13358C8.59413 6.34325 16.2623 6.36018 23.0947 9.18071L23.4229 9.3162C30.2164 12.1207 37.8378 12.154 44.6555 9.40899L45.5873 9.03383C52.3652 6.30489 59.9391 6.32126 66.7051 9.07948L67.335 9.33627C74.1798 12.1266 81.8479 12.1097 88.6803 9.28913L89.1491 9.09561C96.0212 6.25866 103.737 6.25866 110.609 9.09561L111.011 9.26142C117.883 12.0984 125.599 12.0984 132.471 9.26142L132.873 9.09561C139.745 6.25866 147.461 6.25866 154.333 9.09561L165.465 13.691" stroke="#FFB802" stroke-width="0.38"/>
<path opacity="0.8" d="M-13.5566 24.6227L-2.3771 20.0652C4.46766 17.2749 12.1359 17.2918 18.9682 20.1124L19.2964 20.2478C26.0899 23.0523 33.7114 23.0856 40.5291 20.3406L41.4609 19.9655C48.2387 17.2365 55.8126 17.2529 62.5786 20.0111L63.2085 20.2679C70.0533 23.0582 77.7215 23.0413 84.5539 20.2208L85.0226 20.0273C91.8948 17.1903 99.6107 17.1903 106.483 20.0273L106.884 20.1931C113.757 23.03 121.473 23.03 128.345 20.1931L128.746 20.0273C135.619 17.1903 143.334 17.1903 150.207 20.0273L161.338 24.6227" stroke="#FFB802" stroke-width="0.76"/>
<path opacity="0.7" d="M-13.2639 29.3648L-2.08437 24.8074C4.76039 22.0171 12.4286 22.034 19.2609 24.8545L19.5892 24.99C26.3826 27.7945 34.0041 27.8278 40.8218 25.0828L41.7536 24.7077C48.5314 21.9787 56.1053 21.9951 62.8713 24.7533L63.5013 25.0101C70.346 27.8004 78.0142 27.7835 84.8466 24.963L85.3153 24.7694C92.1875 21.9325 99.9034 21.9325 106.776 24.7694L107.177 24.9352C114.049 27.7722 121.765 27.7722 128.637 24.9352L129.039 24.7694C135.911 21.9325 143.627 21.9325 150.499 24.7694L161.631 29.3648" stroke="#FFB802" stroke-width="0.76"/>
<path d="M-15.9958 23.2691L-4.81631 18.7117C2.02845 15.9214 9.69664 15.9383 16.529 18.7588L16.8572 18.8943C23.6507 21.6988 31.2721 21.7321 38.0899 18.9871L39.0217 18.612C45.7995 15.883 53.3734 15.8994 60.1394 18.6576L60.7693 18.9144C67.6141 21.7047 75.2823 21.6878 82.1146 18.8673L82.5834 18.6737C89.4556 15.8368 97.1715 15.8368 104.044 18.6737L104.445 18.8395C111.317 21.6765 119.033 21.6765 125.906 18.8395L126.307 18.6737C133.179 15.8368 140.895 15.8368 147.767 18.6737L158.899 23.2691" stroke="#FFB802" stroke-width="0.38"/>
</g>
<g filter="url(#filter2_f_1094_6588)">
<path d="M33.5979 -2.01215C10.0201 23.2257 24.5193 64.5579 58.6965 69.5356L69.6546 71.1316L-27.4466 60.5077L33.5979 -2.01215Z" fill="url(#paint1_linear_1094_6588)" fill-opacity="0.4"/>
</g>
<g opacity="0.2" filter="url(#filter3_f_1094_6588)">
<path d="M41.5307 75.818C66.6231 52.0855 54.706 9.93625 20.9017 2.85592L10.0632 0.5858L106.322 17.1901L41.5307 75.818Z" fill="#FFEAB3"/>
</g>
</g>
</g>
<defs>
<filter id="filter0_d_1094_6588" x="0.9" y="0.9" width="72.2" height="72.2" filterUnits="userSpaceOnUse" color-interpolation-filters="sRGB">
<feFlood flood-opacity="0" result="BackgroundImageFix"/>
<feColorMatrix in="SourceAlpha" type="matrix" values="0 0 0 0 0 0 0 0 0 0 0 0 0 0 0 0 0 0 127 0" result="hardAlpha"/>
<feOffset/>
<feGaussianBlur stdDeviation="3.8"/>
<feComposite in2="hardAlpha" operator="out"/>
<feColorMatrix type="matrix" values="0 0 0 0 0.916667 0 0 0 0 0.420489 0 0 0 0 0.00763887 0 0 0 1 0"/>
<feBlend mode="normal" in2="BackgroundImageFix" result="effect1_dropShadow_1094_6588"/>
<feBlend mode="normal" in="SourceGraphic" in2="effect1_dropShadow_1094_6588" result="shape"/>
</filter>
<filter id="filter1_f_1094_6588" x="-16.6376" y="6.20734" width="189.28" height="62.1556" filterUnits="userSpaceOnUse" color-interpolation-filters="sRGB">
<feFlood flood-opacity="0" result="BackgroundImageFix"/>
<feBlend mode="normal" in="SourceGraphic" in2="BackgroundImageFix" result="shape"/>
<feGaussianBlur stdDeviation="0.285" result="effect1_foregroundBlur_1094_6588"/>
</filter>
<filter id="filter2_f_1094_6588" x="-31.2465" y="-5.81172" width="104.701" height="80.7426" filterUnits="userSpaceOnUse" color-interpolation-filters="sRGB">
<feFlood flood-opacity="0" result="BackgroundImageFix"/>
<feBlend mode="normal" in="SourceGraphic" in2="BackgroundImageFix" result="shape"/>
<feGaussianBlur stdDeviation="1.9" result="effect1_foregroundBlur_1094_6588"/>
</filter>
<filter id="filter3_f_1094_6588" x="5.31323" y="-4.16406" width="105.759" height="84.7324" filterUnits="userSpaceOnUse" color-interpolation-filters="sRGB">
<feFlood flood-opacity="0" result="BackgroundImageFix"/>
<feBlend mode="normal" in="SourceGraphic" in2="BackgroundImageFix" result="shape"/>
<feGaussianBlur stdDeviation="2.375" result="effect1_foregroundBlur_1094_6588"/>
</filter>
<linearGradient id="paint0_linear_1094_6588" x1="23.1241" y1="38.1197" x2="71.6221" y2="33.9993" gradientUnits="userSpaceOnUse">
<stop stop-color="#F5610F"/>
<stop offset="1" stop-color="#FF9104"/>
</linearGradient>
<linearGradient id="paint1_linear_1094_6588" x1="12.5643" y1="47.0448" x2="30.3764" y2="42.8327" gradientUnits="userSpaceOnUse">
<stop stop-color="#772B06"/>
<stop offset="1" stop-color="#FF9A06"/>
</linearGradient>
<clipPath id="clip0_1094_6588">
<rect x="8.5" y="8.5" width="57" height="57" rx="28.5" fill="white"/>
</clipPath>
</defs>
</svg>
